<svg xmlns="http://www.w3.org/2000/svg" viewBox="0 0 67.62 81.41"><defs><style>.cls-1{fill:#ffc000;}.cls-2{fill:#ffe657;}.cls-3{fill:#e90;}.cls-4{fill:#d89c46;}.cls-5{fill:#e0ccb3;}.cls-6{fill:#ffd270;}</style></defs><g id="Layer_2" data-name="Layer 2"><g id="Layer"><path class="cls-1" d="M42,59.93v-.08s0,.07,0,.12a.39.39,0,0,0,0,.15A1.21,1.21,0,0,1,42,59.93Zm5.49-.84-1.36-.69-1-.49-.77.4-2.28,1.21a.43.43,0,0,0-.05.13.7.7,0,0,1,0-.12L21.2,70.62v.74l17.45,10,24-13.89v-.75ZM40.7,66.75a3.11,3.11,0,0,1,2.8.15.9.9,0,0,1,.39.57,1.2,1.2,0,0,1-.76.76,3.09,3.09,0,0,1-2.79-.15.8.8,0,0,1-.39-.59A1.18,1.18,0,0,1,40.7,66.75Zm3.86-3.11a2.63,2.63,0,0,1,2.36.13.73.73,0,0,1,.33.47h0a1,1,0,0,1-.64.64,2.64,2.64,0,0,1-2.35-.13.79.79,0,0,1-.34-.48A1,1,0,0,1,44.56,63.64Zm5.69-1.19a3.09,3.09,0,0,1,2.79.16,1,1,0,0,1,.41.55h0a1.26,1.26,0,0,1-.76.77,3.08,3.08,0,0,1-2.8-.16.84.84,0,0,1-.4-.57A1.22,1.22,0,0,1,50.25,62.45ZM52.5,68l.22.19a.12.12,0,0,1,.05.05.32.32,0,0,1,.08.09l.07.1a1,1,0,0,1,.17.38s0,0,0,0A1.8,1.8,0,0,1,52,70a4.61,4.61,0,0,1-4.13-.23,1.33,1.33,0,0,1-.59-.84h0a1.44,1.44,0,0,1,.13-.32,1.53,1.53,0,0,1,.24-.29,2.59,2.59,0,0,1,.75-.51A4.58,4.58,0,0,1,52.5,68Zm-7.91,5.14a3.17,3.17,0,0,1,2.8.15,1,1,0,0,1,.41.55h0a1.24,1.24,0,0,1-.76.77,3.11,3.11,0,0,1-2.8-.15,1,1,0,0,1-.4-.57A1.18,1.18,0,0,1,44.59,73.16Zm-7.74-2.29a4.58,4.58,0,0,1,4.13.22,1.35,1.35,0,0,1,.59.84,1.78,1.78,0,0,1-1.11,1.12,4.58,4.58,0,0,1-4.13-.22,1.34,1.34,0,0,1-.6-.84A1.82,1.82,0,0,1,36.85,70.87Zm.58,5.64a3.11,3.11,0,0,1,2.8.15,1,1,0,0,1,.41.56h0a1.24,1.24,0,0,1-.76.77,3.11,3.11,0,0,1-2.8-.15.88.88,0,0,1-.4-.57A1.21,1.21,0,0,1,37.43,76.51ZM55.62,65.62a3.11,3.11,0,0,1,2.8.16.88.88,0,0,1,.41.55h0a1.25,1.25,0,0,1-.76.76,3.08,3.08,0,0,1-2.8-.16.92.92,0,0,1-.4-.56A1.23,1.23,0,0,1,55.62,65.62ZM42.16,59.84a1.46,1.46,0,0,1,.23-.29,2.59,2.59,0,0,1,.75-.51,4.58,4.58,0,0,1,4.13.23,1.39,1.39,0,0,1,.6.83,1.81,1.81,0,0,1-1.12,1.13A4.64,4.64,0,0,1,42.61,61a1.28,1.28,0,0,1-.58-.84h0A1.08,1.08,0,0,1,42.16,59.84Zm-3.27,4.91a2.57,2.57,0,0,1-2.35-.13.75.75,0,0,1-.33-.47h0a.67.67,0,0,1,.07-.18,1.09,1.09,0,0,1,.13-.17,1.29,1.29,0,0,1,.43-.29,2.61,2.61,0,0,1,2.35.14.72.72,0,0,1,.34.47A1.05,1.05,0,0,1,38.89,64.75Zm-6.45,4.06a1.07,1.07,0,0,1,.64-.63,2.57,2.57,0,0,1,2.35.13.69.69,0,0,1,.33.47,1,1,0,0,1-.63.64,2.58,2.58,0,0,1-2.35-.13.74.74,0,0,1-.34-.47Zm-1.23,4.35a3.17,3.17,0,0,1,2.8.15,1,1,0,0,1,.4.57,1.2,1.2,0,0,1-.76.76,3.09,3.09,0,0,1-2.79-.15.92.92,0,0,1-.4-.58A1.22,1.22,0,0,1,31.21,73.16ZM26.13,69a4.61,4.61,0,0,1,4.13.24,1.38,1.38,0,0,1,.6.81s0,0,0,0a1.86,1.86,0,0,1-1.12,1.13,4.58,4.58,0,0,1-4.13-.23A1.33,1.33,0,0,1,25,70.1,1.79,1.79,0,0,1,26.13,69Z"/><path class="cls-2" d="M42,59.93v-.08s0,.07,0,.12a.39.39,0,0,0,0,.15A1.21,1.21,0,0,1,42,59.93Zm3.16-3.2-24,13.89,17.45,10,24-13.9Zm-9,7.41a.67.67,0,0,1,.07-.18,1.09,1.09,0,0,1,.13-.17,1.29,1.29,0,0,1,.43-.29,2.61,2.61,0,0,1,2.35.14.72.72,0,0,1,.34.47,1.05,1.05,0,0,1-.64.64,2.57,2.57,0,0,1-2.35-.13.75.75,0,0,1-.33-.47Zm6.18-4.59a2.59,2.59,0,0,1,.75-.51,4.58,4.58,0,0,1,4.13.23,1.39,1.39,0,0,1,.6.83,1.81,1.81,0,0,1-1.12,1.13A4.64,4.64,0,0,1,42.61,61a1.28,1.28,0,0,1-.58-.84h0a1.08,1.08,0,0,1,.13-.32A1.46,1.46,0,0,1,42.39,59.55Zm2.17,4.09a2.63,2.63,0,0,1,2.36.13.73.73,0,0,1,.33.47h0a1,1,0,0,1-.64.64,2.64,2.64,0,0,1-2.35-.13.79.79,0,0,1-.34-.48A1,1,0,0,1,44.56,63.64Zm-2.43-4.12a.43.43,0,0,0-.05.13.7.7,0,0,1,0-.12ZM25.61,70.94A1.33,1.33,0,0,1,25,70.1,1.79,1.79,0,0,1,26.13,69a4.61,4.61,0,0,1,4.13.24,1.38,1.38,0,0,1,.6.81s0,0,0,0a1.86,1.86,0,0,1-1.12,1.13A4.58,4.58,0,0,1,25.61,70.94Zm8,3.7a3.09,3.09,0,0,1-2.79-.15.92.92,0,0,1-.4-.58,1.22,1.22,0,0,1,.75-.75,3.17,3.17,0,0,1,2.8.15,1,1,0,0,1,.4.57A1.2,1.2,0,0,1,33.65,74.64Zm1.48-5.22a2.58,2.58,0,0,1-2.35-.13.74.74,0,0,1-.34-.47h0a1.07,1.07,0,0,1,.64-.63,2.57,2.57,0,0,1,2.35.13.69.69,0,0,1,.33.47A1,1,0,0,1,35.13,69.42Zm5.51,7.8a1.24,1.24,0,0,1-.76.77,3.11,3.11,0,0,1-2.8-.15.88.88,0,0,1-.4-.57,1.21,1.21,0,0,1,.75-.76,3.11,3.11,0,0,1,2.8.15,1,1,0,0,1,.41.56Zm-.18-4.17a4.58,4.58,0,0,1-4.13-.22,1.34,1.34,0,0,1-.6-.84,1.82,1.82,0,0,1,1.12-1.12,4.58,4.58,0,0,1,4.13.22,1.35,1.35,0,0,1,.59.84A1.78,1.78,0,0,1,40.46,73.05Zm2.67-4.82a3.09,3.09,0,0,1-2.79-.15.8.8,0,0,1-.39-.59,1.18,1.18,0,0,1,.75-.74,3.11,3.11,0,0,1,2.8.15.9.9,0,0,1,.39.57A1.2,1.2,0,0,1,43.13,68.23Zm4.67,5.64a1.24,1.24,0,0,1-.76.77,3.11,3.11,0,0,1-2.8-.15,1,1,0,0,1-.4-.57,1.18,1.18,0,0,1,.75-.76,3.17,3.17,0,0,1,2.8.15,1,1,0,0,1,.41.55Zm5.29-5A1.8,1.8,0,0,1,52,70a4.61,4.61,0,0,1-4.13-.23,1.33,1.33,0,0,1-.59-.84h0a1.44,1.44,0,0,1,.13-.32,1.53,1.53,0,0,1,.24-.29,2.59,2.59,0,0,1,.75-.51A4.58,4.58,0,0,1,52.5,68l.22.19a.12.12,0,0,1,.05.05.32.32,0,0,1,.08.09l.07.1a1,1,0,0,1,.17.38S53.09,68.84,53.09,68.84Zm.36-5.67a1.26,1.26,0,0,1-.76.77,3.08,3.08,0,0,1-2.8-.16.84.84,0,0,1-.4-.57,1.22,1.22,0,0,1,.76-.76,3.09,3.09,0,0,1,2.79.16,1,1,0,0,1,.41.55Zm5.38,3.17a1.25,1.25,0,0,1-.76.76,3.08,3.08,0,0,1-2.8-.16.92.92,0,0,1-.4-.56,1.23,1.23,0,0,1,.75-.76,3.11,3.11,0,0,1,2.8.16.88.88,0,0,1,.41.55Z"/><polygon class="cls-3" points="38.65 80.66 38.65 81.41 21.2 71.36 21.2 70.62 38.65 80.66"/><path class="cls-4" d="M47.89,59.9a1.36,1.36,0,0,1,0,.2,1.39,1.39,0,0,0-.6-.83A4.58,4.58,0,0,0,43.14,59,1.78,1.78,0,0,0,42,60.16a.91.91,0,0,1,.1-.64h0a2,2,0,0,1,.18-.26,2.5,2.5,0,0,1,.85-.62,4.65,4.65,0,0,1,1.27-.34,5.05,5.05,0,0,1,1.74.09,3.08,3.08,0,0,1,1.12.49,1.16,1.16,0,0,1,.24.2A1.12,1.12,0,0,1,47.89,59.9Z"/><path class="cls-3" d="M47.89,59.9a1.36,1.36,0,0,1,0,.2,1.39,1.39,0,0,0-.6-.83A4.58,4.58,0,0,0,43.14,59,1.78,1.78,0,0,0,42,60.16a.91.91,0,0,1,.1-.64,1.75,1.75,0,0,1,.16-.25,2.5,2.5,0,0,1,.85-.62,4.65,4.65,0,0,1,1.27-.34,5.05,5.05,0,0,1,1.74.09,3.08,3.08,0,0,1,1.12.49,1.16,1.16,0,0,1,.24.2A1.12,1.12,0,0,1,47.89,59.9Z"/><path class="cls-4" d="M53.09,68.83s0,0,0,0A1.39,1.39,0,0,0,52.5,68a4.58,4.58,0,0,0-4.13-.23,1.82,1.82,0,0,0-1.12,1.12,1,1,0,0,1,.06-.55,1.51,1.51,0,0,1,.2-.34,1.37,1.37,0,0,1,.17-.17,2.66,2.66,0,0,1,.69-.45,4.58,4.58,0,0,1,4.13.24,1,1,0,0,1,.26.23.68.68,0,0,1,.12.12l.08.12A1,1,0,0,1,53.09,68.83Z"/><path class="cls-3" d="M53.09,68.83s0,0,0,0A1.39,1.39,0,0,0,52.5,68a4.58,4.58,0,0,0-4.13-.23,1.82,1.82,0,0,0-1.12,1.12,1,1,0,0,1,.06-.55,2,2,0,0,1,.2-.34,1.37,1.37,0,0,1,.17-.17,2.5,2.5,0,0,1,.69-.45,4.58,4.58,0,0,1,4.13.24,1,1,0,0,1,.26.23.68.68,0,0,1,.12.12l.08.12A1,1,0,0,1,53.09,68.83Z"/><path class="cls-4" d="M41.6,71.72a.76.76,0,0,1,0,.21,1.35,1.35,0,0,0-.59-.84,4.58,4.58,0,0,0-4.13-.22A1.82,1.82,0,0,0,35.73,72a1.11,1.11,0,0,1,0-.17,1.15,1.15,0,0,1,.29-.73,1.21,1.21,0,0,1,.16-.16,1.12,1.12,0,0,1,.2-.17,2.52,2.52,0,0,1,.49-.28,4.58,4.58,0,0,1,4.13.23A1.25,1.25,0,0,1,41.6,71.72Z"/><path class="cls-3" d="M41.6,71.72a.76.76,0,0,1,0,.21,1.35,1.35,0,0,0-.59-.84,4.58,4.58,0,0,0-4.13-.22A1.82,1.82,0,0,0,35.73,72a1.11,1.11,0,0,1,0-.17,1.15,1.15,0,0,1,.29-.73,1.21,1.21,0,0,1,.16-.16,1.12,1.12,0,0,1,.2-.17,2.52,2.52,0,0,1,.49-.28,4.58,4.58,0,0,1,4.13.23A1.25,1.25,0,0,1,41.6,71.72Z"/><path class="cls-4" d="M30.86,70s0,0,0,0a1.31,1.31,0,0,0-.6-.83A4.61,4.61,0,0,0,26.13,69,1.79,1.79,0,0,0,25,70.1a1,1,0,0,1,.14-.72h0a.48.48,0,0,1,.12-.17,2.37,2.37,0,0,1,.84-.61,4.61,4.61,0,0,1,4.13.23,1.55,1.55,0,0,1,.27.23l.11.12.09.13A1,1,0,0,1,30.86,70Z"/><path class="cls-3" d="M30.86,69.66a.87.87,0,0,1,0,.36s0,0,0,0a1.31,1.31,0,0,0-.6-.83A4.61,4.61,0,0,0,26.13,69,1.79,1.79,0,0,0,25,70.1a1,1,0,0,1,.14-.72h0a.48.48,0,0,1,.12-.17,2.37,2.37,0,0,1,.84-.61,4.61,4.61,0,0,1,4.13.23,1.55,1.55,0,0,1,.27.23l.11.12.09.13A1,1,0,0,1,30.86,69.66Z"/><path class="cls-4" d="M58.83,66.33a.88.88,0,0,0-.41-.55,3.11,3.11,0,0,0-2.8-.16,1.23,1.23,0,0,0-.75.76.53.53,0,0,1,0-.25.94.94,0,0,1,.18-.36,1.31,1.31,0,0,1,.12-.11,1.6,1.6,0,0,1,.45-.3,3.17,3.17,0,0,1,2.8.15,1.13,1.13,0,0,1,.32.34A.69.69,0,0,1,58.83,66.33Z"/><path class="cls-3" d="M58.83,66.33a.88.88,0,0,0-.41-.55,3.11,3.11,0,0,0-2.8-.16,1.23,1.23,0,0,0-.75.76.53.53,0,0,1,0-.25,1,1,0,0,1,.18-.36,1.31,1.31,0,0,1,.12-.11,1.6,1.6,0,0,1,.45-.3,3.17,3.17,0,0,1,2.8.15,1.13,1.13,0,0,1,.32.34A.64.64,0,0,1,58.83,66.33Z"/><path class="cls-4" d="M43.91,67.34a.51.51,0,0,1,0,.13.9.9,0,0,0-.39-.57,3.11,3.11,0,0,0-2.8-.15,1.18,1.18,0,0,0-.75.74.15.15,0,0,1,0-.09c0-.33.25-.68.77-.91a3.11,3.11,0,0,1,2.8.15A.88.88,0,0,1,43.91,67.34Z"/><path class="cls-3" d="M43.91,67.34a.51.51,0,0,1,0,.13.9.9,0,0,0-.39-.57,3.11,3.11,0,0,0-2.8-.15,1.18,1.18,0,0,0-.75.74s0,0,0,0a.41.41,0,0,1,0-.11c0-.33.25-.68.77-.91a3.11,3.11,0,0,1,2.8.15A.88.88,0,0,1,43.91,67.34Z"/><path class="cls-4" d="M47.8,73.86h0a1,1,0,0,0-.41-.56,3.17,3.17,0,0,0-2.8-.15,1.18,1.18,0,0,0-.75.76.74.74,0,0,1,.18-.61s.07-.08.11-.11a1.59,1.59,0,0,1,.46-.3,3.17,3.17,0,0,1,2.8.15,1.54,1.54,0,0,1,.19.17.69.69,0,0,1,.2.33A.83.83,0,0,1,47.8,73.86Z"/><path class="cls-3" d="M47.8,73.86h0a1,1,0,0,0-.41-.56,3.17,3.17,0,0,0-2.8-.15,1.18,1.18,0,0,0-.75.76.8.8,0,0,1,.18-.61s.07-.08.11-.11a1.59,1.59,0,0,1,.46-.3,3.17,3.17,0,0,1,2.8.15,1.54,1.54,0,0,1,.19.17.69.69,0,0,1,.2.33A.66.66,0,0,1,47.8,73.86Z"/><path class="cls-4" d="M53.45,63.16h0a1,1,0,0,0-.41-.56,3.09,3.09,0,0,0-2.79-.16,1.22,1.22,0,0,0-.76.76.71.71,0,0,1,.18-.6,1.58,1.58,0,0,1,.58-.42,3.12,3.12,0,0,1,2.79.16,1,1,0,0,1,.39.5A.81.81,0,0,1,53.45,63.16Z"/><path class="cls-3" d="M53.45,63.16h0a1,1,0,0,0-.41-.56,3.09,3.09,0,0,0-2.79-.16,1.22,1.22,0,0,0-.76.76.78.78,0,0,1,.18-.6,1.58,1.58,0,0,1,.58-.42,3.12,3.12,0,0,1,2.79.16,1,1,0,0,1,.39.5A.65.65,0,0,1,53.45,63.16Z"/><path class="cls-4" d="M34.43,73.73a.68.68,0,0,1,0,.15,1,1,0,0,0-.4-.57,3.17,3.17,0,0,0-2.8-.15,1.22,1.22,0,0,0-.75.75.22.22,0,0,1,0-.11c0-.33.26-.67.77-.9a3.17,3.17,0,0,1,2.8.15A.86.86,0,0,1,34.43,73.73Z"/><path class="cls-3" d="M34.43,73.73a.68.68,0,0,1,0,.15,1,1,0,0,0-.4-.57,3.17,3.17,0,0,0-2.8-.15,1.22,1.22,0,0,0-.75.75h0a.45.45,0,0,1,0-.12c0-.33.26-.67.77-.9a3.17,3.17,0,0,1,2.8.15A.86.86,0,0,1,34.43,73.73Z"/><path class="cls-4" d="M40.64,77.22h0a1,1,0,0,0-.41-.56,3.11,3.11,0,0,0-2.8-.15,1.21,1.21,0,0,0-.75.76.72.72,0,0,1,.18-.61,1.14,1.14,0,0,1,.11-.11,1.59,1.59,0,0,1,.46-.3,3.11,3.11,0,0,1,2.8.15,1.54,1.54,0,0,1,.19.17.89.89,0,0,1,.2.33A.87.87,0,0,1,40.64,77.22Z"/><path class="cls-3" d="M40.64,77.22h0a1,1,0,0,0-.41-.56,3.11,3.11,0,0,0-2.8-.15,1.21,1.21,0,0,0-.75.76.79.79,0,0,1,.18-.61,1.14,1.14,0,0,1,.11-.11,1.59,1.59,0,0,1,.46-.3,3.11,3.11,0,0,1,2.8.15,1.54,1.54,0,0,1,.19.17.72.72,0,0,1,.2.33A.7.7,0,0,1,40.64,77.22Z"/><path class="cls-4" d="M47.25,64.24a.73.73,0,0,0-.33-.47,2.63,2.63,0,0,0-2.36-.13,1,1,0,0,0-.64.64.66.66,0,0,1,.24-.6,1.08,1.08,0,0,1,.24-.18l.16-.08a2.6,2.6,0,0,1,2.36.13.67.67,0,0,1,.15.14A.58.58,0,0,1,47.25,64.24Z"/><path class="cls-3" d="M47.25,64.24a.73.73,0,0,0-.33-.47,2.63,2.63,0,0,0-2.36-.13,1,1,0,0,0-.64.64.66.66,0,0,1,.24-.6,1.08,1.08,0,0,1,.24-.18l.16-.08a2.6,2.6,0,0,1,2.36.13.67.67,0,0,1,.15.14A.58.58,0,0,1,47.25,64.24Z"/><path class="cls-4" d="M35.78,68.64v0a.43.43,0,0,1,0,.12.69.69,0,0,0-.33-.47,2.57,2.57,0,0,0-2.35-.13,1.07,1.07,0,0,0-.64.63c0-.32.16-.64.64-.85a2.67,2.67,0,0,1,2.35.12,1.17,1.17,0,0,1,.27.28A.57.57,0,0,1,35.78,68.64Z"/><path class="cls-3" d="M35.78,68.64v0a.43.43,0,0,1,0,.12.69.69,0,0,0-.33-.47,2.57,2.57,0,0,0-2.35-.13,1.07,1.07,0,0,0-.64.63c0-.32.16-.64.64-.85a2.67,2.67,0,0,1,2.35.12,1.17,1.17,0,0,1,.27.28A.57.57,0,0,1,35.78,68.64Z"/><path class="cls-4" d="M39.53,64.11a.72.72,0,0,0-.34-.47,2.61,2.61,0,0,0-2.35-.14,1,1,0,0,0-.63.65.58.58,0,0,1,0-.32.61.61,0,0,1,.21-.29.89.89,0,0,1,.24-.18l.15-.08a2.64,2.64,0,0,1,2.35.13.73.73,0,0,1,.16.14.56.56,0,0,1,.17.28h0A.5.5,0,0,1,39.53,64.11Z"/><path class="cls-3" d="M39.53,64.11a.72.72,0,0,0-.34-.47,2.61,2.61,0,0,0-2.35-.14,1,1,0,0,0-.63.65.58.58,0,0,1,0-.32.61.61,0,0,1,.21-.29.89.89,0,0,1,.24-.18l.15-.08a2.64,2.64,0,0,1,2.35.13.73.73,0,0,1,.16.14.64.64,0,0,1,.17.28h0A.5.5,0,0,1,39.53,64.11Z"/><path class="cls-1" d="M45.05,58.83v-.08s0,.07,0,.11a.47.47,0,0,0,0,.16A1.21,1.21,0,0,1,45.05,58.83Zm5.5-.84-1.37-.69-1-.49-.77.4-2.28,1.21a.69.69,0,0,0,0,.13.28.28,0,0,1,0-.12L24.23,69.51v.74l17.45,10,24-13.9v-.74Zm-6.82,7.65a3.08,3.08,0,0,1,2.8.16,1,1,0,0,1,.4.57,1.22,1.22,0,0,1-.76.76A3.09,3.09,0,0,1,43.38,67a.83.83,0,0,1-.4-.59A1.26,1.26,0,0,1,43.73,65.64Zm3.86-3.11a2.66,2.66,0,0,1,2.36.13.8.8,0,0,1,.34.48h0a1.06,1.06,0,0,1-.64.63,2.66,2.66,0,0,1-2.36-.12.81.81,0,0,1-.34-.49A1.08,1.08,0,0,1,47.59,62.53Zm5.69-1.18a3.09,3.09,0,0,1,2.79.15.91.91,0,0,1,.41.56h0a1.22,1.22,0,0,1-.76.76,3.11,3.11,0,0,1-2.8-.15.87.87,0,0,1-.4-.57A1.2,1.2,0,0,1,53.28,61.35Zm2.25,5.56a1,1,0,0,1,.22.19l.06.05s.06.06.07.1l.07.09a1.2,1.2,0,0,1,.18.38v0A1.83,1.83,0,0,1,55,68.87a4.58,4.58,0,0,1-4.13-.22,1.3,1.3,0,0,1-.58-.84h0a1,1,0,0,1,.13-.31,1.22,1.22,0,0,1,.23-.29,2.41,2.41,0,0,1,.75-.51A4.58,4.58,0,0,1,55.53,66.91Zm-7.9,5.15a3.09,3.09,0,0,1,2.79.15.9.9,0,0,1,.41.55h0a1.26,1.26,0,0,1-.76.77,3.11,3.11,0,0,1-2.8-.16.92.92,0,0,1-.4-.56A1.2,1.2,0,0,1,47.63,72.06Zm-7.74-2.3A4.59,4.59,0,0,1,44,70a1.35,1.35,0,0,1,.58.83A1.75,1.75,0,0,1,43.49,72a4.61,4.61,0,0,1-4.13-.23,1.32,1.32,0,0,1-.6-.83A1.83,1.83,0,0,1,39.89,69.76Zm.58,5.64a3.09,3.09,0,0,1,2.79.16.85.85,0,0,1,.41.55h0a1.24,1.24,0,0,1-.76.77,3.08,3.08,0,0,1-2.8-.16.87.87,0,0,1-.4-.57A1.22,1.22,0,0,1,40.47,75.4ZM58.66,64.52a3.11,3.11,0,0,1,2.8.15.9.9,0,0,1,.4.56h0a1.25,1.25,0,0,1-.76.76,3.14,3.14,0,0,1-2.8-.16.86.86,0,0,1-.39-.56A1.21,1.21,0,0,1,58.66,64.52ZM45.19,58.74a1.54,1.54,0,0,1,.23-.29,2.41,2.41,0,0,1,.75-.51,4.58,4.58,0,0,1,4.13.22,1.3,1.3,0,0,1,.6.84,1.78,1.78,0,0,1-1.11,1.12,4.6,4.6,0,0,1-4.14-.22,1.29,1.29,0,0,1-.59-.84h0A1.37,1.37,0,0,1,45.19,58.74Zm-3.27,4.91a2.61,2.61,0,0,1-2.34-.13.79.79,0,0,1-.34-.48h0a.71.71,0,0,1,.08-.18.61.61,0,0,1,.13-.16,1.42,1.42,0,0,1,.42-.3,2.69,2.69,0,0,1,2.36.14.72.72,0,0,1,.33.48A1,1,0,0,1,41.92,63.65Zm-6.45,4.06a1,1,0,0,1,.64-.63,2.6,2.6,0,0,1,2.35.12.76.76,0,0,1,.34.48,1,1,0,0,1-.63.64,2.59,2.59,0,0,1-2.36-.13.8.8,0,0,1-.34-.48Zm-1.22,4.35a3.09,3.09,0,0,1,2.79.15.88.88,0,0,1,.4.57,1.22,1.22,0,0,1-.76.76,3.09,3.09,0,0,1-2.79-.16.88.88,0,0,1-.4-.58A1.23,1.23,0,0,1,34.25,72.06Zm-5.08-4.19a4.61,4.61,0,0,1,4.13.23,1.42,1.42,0,0,1,.59.82s0,0,0,0a1.79,1.79,0,0,1-1.12,1.13,4.55,4.55,0,0,1-4.13-.23,1.32,1.32,0,0,1-.59-.84A1.82,1.82,0,0,1,29.17,67.87Z"/><path class="cls-2" d="M45.05,58.83v-.08s0,.07,0,.11a.47.47,0,0,0,0,.16A1.21,1.21,0,0,1,45.05,58.83Zm3.16-3.21-24,13.89,17.45,10,24-13.9Zm-9,7.41a.71.71,0,0,1,.08-.18.61.61,0,0,1,.13-.16,1.42,1.42,0,0,1,.42-.3,2.69,2.69,0,0,1,2.36.14.72.72,0,0,1,.33.48,1,1,0,0,1-.64.64,2.61,2.61,0,0,1-2.34-.13.79.79,0,0,1-.34-.48Zm6.18-4.58a2.41,2.41,0,0,1,.75-.51,4.58,4.58,0,0,1,4.13.22,1.3,1.3,0,0,1,.6.84,1.78,1.78,0,0,1-1.11,1.12,4.6,4.6,0,0,1-4.14-.22,1.29,1.29,0,0,1-.59-.84h0a1.37,1.37,0,0,1,.13-.31A1.54,1.54,0,0,1,45.42,58.45Zm2.17,4.08a2.66,2.66,0,0,1,2.36.13.8.8,0,0,1,.34.48h0a1.06,1.06,0,0,1-.64.63,2.66,2.66,0,0,1-2.36-.12.81.81,0,0,1-.34-.49A1.08,1.08,0,0,1,47.59,62.53Zm-2.43-4.11a.69.69,0,0,0,0,.13.28.28,0,0,1,0-.12ZM28.64,69.83a1.32,1.32,0,0,1-.59-.84,1.82,1.82,0,0,1,1.12-1.12,4.61,4.61,0,0,1,4.13.23,1.42,1.42,0,0,1,.59.82s0,0,0,0a1.79,1.79,0,0,1-1.12,1.13A4.55,4.55,0,0,1,28.64,69.83Zm8,3.71a3.09,3.09,0,0,1-2.79-.16.88.88,0,0,1-.4-.58,1.23,1.23,0,0,1,.76-.74,3.09,3.09,0,0,1,2.79.15.88.88,0,0,1,.4.57A1.22,1.22,0,0,1,36.68,73.54Zm1.49-5.22a2.59,2.59,0,0,1-2.36-.13.8.8,0,0,1-.34-.48h0a1,1,0,0,1,.64-.63,2.6,2.6,0,0,1,2.35.12.76.76,0,0,1,.34.48A1,1,0,0,1,38.17,68.32Zm5.5,7.8a1.24,1.24,0,0,1-.76.77,3.08,3.08,0,0,1-2.8-.16.87.87,0,0,1-.4-.57,1.22,1.22,0,0,1,.76-.76,3.09,3.09,0,0,1,2.79.16.85.85,0,0,1,.41.55ZM43.49,72a4.61,4.61,0,0,1-4.13-.23,1.32,1.32,0,0,1-.6-.83,1.83,1.83,0,0,1,1.13-1.13A4.59,4.59,0,0,1,44,70a1.35,1.35,0,0,1,.58.83A1.75,1.75,0,0,1,43.49,72Zm2.68-4.82A3.09,3.09,0,0,1,43.38,67a.83.83,0,0,1-.4-.59,1.26,1.26,0,0,1,.75-.74,3.08,3.08,0,0,1,2.8.16,1,1,0,0,1,.4.57A1.22,1.22,0,0,1,46.17,67.13Zm4.66,5.64a1.26,1.26,0,0,1-.76.77,3.11,3.11,0,0,1-2.8-.16.92.92,0,0,1-.4-.56,1.2,1.2,0,0,1,.76-.76,3.09,3.09,0,0,1,2.79.15.9.9,0,0,1,.41.55Zm5.3-5A1.83,1.83,0,0,1,55,68.87a4.58,4.58,0,0,1-4.13-.22,1.3,1.3,0,0,1-.58-.84h0a1,1,0,0,1,.13-.31,1.22,1.22,0,0,1,.23-.29,2.41,2.41,0,0,1,.75-.51,4.58,4.58,0,0,1,4.13.22,1,1,0,0,1,.22.19l.06.05s.06.06.07.1l.07.09a1.2,1.2,0,0,1,.18.38Zm.35-5.67a1.22,1.22,0,0,1-.76.76,3.11,3.11,0,0,1-2.8-.15.87.87,0,0,1-.4-.57,1.2,1.2,0,0,1,.76-.76,3.09,3.09,0,0,1,2.79.15.91.91,0,0,1,.41.56Zm5.38,3.17a1.25,1.25,0,0,1-.76.76,3.14,3.14,0,0,1-2.8-.16.86.86,0,0,1-.39-.56,1.21,1.21,0,0,1,.75-.76,3.11,3.11,0,0,1,2.8.15.9.9,0,0,1,.4.56Z"/><polygon class="cls-3" points="41.69 79.56 41.69 80.3 24.23 70.26 24.23 69.51 41.69 79.56"/><path class="cls-4" d="M50.93,58.79a.76.76,0,0,1,0,.21,1.3,1.3,0,0,0-.6-.84,4.58,4.58,0,0,0-4.13-.22,1.83,1.83,0,0,0-1.11,1.12,1,1,0,0,1,.1-.64h0a1.34,1.34,0,0,1,.17-.27,2.62,2.62,0,0,1,.85-.61,4.5,4.5,0,0,1,1.27-.34,4.8,4.8,0,0,1,1.74.09,3.07,3.07,0,0,1,1.12.48,1.27,1.27,0,0,1,.25.21A1.12,1.12,0,0,1,50.93,58.79Z"/><path class="cls-3" d="M50.93,58.79a.76.76,0,0,1,0,.21,1.3,1.3,0,0,0-.6-.84,4.58,4.58,0,0,0-4.13-.22,1.83,1.83,0,0,0-1.11,1.12,1,1,0,0,1,.1-.64,1.83,1.83,0,0,1,.16-.26,2.62,2.62,0,0,1,.85-.61,4.5,4.5,0,0,1,1.27-.34,4.8,4.8,0,0,1,1.74.09,3.07,3.07,0,0,1,1.12.48,1.27,1.27,0,0,1,.25.21A1.12,1.12,0,0,1,50.93,58.79Z"/><path class="cls-4" d="M56.13,67.72v0a1.39,1.39,0,0,0-.6-.83,4.58,4.58,0,0,0-4.13-.22,1.78,1.78,0,0,0-1.11,1.12,1,1,0,0,1,.05-.55,1.3,1.3,0,0,1,.21-.35c.05,0,.1-.11.16-.16a2.58,2.58,0,0,1,.69-.45,4.58,4.58,0,0,1,4.13.23,2,2,0,0,1,.27.23.69.69,0,0,1,.11.13L56,67A1,1,0,0,1,56.13,67.72Z"/><path class="cls-3" d="M56.13,67.72v0a1.39,1.39,0,0,0-.6-.83,4.58,4.58,0,0,0-4.13-.22,1.78,1.78,0,0,0-1.11,1.12,1,1,0,0,1,.05-.55,1.62,1.62,0,0,1,.21-.35c.05,0,.1-.11.16-.16a2.42,2.42,0,0,1,.69-.45,4.58,4.58,0,0,1,4.13.23,2,2,0,0,1,.27.23.69.69,0,0,1,.11.13L56,67A1,1,0,0,1,56.13,67.72Z"/><path class="cls-4" d="M44.63,70.62a.64.64,0,0,1,0,.2A1.35,1.35,0,0,0,44,70a4.59,4.59,0,0,0-4.13-.23,1.83,1.83,0,0,0-1.13,1.13,1.21,1.21,0,0,1,0-.18A1.11,1.11,0,0,1,39,70a.91.91,0,0,1,.17-.17l.19-.16a3.3,3.3,0,0,1,.5-.29,4.59,4.59,0,0,1,4.13.24A1.25,1.25,0,0,1,44.63,70.62Z"/><path class="cls-3" d="M44.63,70.62a.64.64,0,0,1,0,.2A1.35,1.35,0,0,0,44,70a4.59,4.59,0,0,0-4.13-.23,1.83,1.83,0,0,0-1.13,1.13,1.21,1.21,0,0,1,0-.18A1.11,1.11,0,0,1,39,70a.91.91,0,0,1,.17-.17l.19-.16a3.3,3.3,0,0,1,.5-.29,4.59,4.59,0,0,1,4.13.24A1.25,1.25,0,0,1,44.63,70.62Z"/><path class="cls-4" d="M33.89,68.92s0,0,0,0a1.38,1.38,0,0,0-.59-.83,4.61,4.61,0,0,0-4.13-.23A1.82,1.82,0,0,0,28.05,69a1,1,0,0,1,.14-.71s0,0,0,0a.66.66,0,0,1,.12-.17,2.3,2.3,0,0,1,.85-.61,4.61,4.61,0,0,1,4.13.22,1.2,1.2,0,0,1,.26.24s.07.08.12.12l.08.13A1,1,0,0,1,33.89,68.92Z"/><path class="cls-3" d="M33.9,68.55a.93.93,0,0,1,0,.37s0,0,0,0a1.38,1.38,0,0,0-.59-.83,4.61,4.61,0,0,0-4.13-.23A1.82,1.82,0,0,0,28.05,69a1,1,0,0,1,.14-.71s0,0,0,0a.66.66,0,0,1,.12-.17,2.3,2.3,0,0,1,.85-.61,4.61,4.61,0,0,1,4.13.22,1.2,1.2,0,0,1,.26.24s.07.08.12.12l.08.13A1,1,0,0,1,33.9,68.55Z"/><path class="cls-4" d="M61.86,65.23a.9.9,0,0,0-.4-.56,3.11,3.11,0,0,0-2.8-.15,1.21,1.21,0,0,0-.75.76.53.53,0,0,1,0-.25.72.72,0,0,1,.18-.36l.11-.12a1.66,1.66,0,0,1,.46-.29,3.11,3.11,0,0,1,2.8.15,1.24,1.24,0,0,1,.32.33A.71.71,0,0,1,61.86,65.23Z"/><path class="cls-3" d="M61.86,65.23a.9.9,0,0,0-.4-.56,3.11,3.11,0,0,0-2.8-.15,1.21,1.21,0,0,0-.75.76.53.53,0,0,1,0-.25.76.76,0,0,1,.18-.36l.11-.12a1.66,1.66,0,0,1,.46-.29,3.11,3.11,0,0,1,2.8.15,1.24,1.24,0,0,1,.32.33A.66.66,0,0,1,61.86,65.23Z"/><path class="cls-4" d="M46.94,66.24a.62.62,0,0,1,0,.13,1,1,0,0,0-.4-.57,3.08,3.08,0,0,0-2.8-.16,1.26,1.26,0,0,0-.75.74.12.12,0,0,1,0-.08c0-.34.25-.68.77-.92a3.08,3.08,0,0,1,2.8.16A.88.88,0,0,1,46.94,66.24Z"/><path class="cls-3" d="M46.94,66.24a.62.62,0,0,1,0,.13,1,1,0,0,0-.4-.57,3.08,3.08,0,0,0-2.8-.16,1.26,1.26,0,0,0-.75.74s0,0,0,0a.34.34,0,0,1,0-.1c0-.34.25-.68.77-.92a3.08,3.08,0,0,1,2.8.16A.88.88,0,0,1,46.94,66.24Z"/><path class="cls-4" d="M50.83,72.76h0a.92.92,0,0,0-.41-.56,3.09,3.09,0,0,0-2.79-.15,1.2,1.2,0,0,0-.76.76.7.7,0,0,1,.19-.61.6.6,0,0,1,.11-.12,1.66,1.66,0,0,1,.46-.3,3.12,3.12,0,0,1,2.79.16l.19.16a.76.76,0,0,1,.2.34A.55.55,0,0,1,50.83,72.76Z"/><path class="cls-3" d="M50.83,72.76h0a.92.92,0,0,0-.41-.56,3.09,3.09,0,0,0-2.79-.15,1.2,1.2,0,0,0-.76.76.76.76,0,0,1,.19-.61.6.6,0,0,1,.11-.12,1.66,1.66,0,0,1,.46-.3,3.12,3.12,0,0,1,2.79.16l.19.16a.68.68,0,0,1,.2.34A.47.47,0,0,1,50.83,72.76Z"/><path class="cls-4" d="M56.48,62.06h0a.93.93,0,0,0-.41-.57,3.09,3.09,0,0,0-2.79-.15,1.2,1.2,0,0,0-.76.76.7.7,0,0,1,.19-.61,1.53,1.53,0,0,1,.57-.41,3.06,3.06,0,0,1,2.79.16.88.88,0,0,1,.39.5A.54.54,0,0,1,56.48,62.06Z"/><path class="cls-3" d="M56.48,62.06h0a.93.93,0,0,0-.41-.57,3.09,3.09,0,0,0-2.79-.15,1.2,1.2,0,0,0-.76.76.76.76,0,0,1,.19-.61,1.53,1.53,0,0,1,.57-.41,3.06,3.06,0,0,1,2.79.16.88.88,0,0,1,.39.5A.47.47,0,0,1,56.48,62.06Z"/><path class="cls-4" d="M37.46,72.63a.77.77,0,0,1,0,.15.88.88,0,0,0-.4-.57,3.09,3.09,0,0,0-2.79-.15,1.23,1.23,0,0,0-.76.74.34.34,0,0,1,0-.1c0-.34.26-.67.77-.91A3.12,3.12,0,0,1,37,72,.86.86,0,0,1,37.46,72.63Z"/><path class="cls-3" d="M37.46,72.63a.77.77,0,0,1,0,.15.88.88,0,0,0-.4-.57,3.09,3.09,0,0,0-2.79-.15,1.23,1.23,0,0,0-.76.74v0a.49.49,0,0,1,0-.12c0-.34.26-.67.77-.91A3.12,3.12,0,0,1,37,72,.86.86,0,0,1,37.46,72.63Z"/><path class="cls-4" d="M43.67,76.11h0a.87.87,0,0,0-.41-.56,3.09,3.09,0,0,0-2.79-.16,1.22,1.22,0,0,0-.76.76.71.71,0,0,1,.18-.6.63.63,0,0,1,.12-.11,1.37,1.37,0,0,1,.46-.31,3.12,3.12,0,0,1,2.79.16l.19.16a.76.76,0,0,1,.2.34A.55.55,0,0,1,43.67,76.11Z"/><path class="cls-3" d="M43.67,76.11h0a.87.87,0,0,0-.41-.56,3.09,3.09,0,0,0-2.79-.16,1.22,1.22,0,0,0-.76.76.78.78,0,0,1,.18-.6.63.63,0,0,1,.12-.11,1.37,1.37,0,0,1,.46-.31,3.12,3.12,0,0,1,2.79.16l.19.16a.64.64,0,0,1,.2.34A.47.47,0,0,1,43.67,76.11Z"/><path class="cls-4" d="M50.29,63.14a.8.8,0,0,0-.34-.48,2.66,2.66,0,0,0-2.36-.13,1.08,1.08,0,0,0-.64.64.67.67,0,0,1,.24-.59,1.26,1.26,0,0,1,.25-.19l.15-.07a2.59,2.59,0,0,1,2.36.13l.16.13A.66.66,0,0,1,50.29,63.14Z"/><path class="cls-3" d="M50.29,63.14a.8.8,0,0,0-.34-.48,2.66,2.66,0,0,0-2.36-.13,1.08,1.08,0,0,0-.64.64.67.67,0,0,1,.24-.59,1.26,1.26,0,0,1,.25-.19l.15-.07a2.59,2.59,0,0,1,2.36.13l.16.13A.66.66,0,0,1,50.29,63.14Z"/><path class="cls-4" d="M38.81,67.53v0a.49.49,0,0,1,0,.12.76.76,0,0,0-.34-.48,2.6,2.6,0,0,0-2.35-.12,1,1,0,0,0-.64.63c0-.32.17-.64.64-.86a2.63,2.63,0,0,1,2.35.13,1,1,0,0,1,.27.28A.53.53,0,0,1,38.81,67.53Z"/><path class="cls-3" d="M38.81,67.53v0a.49.49,0,0,1,0,.12.76.76,0,0,0-.34-.48,2.6,2.6,0,0,0-2.35-.12,1,1,0,0,0-.64.63c0-.32.17-.64.64-.86a2.63,2.63,0,0,1,2.35.13,1,1,0,0,1,.27.28A.53.53,0,0,1,38.81,67.53Z"/><path class="cls-4" d="M42.56,63a.72.72,0,0,0-.33-.48,2.69,2.69,0,0,0-2.36-.14,1.06,1.06,0,0,0-.63.65.6.6,0,0,1,0-.32.76.76,0,0,1,.21-.28,1.08,1.08,0,0,1,.24-.18l.15-.08a2.63,2.63,0,0,1,2.36.13.5.5,0,0,1,.15.14.61.61,0,0,1,.18.28h0A.61.61,0,0,1,42.56,63Z"/><path class="cls-3" d="M42.56,63a.72.72,0,0,0-.33-.48,2.69,2.69,0,0,0-2.36-.14,1.06,1.06,0,0,0-.63.65.6.6,0,0,1,0-.32.76.76,0,0,1,.21-.28,1.08,1.08,0,0,1,.24-.18l.15-.08a2.63,2.63,0,0,1,2.36.13.5.5,0,0,1,.15.14.71.71,0,0,1,.18.28h0A.61.61,0,0,1,42.56,63Z"/><path class="cls-1" d="M41.8,55.14v-.08s0,.07,0,.11a.41.41,0,0,0,0,.16A1.21,1.21,0,0,1,41.8,55.14Zm5.49-.84-1.36-.69-1-.49-.77.4-2.28,1.21a1.12,1.12,0,0,0,0,.13.7.7,0,0,1,0-.12L21,65.83v.74l17.45,10,24-13.89V62ZM40.48,62a3.11,3.11,0,0,1,2.8.15.9.9,0,0,1,.39.57,1.2,1.2,0,0,1-.76.76,3.09,3.09,0,0,1-2.79-.15.8.8,0,0,1-.39-.59A1.21,1.21,0,0,1,40.48,62Zm3.86-3.11A2.63,2.63,0,0,1,46.7,59a.73.73,0,0,1,.33.47h0a1,1,0,0,1-.64.64A2.61,2.61,0,0,1,44,60a.79.79,0,0,1-.34-.48A1,1,0,0,1,44.34,58.85ZM50,57.66a3.09,3.09,0,0,1,2.79.16,1,1,0,0,1,.41.55h0a1.26,1.26,0,0,1-.76.77,3.08,3.08,0,0,1-2.8-.16.87.87,0,0,1-.4-.57A1.22,1.22,0,0,1,50,57.66Zm2.25,5.57.22.19,0,0a.32.32,0,0,1,.08.09l.07.1a1,1,0,0,1,.17.38s0,0,0,0a1.8,1.8,0,0,1-1.12,1.14A4.61,4.61,0,0,1,47.62,65a1.33,1.33,0,0,1-.59-.84h0a1.44,1.44,0,0,1,.13-.32,1.53,1.53,0,0,1,.24-.29,2.59,2.59,0,0,1,.75-.51A4.58,4.58,0,0,1,52.28,63.23Zm-7.91,5.14a3.17,3.17,0,0,1,2.8.15.9.9,0,0,1,.41.55h0a1.24,1.24,0,0,1-.76.77A3.11,3.11,0,0,1,44,69.7a1,1,0,0,1-.4-.57A1.18,1.18,0,0,1,44.37,68.37Zm-7.74-2.29a4.58,4.58,0,0,1,4.13.22,1.32,1.32,0,0,1,.59.84,1.76,1.76,0,0,1-1.11,1.12A4.58,4.58,0,0,1,36.11,68a1.34,1.34,0,0,1-.6-.84A1.82,1.82,0,0,1,36.63,66.08Zm.58,5.64a3.11,3.11,0,0,1,2.8.15,1,1,0,0,1,.41.55h0a1.24,1.24,0,0,1-.76.77,3.11,3.11,0,0,1-2.8-.15.88.88,0,0,1-.4-.57A1.21,1.21,0,0,1,37.21,71.72ZM55.4,60.83a3.11,3.11,0,0,1,2.8.16.88.88,0,0,1,.41.55h0a1.25,1.25,0,0,1-.76.76,3.08,3.08,0,0,1-2.8-.16.92.92,0,0,1-.4-.56A1.23,1.23,0,0,1,55.4,60.83ZM41.94,55.05a1.94,1.94,0,0,1,.23-.29,2.59,2.59,0,0,1,.75-.51,4.58,4.58,0,0,1,4.13.23,1.31,1.31,0,0,1,.6.83,1.81,1.81,0,0,1-1.12,1.13,4.64,4.64,0,0,1-4.14-.23,1.28,1.28,0,0,1-.58-.84h0A1.08,1.08,0,0,1,41.94,55.05ZM38.67,60a2.57,2.57,0,0,1-2.35-.13.75.75,0,0,1-.33-.47h0a.67.67,0,0,1,.07-.18,1.09,1.09,0,0,1,.13-.17,1.41,1.41,0,0,1,.43-.29,2.63,2.63,0,0,1,2.36.14.74.74,0,0,1,.33.47A1,1,0,0,1,38.67,60ZM32.22,64a1.07,1.07,0,0,1,.64-.63,2.57,2.57,0,0,1,2.35.13.74.74,0,0,1,.34.47,1,1,0,0,1-.63.64,2.59,2.59,0,0,1-2.36-.13.74.74,0,0,1-.34-.47ZM31,68.37a3.17,3.17,0,0,1,2.8.15,1,1,0,0,1,.4.57,1.2,1.2,0,0,1-.76.76,3.09,3.09,0,0,1-2.79-.15.92.92,0,0,1-.4-.58A1.22,1.22,0,0,1,31,68.37Zm-5.08-4.19a4.61,4.61,0,0,1,4.13.24,1.38,1.38,0,0,1,.6.81s0,0,0,0a1.86,1.86,0,0,1-1.12,1.13,4.58,4.58,0,0,1-4.13-.23,1.33,1.33,0,0,1-.59-.84A1.79,1.79,0,0,1,25.91,64.18Z"/><path class="cls-2" d="M41.8,55.14v-.08s0,.07,0,.11a.41.41,0,0,0,0,.16A1.21,1.21,0,0,1,41.8,55.14ZM45,51.94,21,65.83l17.45,10,24-13.9Zm-9,7.41a.67.67,0,0,1,.07-.18,1.09,1.09,0,0,1,.13-.17,1.41,1.41,0,0,1,.43-.29,2.63,2.63,0,0,1,2.36.14.74.74,0,0,1,.33.47,1,1,0,0,1-.64.64,2.57,2.57,0,0,1-2.35-.13.75.75,0,0,1-.33-.47Zm6.18-4.59a2.59,2.59,0,0,1,.75-.51,4.58,4.58,0,0,1,4.13.23,1.31,1.31,0,0,1,.6.83,1.81,1.81,0,0,1-1.12,1.13,4.64,4.64,0,0,1-4.14-.23,1.28,1.28,0,0,1-.58-.84h0a1.08,1.08,0,0,1,.13-.32A1.94,1.94,0,0,1,42.17,54.76Zm2.17,4.09A2.63,2.63,0,0,1,46.7,59a.73.73,0,0,1,.33.47h0a1,1,0,0,1-.64.64A2.61,2.61,0,0,1,44,60a.79.79,0,0,1-.34-.48A1,1,0,0,1,44.34,58.85Zm-2.43-4.12a1.12,1.12,0,0,0,0,.13.7.7,0,0,1,0-.12ZM25.39,66.15a1.33,1.33,0,0,1-.59-.84,1.79,1.79,0,0,1,1.11-1.13,4.61,4.61,0,0,1,4.13.24,1.38,1.38,0,0,1,.6.81s0,0,0,0a1.86,1.86,0,0,1-1.12,1.13A4.58,4.58,0,0,1,25.39,66.15Zm8,3.7a3.09,3.09,0,0,1-2.79-.15.92.92,0,0,1-.4-.58,1.22,1.22,0,0,1,.75-.75,3.17,3.17,0,0,1,2.8.15,1,1,0,0,1,.4.57A1.2,1.2,0,0,1,33.43,69.85Zm1.49-5.22a2.59,2.59,0,0,1-2.36-.13.74.74,0,0,1-.34-.47h0a1.07,1.07,0,0,1,.64-.63,2.57,2.57,0,0,1,2.35.13.74.74,0,0,1,.34.47A1,1,0,0,1,34.92,64.63Zm5.5,7.8a1.24,1.24,0,0,1-.76.77,3.11,3.11,0,0,1-2.8-.15.88.88,0,0,1-.4-.57,1.21,1.21,0,0,1,.75-.76,3.11,3.11,0,0,1,2.8.15,1,1,0,0,1,.41.55Zm-.18-4.17A4.58,4.58,0,0,1,36.11,68a1.34,1.34,0,0,1-.6-.84,1.82,1.82,0,0,1,1.12-1.12,4.58,4.58,0,0,1,4.13.22,1.32,1.32,0,0,1,.59.84A1.76,1.76,0,0,1,40.24,68.26Zm2.67-4.82a3.09,3.09,0,0,1-2.79-.15.8.8,0,0,1-.39-.59,1.21,1.21,0,0,1,.75-.74,3.11,3.11,0,0,1,2.8.15.9.9,0,0,1,.39.57A1.2,1.2,0,0,1,42.91,63.44Zm4.67,5.64a1.24,1.24,0,0,1-.76.77A3.11,3.11,0,0,1,44,69.7a1,1,0,0,1-.4-.57,1.18,1.18,0,0,1,.75-.76,3.17,3.17,0,0,1,2.8.15.9.9,0,0,1,.41.55Zm5.29-5a1.8,1.8,0,0,1-1.12,1.14A4.61,4.61,0,0,1,47.62,65a1.33,1.33,0,0,1-.59-.84h0a1.44,1.44,0,0,1,.13-.32,1.53,1.53,0,0,1,.24-.29,2.59,2.59,0,0,1,.75-.51,4.58,4.58,0,0,1,4.13.23l.22.19,0,0a.32.32,0,0,1,.08.09l.07.1a1,1,0,0,1,.17.38S52.87,64.05,52.87,64.05Zm.36-5.67a1.26,1.26,0,0,1-.76.77,3.08,3.08,0,0,1-2.8-.16.87.87,0,0,1-.4-.57,1.22,1.22,0,0,1,.76-.76,3.09,3.09,0,0,1,2.79.16,1,1,0,0,1,.41.55Zm5.38,3.17a1.25,1.25,0,0,1-.76.76,3.08,3.08,0,0,1-2.8-.16.92.92,0,0,1-.4-.56,1.23,1.23,0,0,1,.75-.76,3.11,3.11,0,0,1,2.8.16.88.88,0,0,1,.41.55Z"/><polygon class="cls-3" points="38.43 75.87 38.43 76.62 20.98 66.57 20.98 65.83 38.43 75.87"/><path class="cls-4" d="M47.67,55.11a1.5,1.5,0,0,1,0,.2,1.31,1.31,0,0,0-.6-.83,4.58,4.58,0,0,0-4.13-.23,1.78,1.78,0,0,0-1.11,1.12.91.91,0,0,1,.1-.64h0a2,2,0,0,1,.18-.26,2.5,2.5,0,0,1,.85-.62,4.65,4.65,0,0,1,1.27-.34,5.05,5.05,0,0,1,1.74.09,3.08,3.08,0,0,1,1.12.49,1.16,1.16,0,0,1,.24.2A1.12,1.12,0,0,1,47.67,55.11Z"/><path class="cls-3" d="M47.67,55.11a1.5,1.5,0,0,1,0,.2,1.31,1.31,0,0,0-.6-.83,4.58,4.58,0,0,0-4.13-.23,1.78,1.78,0,0,0-1.11,1.12.91.91,0,0,1,.1-.64,1.75,1.75,0,0,1,.16-.25,2.5,2.5,0,0,1,.85-.62,4.65,4.65,0,0,1,1.27-.34,5.05,5.05,0,0,1,1.74.09,3.08,3.08,0,0,1,1.12.49,1.16,1.16,0,0,1,.24.2A1.12,1.12,0,0,1,47.67,55.11Z"/><path class="cls-4" d="M52.87,64s0,0,0,0a1.39,1.39,0,0,0-.59-.82A4.58,4.58,0,0,0,48.15,63,1.82,1.82,0,0,0,47,64.12a1,1,0,0,1,.06-.55,1.51,1.51,0,0,1,.2-.34c.06-.06.11-.12.17-.17a2.66,2.66,0,0,1,.69-.45,4.58,4.58,0,0,1,4.13.24,1.18,1.18,0,0,1,.27.23,1.31,1.31,0,0,1,.11.12l.08.12A.94.94,0,0,1,52.87,64Z"/><path class="cls-3" d="M52.87,64s0,0,0,0a1.39,1.39,0,0,0-.59-.82A4.58,4.58,0,0,0,48.15,63,1.82,1.82,0,0,0,47,64.12a1,1,0,0,1,.06-.55,2,2,0,0,1,.2-.34c.06-.06.11-.12.17-.17a2.5,2.5,0,0,1,.69-.45,4.58,4.58,0,0,1,4.13.24,1.18,1.18,0,0,1,.27.23,1.31,1.31,0,0,1,.11.12l.08.12A.94.94,0,0,1,52.87,64Z"/><path class="cls-4" d="M41.38,66.93a.76.76,0,0,1,0,.21,1.32,1.32,0,0,0-.59-.84,4.58,4.58,0,0,0-4.13-.22,1.82,1.82,0,0,0-1.12,1.12,1.11,1.11,0,0,1,0-.17,1.15,1.15,0,0,1,.29-.73,1.21,1.21,0,0,1,.16-.16,1.12,1.12,0,0,1,.2-.17,2.52,2.52,0,0,1,.49-.28,4.58,4.58,0,0,1,4.13.23A1.25,1.25,0,0,1,41.38,66.93Z"/><path class="cls-3" d="M41.38,66.93a.76.76,0,0,1,0,.21,1.32,1.32,0,0,0-.59-.84,4.58,4.58,0,0,0-4.13-.22,1.82,1.82,0,0,0-1.12,1.12,1.11,1.11,0,0,1,0-.17,1.15,1.15,0,0,1,.29-.73,1.21,1.21,0,0,1,.16-.16,1.12,1.12,0,0,1,.2-.17,2.52,2.52,0,0,1,.49-.28,4.58,4.58,0,0,1,4.13.23A1.25,1.25,0,0,1,41.38,66.93Z"/><path class="cls-4" d="M30.64,65.23s0,0,0,0a1.31,1.31,0,0,0-.6-.83,4.61,4.61,0,0,0-4.13-.24,1.79,1.79,0,0,0-1.11,1.13,1,1,0,0,1,.14-.72s0,0,0,0a.66.66,0,0,1,.12-.17,2.37,2.37,0,0,1,.84-.61A4.61,4.61,0,0,1,30,64a1.55,1.55,0,0,1,.27.23l.11.12.09.13A1,1,0,0,1,30.64,65.23Z"/><path class="cls-3" d="M30.64,64.87a.73.73,0,0,1,0,.36s0,0,0,0a1.31,1.31,0,0,0-.6-.83,4.61,4.61,0,0,0-4.13-.24,1.79,1.79,0,0,0-1.11,1.13,1,1,0,0,1,.14-.72s0,0,0,0a.66.66,0,0,1,.12-.17,2.37,2.37,0,0,1,.84-.61A4.61,4.61,0,0,1,30,64a1.55,1.55,0,0,1,.27.23l.11.12.09.13A1,1,0,0,1,30.64,64.87Z"/><path class="cls-4" d="M58.61,61.54A.88.88,0,0,0,58.2,61a3.11,3.11,0,0,0-2.8-.16,1.23,1.23,0,0,0-.75.76,1,1,0,0,1,0-.25.94.94,0,0,1,.18-.36,1.31,1.31,0,0,1,.12-.11,1.41,1.41,0,0,1,.45-.3,3.17,3.17,0,0,1,2.8.15,1.13,1.13,0,0,1,.32.34A.69.69,0,0,1,58.61,61.54Z"/><path class="cls-3" d="M58.61,61.54A.88.88,0,0,0,58.2,61a3.11,3.11,0,0,0-2.8-.16,1.23,1.23,0,0,0-.75.76,1,1,0,0,1,0-.25,1,1,0,0,1,.18-.36,1.31,1.31,0,0,1,.12-.11,1.41,1.41,0,0,1,.45-.3,3.17,3.17,0,0,1,2.8.15,1.13,1.13,0,0,1,.32.34A.64.64,0,0,1,58.61,61.54Z"/><path class="cls-4" d="M43.69,62.55a.59.59,0,0,1,0,.13.9.9,0,0,0-.39-.57,3.11,3.11,0,0,0-2.8-.15,1.21,1.21,0,0,0-.75.74.15.15,0,0,1,0-.09c0-.33.25-.68.77-.91a3.11,3.11,0,0,1,2.8.15A.88.88,0,0,1,43.69,62.55Z"/><path class="cls-3" d="M43.69,62.55a.59.59,0,0,1,0,.13.9.9,0,0,0-.39-.57,3.11,3.11,0,0,0-2.8-.15,1.21,1.21,0,0,0-.75.74v0a.41.41,0,0,1,0-.11c0-.33.25-.68.77-.91a3.11,3.11,0,0,1,2.8.15A.88.88,0,0,1,43.69,62.55Z"/><path class="cls-4" d="M47.58,69.07h0a.92.92,0,0,0-.41-.56,3.17,3.17,0,0,0-2.8-.15,1.18,1.18,0,0,0-.75.76.74.74,0,0,1,.18-.61,1.31,1.31,0,0,1,.12-.11,1.41,1.41,0,0,1,.45-.3,3.17,3.17,0,0,1,2.8.15,1.54,1.54,0,0,1,.19.17.69.69,0,0,1,.2.33A.55.55,0,0,1,47.58,69.07Z"/><path class="cls-3" d="M47.58,69.07h0a.92.92,0,0,0-.41-.56,3.17,3.17,0,0,0-2.8-.15,1.18,1.18,0,0,0-.75.76.8.8,0,0,1,.18-.61,1.31,1.31,0,0,1,.12-.11,1.41,1.41,0,0,1,.45-.3,3.17,3.17,0,0,1,2.8.15,1.54,1.54,0,0,1,.19.17.62.62,0,0,1,.2.33A.55.55,0,0,1,47.58,69.07Z"/><path class="cls-4" d="M53.23,58.37h0a1,1,0,0,0-.41-.56A3.09,3.09,0,0,0,50,57.66a1.22,1.22,0,0,0-.76.76.71.71,0,0,1,.18-.6A1.58,1.58,0,0,1,50,57.4a3.12,3.12,0,0,1,2.79.16,1,1,0,0,1,.39.5A.81.81,0,0,1,53.23,58.37Z"/><path class="cls-3" d="M53.23,58.37h0a1,1,0,0,0-.41-.56A3.09,3.09,0,0,0,50,57.66a1.22,1.22,0,0,0-.76.76.78.78,0,0,1,.18-.6A1.58,1.58,0,0,1,50,57.4a3.12,3.12,0,0,1,2.79.16,1,1,0,0,1,.39.5A.65.65,0,0,1,53.23,58.37Z"/><path class="cls-4" d="M34.21,68.94a.68.68,0,0,1,0,.15,1,1,0,0,0-.4-.57,3.17,3.17,0,0,0-2.8-.15,1.22,1.22,0,0,0-.75.75.22.22,0,0,1,0-.11c0-.33.26-.67.77-.9a3.17,3.17,0,0,1,2.8.15A.86.86,0,0,1,34.21,68.94Z"/><path class="cls-3" d="M34.21,68.94a.68.68,0,0,1,0,.15,1,1,0,0,0-.4-.57,3.17,3.17,0,0,0-2.8-.15,1.22,1.22,0,0,0-.75.75h0a.45.45,0,0,1,0-.12c0-.33.26-.67.77-.9a3.17,3.17,0,0,1,2.8.15A.86.86,0,0,1,34.21,68.94Z"/><path class="cls-4" d="M40.42,72.42h0a1,1,0,0,0-.41-.56,3.11,3.11,0,0,0-2.8-.15,1.21,1.21,0,0,0-.75.76.72.72,0,0,1,.18-.61,1.14,1.14,0,0,1,.11-.11,1.59,1.59,0,0,1,.46-.3,3.11,3.11,0,0,1,2.8.15,1.54,1.54,0,0,1,.19.17.77.77,0,0,1,.2.33A.83.83,0,0,1,40.42,72.42Z"/><path class="cls-3" d="M40.42,72.42h0a1,1,0,0,0-.41-.56,3.11,3.11,0,0,0-2.8-.15,1.21,1.21,0,0,0-.75.76.79.79,0,0,1,.18-.61,1.14,1.14,0,0,1,.11-.11,1.59,1.59,0,0,1,.46-.3,3.11,3.11,0,0,1,2.8.15,1.54,1.54,0,0,1,.19.17.72.72,0,0,1,.2.33A.66.66,0,0,1,40.42,72.42Z"/><path class="cls-4" d="M47,59.45A.73.73,0,0,0,46.7,59a2.63,2.63,0,0,0-2.36-.13,1,1,0,0,0-.64.64.68.68,0,0,1,.24-.6,1.08,1.08,0,0,1,.24-.18l.16-.08a2.6,2.6,0,0,1,2.36.13.67.67,0,0,1,.15.14A.58.58,0,0,1,47,59.45Z"/><path class="cls-3" d="M47,59.45A.73.73,0,0,0,46.7,59a2.63,2.63,0,0,0-2.36-.13,1,1,0,0,0-.64.64.68.68,0,0,1,.24-.6,1.08,1.08,0,0,1,.24-.18l.16-.08a2.6,2.6,0,0,1,2.36.13.67.67,0,0,1,.15.14A.58.58,0,0,1,47,59.45Z"/><path class="cls-4" d="M35.56,63.85v0c0,.05,0,.08,0,.12a.74.74,0,0,0-.34-.47,2.57,2.57,0,0,0-2.35-.13,1.07,1.07,0,0,0-.64.63c0-.32.16-.64.64-.85a2.67,2.67,0,0,1,2.35.12,1.17,1.17,0,0,1,.27.28A.57.57,0,0,1,35.56,63.85Z"/><path class="cls-3" d="M35.56,63.85v0c0,.05,0,.08,0,.12a.74.74,0,0,0-.34-.47,2.57,2.57,0,0,0-2.35-.13,1.07,1.07,0,0,0-.64.63c0-.32.16-.64.64-.85a2.67,2.67,0,0,1,2.35.12,1.17,1.17,0,0,1,.27.28A.57.57,0,0,1,35.56,63.85Z"/><path class="cls-4" d="M39.31,59.32a.74.74,0,0,0-.33-.47,2.63,2.63,0,0,0-2.36-.14,1,1,0,0,0-.63.65A.58.58,0,0,1,36,59a.69.69,0,0,1,.21-.29.89.89,0,0,1,.24-.18l.15-.08a2.66,2.66,0,0,1,2.36.13.67.67,0,0,1,.15.14.56.56,0,0,1,.17.28h0A.5.5,0,0,1,39.31,59.32Z"/><path class="cls-3" d="M39.31,59.32a.74.74,0,0,0-.33-.47,2.63,2.63,0,0,0-2.36-.14,1,1,0,0,0-.63.65A.58.58,0,0,1,36,59a.69.69,0,0,1,.21-.29.89.89,0,0,1,.24-.18l.15-.08a2.66,2.66,0,0,1,2.36.13.67.67,0,0,1,.15.14.64.64,0,0,1,.17.28h0A.5.5,0,0,1,39.31,59.32Z"/><path class="cls-5" d="M67.62,39.87C63.59,21.59,26.19,16,26.19,16L0,63Z"/><path class="cls-2" d="M67.62,23.92C63.59,5.64,26.19,0,26.19,0L0,47Z"/><polygon class="cls-1" points="67.62 23.92 67.62 39.87 0 62.96 0 47.01 67.62 23.92"/><path class="cls-3" d="M60.86,30.83a2.18,2.18,0,0,0,2.53,2.35A3.26,3.26,0,0,0,66,30a2.2,2.2,0,0,0-2.54-2.35A3.26,3.26,0,0,0,60.86,30.83Z"/><path class="cls-6" d="M65.13,28.1a2.48,2.48,0,0,1,.53,1.6,3.28,3.28,0,0,1-2.58,3.17,2.14,2.14,0,0,1-1.69-.44,2.08,2.08,0,0,0,2,.75A3.26,3.26,0,0,0,66,30,2.42,2.42,0,0,0,65.13,28.1Z"/><path class="cls-3" d="M11.86,53.59a2.19,2.19,0,0,0,2.54,2.35A3.27,3.27,0,0,0,17,52.78a2.2,2.2,0,0,0-2.54-2.35A3.27,3.27,0,0,0,11.86,53.59Z"/><path class="cls-6" d="M16.13,50.86a2.51,2.51,0,0,1,.54,1.6,3.29,3.29,0,0,1-2.59,3.17,2.11,2.11,0,0,1-1.68-.43,2.06,2.06,0,0,0,2,.74A3.27,3.27,0,0,0,17,52.78,2.39,2.39,0,0,0,16.13,50.86Z"/><path class="cls-3" d="M29.16,47.5a2.2,2.2,0,0,0,2.54,2.35,3.28,3.28,0,0,0,2.58-3.17,2.19,2.19,0,0,0-2.54-2.35A3.29,3.29,0,0,0,29.16,47.5Z"/><path class="cls-6" d="M33.43,44.77a2.47,2.47,0,0,1,.54,1.6,3.26,3.26,0,0,1-2.59,3.16,2.08,2.08,0,0,1-1.68-.43,2.09,2.09,0,0,0,2,.75,3.28,3.28,0,0,0,2.58-3.17A2.34,2.34,0,0,0,33.43,44.77Z"/><path class="cls-3" d="M34.75,40.19a2.2,2.2,0,0,0,2.54,2.35,3.29,3.29,0,0,0,2.58-3.17A2.19,2.19,0,0,0,37.34,37,3.28,3.28,0,0,0,34.75,40.19Z"/><path class="cls-6" d="M39,37.45a2.52,2.52,0,0,1,.54,1.61A3.26,3.26,0,0,1,37,42.22a2.11,2.11,0,0,1-1.68-.43,2.09,2.09,0,0,0,2,.75,3.29,3.29,0,0,0,2.58-3.17A2.37,2.37,0,0,0,39,37.45Z"/><path class="cls-3" d="M57.22,39A1.54,1.54,0,0,0,59,40.62a2.3,2.3,0,0,0,1.82-2.23A1.54,1.54,0,0,0,59,36.74,2.29,2.29,0,0,0,57.22,39Z"/><path class="cls-6" d="M60.22,37a1.7,1.7,0,0,1,.38,1.13,2.31,2.31,0,0,1-1.82,2.23,1.45,1.45,0,0,1-1.18-.31,1.47,1.47,0,0,0,1.4.53,2.3,2.3,0,0,0,1.82-2.23A1.66,1.66,0,0,0,60.22,37Z"/><path class="cls-3" d="M7.46,49a1.54,1.54,0,0,0,1.79,1.66,2.3,2.3,0,0,0,1.81-2.23,1.54,1.54,0,0,0-1.78-1.65A2.29,2.29,0,0,0,7.46,49Z"/><path class="cls-6" d="M10.46,47.09a1.7,1.7,0,0,1,.38,1.13A2.31,2.31,0,0,1,9,50.45a1.45,1.45,0,0,1-1.18-.31,1.48,1.48,0,0,0,1.41.53,2.3,2.3,0,0,0,1.81-2.23A1.66,1.66,0,0,0,10.46,47.09Z"/><path class="cls-3" d="M20.62,51.7a1.54,1.54,0,0,0,1.79,1.65,2.3,2.3,0,0,0,1.82-2.22,1.54,1.54,0,0,0-1.79-1.66A2.31,2.31,0,0,0,20.62,51.7Z"/><path class="cls-6" d="M23.63,49.78A1.78,1.78,0,0,1,24,50.9a2.31,2.31,0,0,1-1.82,2.23,1.51,1.51,0,0,1-1.19-.3,1.45,1.45,0,0,0,1.41.52,2.3,2.3,0,0,0,1.82-2.22A1.68,1.68,0,0,0,23.63,49.78Z"/><path class="cls-3" d="M27.17,41.7A1.55,1.55,0,0,0,29,43.36a2.32,2.32,0,0,0,1.82-2.23A1.56,1.56,0,0,0,29,39.47,2.31,2.31,0,0,0,27.17,41.7Z"/><path class="cls-6" d="M30.18,39.78a1.74,1.74,0,0,1,.37,1.13,2.31,2.31,0,0,1-1.82,2.23,1.49,1.49,0,0,1-1.18-.31,1.48,1.48,0,0,0,1.41.53,2.32,2.32,0,0,0,1.82-2.23A1.72,1.72,0,0,0,30.18,39.78Z"/><path class="cls-3" d="M43.41,37.74A1.55,1.55,0,0,0,45.2,39.4,2.32,2.32,0,0,0,47,37.17a1.55,1.55,0,0,0-1.79-1.66A2.31,2.31,0,0,0,43.41,37.74Z"/><path class="cls-6" d="M46.42,35.82A1.81,1.81,0,0,1,46.8,37,2.32,2.32,0,0,1,45,39.18a1.51,1.51,0,0,1-1.19-.31,1.48,1.48,0,0,0,1.41.53A2.32,2.32,0,0,0,47,37.17,1.68,1.68,0,0,0,46.42,35.82Z"/><path class="cls-3" d="M50.75,34.4a2.57,2.57,0,0,0,3,2.76,3.84,3.84,0,0,0,3-3.71,2.57,2.57,0,0,0-3-2.76A3.84,3.84,0,0,0,50.75,34.4Z"/><path class="cls-6" d="M55.75,31.2a2.86,2.86,0,0,1,.63,1.88,3.84,3.84,0,0,1-3,3.71,2.47,2.47,0,0,1-2-.51,2.45,2.45,0,0,0,2.34.88,3.84,3.84,0,0,0,3-3.71A2.76,2.76,0,0,0,55.75,31.2Z"/><path class="cls-3" d="M39.87,43.86a2.58,2.58,0,0,0,3,2.75,3.84,3.84,0,0,0,3-3.71,2.57,2.57,0,0,0-3-2.75A3.84,3.84,0,0,0,39.87,43.86Z"/><path class="cls-6" d="M44.88,40.65a3,3,0,0,1,.63,1.88,3.84,3.84,0,0,1-3,3.71,2.5,2.5,0,0,1-2-.51,2.47,2.47,0,0,0,2.35.88,3.84,3.84,0,0,0,3-3.71A2.85,2.85,0,0,0,44.88,40.65Z"/><path class="cls-3" d="M2.25,56.93a2.57,2.57,0,0,0,3,2.76,3.84,3.84,0,0,0,3-3.71,2.57,2.57,0,0,0-3-2.76A3.84,3.84,0,0,0,2.25,56.93Z"/><path class="cls-6" d="M7.25,53.73a2.86,2.86,0,0,1,.63,1.88,3.84,3.84,0,0,1-3,3.71,2.47,2.47,0,0,1-2-.51,2.45,2.45,0,0,0,2.34.88,3.84,3.84,0,0,0,3-3.71A2.77,2.77,0,0,0,7.25,53.73Z"/><path class="cls-3" d="M17.62,45.94a2.56,2.56,0,0,0,3,2.75,3.83,3.83,0,0,0,3-3.71,2.57,2.57,0,0,0-3-2.75A3.83,3.83,0,0,0,17.62,45.94Z"/><path class="cls-6" d="M22.62,42.74a2.82,2.82,0,0,1,.63,1.87,3.83,3.83,0,0,1-3,3.71,2.44,2.44,0,0,1-2-.51,2.45,2.45,0,0,0,2.34.88,3.83,3.83,0,0,0,3-3.71A2.75,2.75,0,0,0,22.62,42.74Z"/><path class="cls-1" d="M45.78,25.11a4.53,4.53,0,0,1-4.05-.06c-1-.66-.81-1.69.42-2.32a4.53,4.53,0,0,1,4.05.06C47.2,23.45,47,24.48,45.78,25.11Z"/><path class="cls-3" d="M42.15,23.09a4.53,4.53,0,0,1,4.05.06,1.34,1.34,0,0,1,.62.83,1.15,1.15,0,0,0-.62-1.19,4.53,4.53,0,0,0-4.05-.06c-.78.4-1.14,1-1,1.49A1.8,1.8,0,0,1,42.15,23.09Z"/><path class="cls-1" d="M53.52,14.6a4.48,4.48,0,0,1-4-.06c-1-.65-.82-1.69.42-2.31a4.44,4.44,0,0,1,4,.06C54.94,12.94,54.75,14,53.52,14.6Z"/><path class="cls-3" d="M49.9,12.59a4.48,4.48,0,0,1,4,.06,1.28,1.28,0,0,1,.62.82,1.13,1.13,0,0,0-.62-1.18,4.44,4.44,0,0,0-4-.06c-.79.39-1.15,1-1,1.49A1.8,1.8,0,0,1,49.9,12.59Z"/><path class="cls-1" d="M24.24,20.89a4.5,4.5,0,0,1-4-.06c-1-.65-.81-1.69.42-2.31a4.5,4.5,0,0,1,4.05.06C25.66,19.23,25.47,20.27,24.24,20.89Z"/><path class="cls-3" d="M20.61,18.88a4.5,4.5,0,0,1,4.05.06,1.32,1.32,0,0,1,.62.82,1.16,1.16,0,0,0-.62-1.18,4.5,4.5,0,0,0-4.05-.06c-.78.39-1.14,1-1,1.49A1.75,1.75,0,0,1,20.61,18.88Z"/><path class="cls-1" d="M33.53,25.43a4.44,4.44,0,0,1-4-.06c-1-.65-.81-1.69.42-2.31a4.48,4.48,0,0,1,4,.06C35,23.77,34.77,24.81,33.53,25.43Z"/><path class="cls-3" d="M29.91,23.42a4.51,4.51,0,0,1,4,.06,1.32,1.32,0,0,1,.63.83A1.16,1.16,0,0,0,34,23.12a4.48,4.48,0,0,0-4-.06c-.79.4-1.14,1-1,1.49A1.77,1.77,0,0,1,29.91,23.42Z"/><path class="cls-1" d="M37.1,33.06a4.48,4.48,0,0,1-4-.06c-1-.65-.82-1.69.42-2.31a4.48,4.48,0,0,1,4,.06C38.52,31.4,38.33,32.44,37.1,33.06Z"/><path class="cls-3" d="M33.48,31.05a4.48,4.48,0,0,1,4,.06,1.32,1.32,0,0,1,.62.82,1.13,1.13,0,0,0-.62-1.18,4.48,4.48,0,0,0-4-.06c-.79.4-1.15,1-1,1.49A1.82,1.82,0,0,1,33.48,31.05Z"/><path class="cls-1" d="M38.73,11.87a4.5,4.5,0,0,1-4-.06c-1-.65-.81-1.69.42-2.31a4.5,4.5,0,0,1,4,.06C40.15,10.21,40,11.25,38.73,11.87Z"/><path class="cls-3" d="M35.1,9.86a4.5,4.5,0,0,1,4,.06,1.32,1.32,0,0,1,.62.82,1.16,1.16,0,0,0-.62-1.18,4.5,4.5,0,0,0-4-.06c-.78.4-1.14,1-1,1.49A1.75,1.75,0,0,1,35.1,9.86Z"/><path class="cls-1" d="M18.12,29.92a4.48,4.48,0,0,1-4-.06c-1-.65-.81-1.69.42-2.31a4.48,4.48,0,0,1,4,.06C19.55,28.26,19.36,29.3,18.12,29.92Z"/><path class="cls-3" d="M14.5,27.91a4.48,4.48,0,0,1,4,.06,1.3,1.3,0,0,1,.63.82,1.15,1.15,0,0,0-.63-1.18,4.48,4.48,0,0,0-4-.06c-.79.4-1.14,1-1,1.49A1.75,1.75,0,0,1,14.5,27.91Z"/><path class="cls-1" d="M41.44,19.62a5.89,5.89,0,0,1-5.31-.07c-1.31-.86-1.06-2.22.55-3a5.92,5.92,0,0,1,5.31.08C43.3,17.45,43.05,18.81,41.44,19.62Z"/><path class="cls-3" d="M36.68,17a5.89,5.89,0,0,1,5.31.07,1.7,1.7,0,0,1,.81,1.09A1.52,1.52,0,0,0,42,16.59a5.92,5.92,0,0,0-5.31-.08c-1,.52-1.5,1.26-1.36,1.95A2.3,2.3,0,0,1,36.68,17Z"/><path class="cls-1" d="M61.4,21.26a5.89,5.89,0,0,1-5.31-.08c-1.31-.86-1.06-2.22.55-3a5.89,5.89,0,0,1,5.31.08C63.26,19.09,63,20.44,61.4,21.26Z"/><path class="cls-3" d="M56.64,18.62A5.92,5.92,0,0,1,62,18.7a1.71,1.71,0,0,1,.81,1.08A1.51,1.51,0,0,0,62,18.23a5.89,5.89,0,0,0-5.31-.08c-1,.52-1.49,1.26-1.36,2A2.34,2.34,0,0,1,56.64,18.62Z"/><path class="cls-1" d="M32.64,7.07A5.9,5.9,0,0,1,27.34,7c-1.31-.86-1.07-2.22.55-3A5.92,5.92,0,0,1,33.2,4C34.51,4.89,34.26,6.25,32.64,7.07Z"/><path class="cls-3" d="M27.89,4.43a5.89,5.89,0,0,1,5.31.08A1.71,1.71,0,0,1,34,5.59,1.52,1.52,0,0,0,33.2,4,5.92,5.92,0,0,0,27.89,4c-1,.52-1.5,1.26-1.36,2A2.28,2.28,0,0,1,27.89,4.43Z"/><path class="cls-1" d="M20.62,37.37a5.87,5.87,0,0,1-5.3-.07c-1.31-.86-1.07-2.22.55-3a5.92,5.92,0,0,1,5.31.08C22.49,35.2,22.24,36.56,20.62,37.37Z"/><path class="cls-3" d="M15.87,34.74a5.89,5.89,0,0,1,5.31.07A1.7,1.7,0,0,1,22,35.9a1.52,1.52,0,0,0-.81-1.56,5.92,5.92,0,0,0-5.31-.08c-1,.52-1.5,1.26-1.37,2A2.32,2.32,0,0,1,15.87,34.74Z"/><path class="cls-1" d="M50.45,19.91a2.91,2.91,0,0,1-2.64,0c-.65-.43-.53-1.1.27-1.51a2.93,2.93,0,0,1,2.65,0C51.38,18.83,51.26,19.5,50.45,19.91Z"/><path class="cls-3" d="M48.08,18.6a2.93,2.93,0,0,1,2.65,0,.85.85,0,0,1,.4.54.75.75,0,0,0-.4-.78,2.93,2.93,0,0,0-2.65,0c-.51.26-.74.63-.68,1A1.18,1.18,0,0,1,48.08,18.6Z"/><path class="cls-1" d="M27.68,30a3,3,0,0,1-2.64,0c-.66-.43-.53-1.11.27-1.51a2.94,2.94,0,0,1,2.64,0C28.61,28.86,28.48,29.54,27.68,30Z"/><path class="cls-3" d="M25.31,28.63a2.94,2.94,0,0,1,2.64,0,.86.86,0,0,1,.41.54.77.77,0,0,0-.41-.78,2.94,2.94,0,0,0-2.64,0c-.51.26-.75.62-.68,1A1.14,1.14,0,0,1,25.31,28.63Z"/><path class="cls-1" d="M29.55,15.19a2.91,2.91,0,0,1-2.64,0c-.65-.42-.53-1.1.28-1.51a2.94,2.94,0,0,1,2.64,0C30.48,14.11,30.36,14.79,29.55,15.19Z"/><path class="cls-3" d="M27.19,13.88a2.91,2.91,0,0,1,2.64,0,.79.79,0,0,1,.4.54.75.75,0,0,0-.4-.78,2.94,2.94,0,0,0-2.64,0c-.52.26-.75.63-.68,1A1.15,1.15,0,0,1,27.19,13.88Z"/><path class="cls-1" d="M9.44,42.35a2.93,2.93,0,0,1-2.65,0c-.65-.42-.53-1.1.28-1.51a2.94,2.94,0,0,1,2.64,0C10.36,41.27,10.24,42,9.44,42.35Z"/><path class="cls-3" d="M7.07,41a2.91,2.91,0,0,1,2.64,0,.84.84,0,0,1,.41.54.77.77,0,0,0-.41-.78,2.94,2.94,0,0,0-2.64,0c-.51.26-.75.63-.68,1A1.14,1.14,0,0,1,7.07,41Z"/><path class="cls-1" d="M45,29.81a2.91,2.91,0,0,1-2.64,0c-.65-.42-.53-1.1.28-1.51a3,3,0,0,1,2.64,0C45.9,28.73,45.78,29.41,45,29.81Z"/><path class="cls-3" d="M42.61,28.5a2.91,2.91,0,0,1,2.64,0,.82.82,0,0,1,.4.54.75.75,0,0,0-.4-.78,3,3,0,0,0-2.64,0c-.52.26-.75.63-.69,1A1.18,1.18,0,0,1,42.61,28.5Z"/><path class="cls-1" d="M56.81,25.46a2.94,2.94,0,0,1-2.64,0c-.65-.43-.53-1.11.27-1.51a2.93,2.93,0,0,1,2.65,0C57.74,24.37,57.62,25.05,56.81,25.46Z"/><path class="cls-3" d="M54.44,24.14a3,3,0,0,1,2.65,0,.88.88,0,0,1,.4.54.73.73,0,0,0-.4-.77,2.93,2.93,0,0,0-2.65,0c-.51.26-.74.63-.68,1A1.2,1.2,0,0,1,54.44,24.14Z"/><path class="cls-1" d="M46.69,10.79a2.91,2.91,0,0,1-2.64,0c-.65-.42-.53-1.1.28-1.51a2.94,2.94,0,0,1,2.64,0C47.62,9.71,47.5,10.39,46.69,10.79Z"/><path class="cls-3" d="M44.33,9.48a2.91,2.91,0,0,1,2.64,0,.84.84,0,0,1,.41.54A.77.77,0,0,0,47,9.28a2.94,2.94,0,0,0-2.64,0c-.52.26-.75.63-.68,1A1.14,1.14,0,0,1,44.33,9.48Z"/></g></g></svg>