<svg xmlns="http://www.w3.org/2000/svg" viewBox="0 0 74.41 79.9"><defs><style>.cls-1{fill:#f2d9bc;}.cls-2{fill:#ebdac4;}.cls-3{fill:#eecfa7;}.cls-4{fill:#f6e3cb;}.cls-5{fill:#fefefe;}</style></defs><g id="Layer_2" data-name="Layer 2"><g id="Layer"><path class="cls-1" d="M33,47.13A4.69,4.69,0,0,1,30.41,51a9.48,9.48,0,0,1-4.26,1.11c-.45,0-.89,0-1.33,0A10.62,10.62,0,0,1,19.24,51a4.65,4.65,0,0,1-2.57-3.91,14.08,14.08,0,0,1,.68-2.85,53.26,53.26,0,0,0,.46-6.1V19.58h14v18.6a51.08,51.08,0,0,0,.46,6.1A13.46,13.46,0,0,1,33,47.13Z"/><path class="cls-2" d="M23.94,52.16h0Z"/><path class="cls-3" d="M31.84,35a.77.77,0,0,1-.38.52c-1.67,1.06-3.78,1.16-5.76,1.22a18.53,18.53,0,0,1-3-.13,3.35,3.35,0,0,0-2.42.51,2.23,2.23,0,0,0-.78,1.57c0,.18,0,.4,0,.63v-.46c0,.49,0,1-.06,1.57-.06,1.1-.13,2.18-.26,3.28a6.56,6.56,0,0,0,1.32,5.41,7.38,7.38,0,0,0,2.53,2,25.4,25.4,0,0,0,3.12,1c-.45,0-.89,0-1.33,0A10.62,10.62,0,0,1,19.24,51a4.65,4.65,0,0,1-2.57-3.91,14.08,14.08,0,0,1,.68-2.85,53.26,53.26,0,0,0,.46-6.1V36c0-.62-.08-1.25-.07-1.86a2,2,0,0,1,.07-.49,5.81,5.81,0,0,1,.63-1.21,4.56,4.56,0,0,1,2.24-2.18c1.69-.55,2.95.48,4.44,1,1.85.68,3.85.9,5.72,1.54a1.47,1.47,0,0,1,.77.48,1.43,1.43,0,0,1,.17.6l.06.41A1.83,1.83,0,0,1,31.84,35Z"/><path class="cls-1" d="M47.42,12.76A26,26,0,0,0,44.64,9,27.7,27.7,0,0,0,30.75.7a22.34,22.34,0,0,0-10.9,0A29.14,29.14,0,0,0,16,1.91,27.1,27.1,0,0,0,5.78,9C2.31,12.93-.8,18.78.19,24.18c1.19,6.52,9,9.45,14.73,10.7a52.79,52.79,0,0,0,12,1,36.44,36.44,0,0,0,7.71-1c2.34-.55,4.92-1,7-2.19A29.41,29.41,0,0,0,47.25,29a9,9,0,0,0,3.16-7.5A18.84,18.84,0,0,0,47.42,12.76Z"/><path class="cls-4" d="M40.18,6.43a28,28,0,0,0-8.26-4.52C28.68.74,24.41,1,21.06,1.52c-4.77.79-9.12,3.41-11.12,8a11.9,11.9,0,0,0,.16,9.57c2.66,5.87,9.25,8.61,15.3,9.3,4.4.51,9,.34,13.07-1.41,3.49-1.5,7.57-4.42,7.68-8.5C46.29,13.35,43.79,9.37,40.18,6.43Z"/><path class="cls-5" d="M42,11.53a18.39,18.39,0,0,0-4.65-5.72A14.48,14.48,0,0,0,32.1,3.19a4.34,4.34,0,0,0-2.91,0c-.69.44-.24,1.19.33,1.55,1.44.89,3.22,1.1,4.64,2a16.51,16.51,0,0,1,3.66,3.47,19.81,19.81,0,0,1,2.18,3c.68,1.18.92,2.79,2.55,2.68a.63.63,0,0,0,.43-.15C43.81,14.8,42.4,12.38,42,11.53Z"/><path class="cls-3" d="M43.68,31.07c-2.12,1.21-4.7,1.63-7,2.19a37,37,0,0,1-7.7,1,52.36,52.36,0,0,1-12-1C11.19,32,3.35,29.11,2.16,22.58c-1-5.4,2.12-11.25,5.59-15.17A25.39,25.39,0,0,1,9.83,5.34,25.64,25.64,0,0,0,5.78,9C2.31,12.93-.8,18.78.19,24.18c1.19,6.52,9,9.45,14.73,10.7a52.79,52.79,0,0,0,12,1,37.1,37.1,0,0,0,7.71-1c2.34-.55,4.92-1,7-2.19A29.41,29.41,0,0,0,47.25,29l.24-.23C46.27,29.64,45,30.33,43.68,31.07Z"/><path class="cls-3" d="M73.86,55a8.79,8.79,0,0,1-7.54,5.45,10.22,10.22,0,0,1-3.62-.32A24.91,24.91,0,0,1,55.87,57l-.48-.27,0,0L45,62.64a6.57,6.57,0,0,1-2.66.81,6.77,6.77,0,0,1-2-.08A4.24,4.24,0,0,1,39,62.89L33.88,60a1.83,1.83,0,0,1-1-1.33h0v0c0-.11,0-.21,0-.32V57.17h.59a3.76,3.76,0,0,1,.88-.67l3.2-1.85.67-.39,6.52-3.76a1.83,1.83,0,0,0-.34-.18C42,49,37.84,47.44,37.52,45.54a4.22,4.22,0,0,1,0-.49h0V43.94l.15.06c1.44-4.46,13.14-4.85,19-4.1a25.36,25.36,0,0,1,9.26,2.92l2.86,1.65c.25.14.49.29.72.44s.64.43.94.65C73.7,48.11,75,51.53,73.86,55Z"/><path class="cls-3" d="M39,57.05c.43.18.85.38,1.26.58a.42.42,0,0,1,.18.14.36.36,0,0,1,0,.25,6,6,0,0,1-.17.73,2.87,2.87,0,0,0-.06.78v3.32A4,4,0,0,1,39,62.38l-5.09-2.94a1.87,1.87,0,0,1-1-1.33v0c0-.11,0-.21,0-.31a2.59,2.59,0,0,1,0-.88c.15-.28.79-.41,1.07-.49a6.34,6.34,0,0,1,2.74-.09A11.44,11.44,0,0,1,39,57.05Z"/><path class="cls-3" d="M73.86,54.45a8.79,8.79,0,0,1-7.54,5.46,10.48,10.48,0,0,1-3.62-.33,25.2,25.2,0,0,1-6.83-3.14l-.48-.28c-.22-.12,0-2.64,0-2.9,0-.66-.26-2,.3-2.33s2.1,0,2.8.23c1,.28,1.94.71,2.92,1a14.56,14.56,0,0,0,4.4.75,3.43,3.43,0,0,0,1-.09,4.15,4.15,0,0,0,1.05-.53,4.57,4.57,0,0,0,2.18-2.27,5.84,5.84,0,0,0,.1-1.82,6.05,6.05,0,0,1,.41-2.42c1.61.1,2.71,2.25,3.22,3.63A7.68,7.68,0,0,1,73.86,54.45Z"/><path class="cls-4" d="M73.86,53.34c1.1-3.43-.16-6.85-3.51-9.4a18.86,18.86,0,0,0-1.65-1.09L65.83,41.2a25.3,25.3,0,0,0-9.26-2.92c-6.42-.83-20-.26-19,5.64.32,1.9,4.45,3.48,6.86,4.78a3.47,3.47,0,0,1,.33.18l-10.4,6c-1.77,1-2,2.57-.43,3.46L39,61.27A6.63,6.63,0,0,0,45,61l10.38-6,.53.3a25.21,25.21,0,0,0,6.83,3.15,10.67,10.67,0,0,0,3.61.33A8.8,8.8,0,0,0,73.86,53.34Z"/><path class="cls-1" d="M65.3,54.76a9.67,9.67,0,0,1-2.74.35c-1.07,0-2.11-.07-3.18-.09s-2-.15-2.94-.09a4.34,4.34,0,0,0-2.32.8C51.11,57.52,48,59.26,45,61a6.66,6.66,0,0,1-6,.26l-1.72-1-1-.59-2.35-1.35c-1.53-.89-1.34-2.44.44-3.47L42.6,50.1c.76-.45,1.84-.84,1.93-1.47a2,2,0,0,0-.93-1.74l0,0c-.74-.7-1.73-1.36-1.77-2.22a1,1,0,0,1,.06-.42A3.31,3.31,0,0,1,43,42.74c2.56-2.06,7.29-2.87,11-2.44a23.88,23.88,0,0,1,8.51,2.76c3.05,1.61,5.4,3.34,6.26,5.82A4.63,4.63,0,0,1,65.3,54.76Z"/><path class="cls-4" d="M64,49.51a3.83,3.83,0,0,1-2,2.77,7.44,7.44,0,0,1-1.74,1,18.78,18.78,0,0,1-3.13.55,51.13,51.13,0,0,0-6.32,1.55q-3.14.91-6.09,2a40.12,40.12,0,0,0-5.19,2.23,5.94,5.94,0,0,1-1,.52,2.47,2.47,0,0,1-1.25.16h0l-1-.59a.56.56,0,0,1-.09-.6,10,10,0,0,1,2.62-2.25,14.27,14.27,0,0,0,2.77-2.63,23.58,23.58,0,0,0,2.06-3.15A12.1,12.1,0,0,0,45,48.2a11.74,11.74,0,0,1,.58-1.86c.46-1.1,2.11-2.06,4-2.49a14,14,0,0,1,8.64.91c1,.46,1.88,1,2.77,1.47C62.51,47.11,64,48.17,64,49.51Z"/><path class="cls-3" d="M50.67,48.22a6.58,6.58,0,0,0,.93-.67c.23-.2.41-.42.37-.64s-.41-.35-.72-.45a22,22,0,0,0-2.42-.56c-1.17-.27-2.31-.57-3.41-.9a11.25,11.25,0,0,0-2.69-.6,3,3,0,0,0-1.11.11c-.34.12-.59.38-.46.57a.69.69,0,0,0,.22.18l4.78,3a3.79,3.79,0,0,0,2.5.72A5.18,5.18,0,0,0,50.67,48.22Z"/><path class="cls-3" d="M57.18,51.48c.76-.42,1.63-1.26,2.49-.75a4.8,4.8,0,0,1,1.42,1.74,17.87,17.87,0,0,0,1.55,2,3.61,3.61,0,0,1,1,1.55.7.7,0,0,1-.19.64,1.2,1.2,0,0,1-1,.27,1,1,0,0,1-.32-.13L57.06,54c-.7-.37-1.45-.84-1.24-1.44C56,52.14,56.59,51.79,57.18,51.48Z"/><path class="cls-3" d="M74.14,74a6.13,6.13,0,0,1-5.24,3.79,7.1,7.1,0,0,1-2.5-.23,17.44,17.44,0,0,1-4.74-2.18l-.33-.19,0,0-7.2,4.16a4.5,4.5,0,0,1-1.84.56,4.65,4.65,0,0,1-1.4-.06,3.06,3.06,0,0,1-.91-.33l-3.53-2a1.24,1.24,0,0,1-.7-.92h0v0a1.62,1.62,0,0,1,0-.22v-.77h.41a2.7,2.7,0,0,1,.6-.46l2.23-1.29.46-.26,4.52-2.62-.23-.12c-1.66-.9-4.53-2-4.75-3.31a2,2,0,0,1,0-.34h0v-.77l.11,0c1-3.09,9.11-3.36,13.14-2.84a17.34,17.34,0,0,1,6.41,2l2,1.15.5.3c.23.15.45.3.65.45C74,69.24,74.9,71.61,74.14,74Z"/><path class="cls-3" d="M50,75.29c.3.13.59.26.87.4a.32.32,0,0,1,.13.1A.27.27,0,0,1,51,76a3,3,0,0,1-.12.5,1.91,1.91,0,0,0,0,.54v2.3a2.8,2.8,0,0,1-.91-.32l-3.53-2A1.32,1.32,0,0,1,45.7,76v0a1.61,1.61,0,0,1,0-.22,1.77,1.77,0,0,1,0-.61c.1-.19.54-.29.74-.34a4.35,4.35,0,0,1,1.9-.06A7.42,7.42,0,0,1,50,75.29Z"/><path class="cls-4" d="M74.14,72.72C74.9,70.34,74,68,71.7,66.2a10,10,0,0,0-1.15-.76l-2-1.14a17.45,17.45,0,0,0-6.42-2c-4.46-.58-13.9-.19-13.21,3.9.22,1.32,3.08,2.42,4.75,3.32l.23.12-7.21,4.16c-1.23.71-1.36,1.79-.3,2.4l3.53,2A4.59,4.59,0,0,0,54.09,78l7.2-4.15.37.21a17.44,17.44,0,0,0,4.74,2.18,7.1,7.1,0,0,0,2.5.23A6.13,6.13,0,0,0,74.14,72.72Z"/><path class="cls-1" d="M68.2,73.7a7.08,7.08,0,0,1-1.9.25c-.75,0-1.47-.06-2.2-.07s-1.38-.1-2-.06a3,3,0,0,0-1.61.55c-2.09,1.24-4.24,2.45-6.36,3.67a4.63,4.63,0,0,1-4.15.18l-1.19-.69L48,77.12l-1.63-.94c-1.06-.61-.93-1.69.3-2.4l5.75-3.31c.53-.31,1.28-.58,1.34-1a1.44,1.44,0,0,0-.65-1.21l0,0c-.51-.48-1.2-.94-1.23-1.54a1,1,0,0,1,0-.29,2.29,2.29,0,0,1,.81-1c1.77-1.43,5-2,7.61-1.69a16.45,16.45,0,0,1,5.91,1.91c2.11,1.12,3.74,2.32,4.33,4A3.2,3.2,0,0,1,68.2,73.7Z"/><path class="cls-4" d="M67.31,70.06A2.65,2.65,0,0,1,65.93,72a5,5,0,0,1-1.2.67,13,13,0,0,1-2.17.38,33.5,33.5,0,0,0-4.39,1.08c-1.44.41-2.85.89-4.22,1.41a26.72,26.72,0,0,0-3.6,1.55,4.4,4.4,0,0,1-.72.36,1.7,1.7,0,0,1-.86.1h0L48,77.12A.39.39,0,0,1,48,76.7a6.93,6.93,0,0,1,1.82-1.55,9.57,9.57,0,0,0,1.91-1.83,15.76,15.76,0,0,0,1.44-2.18,8.74,8.74,0,0,0,1-2,9.11,9.11,0,0,1,.4-1.29,4,4,0,0,1,2.75-1.72,9.65,9.65,0,0,1,6,.63c.67.32,1.31.66,1.93,1C66.27,68.4,67.31,69.13,67.31,70.06Z"/><path class="cls-3" d="M58.06,69.17a4.82,4.82,0,0,0,.64-.47c.16-.14.28-.29.26-.44s-.29-.24-.5-.32a17.18,17.18,0,0,0-1.68-.38q-1.22-.28-2.37-.63a8,8,0,0,0-1.86-.41,1.83,1.83,0,0,0-.77.08c-.24.08-.41.25-.32.39a.36.36,0,0,0,.15.12l3.32,2.06a2.6,2.6,0,0,0,1.73.49A3.54,3.54,0,0,0,58.06,69.17Z"/><path class="cls-3" d="M62.57,71.42c.53-.28,1.13-.87,1.72-.51a3.22,3.22,0,0,1,1,1.21,13.4,13.4,0,0,0,1.08,1.36,2.51,2.51,0,0,1,.71,1.08.44.44,0,0,1-.13.44.84.84,0,0,1-.68.19A1.45,1.45,0,0,1,66,75.1l-3.56-1.92c-.48-.26-1-.58-.85-1S62.16,71.64,62.57,71.42Z"/><path class="cls-3" d="M10.35,71.6a6.11,6.11,0,0,0,5.23,3.79,7.13,7.13,0,0,0,2.51-.23A17.58,17.58,0,0,0,22.83,73l.33-.19,0,0,7.2,4.16a4.71,4.71,0,0,0,1.84.56,4.63,4.63,0,0,0,1.4-.06,3.23,3.23,0,0,0,.92-.33l3.52-2a1.25,1.25,0,0,0,.71-.92h0v0a.81.81,0,0,0,0-.22V72.64l-.4.49a2.78,2.78,0,0,0-.61-.46l-2.22-1.29-.47-.27L30.56,68.5l.24-.12c1.66-.9,4.53-2,4.75-3.31l0-.34h0V64l-.1,0c-1-3.09-9.11-3.36-13.14-2.84a17.39,17.39,0,0,0-6.42,2l-2,1.15c-.17.09-.34.2-.5.3l-.65.45C10.46,66.85,9.59,69.22,10.35,71.6Z"/><path class="cls-3" d="M10.35,71.06a6.09,6.09,0,0,0,5.23,3.78,7.13,7.13,0,0,0,2.51-.23,17.28,17.28,0,0,0,4.74-2.17l.33-.2a9,9,0,0,0,0-2c0-.46.18-1.41-.21-1.62a3.32,3.32,0,0,0-1.94.16c-.69.2-1.35.5-2,.72a10.16,10.16,0,0,1-3,.52,2.41,2.41,0,0,1-.71-.07,2.86,2.86,0,0,1-.72-.36A3.15,3.15,0,0,1,13,68a4.39,4.39,0,0,1-.07-1.26,4.14,4.14,0,0,0-.28-1.67c-1.11.06-1.88,1.55-2.24,2.51A5.39,5.39,0,0,0,10.35,71.06Z"/><path class="cls-4" d="M10.35,70.29c-.76-2.38.11-4.76,2.43-6.52A12,12,0,0,1,13.93,63l2-1.14a17.58,17.58,0,0,1,6.42-2c4.45-.57,13.9-.18,13.21,3.91-.22,1.32-3.09,2.42-4.76,3.32l-.23.12,7.21,4.16c1.23.71,1.37,1.79.3,2.4l-3.52,2a4.65,4.65,0,0,1-4.16-.18l-7.2-4.15-.36.21a17.58,17.58,0,0,1-4.74,2.18,7.64,7.64,0,0,1-2.51.23A6.11,6.11,0,0,1,10.35,70.29Z"/><path class="cls-1" d="M16.29,71.27a7.08,7.08,0,0,0,1.9.25c.74,0,1.46-.06,2.2-.07s1.38-.1,2-.06a3.06,3.06,0,0,1,1.61.55c2.09,1.24,4.24,2.45,6.35,3.67a4.65,4.65,0,0,0,4.16.18l1.19-.69.7-.41,1.63-.94c1.07-.61.93-1.69-.3-2.4L32,68c-.52-.31-1.27-.58-1.33-1a1.41,1.41,0,0,1,.64-1.21l0,0c.51-.48,1.19-.94,1.22-1.54a.75.75,0,0,0,0-.29,2.26,2.26,0,0,0-.8-1c-1.77-1.43-5-2-7.62-1.69a16.46,16.46,0,0,0-5.9,1.91c-2.11,1.12-3.74,2.32-4.34,4A3.21,3.21,0,0,0,16.29,71.27Z"/><path class="cls-4" d="M17.17,67.63a2.67,2.67,0,0,0,1.38,1.92,4.85,4.85,0,0,0,1.21.67,12.78,12.78,0,0,0,2.17.38,33.75,33.75,0,0,1,4.38,1.08c1.45.41,2.86.89,4.22,1.41a26.18,26.18,0,0,1,3.6,1.55,5.37,5.37,0,0,0,.72.36,1.74,1.74,0,0,0,.87.1h0l.7-.41a.39.39,0,0,0,.06-.42,6.55,6.55,0,0,0-1.81-1.55,9.91,9.91,0,0,1-1.92-1.83,16.63,16.63,0,0,1-1.43-2.18,8.39,8.39,0,0,1-1-2A9,9,0,0,0,30,65.43a4,4,0,0,0-2.76-1.72,9.65,9.65,0,0,0-6,.63c-.66.32-1.31.66-1.92,1C18.22,66,17.18,66.7,17.17,67.63Z"/><path class="cls-3" d="M26.43,66.74a4.37,4.37,0,0,1-.65-.47c-.15-.14-.28-.29-.25-.44s.29-.24.5-.32a16.54,16.54,0,0,1,1.68-.38c.81-.19,1.6-.4,2.36-.63a8.29,8.29,0,0,1,1.86-.41,1.8,1.8,0,0,1,.77.08c.24.08.41.25.33.39a.48.48,0,0,1-.16.12l-3.32,2.06a2.58,2.58,0,0,1-1.73.49A3.55,3.55,0,0,1,26.43,66.74Z"/><path class="cls-3" d="M21.92,69c-.53-.28-1.14-.87-1.73-.51a3.09,3.09,0,0,0-1,1.21,13.4,13.4,0,0,1-1.08,1.36,2.45,2.45,0,0,0-.72,1.08.48.48,0,0,0,.13.44.85.85,0,0,0,.68.19.91.91,0,0,0,.22-.09L22,70.75c.48-.26,1-.58.86-1S22.32,69.21,21.92,69Z"/><path class="cls-4" d="M30.17,49.94a3.16,3.16,0,0,0,.81-.82c.85-1.36.5-3.09.22-4.56a13.84,13.84,0,0,1-.09-4.63,2.28,2.28,0,0,0-1.58-2.73,1.65,1.65,0,0,0-1.82.89,3.59,3.59,0,0,0,.07,2.48,9.61,9.61,0,0,1,.11,4.2c-.18.76-.62,1.47-.8,2.26a4.34,4.34,0,0,0,.07,2.37,1.92,1.92,0,0,0,.68,1,1.91,1.91,0,0,0,2.1-.27A1.88,1.88,0,0,1,30.17,49.94Z"/></g></g></svg>