<svg xmlns="http://www.w3.org/2000/svg" viewBox="0 0 66.28 56.6"><defs><style>.cls-1{fill:#1b1a15;}.cls-2{fill:#2b2b2b;}.cls-3{fill:#3c3c3c;}.cls-4{fill:#8c8c8c;}.cls-5{fill:#bfbfbf;}</style></defs><g id="Layer_2" data-name="Layer 2"><g id="Layer"><path class="cls-1" d="M26.34,14a10.3,10.3,0,0,0,1.38-3.68A9.42,9.42,0,0,0,26.09,3a8.41,8.41,0,0,0-6.75-3c-4.73.4-9.27,4-12.09,7.61-2.3,3-5.42,8.63-3.86,12.49,1.8,4.48,8.16,4.15,11.76,2.66C19.35,21,24,18,26.34,14Z"/><path class="cls-2" d="M24.52,5.14a3.69,3.69,0,0,0-1.18-3.7C21.92.35,19.53.51,17.91,1a12.83,12.83,0,0,0-4.7,2.73,14.22,14.22,0,0,0-3.43,4,7.32,7.32,0,0,0-1,4.54A3,3,0,0,0,9.66,14a3.65,3.65,0,0,0,3.06.37A20.91,20.91,0,0,0,19,11.91c1.75-1,4.06-2.48,4.87-4.43A10.46,10.46,0,0,0,24.52,5.14Z"/><path class="cls-3" d="M22.93,4.12a2.43,2.43,0,0,0-.79-2.46,4.36,4.36,0,0,0-3.59-.3,8.5,8.5,0,0,0-3.12,1.81,9.58,9.58,0,0,0-2.27,2.64,4.72,4.72,0,0,0-.68,3,2,2,0,0,0,.6,1.14,2.36,2.36,0,0,0,2,.24,13.64,13.64,0,0,0,4.14-1.6C20.4,7.92,21.93,7,22.47,5.67A7.55,7.55,0,0,0,22.93,4.12Z"/><path class="cls-2" d="M7.71,21.16c0,1.27-.77,1.86-1.73,1.31a4.17,4.17,0,0,1-1.73-3.31c0-1.27.78-1.85,1.73-1.3A4.12,4.12,0,0,1,7.71,21.16Z"/><path class="cls-4" d="M6.22,22.15a4.12,4.12,0,0,1-1.73-3.3,2.13,2.13,0,0,1,.2-1,1.68,1.68,0,0,0-.44,1.26A4.17,4.17,0,0,0,6,22.47a1,1,0,0,0,1.52-.36A1,1,0,0,1,6.22,22.15Z"/><path class="cls-1" d="M52.48,19.16a10.39,10.39,0,0,0,1.39-3.67,9.47,9.47,0,0,0-1.64-7.32,8.41,8.41,0,0,0-6.75-3c-4.73.4-9.27,4-12.09,7.61-2.3,3-5.41,8.63-3.86,12.49,1.81,4.48,8.17,4.15,11.76,2.66C45.49,26.22,50.1,23.13,52.48,19.16Z"/><path class="cls-2" d="M50.66,10.32a3.67,3.67,0,0,0-1.18-3.7c-1.42-1.09-3.8-.93-5.42-.46a13,13,0,0,0-4.71,2.73,14.18,14.18,0,0,0-3.42,4,7.19,7.19,0,0,0-1,4.54,2.9,2.9,0,0,0,.91,1.73,3.62,3.62,0,0,0,3,.37,20.91,20.91,0,0,0,6.24-2.42c1.75-1,4.06-2.48,4.87-4.42A10.33,10.33,0,0,0,50.66,10.32Z"/><path class="cls-3" d="M49.07,9.3a2.46,2.46,0,0,0-.78-2.46,4.38,4.38,0,0,0-3.6-.3,8.58,8.58,0,0,0-3.12,1.81A9.58,9.58,0,0,0,39.3,11a4.78,4.78,0,0,0-.68,3,2,2,0,0,0,.6,1.14,2.38,2.38,0,0,0,2,.24,13.84,13.84,0,0,0,4.14-1.6c1.16-.68,2.68-1.64,3.22-2.93A6.48,6.48,0,0,0,49.07,9.3Z"/><path class="cls-5" d="M48.57,8.53a1.43,1.43,0,0,0-.46-1.43A2.57,2.57,0,0,0,46,6.93,4.92,4.92,0,0,0,44.21,8a5.67,5.67,0,0,0-1.32,1.53,2.87,2.87,0,0,0-.4,1.75,1.24,1.24,0,0,0,.35.67,1.42,1.42,0,0,0,1.18.14,8,8,0,0,0,2.41-.93A4.3,4.3,0,0,0,48.3,9.43,3.63,3.63,0,0,0,48.57,8.53Z"/><path class="cls-5" d="M19,27.6a1.43,1.43,0,0,0-.46-1.43A2.57,2.57,0,0,0,16.46,26a4.84,4.84,0,0,0-1.81,1.05,5.67,5.67,0,0,0-1.32,1.53,2.8,2.8,0,0,0-.4,1.75,1.24,1.24,0,0,0,.35.67,1.42,1.42,0,0,0,1.18.14,8.31,8.31,0,0,0,2.41-.93,4.36,4.36,0,0,0,1.87-1.71A3.63,3.63,0,0,0,19,27.6Z"/><path class="cls-5" d="M22.08,3.19a1.43,1.43,0,0,0-.46-1.43,2.58,2.58,0,0,0-2.09-.18,5,5,0,0,0-1.81,1.06A5.23,5.23,0,0,0,16.4,4.17,2.79,2.79,0,0,0,16,5.92a1.12,1.12,0,0,0,.35.67,1.42,1.42,0,0,0,1.18.14,8.25,8.25,0,0,0,2.4-.93,4.33,4.33,0,0,0,1.88-1.71A4.11,4.11,0,0,0,22.08,3.19Z"/><path class="cls-2" d="M33.85,26.34c0,1.27-.77,1.86-1.73,1.3a4.11,4.11,0,0,1-1.72-3.3c0-1.27.77-1.85,1.72-1.3A4.12,4.12,0,0,1,33.85,26.34Z"/><path class="cls-4" d="M32.36,27.33A4.12,4.12,0,0,1,30.63,24a2,2,0,0,1,.21-1,1.68,1.68,0,0,0-.44,1.26,4.11,4.11,0,0,0,1.72,3.3,1,1,0,0,0,1.53-.35A1,1,0,0,1,32.36,27.33Z"/><path class="cls-1" d="M23.37,38.24a10.25,10.25,0,0,0,1.38-3.67,9.44,9.44,0,0,0-1.63-7.33,8.41,8.41,0,0,0-6.75-3c-4.74.4-9.27,4-12.09,7.6-2.3,3-5.42,8.64-3.86,12.5,1.8,4.47,8.16,4.15,11.76,2.66C16.38,45.3,21,42.21,23.37,38.24Z"/><path class="cls-2" d="M21.55,29.4a3.67,3.67,0,0,0-1.19-3.7c-1.41-1.09-3.8-.93-5.42-.47A13.11,13.11,0,0,0,10.24,28a14.4,14.4,0,0,0-3.43,4,7.24,7.24,0,0,0-1,4.54,3,3,0,0,0,.91,1.73,3.63,3.63,0,0,0,3.05.36A20.6,20.6,0,0,0,16,36.16c1.75-1,4.06-2.47,4.87-4.42A10.62,10.62,0,0,0,21.55,29.4Z"/><path class="cls-3" d="M20,28.37a2.42,2.42,0,0,0-.79-2.45,4.4,4.4,0,0,0-3.59-.31,8.79,8.79,0,0,0-3.12,1.81,9.73,9.73,0,0,0-2.27,2.64,4.75,4.75,0,0,0-.68,3,2,2,0,0,0,.6,1.15,2.4,2.4,0,0,0,2,.24,13.64,13.64,0,0,0,4.14-1.6c1.16-.69,2.69-1.64,3.23-2.93A7.46,7.46,0,0,0,20,28.37Z"/><path class="cls-5" d="M19,27.6a1.43,1.43,0,0,0-.46-1.43A2.57,2.57,0,0,0,16.46,26a4.84,4.84,0,0,0-1.81,1.05,5.67,5.67,0,0,0-1.32,1.53,2.8,2.8,0,0,0-.4,1.75,1.24,1.24,0,0,0,.35.67,1.42,1.42,0,0,0,1.18.14,8.31,8.31,0,0,0,2.41-.93,4.36,4.36,0,0,0,1.87-1.71A3.63,3.63,0,0,0,19,27.6Z"/><path class="cls-2" d="M4.74,45.42c0,1.27-.77,1.85-1.73,1.3a4.15,4.15,0,0,1-1.73-3.3c0-1.27.78-1.86,1.73-1.31A4.14,4.14,0,0,1,4.74,45.42Z"/><path class="cls-4" d="M3.24,46.41A4.16,4.16,0,0,1,1.52,43.1a2.19,2.19,0,0,1,.2-1,1.69,1.69,0,0,0-.44,1.27A4.15,4.15,0,0,0,3,46.72a1,1,0,0,0,1.52-.35A1,1,0,0,1,3.24,46.41Z"/><path class="cls-1" d="M39.7,45.26c-3.18-2.38-9.17-2.87-13.39-1.07-2.54,1.08-3.87,2.75-3.8,4.43a.76.76,0,0,0,0,.15,4.29,4.29,0,0,0,1.9,3c3.17,2.38,9.16,2.86,13.38,1.07,2.35-1,3.65-2.49,3.8-4v-.21A4.1,4.1,0,0,0,39.7,45.26Zm-4.44,5.66c-2.35,1-5.7.73-7.46-.6a2.34,2.34,0,0,1-1.06-1.67c-.09-1,.64-1.93,2.11-2.55a8.33,8.33,0,0,1,7.47.6,2.2,2.2,0,0,1,1,2C37.3,49.53,36.57,50.36,35.26,50.92Z"/><path class="cls-1" d="M41,46.64a5.45,5.45,0,0,0-1.31-1.38c-3.18-2.38-9.17-2.87-13.39-1.07a6.86,6.86,0,0,0-3.22,2.48h-.58v1.88a1.61,1.61,0,0,0,0,.22,4.23,4.23,0,0,0,1.9,3c3.17,2.39,9.16,2.87,13.38,1.08,2.35-1,3.65-2.49,3.8-4v-.27h0V46.64ZM28.85,44.15a8.33,8.33,0,0,1,7.47.6,2.2,2.2,0,0,1,1,2c-.07.86-.8,1.69-2.11,2.25-2.35,1-5.7.73-7.46-.6a2.34,2.34,0,0,1-1.06-1.67C26.65,45.74,27.38,44.77,28.85,44.15Z"/><path class="cls-1" d="M39.7,43.31c-3.18-2.38-9.17-2.87-13.39-1.07-2.54,1.08-3.87,2.75-3.8,4.43a.76.76,0,0,0,0,.15,4.29,4.29,0,0,0,1.9,3c3.17,2.38,9.16,2.86,13.38,1.07,2.35-1,3.65-2.49,3.8-4v-.21A4.1,4.1,0,0,0,39.7,43.31ZM35.26,49c-2.35,1-5.7.73-7.46-.6a2.34,2.34,0,0,1-1.06-1.67c-.09-1,.64-1.93,2.11-2.55a8.33,8.33,0,0,1,7.47.6,2.2,2.2,0,0,1,1,2C37.3,47.58,36.57,48.41,35.26,49Z"/><path class="cls-2" d="M39.43,43.67a12.74,12.74,0,0,0-7.38-2.07,14.42,14.42,0,0,0-5.56,1c-2.29,1-3.6,2.47-3.53,4v.11a3.9,3.9,0,0,0,1.73,2.67,12.76,12.76,0,0,0,7.37,2.07,14.42,14.42,0,0,0,5.56-1.05c2.11-.9,3.39-2.24,3.53-3.67v-.16A3.7,3.7,0,0,0,39.43,43.67ZM35.26,49c-2.35,1-5.7.73-7.46-.6a2.34,2.34,0,0,1-1.06-1.67c-.09-1,.64-1.93,2.11-2.55a8.33,8.33,0,0,1,7.47.6,2.2,2.2,0,0,1,1,2C37.3,47.58,36.57,48.41,35.26,49Z"/><path class="cls-1" d="M64.36,48C61.18,45.56,55.2,45.07,51,46.88c-2.55,1.08-3.87,2.75-3.81,4.42a.86.86,0,0,0,0,.16,4.3,4.3,0,0,0,1.9,3c3.17,2.39,9.16,2.87,13.38,1.07,2.35-1,3.65-2.49,3.8-4a1.34,1.34,0,0,0,0-.2A4.12,4.12,0,0,0,64.36,48Zm-4.44,5.66c-2.35,1-5.7.73-7.46-.61a2.32,2.32,0,0,1-1.06-1.66c-.08-1,.65-1.94,2.11-2.56,2.36-1,5.7-.73,7.47.61a2.19,2.19,0,0,1,1.06,2C62,52.21,61.23,53.05,59.92,53.61Z"/><path class="cls-1" d="M65.67,49.33A5.45,5.45,0,0,0,64.36,48C61.18,45.56,55.2,45.08,51,46.88a6.94,6.94,0,0,0-3.23,2.47h-.58l0,1.88a1.85,1.85,0,0,0,0,.23,4.28,4.28,0,0,0,1.9,3c3.17,2.38,9.16,2.87,13.38,1.08,2.35-1,3.65-2.5,3.8-4a2.35,2.35,0,0,0,0-.26h0V49.33Zm-12.16-2.5a8.33,8.33,0,0,1,7.47.6,2.22,2.22,0,0,1,1.06,2c-.08.85-.81,1.69-2.12,2.25-2.35,1-5.7.73-7.46-.61a2.32,2.32,0,0,1-1.06-1.66C51.32,48.43,52.05,47.45,53.51,46.83Z"/><path class="cls-1" d="M64.36,46C61.18,43.61,55.2,43.12,51,44.92c-2.55,1.08-3.87,2.76-3.81,4.43a.71.71,0,0,0,0,.15,4.3,4.3,0,0,0,1.9,3c3.17,2.39,9.16,2.86,13.38,1.07,2.35-1,3.65-2.49,3.8-4a1.34,1.34,0,0,0,0-.2A4.11,4.11,0,0,0,64.36,46Zm-4.44,5.66c-2.35,1-5.7.73-7.46-.61a2.32,2.32,0,0,1-1.06-1.66c-.08-1,.65-1.94,2.11-2.56a8.33,8.33,0,0,1,7.47.6,2.22,2.22,0,0,1,1.06,2C62,50.26,61.23,51.1,59.92,51.66Z"/><path class="cls-2" d="M64.09,46.35a12.79,12.79,0,0,0-7.38-2.07,14.28,14.28,0,0,0-5.56,1.06c-2.29,1-3.59,2.46-3.53,4a.49.49,0,0,0,0,.12,3.83,3.83,0,0,0,1.73,2.66,12.64,12.64,0,0,0,7.37,2.07,14.41,14.41,0,0,0,5.55-1.05c2.11-.89,3.39-2.23,3.53-3.66a.92.92,0,0,0,0-.16A3.76,3.76,0,0,0,64.09,46.35Zm-4.17,5.31c-2.35,1-5.7.73-7.46-.61a2.32,2.32,0,0,1-1.06-1.66c-.08-1,.65-1.94,2.11-2.56a8.33,8.33,0,0,1,7.47.6,2.22,2.22,0,0,1,1.06,2C62,50.26,61.23,51.1,59.92,51.66Z"/><path class="cls-1" d="M55.33,33.87C52.15,31.49,46.17,31,42,32.8c-2.55,1.08-3.87,2.76-3.81,4.43a.71.71,0,0,0,0,.15,4.28,4.28,0,0,0,1.91,3c3.16,2.39,9.15,2.86,13.37,1.07,2.35-1,3.65-2.49,3.8-4a1.41,1.41,0,0,0,0-.21A4.14,4.14,0,0,0,55.33,33.87Zm-4.44,5.67a8.35,8.35,0,0,1-7.46-.61,2.35,2.35,0,0,1-1.06-1.66c-.08-1,.65-1.94,2.12-2.56a8.31,8.31,0,0,1,7.46.6,2.22,2.22,0,0,1,1.06,2C52.94,38.14,52.21,39,50.89,39.54Z"/><path class="cls-1" d="M56.64,35.25a5.41,5.41,0,0,0-1.31-1.37C52.15,31.49,46.17,31,42,32.8a7,7,0,0,0-3.23,2.48h-.58l0,1.88a1.77,1.77,0,0,0,0,.23,4.25,4.25,0,0,0,1.91,3c3.16,2.39,9.15,2.88,13.37,1.08,2.35-1,3.65-2.49,3.8-4a2.44,2.44,0,0,0,0-.27h0V35.25ZM44.49,32.76a8.31,8.31,0,0,1,7.46.6,2.21,2.21,0,0,1,1.06,2c-.07.86-.8,1.7-2.12,2.25a8.31,8.31,0,0,1-7.46-.6,2.35,2.35,0,0,1-1.06-1.66C42.29,34.35,43,33.38,44.49,32.76Z"/><path class="cls-1" d="M55.33,31.92c-3.18-2.38-9.16-2.87-13.38-1.07-2.55,1.08-3.87,2.76-3.81,4.43a.76.76,0,0,0,0,.15,4.28,4.28,0,0,0,1.91,3c3.16,2.39,9.15,2.86,13.37,1.07,2.35-1,3.65-2.49,3.8-4a1.41,1.41,0,0,0,0-.21A4.14,4.14,0,0,0,55.33,31.92Zm-4.44,5.66a8.31,8.31,0,0,1-7.46-.6,2.35,2.35,0,0,1-1.06-1.66c-.08-1,.65-1.94,2.12-2.56a8.31,8.31,0,0,1,7.46.6,2.21,2.21,0,0,1,1.06,2C52.94,36.19,52.21,37,50.89,37.58Z"/><path class="cls-2" d="M55.06,32.28a12.79,12.79,0,0,0-7.38-2.07,14.19,14.19,0,0,0-5.55,1.06c-2.3,1-3.6,2.46-3.54,4a.49.49,0,0,0,0,.12,3.83,3.83,0,0,0,1.73,2.66,12.66,12.66,0,0,0,7.37,2.07,14.41,14.41,0,0,0,5.55-1.05c2.12-.89,3.39-2.23,3.53-3.67a.81.81,0,0,0,0-.16A3.75,3.75,0,0,0,55.06,32.28Zm-4.17,5.3a8.31,8.31,0,0,1-7.46-.6,2.35,2.35,0,0,1-1.06-1.66c-.08-1,.65-1.94,2.12-2.56a8.31,8.31,0,0,1,7.46.6,2.21,2.21,0,0,1,1.06,2C52.94,36.19,52.21,37,50.89,37.58Z"/></g></g></svg>