<svg xmlns="http://www.w3.org/2000/svg" viewBox="0 0 102.48 77.6"><defs><style>.cls-1{fill:#ffe9cc;}.cls-2{fill:#f6dab3;}.cls-3{fill:#f2d8b6;}.cls-4{fill:#fff2e0;}.cls-5{fill:#fff7ed;}.cls-6{fill:#ffeed9;}.cls-7{fill:#fff4e6;}</style></defs><g id="Layer_2" data-name="Layer 2"><g id="Layer"><path class="cls-1" d="M60.18,29.76C58.58,36,53,41.61,47.91,44.75,45.77,46,43.6,47.28,41.38,48.4c-1.39.7-2.81,1.36-4.26,2a46.88,46.88,0,0,1-5.74,2c-1.58.44-3.31,1.28-4.93,1.31-4.22.08-9.74.67-13.73-1a20.15,20.15,0,0,1-7.27-5.58A25.53,25.53,0,0,1,.12,28.73,30.72,30.72,0,0,1,9.81,9.47,35,35,0,0,1,23.1,1.53,32.46,32.46,0,0,1,46.71,3.06c4,1.9,6.29,4.36,8.6,8.13a41.74,41.74,0,0,1,4.71,11c.1.39.2.79.29,1.17A13.35,13.35,0,0,1,60.18,29.76Z"/><path class="cls-2" d="M41.38,48.4c-1.39.7-2.81,1.36-4.26,2a46.88,46.88,0,0,1-5.74,2c-1.58.44-3.31,1.28-4.93,1.31-4.22.08-9.74.67-13.73-1a20.15,20.15,0,0,1-7.27-5.58A25.53,25.53,0,0,1,.12,28.73,30.72,30.72,0,0,1,9.81,9.47,29.85,29.85,0,0,0,7.05,32.14a14.87,14.87,0,0,0,4.05,7.19,15.59,15.59,0,0,0,4.41,2.57A27.14,27.14,0,0,0,26.4,44.16a39.21,39.21,0,0,0,8.78-1.46,11.61,11.61,0,0,1,3.6-.51,3.74,3.74,0,0,1,3,1.74C42.55,45.3,42,47,41.38,48.4Z"/><path class="cls-3" d="M58.63,29.56c-.05.91-.15,1.83-.28,2.7a3.91,3.91,0,0,1-.24,1,19.38,19.38,0,0,1-3,4.62,31.65,31.65,0,0,1-7.81,6.73,76.21,76.21,0,0,1-11.63,5.93,24.81,24.81,0,0,1-4,1.44,33.67,33.67,0,0,1-4.8.6,7.14,7.14,0,0,1-3.47-.42c-3.48-1.64-3.16-6.07-3-9.24.09-2,.26-4,.44-6A42.14,42.14,0,0,1,26,20.69a30,30,0,0,1,6.7-8.76C35.6,9.58,39.37,8.13,43,8.76a16.87,16.87,0,0,1,10.8,7.09,26.88,26.88,0,0,1,3.31,6.63A19.69,19.69,0,0,1,58.57,27,17.28,17.28,0,0,1,58.63,29.56Z"/><path class="cls-4" d="M59.28,29.69c-.05.91-.15,1.82-.28,2.7a3.4,3.4,0,0,1-.24,1,19.45,19.45,0,0,1-3,4.62,31.92,31.92,0,0,1-7.82,6.74,77.58,77.58,0,0,1-11.63,5.93,24.05,24.05,0,0,1-4,1.43,34,34,0,0,1-4.81.61A7.09,7.09,0,0,1,24,52.29c-3.49-1.63-3.17-6.06-3-9.24.09-2,.26-4,.44-6a42.31,42.31,0,0,1,5.22-16.2,29.87,29.87,0,0,1,6.71-8.76C36.25,9.71,40,8.25,43.66,8.88A16.88,16.88,0,0,1,54.46,16a26.94,26.94,0,0,1,3.31,6.64,19.38,19.38,0,0,1,1.45,4.48A17.25,17.25,0,0,1,59.28,29.69Z"/><path class="cls-5" d="M47.49,12.8c-1.15-1.25-3.5-1.52-5.19-1.4-5,.37-10.6,4.58-13.44,8.67-2,2.91-3,6.76-4,10.12-.77,2.56-.67,5.18-1.06,7.76a19,19,0,0,0,.3,8.22c.52,1.94,2,3.9,4,3.94a3.94,3.94,0,0,0,2.85-1.33c.8-.79.74-1.86.85-3,.24-2.52.28-5.06.47-7.59a24.72,24.72,0,0,1,2.44-9.94,22.32,22.32,0,0,1,6.13-6.82c1.47-1.15,3-2.2,4.56-3.25,1.17-.79,2.47-1.39,2.74-2.94A2.74,2.74,0,0,0,47.49,12.8Z"/><path class="cls-5" d="M57.18,26.32A13.67,13.67,0,0,0,56,22a7.3,7.3,0,0,0-2.95-3.24,2,2,0,0,0-.77-.27,1.55,1.55,0,0,0-1.47,1.23c-.21.92.39,2,.57,2.86a19.6,19.6,0,0,1,.44,3.5,14.82,14.82,0,0,1-.31,4,14.26,14.26,0,0,1-3.71,6c-.6.63-1.27,1.21-1.93,1.78l-3.29,2.85A4,4,0,0,0,41,43.72a1.63,1.63,0,0,0,.46,1.21,1.5,1.5,0,0,0,1.14.34A4,4,0,0,0,43.73,45a22.35,22.35,0,0,0,6.57-3.88,28.61,28.61,0,0,0,4.29-4.51,14.11,14.11,0,0,0,2.55-5.63A15.16,15.16,0,0,0,57.18,26.32Z"/><path class="cls-3" d="M44.31,13.45a1.63,1.63,0,0,0-.13-.58.77.77,0,0,0-.66-.4l-.77,0a1.34,1.34,0,0,0-1.24.16,6.2,6.2,0,0,0-.45.44,7.7,7.7,0,0,1-1.13.9,17.14,17.14,0,0,1,3.18-.51.59.59,0,0,1,.47.11c.13.14.12.39.29.48a.3.3,0,0,0,.39-.17A.93.93,0,0,0,44.31,13.45Z"/><path class="cls-3" d="M40.21,19.33a1.63,1.63,0,0,0-.13-.58.77.77,0,0,0-.66-.4l-.77,0a1.34,1.34,0,0,0-1.24.16A4.57,4.57,0,0,0,37,19a8.36,8.36,0,0,1-1.14.9A17.14,17.14,0,0,1,39,19.38a.59.59,0,0,1,.47.11c.13.14.12.39.29.49a.33.33,0,0,0,.4-.17A1,1,0,0,0,40.21,19.33Z"/><path class="cls-3" d="M33.29,23.16a1.27,1.27,0,0,0-.13-.58.75.75,0,0,0-.65-.4l-.78,0a1.32,1.32,0,0,0-1.23.17,3.64,3.64,0,0,0-.45.43,7.05,7.05,0,0,1-1.14.9,18.1,18.1,0,0,1,3.19-.5.6.6,0,0,1,.46.1c.14.14.13.4.29.49a.31.31,0,0,0,.4-.17A.83.83,0,0,0,33.29,23.16Z"/><path class="cls-3" d="M49.87,38.7a1.4,1.4,0,0,0-.12-.58.77.77,0,0,0-.66-.4l-.78,0a1.32,1.32,0,0,0-1.23.17,3.64,3.64,0,0,0-.45.43,7.05,7.05,0,0,1-1.14.9,18.1,18.1,0,0,1,3.19-.5.6.6,0,0,1,.46.1c.14.14.13.4.3.49a.31.31,0,0,0,.39-.17A.83.83,0,0,0,49.87,38.7Z"/><path class="cls-3" d="M55.6,31.84a1.27,1.27,0,0,0-.13-.58.74.74,0,0,0-.66-.4l-.76,0a1.34,1.34,0,0,0-1.24.17,3.64,3.64,0,0,0-.45.43,7.05,7.05,0,0,1-1.14.9,18.25,18.25,0,0,1,3.19-.5.6.6,0,0,1,.46.1c.14.14.13.4.3.49a.31.31,0,0,0,.39-.17A.83.83,0,0,0,55.6,31.84Z"/><path class="cls-3" d="M39.54,15.91,39,16c.06,0,.09.07.06.12s-.09.06-.14.09a.67.67,0,0,0-.37.85l2.68-1.57a3.58,3.58,0,0,0,.52-.34A2.29,2.29,0,0,0,39.54,15.91Z"/><path class="cls-3" d="M36.29,22.36l-.55.09c.06,0,.09.07.06.12a.26.26,0,0,1-.14.09.69.69,0,0,0-.37.85L38,21.94a4.32,4.32,0,0,0,.53-.34A2.31,2.31,0,0,0,36.29,22.36Z"/><path class="cls-3" d="M43,16.23c-.08.12,0,.64-.1.86a5.86,5.86,0,0,1-.76,1.21l.29-.2A8.51,8.51,0,0,0,43.39,17a1.06,1.06,0,0,0,.22-.48C43.66,16.19,43.27,15.89,43,16.23Z"/><path class="cls-3" d="M34.91,16.4c-.07.11,0,.63-.09.85a6.09,6.09,0,0,1-.76,1.22l.29-.2a10.38,10.38,0,0,0,.92-1.07,1.16,1.16,0,0,0,.22-.48C35.53,16.35,35.15,16.05,34.91,16.4Z"/><path class="cls-3" d="M54.28,33.92c-.08.12,0,.64-.1.86A5.86,5.86,0,0,1,53.42,36l.29-.2a8.51,8.51,0,0,0,.92-1.07,1.06,1.06,0,0,0,.22-.48C54.9,33.88,54.51,33.58,54.28,33.92Z"/><path class="cls-3" d="M53.54,23.32c-.07.11,0,.64-.09.86a6.31,6.31,0,0,1-.76,1.21l.29-.2a9.43,9.43,0,0,0,.92-1.07,1.06,1.06,0,0,0,.22-.48C54.16,23.27,53.78,23,53.54,23.32Z"/><path class="cls-3" d="M32.3,26.94c-.07.11,0,.63-.09.86A6.31,6.31,0,0,1,31.45,29l.29-.2a10.38,10.38,0,0,0,.92-1.07,1.16,1.16,0,0,0,.22-.48C32.92,26.89,32.54,26.59,32.3,26.94Z"/><path class="cls-3" d="M32.73,18.32a1.09,1.09,0,0,0-.48.34l-.51.51a.45.45,0,0,0-.11.41l.06,1.16c0,.19.07.43.26.46s.26-.1.35-.22A2.46,2.46,0,0,0,33,19.64a2.28,2.28,0,0,1,0-.52c.07-.19.24-.37.19-.57A.39.39,0,0,0,32.73,18.32Z"/><path class="cls-3" d="M52.08,35.74a1.27,1.27,0,0,0-.48.35l-.51.5A.48.48,0,0,0,51,37L51,38.16c0,.19.07.44.26.47s.26-.11.35-.22a2.5,2.5,0,0,0,.68-1.34,2.28,2.28,0,0,1,0-.52c.07-.2.24-.37.19-.57A.38.38,0,0,0,52.08,35.74Z"/><path class="cls-3" d="M54.51,26.13a1.12,1.12,0,0,0-.49.34l-.5.5a.48.48,0,0,0-.11.42l.06,1.16c0,.19.07.43.26.46s.26-.11.35-.22a2.5,2.5,0,0,0,.68-1.34,2.28,2.28,0,0,1,0-.52c.07-.19.24-.37.19-.57A.37.37,0,0,0,54.51,26.13Z"/><path class="cls-3" d="M29.22,26.13a1.15,1.15,0,0,0-.48.34l-.51.5a.48.48,0,0,0-.11.42l.06,1.16c0,.19.07.43.26.46s.26-.11.35-.22a2.5,2.5,0,0,0,.68-1.34,2.28,2.28,0,0,1,0-.52c.07-.19.24-.37.19-.57A.37.37,0,0,0,29.22,26.13Z"/><path class="cls-3" d="M31.1,35.91a1.59,1.59,0,0,0-.13-.58.77.77,0,0,0-.66-.4l-.77,0a1.34,1.34,0,0,0-1.24.17c-.16.13-.3.29-.45.43a7.63,7.63,0,0,1-1.13.91A17.14,17.14,0,0,1,29.9,36a.59.59,0,0,1,.47.11c.13.13.12.39.29.48a.31.31,0,0,0,.4-.17A1.05,1.05,0,0,0,31.1,35.91Z"/><path class="cls-3" d="M29.22,44.61a1.69,1.69,0,0,0-.13-.59.77.77,0,0,0-.66-.39l-.77,0a1.32,1.32,0,0,0-1.23.17,3.05,3.05,0,0,0-.45.43,7.05,7.05,0,0,1-1.14.9,17.12,17.12,0,0,1,3.18-.5.63.63,0,0,1,.47.1c.13.14.12.4.29.49a.32.32,0,0,0,.4-.17A.83.83,0,0,0,29.22,44.61Z"/><path class="cls-3" d="M26.45,31.73l-.54.09c.05,0,.09.07.06.12a.34.34,0,0,1-.15.09.69.69,0,0,0-.37.85l2.68-1.57a5.84,5.84,0,0,0,.53-.33A2.31,2.31,0,0,0,26.45,31.73Z"/><path class="cls-3" d="M46.53,41.72l-.54.09s.09.07.06.12S46,42,45.9,42a.69.69,0,0,0-.37.85l2.69-1.57a3.58,3.58,0,0,0,.52-.34A2.31,2.31,0,0,0,46.53,41.72Z"/><path class="cls-3" d="M52.68,21.65l-.54.09s.09.07.06.12a.26.26,0,0,1-.15.09.7.7,0,0,0-.37.85l2.69-1.57a3.58,3.58,0,0,0,.52-.34A2.31,2.31,0,0,0,52.68,21.65Z"/><path class="cls-3" d="M29.85,39c-.07.11,0,.63-.09.85A6.14,6.14,0,0,1,29,41.08l.3-.2a11.44,11.44,0,0,0,.91-1.07,1.16,1.16,0,0,0,.23-.49C30.47,39,30.09,38.66,29.85,39Z"/><path class="cls-3" d="M31.65,30.22a1.09,1.09,0,0,0-.48.35l-.51.5c-.12.09-.12.27-.11.42l.06,1.15c0,.19.07.44.26.46s.26-.1.35-.21a2.5,2.5,0,0,0,.68-1.34,2.24,2.24,0,0,1,0-.52c.07-.2.24-.38.19-.58A.39.39,0,0,0,31.65,30.22Z"/><path class="cls-3" d="M43.92,41.43a1.09,1.09,0,0,0-.48.35l-.51.5a.46.46,0,0,0-.11.41c0,.39,0,.78.07,1.16,0,.19.06.44.25.46s.26-.1.35-.21a2.59,2.59,0,0,0,.69-1.34,2.21,2.21,0,0,1,0-.52c.07-.2.24-.38.2-.58A.4.4,0,0,0,43.92,41.43Z"/><path class="cls-3" d="M29.22,46.52a1.15,1.15,0,0,0-.48.34l-.51.51a.45.45,0,0,0-.11.41l.06,1.16c0,.19.07.43.26.46s.26-.1.35-.22a2.47,2.47,0,0,0,.68-1.33,2.32,2.32,0,0,1,0-.53c.07-.19.24-.37.19-.57A.39.39,0,0,0,29.22,46.52Z"/><path class="cls-3" d="M26.52,38.53a1.06,1.06,0,0,0-.49.35l-.5.5c-.12.09-.12.27-.11.42L25.48,41c0,.19.07.44.26.46s.26-.1.35-.21a2.5,2.5,0,0,0,.68-1.34,2.24,2.24,0,0,1,0-.52c.06-.2.24-.38.19-.57A.38.38,0,0,0,26.52,38.53Z"/><path class="cls-2" d="M48.25,53.12c.79-.68,1.62-1.32,2.47-1.92A11.41,11.41,0,0,1,54,49.49a10.34,10.34,0,0,1,4.07.06,66.16,66.16,0,0,1,8.45,1.8l4.88,1.31a54.47,54.47,0,0,1,8.37,2.8,22.87,22.87,0,0,1,3.8,2.14c.18.13.36.3.56.42a.86.86,0,0,0,.55.06A4.58,4.58,0,0,1,86,58a.28.28,0,0,1,.16.06.32.32,0,0,1,.1.21,3.06,3.06,0,0,1,.1.51,7.74,7.74,0,0,1-.06,2A6.41,6.41,0,0,1,86,62.41,6.48,6.48,0,0,1,84,64.93c-.78.64-1.58,1.27-2.38,1.88A77.59,77.59,0,0,1,63.62,77a10,10,0,0,1-5.59.41c-1.82-.35-3.25-1.65-4.69-2.72a38.39,38.39,0,0,1-6.92-6.37,12.41,12.41,0,0,1-2.92-5.62,9.24,9.24,0,0,1,.5-4.8,9.52,9.52,0,0,1,1.2-2.16,5.72,5.72,0,0,1,1.49-1.28C47.26,54,47.72,53.57,48.25,53.12Z"/><path class="cls-3" d="M84,62.3c-.77.63-1.57,1.27-2.38,1.88A77.47,77.47,0,0,1,63.62,74.35a9.28,9.28,0,0,1-3.39.63,12.06,12.06,0,0,1-2.2-.22,10.08,10.08,0,0,1-4-2.21L53.34,72a37.75,37.75,0,0,1-6.92-6.36l-.37-.45a6.59,6.59,0,0,1-1.52-2.49A10.72,10.72,0,0,1,44,59.35a8.73,8.73,0,0,1,.35-2.27,9.4,9.4,0,0,1,2-3.66c.31-.35.64-.67,1-1,.52-.48,1.08-.92,1.65-1.37a18.07,18.07,0,0,1,2.21-1.52,14.89,14.89,0,0,1,7.12-1.49l1,0A49.73,49.73,0,0,1,71.4,50a54.09,54.09,0,0,1,8.37,2.8A22.06,22.06,0,0,1,83.57,55c1.16.82,2.42,1.79,2.63,2.88C86.58,59.84,85.28,61.22,84,62.3Z"/><path class="cls-1" d="M60.23,74.14a10.46,10.46,0,0,1-2-.2,9.12,9.12,0,0,1-3.66-2l-.68-.52a36.81,36.81,0,0,1-6.77-6.22,7.74,7.74,0,0,1-1.75-2.66,10.3,10.3,0,0,1-.46-3.12A8.57,8.57,0,0,1,47,54a17.85,17.85,0,0,1,2.51-2.24,17.09,17.09,0,0,1,2.1-1.46,15.06,15.06,0,0,1,7.7-1.37,49.09,49.09,0,0,1,11.85,2,54.68,54.68,0,0,1,8.25,2.75,22.2,22.2,0,0,1,3.66,2.07c.69.49,2.13,1.5,2.29,2.35.24,1.25-.32,2.31-2,3.65-.76.64-1.56,1.26-2.36,1.87a76.06,76.06,0,0,1-17.75,10A8.27,8.27,0,0,1,60.23,74.14Z"/><path class="cls-6" d="M47.68,61.44c.08.25.17.49.26.73A21.71,21.71,0,0,0,49.85,66,10.14,10.14,0,0,0,51,67.6a3.14,3.14,0,0,0,2,.68A3.1,3.1,0,0,0,54.46,68a5.38,5.38,0,0,0,1.81-1.68,22.42,22.42,0,0,1,5.13-4.93c.78-.5,1.61-.92,2.33-1.49a4.14,4.14,0,0,0,1.58-2.22,4.64,4.64,0,0,0-1.39-3.9,9.07,9.07,0,0,0-7.7-3,24.18,24.18,0,0,0-3.88.65,8.31,8.31,0,0,0-3.47,1.77A6.3,6.3,0,0,0,47,57.5,11,11,0,0,0,47.68,61.44Z"/><path class="cls-1" d="M81,58.84a4,4,0,0,0-1.72-2.15,25.4,25.4,0,0,0-4.66-2.94,66.71,66.71,0,0,0-6.85-2.63A5,5,0,0,0,64,51a1.21,1.21,0,0,0-.6.58c-.21.53.22,1.1.65,1.48a32.94,32.94,0,0,1,3.25,2.62c.92,1.05,1.36,2.74.47,3.82a3.72,3.72,0,0,1-1.05.79c-1.57.86-3.27,1.44-4.89,2.19a10.67,10.67,0,0,0-4.27,3.15,4.08,4.08,0,0,0-.92,2.74,3.7,3.7,0,0,0,2.52,2.93,7.51,7.51,0,0,0,4,.07,27.58,27.58,0,0,0,7.43-3.09,74.52,74.52,0,0,0,7.11-4.42,8.17,8.17,0,0,0,3.05-3.21A2.89,2.89,0,0,0,81,58.84Z"/><path class="cls-3" d="M58.17,52.26a.27.27,0,0,0-.35-.11l-.76.32a3.35,3.35,0,0,0-.69.86,1.14,1.14,0,0,0,0,1.06c.32-.09.47-.43.72-.65s.51-.29.73-.48a1.16,1.16,0,0,0,.36-.61A.52.52,0,0,0,58.17,52.26Z"/><path class="cls-3" d="M63.19,54.12a.26.26,0,0,0-.34-.11l-.77.32a3.31,3.31,0,0,0-.68.86,1.06,1.06,0,0,0,0,1.05c.31-.08.47-.42.71-.64s.51-.29.74-.49a1.1,1.1,0,0,0,.36-.6A.52.52,0,0,0,63.19,54.12Z"/><path class="cls-3" d="M62,66.63a.26.26,0,0,0-.35-.11l-.76.32a3.35,3.35,0,0,0-.69.86,1.11,1.11,0,0,0,0,1c.32-.08.48-.42.72-.64s.51-.29.73-.49A1.1,1.1,0,0,0,62,67,.52.52,0,0,0,62,66.63Z"/><path class="cls-3" d="M68,64.36a.26.26,0,0,0-.34-.11l-.77.32a3.31,3.31,0,0,0-.68.86,1.08,1.08,0,0,0,0,1.06c.31-.09.47-.43.71-.65s.51-.29.74-.48a1.16,1.16,0,0,0,.36-.61A.52.52,0,0,0,68,64.36Z"/><path class="cls-3" d="M76.68,61.75a.27.27,0,0,0-.35-.11l-.76.32a3.11,3.11,0,0,0-.68.86,1.11,1.11,0,0,0,0,1.06c.32-.09.48-.43.72-.65s.51-.29.73-.48a1.25,1.25,0,0,0,.37-.61A.52.52,0,0,0,76.68,61.75Z"/><path class="cls-3" d="M71.43,54.22a.27.27,0,0,0-.34-.12l-.77.33a3.31,3.31,0,0,0-.68.86,1.06,1.06,0,0,0,0,1.05c.31-.08.47-.42.71-.64s.51-.29.74-.49a1.1,1.1,0,0,0,.36-.6A.52.52,0,0,0,71.43,54.22Z"/><path class="cls-3" d="M55.7,65.41a.27.27,0,0,0-.35-.11l-.76.32a3.11,3.11,0,0,0-.68.86,1.09,1.09,0,0,0,0,1c.32-.08.48-.42.72-.64s.51-.29.73-.49a1.18,1.18,0,0,0,.37-.6A.58.58,0,0,0,55.7,65.41Z"/><path class="cls-3" d="M55.7,60.61a.27.27,0,0,0-.35-.11l-.76.32a3.11,3.11,0,0,0-.68.86,1.09,1.09,0,0,0,0,1c.32-.08.48-.42.72-.64s.51-.29.73-.49a1.18,1.18,0,0,0,.37-.6A.58.58,0,0,0,55.7,60.61Z"/><path class="cls-3" d="M54.37,52.7a1.84,1.84,0,0,0-1.07.94,1.63,1.63,0,0,0-.09.19l-.16.37a.52.52,0,0,0,.43-.12c.12-.1.22-.22.34-.32s.29-.17.43-.27a.55.55,0,0,0,.26-.42Z"/><path class="cls-3" d="M52.79,64.17a1.89,1.89,0,0,0-1.08.94,1.54,1.54,0,0,0-.08.19l-.16.37a.52.52,0,0,0,.43-.12c.12-.1.22-.22.34-.32s.29-.17.43-.27a.51.51,0,0,0,.25-.42Z"/><path class="cls-3" d="M50.7,54.39a1.86,1.86,0,0,0-1.08.94l-.09.19-.16.37a.52.52,0,0,0,.43-.12c.12-.1.22-.22.34-.32s.3-.17.43-.27a.55.55,0,0,0,.26-.42Z"/><path class="cls-3" d="M53.65,57.77a1.86,1.86,0,0,0-1.08.94l-.09.19c0,.13-.1.25-.16.37a.52.52,0,0,0,.43-.12c.12-.1.22-.22.34-.32s.3-.17.43-.27a.55.55,0,0,0,.26-.42Z"/><path class="cls-3" d="M64.62,63.84a1.89,1.89,0,0,0-1.08.94,1.54,1.54,0,0,0-.08.19l-.16.37a.52.52,0,0,0,.43-.12c.12-.1.22-.22.34-.32s.29-.17.43-.27a.55.55,0,0,0,.26-.42Z"/><path class="cls-3" d="M73.75,56.41a1.89,1.89,0,0,0-1.08.94l-.09.2-.16.36a.52.52,0,0,0,.43-.12c.12-.1.22-.22.34-.31s.3-.18.44-.28a.57.57,0,0,0,.25-.42Z"/><path class="cls-3" d="M68.64,51.88a1.89,1.89,0,0,0-1.08.94,1.76,1.76,0,0,0-.09.2l-.16.36a.49.49,0,0,0,.43-.12c.12-.1.22-.22.34-.31s.3-.17.43-.27a.55.55,0,0,0,.26-.43Z"/><path class="cls-3" d="M59.48,59.35a1.92,1.92,0,0,0-1.08.94l-.09.19-.15.37a.53.53,0,0,0,.43-.12c.12-.1.21-.22.34-.31s.29-.18.43-.28a.51.51,0,0,0,.25-.42Z"/><path class="cls-3" d="M56.55,55.13l0,.42a10.45,10.45,0,0,0-1.13,1.87,6.73,6.73,0,0,1,.79-.62,1.71,1.71,0,0,0,.64-.77A.77.77,0,0,0,56.55,55.13Z"/><path class="cls-3" d="M69.21,66.19l0,.41A10.19,10.19,0,0,0,68,68.48a6.73,6.73,0,0,1,.79-.62,1.76,1.76,0,0,0,.64-.77A.78.78,0,0,0,69.21,66.19Z"/><path class="cls-3" d="M70.69,60l0,.42a10,10,0,0,0-1.14,1.87,8.12,8.12,0,0,1,.8-.62,1.75,1.75,0,0,0,.63-.77A.78.78,0,0,0,70.69,60Z"/><path class="cls-3" d="M78.28,57.52l0,.41a10.19,10.19,0,0,0-1.13,1.88,5.82,5.82,0,0,1,.79-.62,1.76,1.76,0,0,0,.64-.77A.78.78,0,0,0,78.28,57.52Z"/><path class="cls-3" d="M50.54,60.11l0,.41a9.72,9.72,0,0,0-1.14,1.88,6.84,6.84,0,0,1,.8-.62,1.81,1.81,0,0,0,.63-.77A.78.78,0,0,0,50.54,60.11Z"/><path class="cls-3" d="M58,62.63l0,.42a10,10,0,0,0-1.14,1.87,8.12,8.12,0,0,1,.8-.62,1.69,1.69,0,0,0,.63-.77A.79.79,0,0,0,58,62.63Z"/><path class="cls-3" d="M64.23,67.61l0,.41a9.2,9.2,0,0,0-1.13,1.88,6,6,0,0,1,.79-.62,1.74,1.74,0,0,0,.63-.77A.78.78,0,0,0,64.23,67.61Z"/><path class="cls-3" d="M72.86,62.73l0,.42A9.41,9.41,0,0,0,71.69,65a6,6,0,0,1,.79-.62,1.69,1.69,0,0,0,.63-.77A.78.78,0,0,0,72.86,62.73Z"/><path class="cls-3" d="M50.3,56.58l-.44.32a3,3,0,0,1-.5.44A1.94,1.94,0,0,0,48.79,59a2.12,2.12,0,0,1,.61-1,5.69,5.69,0,0,0,1-.92.39.39,0,0,0,.08-.27A.18.18,0,0,0,50.3,56.58Z"/><path class="cls-3" d="M59.93,53.64,59.5,54a2.69,2.69,0,0,1-.51.44A1.94,1.94,0,0,0,58.43,56,2.12,2.12,0,0,1,59,55c.33-.32.78-.53,1-.91a.41.41,0,0,0,.07-.28A.16.16,0,0,0,59.93,53.64Z"/><path class="cls-2" d="M50.12,47.1q1.18-1,2.46-1.92a11.63,11.63,0,0,1,3.28-1.7,10.34,10.34,0,0,1,4.07.06,64.14,64.14,0,0,1,8.45,1.8l4.88,1.3a55.57,55.57,0,0,1,8.37,2.8,23.66,23.66,0,0,1,3.8,2.15c.19.13.37.3.56.42a.93.93,0,0,0,.55.05A5.06,5.06,0,0,1,87.88,52,.28.28,0,0,1,88,52a.4.4,0,0,1,.11.2c0,.17.07.35.1.52a7.66,7.66,0,0,1-.07,2,6.55,6.55,0,0,1-.28,1.64,6.49,6.49,0,0,1-2.08,2.51c-.78.65-1.57,1.27-2.38,1.89A77.56,77.56,0,0,1,65.48,71a9.86,9.86,0,0,1-5.59.42c-1.81-.35-3.25-1.65-4.69-2.72a38.67,38.67,0,0,1-6.91-6.37,12.22,12.22,0,0,1-2.92-5.62,9.14,9.14,0,0,1,.5-4.8,9.28,9.28,0,0,1,1.19-2.16,6.13,6.13,0,0,1,1.49-1.29A16.26,16.26,0,0,0,50.12,47.1Z"/><path class="cls-3" d="M62.09,69a11.24,11.24,0,0,1-2.2-.22,9.83,9.83,0,0,1-4-2.2L55.2,66a38,38,0,0,1-6.91-6.36c-.13-.16-.25-.31-.38-.45a6.76,6.76,0,0,1-1.52-2.5,11,11,0,0,1-.49-3.37,9.31,9.31,0,0,1,2.36-5.94,18.32,18.32,0,0,1,2.62-2.35,18.62,18.62,0,0,1,2.22-1.53A14.84,14.84,0,0,1,60.22,42h1a50.22,50.22,0,0,1,12.05,2,54.81,54.81,0,0,1,8.37,2.8A22.76,22.76,0,0,1,85.43,49c1.17.82,2.42,1.79,2.63,2.87.38,2-.92,3.36-2.25,4.45-.77.63-1.57,1.27-2.38,1.88a77.07,77.07,0,0,1-18,10.16A9.08,9.08,0,0,1,62.09,69Z"/><path class="cls-1" d="M62.09,68.13a11.27,11.27,0,0,1-2-.2,9.41,9.41,0,0,1-3.67-2.05l-.68-.52a36.83,36.83,0,0,1-6.77-6.23,7.56,7.56,0,0,1-1.75-2.66,10.22,10.22,0,0,1-.45-3.11A8.5,8.5,0,0,1,48.88,48a17.25,17.25,0,0,1,2.51-2.24,15.25,15.25,0,0,1,2.11-1.46c2.3-1.28,5.06-1.44,7.69-1.37A49.48,49.48,0,0,1,73,44.82a54.31,54.31,0,0,1,8.25,2.75A22.51,22.51,0,0,1,85,49.64c.7.49,2.14,1.51,2.3,2.36.24,1.25-.33,2.31-2,3.65-.77.63-1.56,1.26-2.36,1.86A76.52,76.52,0,0,1,65.17,67.56,8.23,8.23,0,0,1,62.09,68.13Z"/><path class="cls-5" d="M49.55,55.43c.08.25.17.49.26.73a20.62,20.62,0,0,0,1.91,3.78,9.14,9.14,0,0,0,1.16,1.64,3.54,3.54,0,0,0,3.44.43,5.51,5.51,0,0,0,1.82-1.68,22.17,22.17,0,0,1,5.12-4.93c.78-.5,1.61-.93,2.34-1.5a4.11,4.11,0,0,0,1.57-2.21,4.56,4.56,0,0,0-1.39-3.9,9,9,0,0,0-7.7-3,24,24,0,0,0-3.87.64,8.49,8.49,0,0,0-3.48,1.78,6.27,6.27,0,0,0-1.82,4.3A10.82,10.82,0,0,0,49.55,55.43Z"/><path class="cls-6" d="M82.87,52.82a4,4,0,0,0-1.72-2.14,25.07,25.07,0,0,0-4.66-2.94,64.48,64.48,0,0,0-6.85-2.63A5,5,0,0,0,65.89,45a1.15,1.15,0,0,0-.6.59c-.21.53.21,1.09.64,1.47a33.31,33.31,0,0,1,3.25,2.63c.92,1,1.37,2.74.47,3.81a3.42,3.42,0,0,1-1.05.79c-1.56.87-3.27,1.45-4.89,2.2a10.81,10.81,0,0,0-4.27,3.14,4.09,4.09,0,0,0-.92,2.75A3.69,3.69,0,0,0,61,65.25a7.45,7.45,0,0,0,4,.08,27.38,27.38,0,0,0,7.42-3.09,78.77,78.77,0,0,0,7.11-4.42,8.24,8.24,0,0,0,3.05-3.21A2.91,2.91,0,0,0,82.87,52.82Z"/><path class="cls-3" d="M60,46.25a.27.27,0,0,0-.35-.12l-.76.33a3.31,3.31,0,0,0-.68.86,1.09,1.09,0,0,0,0,1c.32-.08.48-.42.72-.64s.51-.3.73-.49a1.06,1.06,0,0,0,.37-.6A.52.52,0,0,0,60,46.25Z"/><path class="cls-3" d="M65.06,48.1a.28.28,0,0,0-.35-.11l-.76.33a3.35,3.35,0,0,0-.69.86,1.11,1.11,0,0,0,0,1c.32-.08.48-.42.72-.64s.51-.3.73-.49a1.22,1.22,0,0,0,.37-.6A.61.61,0,0,0,65.06,48.1Z"/><path class="cls-3" d="M63.84,60.61a.27.27,0,0,0-.34-.11l-.77.33a3.15,3.15,0,0,0-.68.86,1.06,1.06,0,0,0,0,1.05c.31-.08.47-.42.71-.64s.51-.3.73-.49a1.08,1.08,0,0,0,.37-.61A.53.53,0,0,0,63.84,60.61Z"/><path class="cls-3" d="M69.85,58.35a.28.28,0,0,0-.35-.12l-.76.33a3.35,3.35,0,0,0-.69.86,1.11,1.11,0,0,0,0,1c.31-.08.47-.42.71-.64s.52-.3.74-.49a1.1,1.1,0,0,0,.36-.6A.52.52,0,0,0,69.85,58.35Z"/><path class="cls-3" d="M78.54,55.74a.26.26,0,0,0-.34-.12l-.77.33a3.31,3.31,0,0,0-.68.86,1.06,1.06,0,0,0,0,1c.31-.08.47-.42.71-.64s.51-.3.74-.49a1.1,1.1,0,0,0,.36-.6A.52.52,0,0,0,78.54,55.74Z"/><path class="cls-3" d="M73.3,48.2a.28.28,0,0,0-.35-.11l-.76.33a3.19,3.19,0,0,0-.69.86,1.09,1.09,0,0,0,0,1c.31-.08.47-.42.71-.64s.52-.3.74-.49a1.12,1.12,0,0,0,.36-.61A.53.53,0,0,0,73.3,48.2Z"/><path class="cls-3" d="M57.56,59.39a.27.27,0,0,0-.34-.11l-.77.33a3.15,3.15,0,0,0-.68.86,1.06,1.06,0,0,0,0,1.05c.31-.08.47-.42.71-.64s.51-.3.73-.49a1.08,1.08,0,0,0,.37-.61A.53.53,0,0,0,57.56,59.39Z"/><path class="cls-3" d="M57.56,54.59a.27.27,0,0,0-.34-.11l-.77.33a3.15,3.15,0,0,0-.68.86,1.06,1.06,0,0,0,0,1c.31-.08.47-.42.71-.64s.51-.3.73-.49A1.05,1.05,0,0,0,57.6,55,.53.53,0,0,0,57.56,54.59Z"/><path class="cls-3" d="M56.24,46.68a1.91,1.91,0,0,0-1.08,1l-.09.19-.16.37a.5.5,0,0,0,.43-.13c.12-.09.22-.22.34-.31s.3-.17.44-.27a.57.57,0,0,0,.25-.42Z"/><path class="cls-3" d="M54.66,58.15a1.91,1.91,0,0,0-1.08,1l-.09.19c-.05.12-.11.24-.16.37a.5.5,0,0,0,.43-.13c.12-.09.22-.22.34-.31s.3-.17.43-.27a.55.55,0,0,0,.26-.42Z"/><path class="cls-3" d="M52.56,48.37a2,2,0,0,0-1.08.94l-.09.2-.16.37a.5.5,0,0,0,.43-.13c.12-.09.22-.22.34-.31s.3-.17.44-.27a.57.57,0,0,0,.25-.42Z"/><path class="cls-3" d="M55.51,51.75a1.94,1.94,0,0,0-1.08,1l-.09.19-.15.37a.49.49,0,0,0,.42-.13c.13-.09.22-.22.35-.31s.29-.17.43-.27a.51.51,0,0,0,.25-.42Z"/><path class="cls-3" d="M66.49,57.82a1.91,1.91,0,0,0-1.08,1l-.09.19-.16.37a.5.5,0,0,0,.43-.13c.12-.09.22-.22.34-.31s.3-.17.43-.27a.55.55,0,0,0,.26-.42Z"/><path class="cls-3" d="M75.61,50.4a1.89,1.89,0,0,0-1.08.94l-.09.19-.15.37a.52.52,0,0,0,.43-.13c.12-.09.21-.21.34-.31s.29-.17.43-.27a.51.51,0,0,0,.25-.42Z"/><path class="cls-3" d="M70.5,45.87a1.89,1.89,0,0,0-1.08.94l-.09.19-.15.37a.51.51,0,0,0,.42-.12c.12-.1.22-.22.34-.32s.3-.17.44-.27a.54.54,0,0,0,.25-.42Z"/><path class="cls-3" d="M61.35,53.33a1.93,1.93,0,0,0-1.09,1c0,.06,0,.13-.08.19s-.11.25-.16.37a.5.5,0,0,0,.43-.13c.12-.09.22-.21.34-.31s.29-.17.43-.27a.51.51,0,0,0,.25-.42Z"/><path class="cls-3" d="M58.42,49.12l0,.41a9.72,9.72,0,0,0-1.14,1.88,6.84,6.84,0,0,1,.8-.62,1.74,1.74,0,0,0,.63-.77A.78.78,0,0,0,58.42,49.12Z"/><path class="cls-3" d="M71.08,60.17l0,.42a9.72,9.72,0,0,0-1.14,1.88,6.92,6.92,0,0,1,.8-.63,1.69,1.69,0,0,0,.63-.77A.79.79,0,0,0,71.08,60.17Z"/><path class="cls-3" d="M72.55,54l0,.41a9.2,9.2,0,0,0-1.13,1.88,6,6,0,0,1,.79-.62,1.74,1.74,0,0,0,.63-.77A.78.78,0,0,0,72.55,54Z"/><path class="cls-3" d="M80.15,51.5l0,.42A10,10,0,0,0,79,53.79a8.12,8.12,0,0,1,.8-.62,1.75,1.75,0,0,0,.63-.77A.79.79,0,0,0,80.15,51.5Z"/><path class="cls-3" d="M52.4,54.09l0,.42a9.41,9.41,0,0,0-1.13,1.87,7,7,0,0,1,.79-.62,1.69,1.69,0,0,0,.63-.77A.79.79,0,0,0,52.4,54.09Z"/><path class="cls-3" d="M59.89,56.62l0,.41a9.2,9.2,0,0,0-1.13,1.88,6,6,0,0,1,.79-.62,1.69,1.69,0,0,0,.63-.77A.77.77,0,0,0,59.89,56.62Z"/><path class="cls-3" d="M66.09,61.59l0,.42a9.67,9.67,0,0,0-1.13,1.88,6.06,6.06,0,0,1,.79-.63,1.72,1.72,0,0,0,.63-.76A.78.78,0,0,0,66.09,61.59Z"/><path class="cls-3" d="M74.72,56.72l0,.41A10.19,10.19,0,0,0,73.55,59a6.73,6.73,0,0,1,.79-.62,1.76,1.76,0,0,0,.64-.77A.78.78,0,0,0,74.72,56.72Z"/><path class="cls-3" d="M52.16,50.57l-.43.32a2.64,2.64,0,0,1-.51.43,2,2,0,0,0-.56,1.62,2.15,2.15,0,0,1,.6-1c.34-.31.79-.52,1-.91a.36.36,0,0,0,.08-.28C52.35,50.62,52.25,50.53,52.16,50.57Z"/><path class="cls-3" d="M61.8,47.62l-.44.32a2.58,2.58,0,0,1-.5.43A2,2,0,0,0,60.29,50a2.08,2.08,0,0,1,.61-1,5.69,5.69,0,0,0,1-.92.39.39,0,0,0,.08-.27A.18.18,0,0,0,61.8,47.62Z"/><path class="cls-2" d="M68.17,47.11a31.27,31.27,0,0,1,3-1,11.64,11.64,0,0,1,3.66-.54A10.21,10.21,0,0,1,78.61,47,64.07,64.07,0,0,1,86,51.43c1.39.94,2.79,1.88,4.17,2.83a55.43,55.43,0,0,1,7,5.39,23.57,23.57,0,0,1,2.88,3.27c.13.19.25.41.39.58a.93.93,0,0,0,.51.24,4.69,4.69,0,0,1,1.29.32.35.35,0,0,1,.13.11.45.45,0,0,1,0,.23c0,.17,0,.35-.08.52a7.55,7.55,0,0,1-.73,1.9,6.42,6.42,0,0,1-.81,1.45A6.55,6.55,0,0,1,98,70c-1,.35-1.91.68-2.87,1a77,77,0,0,1-20.29,3.71,9.76,9.76,0,0,1-5.41-1.44c-1.6-.92-2.53-2.62-3.54-4.1a38.46,38.46,0,0,1-4.44-8.29,12.24,12.24,0,0,1-.92-6.26,9.16,9.16,0,0,1,2.05-4.37,9,9,0,0,1,1.83-1.65,6,6,0,0,1,1.83-.73A19.16,19.16,0,0,0,68.17,47.11Z"/><path class="cls-3" d="M72.32,71.68a11,11,0,0,1-2-.93,9.81,9.81,0,0,1-3.07-3.39c-.16-.24-.31-.48-.47-.71a38,38,0,0,1-4.44-8.28l-.21-.55A6.68,6.68,0,0,1,61.5,55a11.07,11.07,0,0,1,.64-3.34,9.38,9.38,0,0,1,4.17-4.84,18.15,18.15,0,0,1,3.25-1.36,17.32,17.32,0,0,1,2.6-.72,14.83,14.83,0,0,1,7.21.93l.94.34a50.27,50.27,0,0,1,10.74,5.81,56.11,56.11,0,0,1,7,5.39,23.09,23.09,0,0,1,2.88,3.28c.83,1.15,1.7,2.48,1.54,3.57-.29,2-2,2.87-3.58,3.47-.93.34-1.9.68-2.87,1A77.5,77.5,0,0,1,75.72,72.2,9,9,0,0,1,72.32,71.68Z"/><path class="cls-4" d="M72.59,70.9A12,12,0,0,1,70.72,70a9.25,9.25,0,0,1-2.79-3.14c-.16-.24-.31-.48-.47-.71a37.23,37.23,0,0,1-4.36-8.11A7.61,7.61,0,0,1,62.33,55a10,10,0,0,1,.59-3.1,8.51,8.51,0,0,1,3.8-4.4,17.58,17.58,0,0,1,3.11-1.29,15.37,15.37,0,0,1,2.47-.69A14.88,14.88,0,0,1,80,46.75a49.48,49.48,0,0,1,10.56,5.72,55.08,55.08,0,0,1,6.89,5.3,22.64,22.64,0,0,1,2.78,3.16c.49.69,1.52,2.12,1.39,3-.18,1.27-1.06,2.08-3,2.81-.93.35-1.88.68-2.84,1a76.65,76.65,0,0,1-20.07,3.67A8.17,8.17,0,0,1,72.59,70.9Z"/><path class="cls-5" d="M64.9,54.79c0,.25,0,.51,0,.77a20.59,20.59,0,0,0,.56,4.2A9.53,9.53,0,0,0,66,61.69,3.2,3.2,0,0,0,67.67,63a3.27,3.27,0,0,0,1.48.23,5.44,5.44,0,0,0,2.26-1,22.16,22.16,0,0,1,6.46-3c.9-.22,1.82-.34,2.69-.64A4.16,4.16,0,0,0,82.78,57a4.64,4.64,0,0,0,0-4.14,9.08,9.08,0,0,0-6.29-5.38,24.27,24.27,0,0,0-3.87-.66,8.52,8.52,0,0,0-3.87.54,6.3,6.3,0,0,0-3.13,3.46A11,11,0,0,0,64.9,54.79Z"/><path class="cls-5" d="M97.24,63.25a4,4,0,0,0-.92-2.59,25.93,25.93,0,0,0-3.44-4.31,65,65,0,0,0-5.61-4.73,5,5,0,0,0-3.5-1.37,1.2,1.2,0,0,0-.76.35c-.37.44-.15,1.11.13,1.61a32.63,32.63,0,0,1,2.21,3.54c.52,1.3.39,3-.81,3.76a3.34,3.34,0,0,1-1.25.4c-1.76.31-3.56.29-5.34.47A10.86,10.86,0,0,0,72.89,62a4.09,4.09,0,0,0-1.77,2.29,3.68,3.68,0,0,0,1.42,3.59,7.37,7.37,0,0,0,3.78,1.39,27.05,27.05,0,0,0,8-.48,78.43,78.43,0,0,0,8.17-1.84,8.17,8.17,0,0,0,3.93-2A3,3,0,0,0,97.24,63.25Z"/><path class="cls-3" d="M77.82,49.55a.26.26,0,0,0-.29-.22l-.83.06a3.31,3.31,0,0,0-.93.58,1.09,1.09,0,0,0-.33,1c.33,0,.59-.24.89-.37s.58-.11.85-.22a1.14,1.14,0,0,0,.54-.45A.54.54,0,0,0,77.82,49.55Z"/><path class="cls-3" d="M82,53a.27.27,0,0,0-.29-.22l-.83.06a3.13,3.13,0,0,0-.93.59,1.08,1.08,0,0,0-.33,1c.33,0,.59-.25.89-.37s.58-.12.85-.22a1.1,1.1,0,0,0,.54-.46A.58.58,0,0,0,82,53Z"/><path class="cls-3" d="M76.71,64.37a.27.27,0,0,0-.29-.22l-.83.06a3.31,3.31,0,0,0-.93.58,1.11,1.11,0,0,0-.33,1c.32,0,.59-.25.89-.38s.58-.11.85-.22a1,1,0,0,0,.54-.45A.58.58,0,0,0,76.71,64.37Z"/><path class="cls-3" d="M83.12,64.2a.26.26,0,0,0-.29-.22L82,64a2.93,2.93,0,0,0-.92.58,1.07,1.07,0,0,0-.33,1c.32,0,.58-.24.88-.37s.58-.11.86-.22a1.19,1.19,0,0,0,.54-.45A.53.53,0,0,0,83.12,64.2Z"/><path class="cls-3" d="M92.19,64.58a.27.27,0,0,0-.29-.22l-.82.06a3,3,0,0,0-.93.59,1.06,1.06,0,0,0-.33,1c.32,0,.58-.25.88-.37s.58-.12.86-.22A1.15,1.15,0,0,0,92.1,65,.52.52,0,0,0,92.19,64.58Z"/><path class="cls-3" d="M89.71,55.75a.26.26,0,0,0-.29-.22l-.83,0a3.34,3.34,0,0,0-.93.59,1.09,1.09,0,0,0-.33,1c.33,0,.59-.24.89-.37s.58-.11.85-.22a1.14,1.14,0,0,0,.54-.45A.54.54,0,0,0,89.71,55.75Z"/><path class="cls-3" d="M71.17,61.16a.27.27,0,0,0-.29-.22l-.82.06a3.17,3.17,0,0,0-.93.58,1.11,1.11,0,0,0-.33,1c.32,0,.59-.25.88-.38s.58-.11.86-.22a1.13,1.13,0,0,0,.54-.45A.52.52,0,0,0,71.17,61.16Z"/><path class="cls-3" d="M72.75,56.62a.26.26,0,0,0-.29-.21l-.83.05a3.34,3.34,0,0,0-.93.59,1.08,1.08,0,0,0-.33,1c.33,0,.59-.24.89-.37s.58-.11.85-.22a1.14,1.14,0,0,0,.54-.45A.55.55,0,0,0,72.75,56.62Z"/><path class="cls-3" d="M74.09,48.72a1.88,1.88,0,0,0-1.33.53,1.07,1.07,0,0,0-.14.16l-.27.29a.49.49,0,0,0,.44,0c.15,0,.28-.14.43-.19s.33-.06.5-.11a.54.54,0,0,0,.37-.32Z"/><path class="cls-3" d="M68.84,59a1.94,1.94,0,0,0-1.33.54l-.15.15-.27.3a.51.51,0,0,0,.45,0c.14,0,.28-.13.42-.18s.34-.07.5-.12a.55.55,0,0,0,.38-.31Z"/><path class="cls-3" d="M70.06,49.1a1.94,1.94,0,0,0-1.33.54l-.14.16-.27.29a.49.49,0,0,0,.44,0c.15-.06.28-.14.43-.19s.33-.06.49-.11a.52.52,0,0,0,.38-.32Z"/><path class="cls-3" d="M71.74,53.27a1.89,1.89,0,0,0-1.33.54,1,1,0,0,0-.14.15l-.27.29a.49.49,0,0,0,.44,0c.15-.05.28-.14.43-.19s.33-.06.49-.11a.52.52,0,0,0,.38-.32Z"/><path class="cls-3" d="M80.12,62.6a1.94,1.94,0,0,0-1.33.54l-.14.15-.27.3a.49.49,0,0,0,.44,0c.15,0,.28-.13.43-.18s.33-.07.49-.12a.53.53,0,0,0,.38-.31Z"/><path class="cls-3" d="M91.18,58.58a1.87,1.87,0,0,0-1.33.53l-.15.16-.27.29a.51.51,0,0,0,.45,0c.14-.06.28-.14.42-.19s.34-.06.5-.11a.58.58,0,0,0,.38-.32Z"/><path class="cls-3" d="M87.83,52.62a1.94,1.94,0,0,0-1.33.54l-.14.15-.27.3a.52.52,0,0,0,.44,0c.15-.05.28-.13.43-.18s.33-.07.5-.12a.53.53,0,0,0,.37-.31Z"/><path class="cls-3" d="M76.73,56.67a2,2,0,0,0-1.33.54l-.14.15-.27.3a.49.49,0,0,0,.44,0c.15,0,.28-.13.43-.18s.33-.06.5-.11a.54.54,0,0,0,.37-.32Z"/><path class="cls-3" d="M75.35,51.73l-.17.38a9.46,9.46,0,0,0-1.69,1.4,7.61,7.61,0,0,1,1-.33,1.63,1.63,0,0,0,.85-.52A.77.77,0,0,0,75.35,51.73Z"/><path class="cls-3" d="M83.69,66.33l-.18.38a9.39,9.39,0,0,0-1.68,1.4,7.61,7.61,0,0,1,1-.33,1.67,1.67,0,0,0,.85-.52A.78.78,0,0,0,83.69,66.33Z"/><path class="cls-3" d="M87.11,60.94l-.17.38a9.39,9.39,0,0,0-1.68,1.4,5.34,5.34,0,0,1,.95-.33,1.67,1.67,0,0,0,.85-.52A.78.78,0,0,0,87.11,60.94Z"/><path class="cls-3" d="M95.1,61.11l-.18.38a9.39,9.39,0,0,0-1.68,1.4,7.61,7.61,0,0,1,1-.33A1.67,1.67,0,0,0,95,62,.77.77,0,0,0,95.1,61.11Z"/><path class="cls-3" d="M68,54.46l-.17.38a9.39,9.39,0,0,0-1.68,1.4,7.61,7.61,0,0,1,.95-.33,1.67,1.67,0,0,0,.85-.52A.78.78,0,0,0,68,54.46Z"/><path class="cls-3" d="M74.28,59.3l-.17.38a9.83,9.83,0,0,0-1.69,1.4,7.76,7.76,0,0,1,1-.33,1.67,1.67,0,0,0,.85-.52A.78.78,0,0,0,74.28,59.3Z"/><path class="cls-3" d="M78.51,66l-.17.38a9.9,9.9,0,0,0-1.69,1.4,6.63,6.63,0,0,1,.95-.32,1.73,1.73,0,0,0,.85-.52A.78.78,0,0,0,78.51,66Z"/><path class="cls-3" d="M88.26,64.26l-.17.38A9.83,9.83,0,0,0,86.4,66a5.44,5.44,0,0,1,1-.33,1.74,1.74,0,0,0,.85-.52A.78.78,0,0,0,88.26,64.26Z"/><path class="cls-3" d="M69,51.05l-.51.16a2.57,2.57,0,0,1-.62.24,2,2,0,0,0-1.07,1.35,2.17,2.17,0,0,1,.92-.78A5.49,5.49,0,0,0,69,51.49a.42.42,0,0,0,.17-.23A.18.18,0,0,0,69,51.05Z"/><path class="cls-3" d="M79,51.43l-.51.16a3.07,3.07,0,0,1-.62.24,2,2,0,0,0-1.07,1.35,2.19,2.19,0,0,1,.92-.79A5.47,5.47,0,0,0,79,51.87a.41.41,0,0,0,.17-.24C79.2,51.53,79.13,51.42,79,51.43Z"/><path class="cls-6" d="M48.3,4.87a4.83,4.83,0,0,0-.58-.43,25.25,25.25,0,0,0-14.07-4A31.87,31.87,0,0,0,19.76,3.34c-3.59,1.81-7,4.41-8.57,8.2A15.1,15.1,0,0,0,10.7,22,7.83,7.83,0,0,0,12.41,25a6.48,6.48,0,0,0,6.76,1.16,12.23,12.23,0,0,0,5.44-4.61c1.39-2,2.46-4.16,3.75-6.2,2.08-3.3,5-6.35,8.73-7.39a14.37,14.37,0,0,1,5.66-.26C44.27,7.94,48.13,8.9,49,7a1.57,1.57,0,0,0-.18-1.49A2.81,2.81,0,0,0,48.3,4.87Z"/><path class="cls-7" d="M42.73,6.68a3,3,0,0,0,1.52-.42,1.41,1.41,0,0,0,.5-1.47,1.47,1.47,0,0,0-.3-.63,8.6,8.6,0,0,0-3.64-2,16.37,16.37,0,0,0-4.74-1,18.42,18.42,0,0,0-7.65,1c-3,1.21-6.58,3.71-6.47,7.37,0,1.28,0,2.48,1.37,3.06a4.05,4.05,0,0,0,1.86.26,5.22,5.22,0,0,0,3.14-1.3A41.83,41.83,0,0,1,31.7,9,10.33,10.33,0,0,1,36.48,7C38.56,6.73,40.65,6.84,42.73,6.68Z"/></g></g></svg>