<svg xmlns="http://www.w3.org/2000/svg" viewBox="0 0 70.1 85.41"><defs><style>.cls-1{fill:#bf250d;}.cls-2{fill:#cc2d14;}.cls-3{fill:#e63317;}.cls-4{fill:#ff5338;}.cls-5{fill:#ff725c;}.cls-6{fill:#4d7326;}.cls-7{fill:#417021;}.cls-8{fill:#5a9223;}.cls-9{fill:#a6cb6c;}.cls-10{fill:#ffc000;}.cls-11{fill:#ffe657;}</style></defs><g id="Layer_2" data-name="Layer 2"><g id="Layer"><path class="cls-1" d="M20,8.3a3.53,3.53,0,0,1,3.38-2,22,22,0,0,1,5.12.33,16.58,16.58,0,0,1,6.79,2.24,7.81,7.81,0,0,1,2.91,3.42c.29.68,1,2.82.6,3.51a1.21,1.21,0,0,1-.53.41,21.47,21.47,0,0,1-5.22,1.9c-1.85.42-3.06,1-4.86.3-1.23-.47-2.48-.9-3.73-1.29a20.56,20.56,0,0,1-3-.75c-2.92-1.47-2.82-5.44-1.51-8Z"/><path class="cls-2" d="M34,46.91a25,25,0,0,1-2.81,5.32,8.43,8.43,0,0,1-4.88,3.32,4.25,4.25,0,0,1-1.81,0,2.63,2.63,0,0,1-.72-.28,5,5,0,0,1-2-3.2C19,42,20.91,31.15,24.6,21.38a40.35,40.35,0,0,1,2.28-5.51c1.34-2.35,3.3-4,6.74-3.38s6.73,3.69,7.07,7.24C41.58,29.12,37.77,38.25,34,46.91Z"/><path class="cls-1" d="M33,25.38a104.23,104.23,0,0,1-1.83,13.15c-.74,4.17-1.7,8.38-3.8,12.1a18.2,18.2,0,0,1-2.52,3.88c-1.65,1.65-2.58-1.1-3-2.46C19,42,20.91,31.15,24.6,21.38a40.35,40.35,0,0,1,2.28-5.51,13.67,13.67,0,0,1,3.07.5,4.88,4.88,0,0,1,2.38,3.29A17,17,0,0,1,33,25.38Z"/><path class="cls-1" d="M20.71,8.5a8.56,8.56,0,0,0-2.23-1.72c-2-1.06-3.91-.64-6-.31A16.74,16.74,0,0,0,5.66,8.72a7.81,7.81,0,0,0-2.91,3.42c-.29.68-1,2.82-.6,3.51a1.18,1.18,0,0,0,.52.41A22.06,22.06,0,0,0,7.89,18c1.86.42,3.07,1,4.86.29,1.24-.46,2.48-.89,3.74-1.28a21.43,21.43,0,0,0,3-.75c1.95-1,2.46-2.87,2.48-4.89A4.26,4.26,0,0,0,20.71,8.5Z"/><path class="cls-2" d="M19,52.05a5,5,0,0,1-2,3.2,3,3,0,0,1-.45.2,4.11,4.11,0,0,1-2.09.1,8.43,8.43,0,0,1-4.88-3.32,25.09,25.09,0,0,1-2.82-5.32C3.05,38.25-.76,29.12.13,19.73c.33-3.55,3.48-6.54,7.08-7.24a5.65,5.65,0,0,1,6.26,2.61,30.1,30.1,0,0,1,2.75,6.28C19.91,31.15,21.79,42,19,52.05Z"/><path class="cls-1" d="M19,52.05a5,5,0,0,1-2,3.2,3,3,0,0,1-.45.2c-.18-.24-.35-.45-.48-.64a48.53,48.53,0,0,1-3.76-6.06c-.89-1.68-2.12-3.67-2.42-5.56-.35-2.09-1-4.14-1.4-6.24a62,62,0,0,1-1-13.26,12.18,12.18,0,0,1,.39-3c.77-2.6,3.06-4.46,5.56-5.58a30.1,30.1,0,0,1,2.75,6.28C19.91,31.15,21.79,42,19,52.05Z"/><path class="cls-3" d="M31.75,26.64A12.38,12.38,0,0,0,30.5,20a9.75,9.75,0,0,0-2.89-3,13,13,0,0,0-12.35-1.4C7.92,18.82,8.7,26.35,9.19,33c.53,7.11,3,15.48,7.56,21,1,1.18,2.2,2.48,3.73,2.37,1.93-.13,3.73-3.11,4.71-4.55a28.34,28.34,0,0,0,3.34-6.67A62.3,62.3,0,0,0,31.75,26.64Z"/><path class="cls-3" d="M39.42,19.91A7.71,7.71,0,0,0,38,15.82a7.14,7.14,0,0,0-6.4-2.34,1.89,1.89,0,0,0-1.07.54.94.94,0,0,0,.29,1.64,11,11,0,0,1,2.86,1.93,8.49,8.49,0,0,1,2,6.06C35.65,29.88,33.27,35.79,33,42a45.42,45.42,0,0,0,3.52-5.57,30.18,30.18,0,0,0,2.54-9.61A30.14,30.14,0,0,0,39.42,19.91Z"/><path class="cls-4" d="M38.32,20.17a7.13,7.13,0,0,0-.45-1.86,7.25,7.25,0,0,0-2.82-3.66,4.25,4.25,0,0,0-2.22-.54.78.78,0,0,0-.72.67c0,.69.89.75,1.36,1a11,11,0,0,1,2,1.43c2,1.86,2.27,4.69,2.33,7.28A10.26,10.26,0,0,0,38.32,20.17Z"/><path class="cls-4" d="M30.5,26.05c-.08-.71-.18-1.41-.29-2.08a11.77,11.77,0,0,0-1.88-4.75,7.39,7.39,0,0,0-7.61-2.88A4,4,0,0,0,18.22,18c-.69,1.35.65,2.41,1.38,3.4a16.67,16.67,0,0,1,1.51,2.31c1.56,3,1.36,6.66,1.08,10.07-.14,1.77-.3,3.53-.49,5.3a6.85,6.85,0,0,0,.88,4.53,2.13,2.13,0,0,0,2.75.89,3.6,3.6,0,0,0,1-.87,11.63,11.63,0,0,0,2.25-4.76,41.34,41.34,0,0,0,1.75-7.41,22.41,22.41,0,0,0,.27-3.84C30.61,27.1,30.56,26.57,30.5,26.05Z"/><path class="cls-5" d="M27.61,22.18A6.52,6.52,0,0,0,26,18.71a3.36,3.36,0,0,0-2.85-.95c-.86.16-2,1.09-1.16,2a11.76,11.76,0,0,0,1.48,1,9.43,9.43,0,0,1,2.86,2.62l.67,1.1a7.29,7.29,0,0,1,1.16,2.69A17.86,17.86,0,0,0,27.61,22.18Z"/><path class="cls-6" d="M22.87,8.13c-.22.58-.92,1.83-.05,2.2s1.28-.49,2-.55a.79.79,0,0,1,.54.12c.33.25.25.77.08,1.16a2.21,2.21,0,0,0,.11,2c.47.77,1.35,1.17,2,1.83l.06.07c.25.28,1.21,1.79.53,2a.68.68,0,0,1-.48-.06,24,24,0,0,1-2.25-1.17A13.05,13.05,0,0,0,23,15a12.32,12.32,0,0,0-5.47.06,14.6,14.6,0,0,0-1.61.41,14.39,14.39,0,0,0-3.55,1.67.67.67,0,0,1-.5.16.44.44,0,0,1-.31-.38,1.89,1.89,0,0,1,.17-1,4,4,0,0,1,1.31-1.51A6.42,6.42,0,0,0,14.51,13c.35-.54.16-1.42.16-2.05a.88.88,0,0,1,.08-.45.6.6,0,0,1,.6-.26c.55.06.87.58,1.39.7,1.63.41,2.08-2.25,2.45-3.22.11-.27.21-.55.32-.83a17.62,17.62,0,0,1,.78-1.79c.05-.09.09-.18.15-.27a7.91,7.91,0,0,1,.87-1.37,6.64,6.64,0,0,1,.85-.91A8.41,8.41,0,0,1,23,1.83,13.77,13.77,0,0,1,25,.56,3.69,3.69,0,0,1,26.68,0a1.81,1.81,0,0,1,1.4.86,2.12,2.12,0,0,1,.16,1.64c-.13.54-.52.76-1,1a16.26,16.26,0,0,0-1.62.94A7.16,7.16,0,0,0,23.7,6.38,9.65,9.65,0,0,0,22.87,8.13Z"/><path class="cls-7" d="M19.19,7.71c.11-.27.21-.55.32-.83a9.2,9.2,0,0,0-.43,1.64A8.57,8.57,0,0,1,18.75,10a2,2,0,0,1-1,1.18,3.46,3.46,0,0,1-2.11,0,.51.51,0,0,0-.3,0c-.19.09-.21.34-.21.55a3.84,3.84,0,0,1-.5,2c-.62,1-1.86,1.53-2.07,2.64a2.29,2.29,0,0,0,1-.47A3.78,3.78,0,0,1,16,15.42a14.39,14.39,0,0,0-3.55,1.67.67.67,0,0,1-.5.16.44.44,0,0,1-.31-.38,1.89,1.89,0,0,1,.17-1,4,4,0,0,1,1.31-1.51A6.42,6.42,0,0,0,14.51,13c.35-.54.16-1.42.16-2.05a.88.88,0,0,1,.08-.45.6.6,0,0,1,.6-.26c.55.06.87.58,1.39.7C18.37,11.34,18.82,8.68,19.19,7.71Z"/><path class="cls-7" d="M22.16,2.54a11.66,11.66,0,0,0-1.72,2.28,7.91,7.91,0,0,1,.87-1.37A6.64,6.64,0,0,1,22.16,2.54Z"/><path class="cls-8" d="M21.5,8.56c.17-.44.34-.88.53-1.31s.3-.77.48-1.11a6.85,6.85,0,0,1,1.69-2A7.39,7.39,0,0,0,26,2.47a.42.42,0,0,0,.08-.26.28.28,0,0,0-.25-.2.78.78,0,0,0-.33.07,7.48,7.48,0,0,0-2.84,2.16,14.48,14.48,0,0,0-2.83,4.22,9.94,9.94,0,0,0-.35,1,4,4,0,0,1-.33,1.18A2.51,2.51,0,0,1,17,12c-.35,0-.76-.07-1,.18a.33.33,0,0,0-.06.1c0,.15.17.24.29.33a.81.81,0,0,1,.1,1,5.52,5.52,0,0,0-.57,1c0,.1,0,.22,0,.29a.29.29,0,0,0,.26,0,30.6,30.6,0,0,1,3.57-.76,9.45,9.45,0,0,1,2.55.19,10.71,10.71,0,0,0,2.35.5c.14,0,.33-.06.34-.2a.39.39,0,0,0-.06-.18,7.44,7.44,0,0,1-.59-1.07,1.52,1.52,0,0,1,0-1.2c.07-.17.19-.32.27-.48a.55.55,0,0,0,0-.54A.5.5,0,0,0,24,11a1.87,1.87,0,0,0-.51.2l-.13.06a1.71,1.71,0,0,1-.66.18c-.73,0-1.35-.8-1.44-1.47A3,3,0,0,1,21.5,8.56Z"/><path class="cls-2" d="M34.74,9.71l-.5-.32a12.59,12.59,0,0,0-3.13-1.52,18.93,18.93,0,0,0-2.58-.6c-.73-.12-1.47-.18-2.2-.32a2.5,2.5,0,0,0-1.66-.06,1,1,0,0,0-.6,1.34,1.27,1.27,0,0,0,.42.41c.87.6,2.31.95,2.27,2.27a4.63,4.63,0,0,1-.23,1,1,1,0,0,0,.12.93.94.94,0,0,0,.64.28,3.73,3.73,0,0,0,2-.6c.58-.28,1.17-.56,1.75-.82a2.87,2.87,0,0,1,1.94-.05,22.53,22.53,0,0,1,2.36,1,1,1,0,0,0,1,0,.91.91,0,0,0,.14-1C36.41,10.89,35.48,10.2,34.74,9.71Z"/><path class="cls-2" d="M18.25,7.87a1.19,1.19,0,0,0-.58-.57A3.75,3.75,0,0,0,16.15,7a20.08,20.08,0,0,0-6.78.66,8.82,8.82,0,0,0-5.28,4.07,1.2,1.2,0,0,0-.18.91.33.33,0,0,0,.17.21.49.49,0,0,0,.21,0,7,7,0,0,0,1.52-.51,7.85,7.85,0,0,1,5.68-.18c.49.22,1,1,1.57.73a1,1,0,0,0,.46-.47,3.74,3.74,0,0,0,.42-1.11c.07-.29.1-.59.19-.87.54-1.52,1.9-.31,3-.67a2,2,0,0,0,1.11-1.32A.83.83,0,0,0,18.25,7.87Z"/><path class="cls-9" d="M21,9a13.87,13.87,0,0,1,.35-1.55c.08-.24.17-.48.27-.71a2,2,0,0,1,.35-.69A3.51,3.51,0,0,0,21,7.6c-.22.6-.4,1.24-.57,1.86s-.19,1.3-.7,1.71l-.13.1a1.71,1.71,0,0,0-.59.47A.23.23,0,0,0,19,12a.23.23,0,0,0,.11.11c.28.19.41.25.35.61a2.42,2.42,0,0,0-.13.65.31.31,0,0,0,.09.2.28.28,0,0,0,.16.05c.34,0,.52-.31.63-.57a.73.73,0,0,1,.27-.39,1.94,1.94,0,0,1,.57-.2.41.41,0,0,0,.19-.08.37.37,0,0,0,.09-.27.84.84,0,0,0-.08-.27c-.05-.1-.12-.18-.17-.28a2,2,0,0,1-.28-1.3C20.8,9.8,20.89,9.4,21,9Z"/><path class="cls-1" d="M69.57,69.85c-.33-.61-.77-2.86-1.52-3.38-3.23-2.28-9.22-2.39-13.37-.47a9.39,9.39,0,0,0-1.86,1.15A15.39,15.39,0,0,0,40.46,67,6.32,6.32,0,0,0,37,70.73l-.19-.18-.1,2.18a.31.31,0,0,0,0,.1V73h0a4.59,4.59,0,0,0,2,3.89,12.94,12.94,0,0,0,7.54,1.9L46.18,80h0a4,4,0,0,0,2,3.51c3.24,2.28,9.22,2.56,13.37.64,2.36-1.1,3.61-2.67,3.65-4.24l.13-2.67L64.72,77l-.08.32a4.43,4.43,0,0,0-.63-.77l.63.11-.17.4a11.91,11.91,0,0,0,1.82-.66c2.24-1,3.48-2.51,3.64-4h0v-.07c0-.08.16-3.1.16-3.1Zm-4,3.86A10.14,10.14,0,0,1,64.2,74l-.72.47-1.24-.44-.14,2.79.74.72c2,1.94,1.19,2.47-2,4-3.56,1.65-8.74,1.41-11.53-.56-1.6-1.13-2.23-.62-1.51-2.07l.49-1,.14-2.79-.86.61-.29.83,0,.75-.63-1.79a11.42,11.42,0,0,1-6.77-1.63c-2.79-2-2.27-2.44,1.3-4.09a13.21,13.21,0,0,1,10.67,0l1.08.55.88-.7a7.34,7.34,0,0,1,1.6-1c3.57-1.66,8.74-1.41,11.53.55S69.17,72.06,65.59,73.71Z"/><path class="cls-3" d="M64.11,74.4a12.94,12.94,0,0,0,2.32-.8c4.15-1.93,4.89-5.33,1.65-7.61s-9.22-2.56-13.37-.64a8.59,8.59,0,0,0-1.85,1.14,15.38,15.38,0,0,0-12.37,0c-4.15,1.92-4.88,5.32-1.65,7.6a13.18,13.18,0,0,0,7.84,1.89c-.81,1.63-.31,3.4,1.64,4.78,3.24,2.27,9.22,2.56,13.37.64C65.45,79.6,66.4,76.63,64.11,74.4ZM49.35,80.23c-1.61-1.13-2.13-2.67-1.41-4.12l.49-1-1.79.08a11.47,11.47,0,0,1-6.77-1.64c-2.79-2-2.15-4.9,1.42-6.56a13.17,13.17,0,0,1,10.67,0L53,67.6l.88-.7a7.51,7.51,0,0,1,1.59-1c3.58-1.66,8.75-1.41,11.54.55S69.2,71.38,65.63,73a10.76,10.76,0,0,1-2,.69l-1.38.35.73.72c2,1.94,1.09,4.52-2.09,6C57.31,82.44,52.14,82.19,49.35,80.23Z"/><path class="cls-6" d="M68.36,47.35c-.33-.61-.78-2.86-1.52-3.38-3.24-2.27-9.23-2.39-13.38-.46a8.46,8.46,0,0,0-1.85,1.15,15.37,15.37,0,0,0-12.37-.15,6.41,6.41,0,0,0-3.44,3.72l-.18-.17-.11,2.18v.21h0a4.59,4.59,0,0,0,2,3.89A13,13,0,0,0,45,56.23L45,57.49h0A4,4,0,0,0,47,61c3.24,2.28,9.22,2.57,13.36.64C62.7,60.55,64,59,64,57.4l.13-2.66-.61-.24-.08.31A5.46,5.46,0,0,0,62.8,54l.63.12-.18.39a11.65,11.65,0,0,0,1.83-.66c2.24-1,3.47-2.5,3.64-4h0v-.07c0-.08.16-3.1.16-3.1Zm-4,3.87a12.4,12.4,0,0,1-1.39.32l-.72.47L61,51.57l-.14,2.79.73.72c2,2,1.19,2.48-2,4-3.57,1.65-8.74,1.41-11.53-.55-1.61-1.13-2.24-.63-1.52-2.07l.5-1,.14-2.8-.87.62-.28.82,0,.75L45.41,53a11.47,11.47,0,0,1-6.77-1.64c-2.79-2-2.27-2.44,1.3-4.09a13.21,13.21,0,0,1,10.67,0l1.08.55.87-.7a7.85,7.85,0,0,1,1.6-1c3.57-1.65,8.75-1.41,11.54.55S68,49.56,64.38,51.22Z"/><path class="cls-8" d="M62.9,51.9a13.21,13.21,0,0,0,2.32-.8c4.15-1.92,4.88-5.33,1.64-7.61s-9.22-2.56-13.36-.64A9.09,9.09,0,0,0,51.64,44a15.42,15.42,0,0,0-12.37-.05c-4.14,1.92-4.88,5.33-1.64,7.6a13.11,13.11,0,0,0,7.84,1.9c-.81,1.62-.32,3.4,1.64,4.77,3.23,2.28,9.22,2.56,13.36.64C64.24,57.1,65.18,54.14,62.9,51.9ZM48.14,57.73c-1.61-1.13-2.14-2.67-1.42-4.12l.5-1-1.8.08a11.3,11.3,0,0,1-6.76-1.64c-2.79-2-2.15-4.9,1.41-6.55a13.21,13.21,0,0,1,10.67,0l1.09.55.87-.7a7.85,7.85,0,0,1,1.6-1c3.57-1.66,8.75-1.41,11.54.55s2.15,4.91-1.43,6.56a10.66,10.66,0,0,1-2,.7L61,51.57l.73.72c2,1.94,1.09,4.52-2.09,6C56.1,59.94,50.93,59.69,48.14,57.73Z"/><path class="cls-10" d="M39,61.29c-.33-.62-.77-2.86-1.52-3.38-3.23-2.28-9.23-2.39-13.37-.47a9.11,9.11,0,0,0-1.86,1.15,15.35,15.35,0,0,0-12.36-.14,6.32,6.32,0,0,0-3.44,3.72L6.24,62l-.11,2.18v.21h0a4.59,4.59,0,0,0,2,3.89,13,13,0,0,0,7.54,1.9l-.06,1.25h0a4,4,0,0,0,2,3.52c3.24,2.27,9.22,2.56,13.37.64,2.36-1.1,3.61-2.67,3.65-4.25l.13-2.66-.61-.24-.08.31a4.38,4.38,0,0,0-.63-.76l.63.11-.17.39a13,13,0,0,0,1.82-.65c2.24-1,3.48-2.51,3.64-4h0v-.08c0-.07.16-3.1.16-3.1Zm-4,3.86a10.14,10.14,0,0,1-1.39.33l-.72.47-1.24-.44-.14,2.79.74.72c2,1.94,1.18,2.47-2,4-3.56,1.65-8.74,1.4-11.53-.56-1.6-1.13-2.23-.62-1.51-2.07l.49-1,.14-2.79-.86.61-.29.82,0,.75L16,67a11.42,11.42,0,0,1-6.77-1.63c-2.79-2-2.27-2.44,1.3-4.1a13.17,13.17,0,0,1,10.67.05l1.08.55.88-.7a7.51,7.51,0,0,1,1.59-1c3.58-1.66,8.75-1.41,11.54.55S38.58,63.5,35,65.15Z"/><path class="cls-11" d="M33.52,65.84a12.94,12.94,0,0,0,2.32-.8c4.15-1.93,4.89-5.33,1.65-7.61s-9.22-2.56-13.37-.64a8.93,8.93,0,0,0-1.86,1.14,15.38,15.38,0,0,0-12.37,0C5.75,59.8,5,63.2,8.25,65.48a13.18,13.18,0,0,0,7.84,1.89c-.81,1.62-.31,3.4,1.64,4.77,3.24,2.28,9.22,2.57,13.36.65C34.86,71,35.8,68.07,33.52,65.84ZM18.76,71.67c-1.61-1.13-2.14-2.68-1.42-4.12l.5-1-1.79.08A11.47,11.47,0,0,1,9.28,65c-2.79-2-2.15-4.9,1.42-6.56a13.21,13.21,0,0,1,10.67,0l1.08.56.87-.7a7.43,7.43,0,0,1,1.6-1c3.57-1.66,8.75-1.42,11.54.55s2.15,4.9-1.42,6.56a11,11,0,0,1-2,.69l-1.38.35.73.72c2,1.94,1.09,4.52-2.09,6C26.72,73.87,21.55,73.63,18.76,71.67Z"/></g></g></svg>