<svg xmlns="http://www.w3.org/2000/svg" viewBox="0 0 153.06 93.99"><defs><style>.cls-1{fill:#f17900;}.cls-2{fill:#ffa433;}.cls-3{fill:#ffcd36;}.cls-4{fill:#ffb433;}.cls-5{fill:#ff6900;}.cls-6{fill:#ff4000;}.cls-7{fill:#ff8000;}.cls-8{fill:#f2c22f;}.cls-9{fill:#611f18;}.cls-10{fill:#6e271f;}.cls-11{fill:#cc5f5f;}.cls-12{fill:#de7574;}.cls-13{fill:#c95151;}.cls-14{fill:#cca9aa;}.cls-15{fill:#b33000;}.cls-16{fill:#d44f1e;}.cls-17{fill:#ff7c67;}.cls-18{fill:#de5946;}.cls-19{fill:#d44935;}.cls-20{fill:#e69f92;}.cls-21{fill:#ffd4cc;}.cls-22{fill:#f8efce;}.cls-23{fill:#fffbf2;}.cls-24{fill:#e8ca81;}.cls-25{fill:#f0e2b1;}.cls-26{fill:#4d7326;}.cls-27{fill:#5a9223;}.cls-28{fill:#ffc000;}.cls-29{fill:#ffe657;}.cls-30{fill:#da281f;}.cls-31{fill:#b8221a;}.cls-32{fill:#68a828;}.cls-33{fill:#ff3f36;}.cls-34{fill:#ff5952;}.cls-35{fill:#a6cb6c;}</style></defs><g id="Layer_2" data-name="Layer 2"><g id="Layer"><path class="cls-1" d="M152.88,44.36c0-.34-.07-.68-.12-1-.3-2.48-.85-5-2.57-6.77a12.53,12.53,0,0,0-3.5-2.2c-.16-.09-.31-.18-.44-.27C141.19,27.3,133,21.18,121.71,16.5c-13.46-5.61-29.18-8.3-44.78-8.27h-.8c-15.6,0-31.31,2.66-44.78,8.27C20.12,21.18,11.88,27.3,6.82,34.09l-.44.27a12.44,12.44,0,0,0-3.51,2.2C1.16,38.33.6,40.85.3,43.33c0,.35-.08.69-.11,1A36.18,36.18,0,0,0,4,64.75c3.16,5.73,8.35,10.12,13.61,13.75a73.78,73.78,0,0,0,13.49,7.22C44.76,91.41,60.72,94.09,76.53,94c15.81.1,31.77-2.58,45.43-8.27a73.69,73.69,0,0,0,13.48-7.22c5.27-3.63,10.45-8,13.62-13.75A36.18,36.18,0,0,0,152.88,44.36Z"/><path class="cls-2" d="M121.77,77.49c-33.56,14-81,9.83-106.07-9.28S-2.4,22.26,31.16,8.28s81.05-9.83,106.07,9.28S155.33,63.51,121.77,77.49Z"/><path class="cls-3" d="M120.57,76.06C87.9,89.67,41.67,85.62,17.31,67S-.31,22.29,32.36,8.67s78.9-9.56,103.26,9S153.24,62.44,120.57,76.06Z"/><path class="cls-4" d="M119.22,74.51C87.55,87.7,42.73,83.78,19.12,65.74S2,22.38,33.71,9.18,110.2-.09,133.81,18,150.89,61.31,119.22,74.51Z"/><path class="cls-1" d="M117.18,72.14C87,84.47,44.34,80.8,21.85,64S5.58,23.45,35.75,11.12s72.84-8.67,95.33,8.19S147.35,59.81,117.18,72.14Z"/><path class="cls-5" d="M66.69,80.48a13,13,0,0,1-5.85-1.89c-.69-.35-1.34-.69-2-1A10.31,10.31,0,0,0,54.91,77a12.86,12.86,0,0,1-3.29-.4,26.47,26.47,0,0,1-8-4.4c-2.52-1.8-4.9-3.5-7.77-4.21a13.84,13.84,0,0,0-3.38-.32h-1.3l-1.3,0c-2.46,0-4.44-.28-6.09-1.61a11.27,11.27,0,0,1-2.49-3.31c-.3-.53-.61-1.08-.95-1.58A10.87,10.87,0,0,0,16,57.46L14.94,57a8.37,8.37,0,0,1-3.12-1.86c-1.85-2-1.37-4.68-.91-7.29.34-1.93.69-3.92.11-5.6a10.59,10.59,0,0,0-1.61-2.71,8,8,0,0,1-2-4.17C7.3,33,9.34,29.78,11.3,28.21a29.93,29.93,0,0,1,2.53-1.74,18.16,18.16,0,0,0,3.48-2.63,18.59,18.59,0,0,0,2.3-3.21,16.94,16.94,0,0,1,2.84-3.78C25,14.46,28.58,14,32,13.48a28.92,28.92,0,0,0,6.19-1.35,27.35,27.35,0,0,0,4.56-2.5c1.06-.67,2.16-1.37,3.32-2A24.54,24.54,0,0,1,57.29,5.31a44.29,44.29,0,0,1,4.46.24,17.44,17.44,0,0,0,1.79.09,35.85,35.85,0,0,0,7.71-1.11A37.16,37.16,0,0,1,79.12,3.4h.62a25.1,25.1,0,0,1,6.51,1.38,27.45,27.45,0,0,0,5.48,1.29c.51,0,1,.08,1.67.08s1.47,0,2.2-.07S97.08,6,97.83,6a14.9,14.9,0,0,1,3.34.32A20.59,20.59,0,0,1,106.86,9,27.15,27.15,0,0,0,111,11.09a26.73,26.73,0,0,0,5.27,1.13A26.22,26.22,0,0,1,122,13.47a17.73,17.73,0,0,1,4,2.46,24,24,0,0,0,2.68,1.79l.59.31a14.37,14.37,0,0,1,5.26,4c.49.63.92,1.31,1.34,2a13.36,13.36,0,0,0,2.8,3.46,16,16,0,0,0,2.38,1.44c1.67.88,3.4,1.78,4.11,3.61a7.74,7.74,0,0,1,.22,3.7,10.07,10.07,0,0,0-.07,2.38,10,10,0,0,0,.88,2.68,11.32,11.32,0,0,1,.94,2.79c.41,2.51-.7,5.19-3.3,8-.49.52-1,1-1.49,1.52a18.05,18.05,0,0,0-3.86,4.82,18.5,18.5,0,0,0-.76,2,14.31,14.31,0,0,1-1.22,2.86c-1.83,3-5.22,4-8.5,5a31.26,31.26,0,0,0-4.42,1.59,28.21,28.21,0,0,0-4.48,2.88,36.92,36.92,0,0,1-3.71,2.49,9.68,9.68,0,0,1-5,1.36,19.65,19.65,0,0,1-3.73-.45,18.44,18.44,0,0,0-3.42-.32,19,19,0,0,0-5.37.77,29.79,29.79,0,0,0-3.5,1.36,19.67,19.67,0,0,1-5.65,1.82c-.4,0-.81.07-1.22.07a24.61,24.61,0,0,1-6-1,30,30,0,0,0-4.31-.88A11.39,11.39,0,0,0,76,77.85a8.55,8.55,0,0,0-2.31.3,15.5,15.5,0,0,0-2.51,1,12,12,0,0,1-3.81,1.28C67.16,80.46,66.92,80.48,66.69,80.48Z"/><path class="cls-6" d="M77.35,77.41a10,10,0,0,0-3.78.24c-2.14.58-4,2-6.23,2.27-3,.31-5.64-1.64-8.3-2.78s-4.8-.38-7.28-1.09c-6-1.71-9.93-7.17-15.77-8.62-4-1-8.7.76-11.87-1.79-1.52-1.23-2.24-3.17-3.34-4.79A11.59,11.59,0,0,0,16.25,57c-1.4-.66-3-1.07-4.05-2.2-3-3.2.73-8.57-.69-12.71C10.68,39.65,8.12,37.9,8,35.33,7.83,33,9.87,30,11.63,28.62c2-1.57,4.32-2.61,6.06-4.42,2-2.09,3-5,5.11-7,4-3.72,10.45-2.66,15.57-4.63,2.84-1.09,5.22-3.1,7.93-4.47,4.75-2.38,10.2-2.6,15.4-2.07,6.32.65,11.85-2.34,18-2.14,4.09.13,7.88,2.28,12,2.67,3.12.3,6.32-.44,9.37.26,3.54.82,6.38,3.47,9.79,4.72s7.46,1,11,2.38c2.52,1,4.35,3,6.67,4.22s4.07,2.06,5.69,4.18c1.41,1.84,2.4,4.07,4.23,5.51,2.12,1.68,5.34,2.31,6.33,4.83.73,1.86-.14,4,.11,5.95s1.52,3.58,1.83,5.49c.45,2.79-1.25,5.48-3.17,7.55s-4.22,3.91-5.44,6.46c-.74,1.57-1,3.33-1.95,4.8-2.54,4.13-8.34,4.32-12.71,6.41-3,1.41-5.35,3.79-8.21,5.39s-5.23,1.45-8.35.85a19.44,19.44,0,0,0-9,.46c-3.08.9-5.87,2.81-9.06,3.16C84.91,79.65,81.1,77.8,77.35,77.41Z"/><path class="cls-7" d="M66.69,78.91a11.73,11.73,0,0,1-5.14-1.71c-.69-.35-1.39-.71-2.11-1a11.59,11.59,0,0,0-4.48-.8,11.36,11.36,0,0,1-2.91-.34c-2.77-.79-5.07-2.43-7.51-4.17s-5.14-3.67-8.3-4.46a15.86,15.86,0,0,0-3.76-.36H31.15l-1.27,0c-2.13,0-3.81-.22-5.11-1.26A9.9,9.9,0,0,1,22.66,62c-.32-.55-.65-1.13-1-1.68a12.39,12.39,0,0,0-4.94-4.22c-.37-.17-.76-.33-1.15-.49A7.13,7.13,0,0,1,13,54.08c-1.33-1.42-1-3.52-.53-6,.38-2.12.76-4.31.05-6.38a11.67,11.67,0,0,0-1.82-3.12A6.84,6.84,0,0,1,9,35.27c-.1-1.81,1.64-4.53,3.28-5.84.74-.59,1.54-1.1,2.39-1.65a20,20,0,0,0,3.77-2.86,20.17,20.17,0,0,0,2.5-3.47A15.71,15.71,0,0,1,23.5,18c2.24-2.06,5.39-2.51,8.72-3a29.46,29.46,0,0,0,6.53-1.44A27.35,27.35,0,0,0,43.58,11a36.38,36.38,0,0,1,3.19-1.88,23,23,0,0,1,10.52-2.2,41.28,41.28,0,0,1,4.3.24c.63.06,1.29.09,1.95.09a37.56,37.56,0,0,0,8-1.14A34.68,34.68,0,0,1,79.12,5h.57a23.82,23.82,0,0,1,6.1,1.31,29.24,29.24,0,0,0,5.79,1.36c.56.05,1.15.08,1.82.08s1.53,0,2.27-.07,1.45-.06,2.16-.06a12.9,12.9,0,0,1,3,.29,18.89,18.89,0,0,1,5.26,2.43,28.13,28.13,0,0,0,4.41,2.25,27,27,0,0,0,5.59,1.2,24.33,24.33,0,0,1,5.34,1.17,16.36,16.36,0,0,1,3.7,2.25A24.12,24.12,0,0,0,128,19.09l.59.32A12.94,12.94,0,0,1,133.32,23c.45.58.85,1.2,1.27,1.86a15.08,15.08,0,0,0,3.14,3.84,16.88,16.88,0,0,0,2.63,1.59c1.54.81,2.88,1.51,3.38,2.8a6.59,6.59,0,0,1,.12,3,11.36,11.36,0,0,0-.07,2.74,11.22,11.22,0,0,0,1,3.11,10.62,10.62,0,0,1,.83,2.41c.33,2-.65,4.26-2.91,6.68-.46.5-1,1-1.45,1.48a19.66,19.66,0,0,0-4.16,5.25,19,19,0,0,0-.83,2.15,12.76,12.76,0,0,1-1.07,2.55c-1.52,2.46-4.49,3.37-7.63,4.34a33.34,33.34,0,0,0-4.64,1.67,29.45,29.45,0,0,0-4.72,3,35,35,0,0,1-3.55,2.39A8.24,8.24,0,0,1,110.45,75a18.55,18.55,0,0,1-3.43-.42,20,20,0,0,0-3.72-.35,20.66,20.66,0,0,0-5.81.83,32,32,0,0,0-3.69,1.43,18.34,18.34,0,0,1-5.19,1.7,9,9,0,0,1-1,.06,23,23,0,0,1-5.57-1,33.36,33.36,0,0,0-4.53-.92c-.5-.05-1-.08-1.44-.08a10.11,10.11,0,0,0-2.73.36,16.27,16.27,0,0,0-2.75,1.1,11,11,0,0,1-3.31,1.14A4.87,4.87,0,0,1,66.69,78.91Z"/><path class="cls-8" d="M66.69,78A11.12,11.12,0,0,1,62,76.34c-.69-.36-1.41-.72-2.16-1A12.57,12.57,0,0,0,55,74.43a10.9,10.9,0,0,1-2.68-.3c-2.61-.75-4.84-2.35-7.21-4-2.6-1.85-5.29-3.77-8.63-4.6a16.53,16.53,0,0,0-4-.4l-1.34,0H29.88c-1.93,0-3.43-.18-4.5-1a9,9,0,0,1-1.88-2.6c-.33-.58-.67-1.17-1.07-1.76a13.32,13.32,0,0,0-5.33-4.54c-.39-.18-.79-.35-1.2-.52a6.65,6.65,0,0,1-2.23-1.23c-.95-1-.72-2.62-.28-5.14.38-2.14.81-4.56,0-6.86a12.86,12.86,0,0,0-2-3.38A6.11,6.11,0,0,1,10,35.22c-.09-1.46,1.49-3.9,2.91-5a26.64,26.64,0,0,1,2.31-1.59,20.82,20.82,0,0,0,4-3A21.52,21.52,0,0,0,21.76,22a15.29,15.29,0,0,1,2.39-3.24c2-1.86,5-2.28,8.2-2.74a29.62,29.62,0,0,0,6.74-1.49,28.6,28.6,0,0,0,5-2.72c1.06-.67,2.06-1.3,3.1-1.83A22.09,22.09,0,0,1,57.29,7.84a42,42,0,0,1,4.2.22,19.81,19.81,0,0,0,2,.11A38.35,38.35,0,0,0,71.79,7a34.43,34.43,0,0,1,7.33-1.07h.54a22.91,22.91,0,0,1,5.85,1.28,30.15,30.15,0,0,0,6,1.39c.59.05,1.21.08,1.91.08s1.54,0,2.3-.07,1.42-.06,2.13-.06a12.84,12.84,0,0,1,2.77.26,18.93,18.93,0,0,1,5,2.33,28.37,28.37,0,0,0,4.57,2.32,28.21,28.21,0,0,0,5.79,1.26,23.77,23.77,0,0,1,5.13,1.11A15.25,15.25,0,0,1,124.54,18a25.13,25.13,0,0,0,3,2l.6.32a12,12,0,0,1,4.45,3.32c.42.55.81,1.15,1.23,1.8a15.56,15.56,0,0,0,3.35,4.06,17.13,17.13,0,0,0,2.77,1.69c1.37.73,2.56,1.35,2.93,2.3a5.87,5.87,0,0,1,.06,2.51,12.61,12.61,0,0,0-.07,3,12.23,12.23,0,0,0,1.08,3.37,10,10,0,0,1,.76,2.18c.34,2.12-1.26,4.36-2.66,5.86-.46.5-.94,1-1.43,1.46a20.48,20.48,0,0,0-4.35,5.51,20.49,20.49,0,0,0-.87,2.26,11.86,11.86,0,0,1-1,2.35c-1.33,2.16-4.13,3-7.09,3.92a33.64,33.64,0,0,0-4.77,1.73,30.11,30.11,0,0,0-4.88,3.12A34.87,34.87,0,0,1,114.19,73a7.17,7.17,0,0,1-3.74,1,17.67,17.67,0,0,1-3.25-.4,21,21,0,0,0-3.9-.36,21.48,21.48,0,0,0-6.08.87,31.21,31.21,0,0,0-3.8,1.47,17.72,17.72,0,0,1-4.92,1.62,7.5,7.5,0,0,1-.94,0,22.59,22.59,0,0,1-5.34-.92,34,34,0,0,0-4.66-1c-.54,0-1-.08-1.54-.08a11.11,11.11,0,0,0-3,.39,18.56,18.56,0,0,0-2.91,1.15,9.89,9.89,0,0,1-3,1.06Z"/><path class="cls-9" d="M100.71,63.92l-.16.38A6.48,6.48,0,0,0,98.09,61c-2.62-2-6.8-3.14-11.19-3.14a21.68,21.68,0,0,0-8.42,1.6c-2.88,1.22-4.73,3-5.23,4.88l-.14-.2v1.06c0,.12,0,.23,0,.35a.5.5,0,0,0,0,.17,5.82,5.82,0,0,0,2.62,4c2.61,2,6.78,3.14,11.18,3.14a21.71,21.71,0,0,0,8.42-1.6c3.21-1.35,5.14-3.38,5.35-5.55a2,2,0,0,0,0-.25Z"/><path class="cls-10" d="M98.09,59.8c-2.62-2-6.8-3.14-11.19-3.14a21.68,21.68,0,0,0-8.42,1.6C75,59.73,73,62,73.11,64.35a.5.5,0,0,0,0,.17,5.82,5.82,0,0,0,2.62,4c2.61,2,6.78,3.14,11.18,3.14a21.9,21.9,0,0,0,8.42-1.59c3.21-1.35,5.14-3.39,5.35-5.56a1.93,1.93,0,0,0,0-.24C100.77,62.72,99.84,61.13,98.09,59.8Z"/><path class="cls-11" d="M86.93,70.9c-4.23,0-8.22-1.12-10.7-3a5.1,5.1,0,0,1-2.3-3.46v-.07l0-.07c-.07-2,1.75-4,4.88-5.32a21,21,0,0,1,8.11-1.53c4.22,0,8.22,1.11,10.71,3a4.91,4.91,0,0,1,2.3,3.83c0,.06,0,.1,0,.14-.18,1.93-2,3.72-4.87,4.94A20.77,20.77,0,0,1,86.93,70.9Z"/><path class="cls-12" d="M96.44,60.81c-.85-.24-1.84,0-2.62-.4a9.7,9.7,0,0,1-1.11-.94c-1.27-1-3.07-.47-4.65-.68a18.27,18.27,0,0,0-2.52-.46,7.37,7.37,0,0,0-2.88.88,6.67,6.67,0,0,1-3,.68,1.63,1.63,0,0,0-.66,0,7.86,7.86,0,0,0-1.18.83c-.51.33-1,.73-1.46,1.09-.23.18-.5.42-.45.71s.26.36.38.55c.35.54-.06,1.24.09,1.83a10,10,0,0,0,.51,1.85,2.72,2.72,0,0,0,2.31,1.71c.37,0,.73-.11,1.1-.12s.72.09,1.09.09A9.76,9.76,0,0,1,84,68.9c1.49.46,2.91,1.3,4.47,1.27A7.74,7.74,0,0,0,90,70l3-.62a2.54,2.54,0,0,0,.94-.31A6,6,0,0,0,95,67.84a9,9,0,0,1,1.33-1,4.51,4.51,0,0,0,1.92-3.07A2.78,2.78,0,0,0,96.44,60.81Z"/><path class="cls-13" d="M91.62,66.33a1.81,1.81,0,0,1-1.05-.3.74.74,0,0,1-.33-.56.84.84,0,0,1,.61-.81,2,2,0,0,1,.77-.15,1.78,1.78,0,0,1,1.06.31.75.75,0,0,1,.33.62.88.88,0,0,1-.61.75A2.16,2.16,0,0,1,91.62,66.33Z"/><path class="cls-14" d="M91.62,65.93a1.41,1.41,0,0,1-.81-.22.39.39,0,0,1-.17-.27h0c0-.15.14-.3.38-.4a1.51,1.51,0,0,1,.61-.12,1.41,1.41,0,0,1,.81.23.38.38,0,0,1,.18.29h0c0,.15-.15.28-.37.37A1.52,1.52,0,0,1,91.62,65.93Z"/><path class="cls-13" d="M89.78,64a1.81,1.81,0,0,1-1-.3.78.78,0,0,1-.33-.56.86.86,0,0,1,.61-.82,2.15,2.15,0,0,1,.77-.14,1.84,1.84,0,0,1,1.06.3.77.77,0,0,1,.33.63.88.88,0,0,1-.61.75A2.16,2.16,0,0,1,89.78,64Z"/><path class="cls-14" d="M89.78,63.55a1.44,1.44,0,0,1-.81-.23.41.41,0,0,1-.17-.26h0c0-.15.13-.3.37-.4a1.51,1.51,0,0,1,.61-.12,1.37,1.37,0,0,1,.82.23.38.38,0,0,1,.17.29h0c0,.14-.15.28-.37.37A1.52,1.52,0,0,1,89.78,63.55Z"/><path class="cls-13" d="M84.83,64.31A1.82,1.82,0,0,1,83.77,64a.77.77,0,0,1-.33-.56.84.84,0,0,1,.61-.81,2,2,0,0,1,.77-.15,1.78,1.78,0,0,1,1.06.31.73.73,0,0,1,.33.62.87.87,0,0,1-.61.75A2.15,2.15,0,0,1,84.83,64.31Z"/><path class="cls-14" d="M84.83,63.9a1.39,1.39,0,0,1-.81-.22.41.41,0,0,1-.18-.27h0c0-.15.13-.3.37-.4a1.51,1.51,0,0,1,.61-.12,1.45,1.45,0,0,1,.82.23.39.39,0,0,1,.17.29h0c0,.15-.15.28-.37.37A1.51,1.51,0,0,1,84.83,63.9Z"/><path class="cls-13" d="M86.91,66.64a1.75,1.75,0,0,1-1.06-.31.75.75,0,0,1-.33-.55.88.88,0,0,1,.61-.82,2.15,2.15,0,0,1,.77-.15,1.82,1.82,0,0,1,1.06.31.77.77,0,0,1,.33.63.86.86,0,0,1-.61.74A2,2,0,0,1,86.91,66.64Z"/><path class="cls-14" d="M86.91,66.24a1.42,1.42,0,0,1-.82-.23.41.41,0,0,1-.17-.26h0c0-.15.13-.31.37-.41a1.7,1.7,0,0,1,.61-.11,1.45,1.45,0,0,1,.82.22.41.41,0,0,1,.17.29v0c0,.14-.15.28-.37.37A1.51,1.51,0,0,1,86.91,66.24Z"/><path class="cls-13" d="M87,62A1.78,1.78,0,0,1,86,61.66a.77.77,0,0,1-.33-.55.87.87,0,0,1,.61-.82,2,2,0,0,1,.77-.15,1.75,1.75,0,0,1,1.06.31.79.79,0,0,1,.34.63.87.87,0,0,1-.62.74A2,2,0,0,1,87,62Z"/><path class="cls-14" d="M87,61.56a1.39,1.39,0,0,1-.81-.22.39.39,0,0,1-.18-.26h0c0-.16.13-.31.37-.41a1.7,1.7,0,0,1,.61-.11,1.45,1.45,0,0,1,.82.22.39.39,0,0,1,.17.29h0c0,.15-.15.28-.37.38A1.7,1.7,0,0,1,87,61.56Z"/><path class="cls-13" d="M80.94,65a1.74,1.74,0,0,1-1-.31.79.79,0,0,1-.34-.55.88.88,0,0,1,.62-.82,1.92,1.92,0,0,1,.77-.15,1.72,1.72,0,0,1,1,.31.74.74,0,0,1,.34.63.87.87,0,0,1-.62.74A1.89,1.89,0,0,1,80.94,65Z"/><path class="cls-14" d="M80.94,64.6a1.41,1.41,0,0,1-.81-.22.37.37,0,0,1-.17-.26h0c0-.15.14-.3.38-.4a1.66,1.66,0,0,1,.61-.11,1.39,1.39,0,0,1,.81.22.38.38,0,0,1,.18.29h0c0,.15-.15.28-.37.38A1.71,1.71,0,0,1,80.94,64.6Z"/><path class="cls-13" d="M78.74,62.88a1.81,1.81,0,0,1-1-.3.78.78,0,0,1-.33-.56A.86.86,0,0,1,78,61.2a2.15,2.15,0,0,1,.77-.14,1.84,1.84,0,0,1,1.06.3.74.74,0,0,1,.33.63.86.86,0,0,1-.61.74A2,2,0,0,1,78.74,62.88Z"/><path class="cls-14" d="M78.75,62.48a1.37,1.37,0,0,1-.81-.23.39.39,0,0,1-.18-.26h0c0-.15.13-.3.37-.4a1.51,1.51,0,0,1,.61-.12,1.45,1.45,0,0,1,.82.22.41.41,0,0,1,.17.3h0c0,.14-.15.28-.37.37A1.51,1.51,0,0,1,78.75,62.48Z"/><path class="cls-13" d="M83,68.22A1.74,1.74,0,0,1,82,67.91a.72.72,0,0,1-.33-.55.86.86,0,0,1,.61-.82,2.15,2.15,0,0,1,.77-.15,1.85,1.85,0,0,1,1.06.31.77.77,0,0,1,.33.63.87.87,0,0,1-.62.74A1.89,1.89,0,0,1,83,68.22Z"/><path class="cls-14" d="M83,67.82a1.41,1.41,0,0,1-.81-.23.41.41,0,0,1-.17-.26h0c0-.15.13-.3.37-.4A1.51,1.51,0,0,1,83,66.8a1.39,1.39,0,0,1,.81.22.39.39,0,0,1,.18.29v0c0,.14-.15.28-.37.37A1.52,1.52,0,0,1,83,67.82Z"/><path class="cls-13" d="M78.75,67.15a1.75,1.75,0,0,1-1.06-.31.75.75,0,0,1-.33-.55.88.88,0,0,1,.61-.82,2.15,2.15,0,0,1,.77-.15,1.75,1.75,0,0,1,1.06.31.77.77,0,0,1,.34.63.89.89,0,0,1-.62.74A2,2,0,0,1,78.75,67.15Z"/><path class="cls-14" d="M78.75,66.75a1.39,1.39,0,0,1-.81-.23.39.39,0,0,1-.18-.26h0c0-.15.13-.31.37-.41a1.7,1.7,0,0,1,.61-.11,1.42,1.42,0,0,1,.82.22.36.36,0,0,1,.17.29h0c0,.15-.15.29-.37.38A1.51,1.51,0,0,1,78.75,66.75Z"/><path class="cls-13" d="M83,61.46A1.74,1.74,0,0,1,82,61.15a.74.74,0,0,1-.33-.55.85.85,0,0,1,.61-.82,2,2,0,0,1,.77-.15,1.78,1.78,0,0,1,1.06.31.76.76,0,0,1,.33.63.87.87,0,0,1-.62.74A1.89,1.89,0,0,1,83,61.46Z"/><path class="cls-14" d="M83,61.06a1.41,1.41,0,0,1-.81-.23.41.41,0,0,1-.17-.26h0c0-.16.13-.31.37-.41A1.7,1.7,0,0,1,83,60a1.39,1.39,0,0,1,.81.22.38.38,0,0,1,.18.29h0c0,.15-.15.29-.37.38A1.52,1.52,0,0,1,83,61.06Z"/><path class="cls-13" d="M87.2,69.24a1.74,1.74,0,0,1-1-.31.72.72,0,0,1-.33-.55.85.85,0,0,1,.61-.82,2,2,0,0,1,.77-.15,1.78,1.78,0,0,1,1.06.31.76.76,0,0,1,.33.63.87.87,0,0,1-.61.74A2,2,0,0,1,87.2,69.24Z"/><path class="cls-14" d="M87.2,68.84a1.41,1.41,0,0,1-.81-.23.41.41,0,0,1-.17-.26h0c0-.16.13-.31.37-.41a1.7,1.7,0,0,1,.61-.11A1.45,1.45,0,0,1,88,68a.39.39,0,0,1,.17.29h0a.53.53,0,0,1-.37.38A1.52,1.52,0,0,1,87.2,68.84Z"/><path class="cls-13" d="M93.86,63.59a1.81,1.81,0,0,1-1-.31.74.74,0,0,1-.33-.56.84.84,0,0,1,.61-.81,2,2,0,0,1,.77-.15,1.78,1.78,0,0,1,1.06.31.76.76,0,0,1,.33.63.89.89,0,0,1-.61.74A2.17,2.17,0,0,1,93.86,63.59Z"/><path class="cls-14" d="M93.86,63.18a1.41,1.41,0,0,1-.81-.22.43.43,0,0,1-.17-.27h0c0-.15.13-.3.37-.4a1.51,1.51,0,0,1,.61-.12,1.39,1.39,0,0,1,.81.23.38.38,0,0,1,.18.29h0c0,.15-.15.28-.37.38A1.71,1.71,0,0,1,93.86,63.18Z"/><path class="cls-13" d="M90.64,61.14a1.78,1.78,0,0,1-1.06-.31.77.77,0,0,1-.33-.55.88.88,0,0,1,.61-.82,2,2,0,0,1,.78-.15,1.74,1.74,0,0,1,1,.31.74.74,0,0,1,.34.63.87.87,0,0,1-.62.74A2,2,0,0,1,90.64,61.14Z"/><path class="cls-14" d="M90.64,60.73a1.41,1.41,0,0,1-.81-.22.39.39,0,0,1-.18-.26h0c0-.16.13-.31.37-.41a1.71,1.71,0,0,1,.62-.11,1.41,1.41,0,0,1,.81.22.36.36,0,0,1,.17.29h0c0,.15-.15.28-.37.38A1.7,1.7,0,0,1,90.64,60.73Z"/><path class="cls-13" d="M91.63,68.73a1.78,1.78,0,0,1-1.06-.31.75.75,0,0,1-.33-.55.86.86,0,0,1,.61-.82,2.15,2.15,0,0,1,.77-.15,1.85,1.85,0,0,1,1.06.31.76.76,0,0,1,.33.63.87.87,0,0,1-.61.74A2,2,0,0,1,91.63,68.73Z"/><path class="cls-14" d="M91.63,68.33a1.39,1.39,0,0,1-.81-.23.39.39,0,0,1-.18-.26h0c0-.15.13-.31.37-.4a1.51,1.51,0,0,1,.61-.12,1.45,1.45,0,0,1,.82.22.41.41,0,0,1,.17.3h0c0,.15-.15.29-.37.38A1.51,1.51,0,0,1,91.63,68.33Z"/><path class="cls-13" d="M95.25,66.55a1.74,1.74,0,0,1-1-.31.77.77,0,0,1-.34-.55.89.89,0,0,1,.62-.82,2.15,2.15,0,0,1,.77-.14,1.84,1.84,0,0,1,1.06.3.77.77,0,0,1,.33.63.86.86,0,0,1-.61.74A2,2,0,0,1,95.25,66.55Z"/><path class="cls-14" d="M95.25,66.15a1.41,1.41,0,0,1-.81-.23.41.41,0,0,1-.17-.26h0c0-.15.13-.3.37-.4a1.51,1.51,0,0,1,.61-.12,1.34,1.34,0,0,1,.81.23.36.36,0,0,1,.18.29h0a.54.54,0,0,1-.37.37A1.52,1.52,0,0,1,95.25,66.15Z"/><path class="cls-9" d="M55,54l-.15.38a6.48,6.48,0,0,0-2.46-3.26c-2.62-2-6.8-3.14-11.19-3.14a21.73,21.73,0,0,0-8.43,1.6c-2.88,1.22-4.73,3-5.22,4.88l-.14-.2v1.4a1,1,0,0,0,0,.18,5.89,5.89,0,0,0,2.62,4c2.61,2,6.79,3.14,11.18,3.14a21.76,21.76,0,0,0,8.43-1.6c3.2-1.35,5.14-3.38,5.35-5.55a2,2,0,0,0,0-.25Z"/><path class="cls-10" d="M52.42,49.89c-2.62-2-6.8-3.14-11.19-3.14a21.73,21.73,0,0,0-8.43,1.6c-3.48,1.47-5.45,3.74-5.36,6.09a1,1,0,0,0,0,.17,5.89,5.89,0,0,0,2.62,4c2.61,2,6.79,3.14,11.18,3.14a22,22,0,0,0,8.43-1.59c3.2-1.35,5.14-3.39,5.35-5.56a1.93,1.93,0,0,0,0-.24C55.09,52.81,54.17,51.22,52.42,49.89Z"/><path class="cls-11" d="M41.25,61C37,61,33,59.87,30.56,58a5.1,5.1,0,0,1-2.3-3.46v-.14c-.07-2,1.75-4,4.88-5.32a21,21,0,0,1,8.11-1.53c4.21,0,8.22,1.11,10.7,3,1.53,1.16,2.35,2.52,2.3,3.83v.14c-.19,1.93-2,3.72-4.87,4.94A20.82,20.82,0,0,1,41.25,61Z"/><path class="cls-12" d="M50.77,50.9c-.86-.24-1.84,0-2.62-.4A10,10,0,0,1,47,49.56c-1.26-1-3.07-.47-4.64-.69a20.19,20.19,0,0,0-2.52-.45A7.16,7.16,0,0,0,37,49.3,6.7,6.7,0,0,1,34,50a1.63,1.63,0,0,0-.66.05,8.49,8.49,0,0,0-1.19.83c-.5.32-1,.73-1.45,1.09-.24.18-.5.42-.45.71s.25.36.37.55c.35.54-.05,1.24.1,1.83a10,10,0,0,0,.51,1.85,2.71,2.71,0,0,0,2.31,1.71c.37,0,.73-.11,1.09-.12s.72.09,1.1.09a9.39,9.39,0,0,1,2.63.42c1.49.46,2.91,1.3,4.47,1.27A7.85,7.85,0,0,0,44.36,60l3-.62a2.81,2.81,0,0,0,.94-.31,6,6,0,0,0,1.06-1.18,9,9,0,0,1,1.33-1,4.5,4.5,0,0,0,1.91-3.07A2.76,2.76,0,0,0,50.77,50.9Z"/><path class="cls-13" d="M46,56.42a1.84,1.84,0,0,1-1.06-.3.77.77,0,0,1-.33-.56.87.87,0,0,1,.61-.81A2,2,0,0,1,46,54.6a1.81,1.81,0,0,1,1,.3.77.77,0,0,1,.34.63.88.88,0,0,1-.62.75A2.11,2.11,0,0,1,46,56.42Z"/><path class="cls-14" d="M46,56a1.34,1.34,0,0,1-.81-.23.37.37,0,0,1-.18-.26h0c0-.15.14-.3.37-.4A1.52,1.52,0,0,1,46,55a1.41,1.41,0,0,1,.81.23.36.36,0,0,1,.17.29h0c0,.15-.15.28-.36.37A1.56,1.56,0,0,1,46,56Z"/><path class="cls-13" d="M44.11,54a1.81,1.81,0,0,1-1-.3.81.81,0,0,1-.34-.56.89.89,0,0,1,.62-.82,2.11,2.11,0,0,1,.77-.14,1.81,1.81,0,0,1,1,.3.76.76,0,0,1,.34.63.86.86,0,0,1-.62.74A1.89,1.89,0,0,1,44.11,54Z"/><path class="cls-14" d="M44.11,53.64a1.41,1.41,0,0,1-.81-.23.34.34,0,0,1-.17-.26h0c0-.15.14-.3.37-.4a1.56,1.56,0,0,1,.62-.12,1.34,1.34,0,0,1,.81.23.36.36,0,0,1,.18.29h0a.54.54,0,0,1-.37.37A1.56,1.56,0,0,1,44.11,53.64Z"/><path class="cls-13" d="M39.15,54.39a1.81,1.81,0,0,1-1-.3.79.79,0,0,1-.34-.56.87.87,0,0,1,.62-.81,1.92,1.92,0,0,1,.77-.15,1.84,1.84,0,0,1,1.06.3.78.78,0,0,1,.33.63.88.88,0,0,1-.62.75A2.07,2.07,0,0,1,39.15,54.39Z"/><path class="cls-14" d="M39.15,54a1.34,1.34,0,0,1-.81-.23.37.37,0,0,1-.17-.26h0c0-.15.14-.3.37-.4a1.59,1.59,0,0,1,.62-.12,1.41,1.41,0,0,1,.81.23.38.38,0,0,1,.18.29h0a.54.54,0,0,1-.37.37A1.52,1.52,0,0,1,39.15,54Z"/><path class="cls-13" d="M41.23,56.73a1.74,1.74,0,0,1-1-.31.77.77,0,0,1-.34-.55.88.88,0,0,1,.62-.82,2,2,0,0,1,.77-.15,1.85,1.85,0,0,1,1.06.31.76.76,0,0,1,.33.63.87.87,0,0,1-.62.74A1.89,1.89,0,0,1,41.23,56.73Z"/><path class="cls-14" d="M41.23,56.33a1.41,1.41,0,0,1-.81-.23.37.37,0,0,1-.17-.26h0c0-.15.14-.31.37-.41a1.75,1.75,0,0,1,.62-.11,1.41,1.41,0,0,1,.81.22.39.39,0,0,1,.18.29h0a.53.53,0,0,1-.37.38A1.52,1.52,0,0,1,41.23,56.33Z"/><path class="cls-13" d="M41.33,52.06a1.74,1.74,0,0,1-1-.31A.74.74,0,0,1,40,51.2a.85.85,0,0,1,.61-.82,2,2,0,0,1,.77-.15,1.78,1.78,0,0,1,1.06.31.76.76,0,0,1,.33.63.87.87,0,0,1-.61.74A2,2,0,0,1,41.33,52.06Z"/><path class="cls-14" d="M41.33,51.65a1.41,1.41,0,0,1-.81-.22.41.41,0,0,1-.17-.26h0c0-.16.13-.31.37-.41a1.7,1.7,0,0,1,.61-.11,1.39,1.39,0,0,1,.81.22.38.38,0,0,1,.18.29h0c0,.15-.15.28-.37.38A1.71,1.71,0,0,1,41.33,51.65Z"/><path class="cls-13" d="M35.27,55.1a1.72,1.72,0,0,1-1.05-.31.76.76,0,0,1-.34-.55.88.88,0,0,1,.62-.82,1.92,1.92,0,0,1,.77-.15,1.74,1.74,0,0,1,1,.31.74.74,0,0,1,.34.63A.88.88,0,0,1,36,55,1.92,1.92,0,0,1,35.27,55.1Z"/><path class="cls-14" d="M35.27,54.69a1.41,1.41,0,0,1-.81-.22.39.39,0,0,1-.18-.27h0c0-.15.13-.3.37-.4a1.71,1.71,0,0,1,.62-.11,1.41,1.41,0,0,1,.81.22.34.34,0,0,1,.17.29h0c0,.15-.14.28-.37.38A1.66,1.66,0,0,1,35.27,54.69Z"/><path class="cls-13" d="M33.07,53a1.81,1.81,0,0,1-1-.3.77.77,0,0,1-.34-.56.89.89,0,0,1,.62-.82,2.11,2.11,0,0,1,.77-.15,1.85,1.85,0,0,1,1.06.31.77.77,0,0,1,.33.63.86.86,0,0,1-.62.74A1.89,1.89,0,0,1,33.07,53Z"/><path class="cls-14" d="M33.07,52.57a1.41,1.41,0,0,1-.81-.23.34.34,0,0,1-.17-.26h0c0-.15.14-.3.38-.4a1.48,1.48,0,0,1,.61-.12,1.41,1.41,0,0,1,.81.22.39.39,0,0,1,.18.3h0a.54.54,0,0,1-.37.37A1.56,1.56,0,0,1,33.07,52.57Z"/><path class="cls-13" d="M37.34,58.31A1.72,1.72,0,0,1,36.29,58a.74.74,0,0,1-.34-.55.89.89,0,0,1,.62-.82,1.92,1.92,0,0,1,.77-.15,1.81,1.81,0,0,1,1,.31.76.76,0,0,1,.34.63.87.87,0,0,1-.62.74A1.92,1.92,0,0,1,37.34,58.31Z"/><path class="cls-14" d="M37.34,57.91a1.41,1.41,0,0,1-.81-.23.34.34,0,0,1-.17-.26h0c0-.15.14-.31.37-.41a1.71,1.71,0,0,1,.62-.11,1.41,1.41,0,0,1,.81.22.35.35,0,0,1,.17.29v0c0,.14-.14.28-.36.37A1.56,1.56,0,0,1,37.34,57.91Z"/><path class="cls-13" d="M33.07,57.24a1.74,1.74,0,0,1-1-.31.72.72,0,0,1-.33-.55.85.85,0,0,1,.61-.82,2,2,0,0,1,.77-.15,1.78,1.78,0,0,1,1.06.31.76.76,0,0,1,.33.63.87.87,0,0,1-.61.74A2,2,0,0,1,33.07,57.24Z"/><path class="cls-14" d="M33.07,56.83a1.41,1.41,0,0,1-.81-.22.41.41,0,0,1-.17-.26h0c0-.16.13-.31.37-.41a1.7,1.7,0,0,1,.61-.11,1.41,1.41,0,0,1,.81.22.38.38,0,0,1,.18.29h0a.53.53,0,0,1-.37.38A1.52,1.52,0,0,1,33.07,56.83Z"/><path class="cls-13" d="M37.34,51.55a1.72,1.72,0,0,1-1.05-.31.76.76,0,0,1-.34-.55.88.88,0,0,1,.62-.82,1.92,1.92,0,0,1,.77-.15,1.74,1.74,0,0,1,1,.31.74.74,0,0,1,.34.63.87.87,0,0,1-.62.74A1.92,1.92,0,0,1,37.34,51.55Z"/><path class="cls-14" d="M37.34,51.14a1.41,1.41,0,0,1-.81-.22.34.34,0,0,1-.17-.26h0c0-.15.14-.3.37-.4a1.71,1.71,0,0,1,.62-.11,1.41,1.41,0,0,1,.81.22.34.34,0,0,1,.17.29h0c0,.15-.14.28-.36.38A1.75,1.75,0,0,1,37.34,51.14Z"/><path class="cls-13" d="M41.53,59.33A1.74,1.74,0,0,1,40.48,59a.76.76,0,0,1-.34-.55.88.88,0,0,1,.62-.82,1.92,1.92,0,0,1,.77-.15,1.74,1.74,0,0,1,1,.31.74.74,0,0,1,.34.63.87.87,0,0,1-.62.74A1.92,1.92,0,0,1,41.53,59.33Z"/><path class="cls-14" d="M41.53,58.93a1.41,1.41,0,0,1-.81-.23.34.34,0,0,1-.17-.26h0c0-.16.14-.31.37-.41a1.75,1.75,0,0,1,.62-.11,1.41,1.41,0,0,1,.81.22.38.38,0,0,1,.18.29h0a.53.53,0,0,1-.37.38A1.56,1.56,0,0,1,41.53,58.93Z"/><path class="cls-13" d="M48.19,53.68a1.81,1.81,0,0,1-1-.31.75.75,0,0,1-.34-.56.87.87,0,0,1,.62-.81,1.92,1.92,0,0,1,.77-.15,1.72,1.72,0,0,1,1.05.31.74.74,0,0,1,.34.62.88.88,0,0,1-.62.75A2.07,2.07,0,0,1,48.19,53.68Z"/><path class="cls-14" d="M48.19,53.27a1.41,1.41,0,0,1-.81-.22.41.41,0,0,1-.18-.27h0c0-.15.14-.3.37-.4a1.56,1.56,0,0,1,.62-.12,1.41,1.41,0,0,1,.81.23.38.38,0,0,1,.18.29h0c0,.15-.15.28-.37.38A1.75,1.75,0,0,1,48.19,53.27Z"/><path class="cls-13" d="M45,51.23a1.74,1.74,0,0,1-1.05-.31.74.74,0,0,1-.33-.55.85.85,0,0,1,.61-.82A2,2,0,0,1,45,49.4a1.78,1.78,0,0,1,1.06.31.76.76,0,0,1,.33.63.86.86,0,0,1-.61.74A2,2,0,0,1,45,51.23Z"/><path class="cls-14" d="M45,50.82a1.42,1.42,0,0,1-.82-.22.41.41,0,0,1-.17-.26h0c0-.16.13-.31.37-.41a1.7,1.7,0,0,1,.61-.11,1.45,1.45,0,0,1,.82.22.39.39,0,0,1,.17.29h0c0,.15-.15.28-.37.38A1.7,1.7,0,0,1,45,50.82Z"/><path class="cls-13" d="M46,58.82a1.74,1.74,0,0,1-1.05-.31.72.72,0,0,1-.33-.55.85.85,0,0,1,.61-.82A1.92,1.92,0,0,1,46,57,1.78,1.78,0,0,1,47,57.3a.76.76,0,0,1,.33.63.87.87,0,0,1-.61.74A2,2,0,0,1,46,58.82Z"/><path class="cls-14" d="M46,58.42a1.41,1.41,0,0,1-.81-.23.37.37,0,0,1-.17-.26h0c0-.15.13-.31.37-.41A1.7,1.7,0,0,1,46,57.4a1.41,1.41,0,0,1,.81.22.38.38,0,0,1,.18.29h0a.53.53,0,0,1-.37.38A1.52,1.52,0,0,1,46,58.42Z"/><path class="cls-13" d="M49.58,56.64a1.78,1.78,0,0,1-1.06-.31.75.75,0,0,1-.33-.55.89.89,0,0,1,.62-.82,2.07,2.07,0,0,1,.77-.15,1.81,1.81,0,0,1,1.05.31.76.76,0,0,1,.34.63.87.87,0,0,1-.62.74A1.92,1.92,0,0,1,49.58,56.64Z"/><path class="cls-14" d="M49.58,56.24a1.41,1.41,0,0,1-.81-.23.39.39,0,0,1-.18-.26h0c0-.15.14-.3.37-.4a1.56,1.56,0,0,1,.62-.12,1.41,1.41,0,0,1,.81.22.35.35,0,0,1,.17.3h0c0,.14-.14.28-.37.37A1.48,1.48,0,0,1,49.58,56.24Z"/><path class="cls-9" d="M99,21.23l-.16.38a6.48,6.48,0,0,0-2.46-3.26c-2.62-2-6.8-3.14-11.19-3.14a21.68,21.68,0,0,0-8.42,1.6c-2.88,1.22-4.73,3-5.23,4.88l-.14-.19v1.05c0,.12,0,.23,0,.35a.5.5,0,0,0,0,.17,5.82,5.82,0,0,0,2.62,4c2.61,2,6.78,3.14,11.18,3.14a21.86,21.86,0,0,0,8.42-1.59c3.21-1.35,5.14-3.39,5.35-5.56a1.93,1.93,0,0,0,0-.24Z"/><path class="cls-10" d="M96.42,17.11c-2.62-2-6.8-3.14-11.19-3.14a21.68,21.68,0,0,0-8.42,1.6c-3.48,1.48-5.46,3.74-5.37,6.09a.58.58,0,0,0,0,.18,5.84,5.84,0,0,0,2.62,4c2.61,2,6.78,3.14,11.18,3.14a21.68,21.68,0,0,0,8.42-1.6C96.89,26.07,98.82,24,99,21.86a1.93,1.93,0,0,0,0-.24C99.1,20,98.17,18.44,96.42,17.11Z"/><path class="cls-11" d="M85.26,28.21c-4.23,0-8.22-1.12-10.69-3a5.07,5.07,0,0,1-2.31-3.46V21.7l0-.07c-.07-2,1.75-4,4.88-5.31a20.86,20.86,0,0,1,8.11-1.54c4.22,0,8.22,1.12,10.71,3a4.91,4.91,0,0,1,2.3,3.83.57.57,0,0,1,0,.14c-.18,1.94-2,3.72-4.87,4.94A20.77,20.77,0,0,1,85.26,28.21Z"/><path class="cls-12" d="M94.77,18.12c-.85-.24-1.84,0-2.62-.39A10.94,10.94,0,0,1,91,16.78c-1.27-1-3.07-.47-4.65-.68a18.27,18.27,0,0,0-2.52-.46,7.37,7.37,0,0,0-2.88.88,6.53,6.53,0,0,1-3,.68,1.67,1.67,0,0,0-.67.05,7.86,7.86,0,0,0-1.18.83c-.51.33-1,.73-1.46,1.09-.23.18-.5.42-.45.71s.26.36.38.55c.35.55-.06,1.24.09,1.84a10.07,10.07,0,0,0,.51,1.84,2.72,2.72,0,0,0,2.31,1.71c.37,0,.73-.11,1.1-.12s.72.09,1.09.09a9.76,9.76,0,0,1,2.63.42c1.49.46,2.91,1.3,4.47,1.27a7.74,7.74,0,0,0,1.52-.22l3-.61a2.76,2.76,0,0,0,.94-.32,6,6,0,0,0,1.06-1.18,9.69,9.69,0,0,1,1.33-1A4.51,4.51,0,0,0,96.58,21,2.78,2.78,0,0,0,94.77,18.12Z"/><path class="cls-13" d="M90,23.65a1.81,1.81,0,0,1-1-.31.74.74,0,0,1-.33-.56.85.85,0,0,1,.61-.81,2,2,0,0,1,.77-.15,1.78,1.78,0,0,1,1.06.31.76.76,0,0,1,.33.63.89.89,0,0,1-.61.74A2.17,2.17,0,0,1,90,23.65Z"/><path class="cls-14" d="M90,23.24a1.41,1.41,0,0,1-.81-.22.41.41,0,0,1-.17-.27h0c0-.15.13-.3.37-.4a1.51,1.51,0,0,1,.61-.12,1.41,1.41,0,0,1,.81.23.38.38,0,0,1,.18.29h0c0,.15-.15.28-.37.38A1.71,1.71,0,0,1,90,23.24Z"/><path class="cls-13" d="M88.11,21.27a1.81,1.81,0,0,1-1-.31.77.77,0,0,1-.33-.56.84.84,0,0,1,.61-.81,2,2,0,0,1,.77-.15,1.84,1.84,0,0,1,1.06.3.77.77,0,0,1,.33.63.87.87,0,0,1-.61.75A2.17,2.17,0,0,1,88.11,21.27Z"/><path class="cls-14" d="M88.11,20.86a1.36,1.36,0,0,1-.81-.23.41.41,0,0,1-.17-.26h0c0-.15.13-.3.37-.4a1.51,1.51,0,0,1,.61-.12,1.45,1.45,0,0,1,.82.23.39.39,0,0,1,.17.29h0c0,.15-.15.28-.37.37A1.52,1.52,0,0,1,88.11,20.86Z"/><path class="cls-13" d="M83.16,21.62a1.82,1.82,0,0,1-1.06-.31.77.77,0,0,1-.33-.56.86.86,0,0,1,.61-.81,2,2,0,0,1,.77-.15,1.78,1.78,0,0,1,1.06.31.73.73,0,0,1,.33.63.87.87,0,0,1-.61.74A2.15,2.15,0,0,1,83.16,21.62Z"/><path class="cls-14" d="M83.16,21.21a1.39,1.39,0,0,1-.81-.22.39.39,0,0,1-.18-.27h0c0-.15.13-.3.37-.4a1.51,1.51,0,0,1,.61-.12,1.45,1.45,0,0,1,.82.23.39.39,0,0,1,.17.29h0c0,.15-.15.28-.37.38A1.7,1.7,0,0,1,83.16,21.21Z"/><path class="cls-13" d="M85.24,24a1.75,1.75,0,0,1-1.06-.31.75.75,0,0,1-.33-.55.88.88,0,0,1,.61-.82,2.15,2.15,0,0,1,.77-.14,1.82,1.82,0,0,1,1.06.3.77.77,0,0,1,.33.63.87.87,0,0,1-.61.75A2.15,2.15,0,0,1,85.24,24Z"/><path class="cls-14" d="M85.24,23.55a1.42,1.42,0,0,1-.82-.23.41.41,0,0,1-.17-.26h0c0-.15.13-.3.37-.4a1.51,1.51,0,0,1,.61-.12,1.45,1.45,0,0,1,.82.22.41.41,0,0,1,.17.3h0c0,.14-.15.28-.37.37A1.51,1.51,0,0,1,85.24,23.55Z"/><path class="cls-13" d="M85.34,19.28A1.78,1.78,0,0,1,84.28,19a.77.77,0,0,1-.33-.55.87.87,0,0,1,.61-.82,2,2,0,0,1,.77-.15,1.75,1.75,0,0,1,1.06.31.79.79,0,0,1,.34.63.87.87,0,0,1-.62.74A2,2,0,0,1,85.34,19.28Z"/><path class="cls-14" d="M85.34,18.88a1.39,1.39,0,0,1-.81-.23.39.39,0,0,1-.18-.26h0c0-.15.13-.31.37-.41a1.7,1.7,0,0,1,.61-.11,1.45,1.45,0,0,1,.82.22.39.39,0,0,1,.17.29h0c0,.15-.15.29-.37.38A1.51,1.51,0,0,1,85.34,18.88Z"/><path class="cls-13" d="M79.27,22.32a1.74,1.74,0,0,1-1-.31.77.77,0,0,1-.34-.55.88.88,0,0,1,.62-.82,1.92,1.92,0,0,1,.77-.15,1.72,1.72,0,0,1,1,.31.74.74,0,0,1,.34.63.87.87,0,0,1-.62.74A1.89,1.89,0,0,1,79.27,22.32Z"/><path class="cls-14" d="M79.27,21.92a1.41,1.41,0,0,1-.81-.23.37.37,0,0,1-.17-.26h0c0-.15.14-.31.38-.41a1.66,1.66,0,0,1,.61-.11,1.39,1.39,0,0,1,.81.22.38.38,0,0,1,.18.29h0a.53.53,0,0,1-.37.38A1.52,1.52,0,0,1,79.27,21.92Z"/><path class="cls-13" d="M77.07,20.19a1.81,1.81,0,0,1-1-.3.77.77,0,0,1-.33-.56.84.84,0,0,1,.61-.81,2,2,0,0,1,.77-.15,1.84,1.84,0,0,1,1.06.3.74.74,0,0,1,.33.63.88.88,0,0,1-.61.75A2.16,2.16,0,0,1,77.07,20.19Z"/><path class="cls-14" d="M77.08,19.79a1.39,1.39,0,0,1-.81-.23.39.39,0,0,1-.18-.26h0c0-.15.13-.3.37-.4a1.51,1.51,0,0,1,.61-.12,1.37,1.37,0,0,1,.82.23.39.39,0,0,1,.17.29h0c0,.15-.15.28-.37.37A1.51,1.51,0,0,1,77.08,19.79Z"/><path class="cls-13" d="M81.34,25.53a1.81,1.81,0,0,1-1-.3.75.75,0,0,1-.33-.56.86.86,0,0,1,.61-.82,2.15,2.15,0,0,1,.77-.14,1.84,1.84,0,0,1,1.06.3.77.77,0,0,1,.33.63.88.88,0,0,1-.61.75A2.16,2.16,0,0,1,81.34,25.53Z"/><path class="cls-14" d="M81.34,25.13a1.41,1.41,0,0,1-.81-.23.41.41,0,0,1-.17-.26h0c0-.15.13-.3.37-.4a1.51,1.51,0,0,1,.61-.12,1.32,1.32,0,0,1,.81.23.36.36,0,0,1,.18.29h0c0,.14-.15.28-.37.37A1.52,1.52,0,0,1,81.34,25.13Z"/><path class="cls-13" d="M77.08,24.46A1.75,1.75,0,0,1,76,24.15a.75.75,0,0,1-.33-.55.89.89,0,0,1,.61-.82,2.15,2.15,0,0,1,.77-.14,1.82,1.82,0,0,1,1.06.3.78.78,0,0,1,.34.63.89.89,0,0,1-.62.74A2,2,0,0,1,77.08,24.46Z"/><path class="cls-14" d="M77.08,24.06a1.39,1.39,0,0,1-.81-.23.39.39,0,0,1-.18-.26h0c0-.15.13-.3.37-.41a1.7,1.7,0,0,1,.61-.11,1.35,1.35,0,0,1,.82.23.35.35,0,0,1,.17.29h0c0,.14-.15.28-.37.37A1.51,1.51,0,0,1,77.08,24.06Z"/><path class="cls-13" d="M81.34,18.77a1.74,1.74,0,0,1-1-.31.72.72,0,0,1-.33-.55.86.86,0,0,1,.61-.82,2.15,2.15,0,0,1,.77-.15,1.85,1.85,0,0,1,1.06.31.76.76,0,0,1,.33.63.87.87,0,0,1-.61.74A2,2,0,0,1,81.34,18.77Z"/><path class="cls-14" d="M81.34,18.37a1.41,1.41,0,0,1-.81-.23.41.41,0,0,1-.17-.26h0c0-.15.13-.31.37-.4a1.51,1.51,0,0,1,.61-.12,1.39,1.39,0,0,1,.81.22.39.39,0,0,1,.18.29v0c0,.14-.15.28-.37.37A1.52,1.52,0,0,1,81.34,18.37Z"/><path class="cls-13" d="M85.53,26.55a1.74,1.74,0,0,1-1-.31.72.72,0,0,1-.33-.55.86.86,0,0,1,.61-.82,2.15,2.15,0,0,1,.77-.15,1.85,1.85,0,0,1,1.06.31.77.77,0,0,1,.33.63.87.87,0,0,1-.61.74A2,2,0,0,1,85.53,26.55Z"/><path class="cls-14" d="M85.53,26.15a1.41,1.41,0,0,1-.81-.23.41.41,0,0,1-.17-.26h0c0-.15.13-.3.37-.4a1.51,1.51,0,0,1,.61-.12,1.45,1.45,0,0,1,.82.22.41.41,0,0,1,.17.3h0a.54.54,0,0,1-.37.37A1.52,1.52,0,0,1,85.53,26.15Z"/><path class="cls-13" d="M92.19,20.9a1.81,1.81,0,0,1-1-.31.74.74,0,0,1-.33-.55.85.85,0,0,1,.61-.82,2,2,0,0,1,.77-.15,1.78,1.78,0,0,1,1.06.31.76.76,0,0,1,.33.63.87.87,0,0,1-.61.74A2,2,0,0,1,92.19,20.9Z"/><path class="cls-14" d="M92.19,20.49a1.41,1.41,0,0,1-.81-.22.41.41,0,0,1-.17-.27h0c0-.15.13-.3.37-.4a1.7,1.7,0,0,1,.61-.12,1.39,1.39,0,0,1,.81.23.38.38,0,0,1,.18.29h0c0,.15-.15.28-.37.38A1.71,1.71,0,0,1,92.19,20.49Z"/><path class="cls-13" d="M89,18.45a1.78,1.78,0,0,1-1.06-.31.75.75,0,0,1-.33-.55.88.88,0,0,1,.61-.82,2,2,0,0,1,.78-.15,1.74,1.74,0,0,1,1,.31.74.74,0,0,1,.34.63.87.87,0,0,1-.62.74A2,2,0,0,1,89,18.45Z"/><path class="cls-14" d="M89,18.05a1.41,1.41,0,0,1-.81-.23.39.39,0,0,1-.18-.26h0c0-.16.13-.31.37-.41A1.71,1.71,0,0,1,89,17a1.41,1.41,0,0,1,.81.22.36.36,0,0,1,.17.29h0c0,.15-.15.29-.37.38A1.51,1.51,0,0,1,89,18.05Z"/><path class="cls-13" d="M90,26a1.78,1.78,0,0,1-1.06-.31.75.75,0,0,1-.33-.55.86.86,0,0,1,.61-.82,2.15,2.15,0,0,1,.77-.14,1.84,1.84,0,0,1,1.06.3.74.74,0,0,1,.33.63.86.86,0,0,1-.61.74A2,2,0,0,1,90,26Z"/><path class="cls-14" d="M90,25.64a1.39,1.39,0,0,1-.81-.23.39.39,0,0,1-.18-.26h0c0-.15.13-.3.37-.4a1.51,1.51,0,0,1,.61-.12,1.37,1.37,0,0,1,.82.23.38.38,0,0,1,.17.29h0c0,.14-.15.28-.37.37A1.51,1.51,0,0,1,90,25.64Z"/><path class="cls-13" d="M93.58,23.86a1.81,1.81,0,0,1-1-.3.81.81,0,0,1-.34-.56.89.89,0,0,1,.62-.82,2.15,2.15,0,0,1,.77-.14,1.84,1.84,0,0,1,1.06.3A.77.77,0,0,1,95,23a.88.88,0,0,1-.61.75A2.16,2.16,0,0,1,93.58,23.86Z"/><path class="cls-14" d="M93.58,23.46a1.41,1.41,0,0,1-.81-.23A.41.41,0,0,1,92.6,23h0c0-.15.13-.3.37-.4a1.51,1.51,0,0,1,.61-.12,1.34,1.34,0,0,1,.81.23.36.36,0,0,1,.18.29h0a.54.54,0,0,1-.37.37A1.52,1.52,0,0,1,93.58,23.46Z"/><path class="cls-9" d="M133.26,46.39l-.15.39a6.56,6.56,0,0,0-2.46-3.26c-2.63-2-6.8-3.14-11.2-3.14A21.9,21.9,0,0,0,111,42c-2.88,1.22-4.73,3-5.23,4.89l-.14-.2v1.06c0,.11,0,.23,0,.34a1.09,1.09,0,0,0,0,.18,5.84,5.84,0,0,0,2.62,4c2.61,2,6.79,3.14,11.18,3.14a21.68,21.68,0,0,0,8.42-1.6c3.21-1.35,5.15-3.38,5.35-5.55a1.1,1.1,0,0,0,0-.25Z"/><path class="cls-10" d="M130.65,42.28c-2.63-2-6.8-3.14-11.2-3.14a21.71,21.71,0,0,0-8.42,1.6c-3.48,1.47-5.46,3.74-5.36,6.08a1,1,0,0,0,0,.18,5.82,5.82,0,0,0,2.62,4c2.61,2,6.79,3.14,11.18,3.14a21.68,21.68,0,0,0,8.42-1.6c3.21-1.35,5.15-3.38,5.35-5.55a1.06,1.06,0,0,0,0-.25C133.32,45.2,132.39,43.6,130.65,42.28Z"/><path class="cls-11" d="M119.48,53.37c-4.22,0-8.22-1.11-10.69-3a5,5,0,0,1-2.3-3.46v-.07l0-.06c-.07-2,1.75-4,4.89-5.32a21,21,0,0,1,8.1-1.53c4.22,0,8.22,1.11,10.71,3a4.89,4.89,0,0,1,2.3,3.83.53.53,0,0,1,0,.14c-.18,1.94-1.95,3.72-4.86,5A21,21,0,0,1,119.48,53.37Z"/><path class="cls-12" d="M129,43.29c-.86-.24-1.84,0-2.62-.4a11.15,11.15,0,0,1-1.12-.94c-1.27-1-3.07-.47-4.65-.69a18,18,0,0,0-2.52-.45,7.25,7.25,0,0,0-2.88.88,6.62,6.62,0,0,1-3,.67,1.67,1.67,0,0,0-.67.06,7.2,7.2,0,0,0-1.18.83c-.5.32-1,.73-1.45,1.09-.24.17-.5.41-.45.7s.25.37.37.56c.35.54,0,1.24.09,1.83a10.93,10.93,0,0,0,.51,1.84A2.74,2.74,0,0,0,111.78,51c.37,0,.72-.11,1.09-.13s.72.09,1.09.1a9,9,0,0,1,2.63.42c1.49.46,2.92,1.3,4.47,1.27a8.82,8.82,0,0,0,1.53-.22l3-.62a3,3,0,0,0,.93-.31,5.75,5.75,0,0,0,1.06-1.19,9.62,9.62,0,0,1,1.33-1,4.5,4.5,0,0,0,1.92-3.07A2.77,2.77,0,0,0,129,43.29Z"/><path class="cls-13" d="M124.18,48.81a1.75,1.75,0,0,1-1.06-.31.75.75,0,0,1-.33-.55.87.87,0,0,1,.61-.82,2,2,0,0,1,.77-.15,1.82,1.82,0,0,1,1.06.31.77.77,0,0,1,.34.63.89.89,0,0,1-.62.74A2,2,0,0,1,124.18,48.81Z"/><path class="cls-14" d="M124.18,48.41a1.45,1.45,0,0,1-.82-.23.41.41,0,0,1-.17-.26h0c0-.15.13-.31.37-.41a1.7,1.7,0,0,1,.61-.11,1.45,1.45,0,0,1,.82.22.41.41,0,0,1,.17.29h0c0,.15-.15.29-.37.38A1.51,1.51,0,0,1,124.18,48.41Z"/><path class="cls-13" d="M122.34,46.43a1.78,1.78,0,0,1-1.06-.31.77.77,0,0,1-.33-.55.88.88,0,0,1,.61-.82,2,2,0,0,1,.78-.15,1.74,1.74,0,0,1,1,.31.74.74,0,0,1,.34.63.87.87,0,0,1-.62.74A2,2,0,0,1,122.34,46.43Z"/><path class="cls-14" d="M122.34,46a1.39,1.39,0,0,1-.81-.22.39.39,0,0,1-.18-.27h0c0-.16.13-.31.37-.41a1.71,1.71,0,0,1,.62-.11,1.41,1.41,0,0,1,.81.22.36.36,0,0,1,.17.29h0c0,.15-.15.28-.37.38A1.7,1.7,0,0,1,122.34,46Z"/><path class="cls-13" d="M117.38,46.78a1.78,1.78,0,0,1-1.06-.31.75.75,0,0,1-.33-.55.88.88,0,0,1,.61-.82,2,2,0,0,1,.78-.15,1.81,1.81,0,0,1,1.05.31.74.74,0,0,1,.34.63.87.87,0,0,1-.62.74A2,2,0,0,1,117.38,46.78Z"/><path class="cls-14" d="M117.38,46.38a1.41,1.41,0,0,1-.81-.23.39.39,0,0,1-.18-.26h0c0-.15.14-.31.37-.41a1.71,1.71,0,0,1,.62-.11,1.41,1.41,0,0,1,.81.22.34.34,0,0,1,.17.29h0c0,.15-.15.29-.37.38A1.51,1.51,0,0,1,117.38,46.38Z"/><path class="cls-13" d="M119.46,49.12a1.78,1.78,0,0,1-1.06-.31.77.77,0,0,1-.33-.56.88.88,0,0,1,.61-.81,2,2,0,0,1,.78-.15,1.74,1.74,0,0,1,1.05.31.74.74,0,0,1,.34.63.88.88,0,0,1-.62.74A2.11,2.11,0,0,1,119.46,49.12Z"/><path class="cls-14" d="M119.46,48.71a1.41,1.41,0,0,1-.81-.22.39.39,0,0,1-.18-.27h0c0-.15.14-.3.37-.4a1.52,1.52,0,0,1,.62-.12,1.41,1.41,0,0,1,.81.23.36.36,0,0,1,.17.29h0c0,.15-.15.28-.37.38A1.66,1.66,0,0,1,119.46,48.71Z"/><path class="cls-13" d="M119.56,44.44a1.79,1.79,0,0,1-1-.3.75.75,0,0,1-.34-.56.87.87,0,0,1,.62-.81,1.89,1.89,0,0,1,.77-.15,1.74,1.74,0,0,1,1,.31.74.74,0,0,1,.34.62.88.88,0,0,1-.62.75A2.11,2.11,0,0,1,119.56,44.44Z"/><path class="cls-14" d="M119.56,44a1.34,1.34,0,0,1-.81-.23.39.39,0,0,1-.18-.26h0c0-.15.14-.3.37-.4a1.52,1.52,0,0,1,.62-.12,1.41,1.41,0,0,1,.81.23.34.34,0,0,1,.17.29h0c0,.15-.14.28-.36.37A1.56,1.56,0,0,1,119.56,44Z"/><path class="cls-13" d="M113.5,47.48a1.82,1.82,0,0,1-1.06-.3.77.77,0,0,1-.33-.56.84.84,0,0,1,.61-.81,2,2,0,0,1,.77-.15,1.84,1.84,0,0,1,1.06.3.76.76,0,0,1,.33.63.87.87,0,0,1-.61.75A2.15,2.15,0,0,1,113.5,47.48Z"/><path class="cls-14" d="M113.5,47.08a1.32,1.32,0,0,1-.81-.23.39.39,0,0,1-.18-.26h0c0-.15.13-.3.37-.4a1.51,1.51,0,0,1,.61-.12,1.45,1.45,0,0,1,.82.23.38.38,0,0,1,.17.29h0c0,.15-.15.28-.37.37A1.51,1.51,0,0,1,113.5,47.08Z"/><path class="cls-13" d="M111.3,45.36a1.78,1.78,0,0,1-1.06-.31.77.77,0,0,1-.33-.55.88.88,0,0,1,.61-.82,2,2,0,0,1,.78-.15,1.74,1.74,0,0,1,1,.31.74.74,0,0,1,.34.63.87.87,0,0,1-.62.74A2,2,0,0,1,111.3,45.36Z"/><path class="cls-14" d="M111.3,45a1.41,1.41,0,0,1-.81-.22.39.39,0,0,1-.18-.27h0c0-.16.13-.31.37-.41a1.71,1.71,0,0,1,.62-.12,1.41,1.41,0,0,1,.81.23.36.36,0,0,1,.17.29h0c0,.15-.14.28-.37.38A1.66,1.66,0,0,1,111.3,45Z"/><path class="cls-13" d="M115.57,50.7a1.78,1.78,0,0,1-1.06-.31.77.77,0,0,1-.33-.55.87.87,0,0,1,.61-.82,2,2,0,0,1,.78-.15,1.74,1.74,0,0,1,1.05.31.77.77,0,0,1,.34.63.88.88,0,0,1-.62.74A2.15,2.15,0,0,1,115.57,50.7Z"/><path class="cls-14" d="M115.57,50.29a1.39,1.39,0,0,1-.81-.22.39.39,0,0,1-.18-.27h0c0-.15.13-.3.37-.4a1.52,1.52,0,0,1,.62-.12,1.41,1.41,0,0,1,.81.23.36.36,0,0,1,.17.29h0c0,.15-.15.28-.37.38A1.7,1.7,0,0,1,115.57,50.29Z"/><path class="cls-13" d="M111.3,49.63a1.79,1.79,0,0,1-1-.31.75.75,0,0,1-.34-.56.87.87,0,0,1,.62-.81,1.92,1.92,0,0,1,.77-.15,1.74,1.74,0,0,1,1,.31.74.74,0,0,1,.34.63.88.88,0,0,1-.62.74A2.11,2.11,0,0,1,111.3,49.63Z"/><path class="cls-14" d="M111.3,49.22a1.41,1.41,0,0,1-.81-.22.41.41,0,0,1-.18-.27h0c0-.15.14-.3.37-.4a1.52,1.52,0,0,1,.62-.12,1.41,1.41,0,0,1,.81.23.34.34,0,0,1,.17.29h0c0,.15-.14.28-.36.37A1.56,1.56,0,0,1,111.3,49.22Z"/><path class="cls-13" d="M115.57,43.93a1.84,1.84,0,0,1-1.06-.3.77.77,0,0,1-.33-.56.86.86,0,0,1,.61-.81,2,2,0,0,1,.78-.15,1.74,1.74,0,0,1,1.05.31A.76.76,0,0,1,117,43a.88.88,0,0,1-.62.75A2.15,2.15,0,0,1,115.57,43.93Z"/><path class="cls-14" d="M115.57,43.53a1.39,1.39,0,0,1-.81-.22.41.41,0,0,1-.18-.27h0c0-.15.13-.3.37-.4a1.52,1.52,0,0,1,.62-.12,1.41,1.41,0,0,1,.81.23.36.36,0,0,1,.17.29h0c0,.15-.15.28-.37.37A1.51,1.51,0,0,1,115.57,43.53Z"/><path class="cls-13" d="M119.76,51.72a1.85,1.85,0,0,1-1.06-.31.77.77,0,0,1-.33-.56A.86.86,0,0,1,119,50a2,2,0,0,1,.78-.15,1.74,1.74,0,0,1,1,.31.76.76,0,0,1,.34.62.88.88,0,0,1-.62.75A2.15,2.15,0,0,1,119.76,51.72Z"/><path class="cls-14" d="M119.76,51.31a1.32,1.32,0,0,1-.81-.23.35.35,0,0,1-.18-.26h0c0-.15.13-.3.37-.4a1.52,1.52,0,0,1,.62-.12,1.44,1.44,0,0,1,.81.23.36.36,0,0,1,.17.29h0c0,.15-.15.28-.37.37A1.51,1.51,0,0,1,119.76,51.31Z"/><path class="cls-13" d="M126.42,46.06a1.78,1.78,0,0,1-1.06-.31.75.75,0,0,1-.33-.55.89.89,0,0,1,.61-.82,2.17,2.17,0,0,1,.78-.15,1.81,1.81,0,0,1,1,.31.74.74,0,0,1,.34.63.87.87,0,0,1-.62.74A2,2,0,0,1,126.42,46.06Z"/><path class="cls-14" d="M126.42,45.66a1.39,1.39,0,0,1-.81-.23.39.39,0,0,1-.18-.26h0c0-.15.13-.3.37-.41a1.7,1.7,0,0,1,.61-.11,1.42,1.42,0,0,1,.82.22.38.38,0,0,1,.17.29h0c0,.15-.15.29-.37.38A1.51,1.51,0,0,1,126.42,45.66Z"/><path class="cls-13" d="M123.19,43.61a1.81,1.81,0,0,1-1-.3.81.81,0,0,1-.34-.56.89.89,0,0,1,.62-.82,2.11,2.11,0,0,1,.77-.14,1.79,1.79,0,0,1,1,.3.77.77,0,0,1,.34.63.88.88,0,0,1-.62.75A2.11,2.11,0,0,1,123.19,43.61Z"/><path class="cls-14" d="M123.19,43.21a1.34,1.34,0,0,1-.81-.23.34.34,0,0,1-.17-.26h0c0-.15.14-.3.37-.4a1.56,1.56,0,0,1,.62-.12,1.41,1.41,0,0,1,.81.23.38.38,0,0,1,.18.29h0a.54.54,0,0,1-.37.37A1.56,1.56,0,0,1,123.19,43.21Z"/><path class="cls-13" d="M124.18,51.21a1.85,1.85,0,0,1-1.06-.31.77.77,0,0,1-.33-.56.87.87,0,0,1,.62-.81,1.89,1.89,0,0,1,.77-.15,1.74,1.74,0,0,1,1,.31.74.74,0,0,1,.34.62.88.88,0,0,1-.62.75A2.11,2.11,0,0,1,124.18,51.21Z"/><path class="cls-14" d="M124.18,50.8a1.41,1.41,0,0,1-.81-.22.39.39,0,0,1-.18-.27h0c0-.15.13-.3.37-.4a1.52,1.52,0,0,1,.62-.12A1.41,1.41,0,0,1,125,50a.34.34,0,0,1,.17.29h0c0,.15-.14.28-.37.37A1.48,1.48,0,0,1,124.18,50.8Z"/><path class="cls-13" d="M127.81,49a1.82,1.82,0,0,1-1.06-.31.77.77,0,0,1-.33-.55.87.87,0,0,1,.61-.82,2,2,0,0,1,.78-.15,1.74,1.74,0,0,1,1.05.31.73.73,0,0,1,.33.63.86.86,0,0,1-.61.74A2,2,0,0,1,127.81,49Z"/><path class="cls-14" d="M127.81,48.62a1.45,1.45,0,0,1-.82-.22.41.41,0,0,1-.17-.27h0c0-.15.13-.3.37-.4a1.51,1.51,0,0,1,.61-.12,1.45,1.45,0,0,1,.82.23.39.39,0,0,1,.17.29h0c0,.15-.15.28-.37.38A1.7,1.7,0,0,1,127.81,48.62Z"/><path class="cls-9" d="M51.38,27.17l-.15.38a6.48,6.48,0,0,0-2.46-3.26c-2.62-2-6.8-3.14-11.2-3.14a21.71,21.71,0,0,0-8.42,1.6c-2.88,1.22-4.73,3-5.22,4.88l-.14-.2v1.06c0,.11,0,.23,0,.34a1,1,0,0,0,0,.18,5.89,5.89,0,0,0,2.62,4c2.61,2,6.79,3.14,11.18,3.14A21.76,21.76,0,0,0,46,34.59c3.2-1.35,5.14-3.38,5.34-5.55a1,1,0,0,0,0-.25Z"/><path class="cls-10" d="M48.77,23.05c-2.62-2-6.8-3.14-11.2-3.14a21.71,21.71,0,0,0-8.42,1.6c-3.48,1.47-5.46,3.74-5.36,6.09a1,1,0,0,0,0,.17,5.89,5.89,0,0,0,2.62,4C29,33.78,33.21,35,37.6,35A22,22,0,0,0,46,33.36C49.23,32,51.17,30,51.37,27.8a1,1,0,0,0,0-.24C51.44,26,50.52,24.38,48.77,23.05Z"/><path class="cls-11" d="M37.6,34.15c-4.22,0-8.22-1.12-10.69-3a5.1,5.1,0,0,1-2.3-3.46v-.14c-.07-2,1.75-4,4.88-5.32a21,21,0,0,1,8.1-1.53c4.22,0,8.23,1.11,10.71,3,1.53,1.16,2.35,2.52,2.3,3.83v.14c-.19,1.93-2,3.72-4.87,4.94A20.82,20.82,0,0,1,37.6,34.15Z"/><path class="cls-12" d="M47.12,24.06c-.86-.24-1.84,0-2.62-.4a10,10,0,0,1-1.12-.94c-1.26-1-3.07-.47-4.64-.69a20.19,20.19,0,0,0-2.52-.45,7.16,7.16,0,0,0-2.88.88,6.7,6.7,0,0,1-3,.68,1.68,1.68,0,0,0-.67.05,8.4,8.4,0,0,0-1.18.83c-.5.33-1,.73-1.45,1.09-.24.18-.5.42-.45.71s.25.36.37.55c.35.54-.05,1.24.1,1.83a10,10,0,0,0,.51,1.85,2.71,2.71,0,0,0,2.31,1.71c.37,0,.72-.11,1.09-.12s.72.09,1.1.09a9.76,9.76,0,0,1,2.63.42c1.49.46,2.91,1.3,4.47,1.27a7.85,7.85,0,0,0,1.52-.22l3-.62a2.67,2.67,0,0,0,.94-.31,6,6,0,0,0,1.06-1.18,9,9,0,0,1,1.33-1A4.5,4.5,0,0,0,48.92,27,2.78,2.78,0,0,0,47.12,24.06Z"/><path class="cls-13" d="M42.3,29.58a1.84,1.84,0,0,1-1.06-.3.77.77,0,0,1-.33-.56.87.87,0,0,1,.61-.81,2,2,0,0,1,.78-.15,1.74,1.74,0,0,1,1.05.31.74.74,0,0,1,.34.62.88.88,0,0,1-.62.75A2.15,2.15,0,0,1,42.3,29.58Z"/><path class="cls-14" d="M42.3,29.18a1.32,1.32,0,0,1-.81-.23.37.37,0,0,1-.18-.26h0c0-.15.13-.3.37-.4a1.52,1.52,0,0,1,.62-.12,1.41,1.41,0,0,1,.81.23.36.36,0,0,1,.17.29h0c0,.15-.15.28-.37.37A1.48,1.48,0,0,1,42.3,29.18Z"/><path class="cls-13" d="M40.46,27.2a1.81,1.81,0,0,1-1.05-.3.77.77,0,0,1-.34-.56.89.89,0,0,1,.62-.82,2.11,2.11,0,0,1,.77-.14,1.81,1.81,0,0,1,1,.3.76.76,0,0,1,.34.63.88.88,0,0,1-.62.75A2.11,2.11,0,0,1,40.46,27.2Z"/><path class="cls-14" d="M40.46,26.8a1.41,1.41,0,0,1-.81-.23.34.34,0,0,1-.17-.26h0c0-.15.14-.3.37-.4a1.56,1.56,0,0,1,.62-.12,1.34,1.34,0,0,1,.81.23.36.36,0,0,1,.18.29h0a.54.54,0,0,1-.37.37A1.56,1.56,0,0,1,40.46,26.8Z"/><path class="cls-13" d="M35.5,27.55a1.81,1.81,0,0,1-1-.3.79.79,0,0,1-.34-.56.87.87,0,0,1,.62-.81,1.92,1.92,0,0,1,.77-.15,1.74,1.74,0,0,1,1,.31.74.74,0,0,1,.34.62.88.88,0,0,1-.62.75A2.11,2.11,0,0,1,35.5,27.55Z"/><path class="cls-14" d="M35.5,27.15a1.34,1.34,0,0,1-.81-.23.33.33,0,0,1-.17-.26h0c0-.15.14-.3.37-.4a1.56,1.56,0,0,1,.62-.12,1.41,1.41,0,0,1,.81.23.38.38,0,0,1,.18.29h0c0,.15-.15.28-.37.37A1.52,1.52,0,0,1,35.5,27.15Z"/><path class="cls-13" d="M37.58,29.89a1.72,1.72,0,0,1-1-.31.74.74,0,0,1-.34-.55.88.88,0,0,1,.62-.82,1.92,1.92,0,0,1,.77-.15,1.87,1.87,0,0,1,1.06.31A.77.77,0,0,1,39,29a.87.87,0,0,1-.62.74A1.92,1.92,0,0,1,37.58,29.89Z"/><path class="cls-14" d="M37.58,29.49a1.41,1.41,0,0,1-.81-.23A.34.34,0,0,1,36.6,29h0c0-.15.14-.31.37-.41a1.75,1.75,0,0,1,.62-.11,1.41,1.41,0,0,1,.81.22.39.39,0,0,1,.18.29v0a.54.54,0,0,1-.37.37A1.52,1.52,0,0,1,37.58,29.49Z"/><path class="cls-13" d="M37.68,25.22a1.74,1.74,0,0,1-1-.31.79.79,0,0,1-.34-.55.88.88,0,0,1,.62-.82,1.92,1.92,0,0,1,.77-.15,1.78,1.78,0,0,1,1.06.31.76.76,0,0,1,.33.63.87.87,0,0,1-.62.74A1.89,1.89,0,0,1,37.68,25.22Z"/><path class="cls-14" d="M37.68,24.81a1.41,1.41,0,0,1-.81-.22.34.34,0,0,1-.17-.26h0c0-.16.14-.31.38-.41a1.7,1.7,0,0,1,.61-.11,1.41,1.41,0,0,1,.81.22.38.38,0,0,1,.18.29h0c0,.15-.15.28-.37.38A1.71,1.71,0,0,1,37.68,24.81Z"/><path class="cls-13" d="M31.62,28.26A1.78,1.78,0,0,1,30.56,28a.77.77,0,0,1-.33-.55.88.88,0,0,1,.61-.82,2,2,0,0,1,.78-.15,1.74,1.74,0,0,1,1.05.31.74.74,0,0,1,.34.63.88.88,0,0,1-.62.74A1.92,1.92,0,0,1,31.62,28.26Z"/><path class="cls-14" d="M31.62,27.85a1.39,1.39,0,0,1-.81-.22.39.39,0,0,1-.18-.26h0c0-.15.13-.3.37-.4a1.71,1.71,0,0,1,.62-.11,1.41,1.41,0,0,1,.81.22.36.36,0,0,1,.17.29h0c0,.15-.15.28-.37.38A1.7,1.7,0,0,1,31.62,27.85Z"/><path class="cls-13" d="M29.42,26.13a1.81,1.81,0,0,1-1.05-.3.77.77,0,0,1-.34-.56.89.89,0,0,1,.62-.82,2.11,2.11,0,0,1,.77-.14,1.81,1.81,0,0,1,1,.3.76.76,0,0,1,.34.63.86.86,0,0,1-.62.74A1.92,1.92,0,0,1,29.42,26.13Z"/><path class="cls-14" d="M29.42,25.73a1.41,1.41,0,0,1-.81-.23.34.34,0,0,1-.17-.26h0c0-.15.14-.3.38-.4a1.48,1.48,0,0,1,.61-.12,1.41,1.41,0,0,1,.81.22.39.39,0,0,1,.18.3h0a.54.54,0,0,1-.37.37A1.56,1.56,0,0,1,29.42,25.73Z"/><path class="cls-13" d="M33.69,31.47a1.78,1.78,0,0,1-1.06-.31.75.75,0,0,1-.33-.55.89.89,0,0,1,.61-.82,2.21,2.21,0,0,1,.78-.15,1.81,1.81,0,0,1,1.05.31.76.76,0,0,1,.34.63.87.87,0,0,1-.62.74A1.92,1.92,0,0,1,33.69,31.47Z"/><path class="cls-14" d="M33.69,31.07a1.41,1.41,0,0,1-.81-.23.39.39,0,0,1-.18-.26h0c0-.15.14-.3.37-.41a1.71,1.71,0,0,1,.62-.11,1.41,1.41,0,0,1,.81.22.38.38,0,0,1,.17.29v0c0,.14-.14.28-.36.37A1.56,1.56,0,0,1,33.69,31.07Z"/><path class="cls-13" d="M29.42,30.4a1.74,1.74,0,0,1-1.05-.31.77.77,0,0,1-.34-.55.88.88,0,0,1,.62-.82,2.15,2.15,0,0,1,.77-.15,1.78,1.78,0,0,1,1.06.31.76.76,0,0,1,.33.63.87.87,0,0,1-.62.74A1.89,1.89,0,0,1,29.42,30.4Z"/><path class="cls-14" d="M29.42,30a1.41,1.41,0,0,1-.81-.23.37.37,0,0,1-.17-.26h0c0-.15.13-.31.37-.41a1.7,1.7,0,0,1,.61-.11,1.41,1.41,0,0,1,.81.22.38.38,0,0,1,.18.29h0a.53.53,0,0,1-.37.38A1.52,1.52,0,0,1,29.42,30Z"/><path class="cls-13" d="M33.69,24.71a1.78,1.78,0,0,1-1.06-.31.77.77,0,0,1-.33-.55.88.88,0,0,1,.61-.82,2,2,0,0,1,.78-.15,1.74,1.74,0,0,1,1.05.31.74.74,0,0,1,.34.63.87.87,0,0,1-.62.74A1.92,1.92,0,0,1,33.69,24.71Z"/><path class="cls-14" d="M33.69,24.31a1.41,1.41,0,0,1-.81-.23.39.39,0,0,1-.18-.26h0c0-.16.14-.31.37-.41a1.71,1.71,0,0,1,.62-.11,1.41,1.41,0,0,1,.81.22.36.36,0,0,1,.17.29h0c0,.15-.14.29-.36.38A1.56,1.56,0,0,1,33.69,24.31Z"/><path class="cls-13" d="M37.88,32.49a1.72,1.72,0,0,1-1.05-.31.76.76,0,0,1-.34-.55.88.88,0,0,1,.62-.82,1.92,1.92,0,0,1,.77-.15,1.74,1.74,0,0,1,1,.31.74.74,0,0,1,.34.63.87.87,0,0,1-.62.74A1.92,1.92,0,0,1,37.88,32.49Z"/><path class="cls-14" d="M37.88,32.09a1.41,1.41,0,0,1-.81-.23.34.34,0,0,1-.17-.26h0c0-.16.14-.31.37-.41a1.71,1.71,0,0,1,.62-.11,1.41,1.41,0,0,1,.81.22.34.34,0,0,1,.17.29h0c0,.15-.14.29-.36.38A1.56,1.56,0,0,1,37.88,32.09Z"/><path class="cls-13" d="M44.54,26.84a1.79,1.79,0,0,1-1-.31.75.75,0,0,1-.34-.56.87.87,0,0,1,.62-.81,1.92,1.92,0,0,1,.77-.15,1.74,1.74,0,0,1,1.05.31.74.74,0,0,1,.34.63.88.88,0,0,1-.62.74A2.11,2.11,0,0,1,44.54,26.84Z"/><path class="cls-14" d="M44.54,26.43a1.41,1.41,0,0,1-.81-.22.41.41,0,0,1-.18-.27h0c0-.15.14-.3.37-.4a1.52,1.52,0,0,1,.62-.12,1.41,1.41,0,0,1,.81.23.34.34,0,0,1,.17.29h0c0,.15-.14.28-.37.38A1.66,1.66,0,0,1,44.54,26.43Z"/><path class="cls-13" d="M41.31,24.39a1.74,1.74,0,0,1-1.05-.31.74.74,0,0,1-.33-.55.85.85,0,0,1,.61-.82,2,2,0,0,1,.77-.15,1.78,1.78,0,0,1,1.06.31.76.76,0,0,1,.33.63.87.87,0,0,1-.61.74A2,2,0,0,1,41.31,24.39Z"/><path class="cls-14" d="M41.32,24a1.42,1.42,0,0,1-.82-.22.41.41,0,0,1-.17-.26h0c0-.16.13-.31.37-.41a1.7,1.7,0,0,1,.61-.11,1.39,1.39,0,0,1,.81.22.38.38,0,0,1,.18.29h0c0,.15-.15.28-.37.38A1.7,1.7,0,0,1,41.32,24Z"/><path class="cls-13" d="M42.3,32a1.74,1.74,0,0,1-1-.31.77.77,0,0,1-.34-.55.89.89,0,0,1,.62-.82,2.11,2.11,0,0,1,.77-.15,1.81,1.81,0,0,1,1.05.31.74.74,0,0,1,.34.63.87.87,0,0,1-.62.74A1.92,1.92,0,0,1,42.3,32Z"/><path class="cls-14" d="M42.3,31.58a1.41,1.41,0,0,1-.81-.23.34.34,0,0,1-.17-.26h0c0-.15.13-.31.37-.41a1.66,1.66,0,0,1,.61-.11,1.41,1.41,0,0,1,.81.22.39.39,0,0,1,.18.29h0a.53.53,0,0,1-.37.38A1.52,1.52,0,0,1,42.3,31.58Z"/><path class="cls-13" d="M45.93,29.8a1.78,1.78,0,0,1-1.06-.31.75.75,0,0,1-.33-.55.89.89,0,0,1,.61-.82,2.16,2.16,0,0,1,.78-.14,1.81,1.81,0,0,1,1,.3.76.76,0,0,1,.34.63.87.87,0,0,1-.62.74A2,2,0,0,1,45.93,29.8Z"/><path class="cls-14" d="M45.93,29.4a1.41,1.41,0,0,1-.81-.23.39.39,0,0,1-.18-.26h0c0-.15.13-.3.37-.4a1.52,1.52,0,0,1,.62-.12,1.41,1.41,0,0,1,.81.22.38.38,0,0,1,.17.3h0c0,.14-.14.28-.37.37A1.51,1.51,0,0,1,45.93,29.4Z"/><path class="cls-15" d="M78.9,55.14,67,48.17l-.18.38a7.45,7.45,0,0,1-3.76,3.38,23.76,23.76,0,0,1-5,1.39l-.14,0a22.18,22.18,0,0,0-5.29,1.54,19.59,19.59,0,0,0-2.4,1.45,13.1,13.1,0,0,0-1.94,1.54,13.62,13.62,0,0,0-1.57,2l-1.34,1.94L45,61.74v.65l12.21,7.16,1.69-2.45a13.72,13.72,0,0,1,1.48-1.91,11.82,11.82,0,0,1,1.83-1.44,17.25,17.25,0,0,1,2.31-1.39,20.53,20.53,0,0,1,5.1-1.49l.15,0A24.16,24.16,0,0,0,75,59.4a8.18,8.18,0,0,0,4.13-3.75l.15-.31v-.65Z"/><path class="cls-16" d="M45,61.74l1.72-2.5a14.16,14.16,0,0,1,1.57-2,13.79,13.79,0,0,1,1.94-1.54,19.54,19.54,0,0,1,2.4-1.44A22.22,22.22,0,0,1,58,52.7l.14,0a23.17,23.17,0,0,0,5-1.39,7.37,7.37,0,0,0,3.76-3.38l.18-.38,12.21,7.17-.15.31A8.18,8.18,0,0,1,75,58.75a23.59,23.59,0,0,1-5.16,1.44l-.15,0a20.53,20.53,0,0,0-5.1,1.49,17.25,17.25,0,0,0-2.31,1.39,13.16,13.16,0,0,0-1.83,1.44,13.72,13.72,0,0,0-1.48,1.91l-1.69,2.46Z"/><path class="cls-17" d="M78.75,54.84a7.83,7.83,0,0,1-4,3.57,24.62,24.62,0,0,1-5.22,1.44,21.28,21.28,0,0,0-5.2,1.52A18.82,18.82,0,0,0,62,62.79a13.54,13.54,0,0,0-1.89,1.48,15.48,15.48,0,0,0-1.53,2L57.13,68.4,49,63.64l-1.58-.92-1.87-1.1,1.49-2.16a12.73,12.73,0,0,1,1.53-2A12.31,12.31,0,0,1,50.47,56a18.23,18.23,0,0,1,2.36-1.42A21.15,21.15,0,0,1,58,53.07a24,24,0,0,0,5.22-1.44,7.77,7.77,0,0,0,3.94-3.57l1.87,1.1,1.58.92Z"/><path class="cls-18" d="M48,60a14.53,14.53,0,0,1,1.53-2,11.92,11.92,0,0,1,1.89-1.49,18.12,18.12,0,0,1,2.35-1.42A21.6,21.6,0,0,1,59,53.61a24,24,0,0,0,5.22-1.44,7.73,7.73,0,0,0,3.94-3.57l-.92-.54a7.77,7.77,0,0,1-3.94,3.57A24,24,0,0,1,58,53.07a21.15,21.15,0,0,0-5.2,1.52A18.23,18.23,0,0,0,50.47,56a12.31,12.31,0,0,0-1.88,1.49,12.73,12.73,0,0,0-1.53,2l-1.49,2.16.93.54Z"/><path class="cls-19" d="M70.64,50.08a8.21,8.21,0,0,1-4.12,3.73,24,24,0,0,1-5.16,1.44l-.14,0a20.62,20.62,0,0,0-5.11,1.48,19,19,0,0,0-2.3,1.39A11.55,11.55,0,0,0,52,59.6a12.56,12.56,0,0,0-1.49,1.91L49,63.64l-1.58-.92L49,60.53a14.16,14.16,0,0,1,1.57-2A12.07,12.07,0,0,1,52.46,57a18.69,18.69,0,0,1,2.4-1.45A22.09,22.09,0,0,1,60.15,54l.14,0a22.62,22.62,0,0,0,5-1.39,7.41,7.41,0,0,0,3.76-3.38v0Z"/><path class="cls-18" d="M50.18,61.29a13.77,13.77,0,0,1,1.53-2,12.31,12.31,0,0,1,1.88-1.49A19.42,19.42,0,0,1,56,56.42a21.6,21.6,0,0,1,5.2-1.52,24,24,0,0,0,5.22-1.44,7.73,7.73,0,0,0,3.94-3.57l-.92-.54a7.75,7.75,0,0,1-4,3.57,23.89,23.89,0,0,1-5.22,1.44A21.52,21.52,0,0,0,55,55.88a18.23,18.23,0,0,0-2.36,1.42,12.31,12.31,0,0,0-1.88,1.49,13.23,13.23,0,0,0-1.53,2l-1.49,2.16.92.54Z"/><path class="cls-20" d="M54.83,64a13.77,13.77,0,0,1,1.53-2,12.31,12.31,0,0,1,1.88-1.49,18.82,18.82,0,0,1,2.35-1.42,21.73,21.73,0,0,1,5.2-1.52A23.89,23.89,0,0,0,71,56.19,7.79,7.79,0,0,0,75,52.62l-1.24-.72a7.83,7.83,0,0,1-4,3.57,24,24,0,0,1-5.22,1.44,21.15,21.15,0,0,0-5.2,1.52A18.82,18.82,0,0,0,57,59.85a12.9,12.9,0,0,0-1.89,1.49,13.93,13.93,0,0,0-1.53,2L52.1,65.46l1.24.72Z"/><path class="cls-18" d="M56.87,65.2a13.77,13.77,0,0,1,1.53-2,12.31,12.31,0,0,1,1.88-1.49,19.42,19.42,0,0,1,2.36-1.42,21.52,21.52,0,0,1,5.19-1.52,23.89,23.89,0,0,0,5.22-1.44,7.77,7.77,0,0,0,4-3.56l-1.24-.73a7.79,7.79,0,0,1-4,3.57,23.89,23.89,0,0,1-5.22,1.44,21.73,21.73,0,0,0-5.2,1.52A18.82,18.82,0,0,0,59,61a12.9,12.9,0,0,0-1.89,1.49,14.46,14.46,0,0,0-1.52,2l-1.49,2.16,1.24.72Z"/><path class="cls-19" d="M58.46,66.15a13.93,13.93,0,0,1,1.53-2,12.9,12.9,0,0,1,1.89-1.49,18.82,18.82,0,0,1,2.35-1.42,21.15,21.15,0,0,1,5.2-1.52,24,24,0,0,0,5.22-1.44,7.73,7.73,0,0,0,3.94-3.57L77.35,54a7.75,7.75,0,0,1-3.94,3.56A24.06,24.06,0,0,1,68.19,59,21.15,21.15,0,0,0,63,60.56,17.47,17.47,0,0,0,60.64,62a12.33,12.33,0,0,0-1.89,1.48,13.31,13.31,0,0,0-1.53,2l-1.48,2.16,1.24.72Z"/><path class="cls-21" d="M56.28,67.47l1.25-1.83A14.6,14.6,0,0,1,59,63.73a12,12,0,0,1,1.83-1.44,17.83,17.83,0,0,1,2.3-1.39,20.74,20.74,0,0,1,5.11-1.49l.14,0a23.44,23.44,0,0,0,5.16-1.44,8.43,8.43,0,0,0,4-3.38l.58.34A7.6,7.6,0,0,1,74.5,58a23.33,23.33,0,0,1-5,1.39l-.14,0a21,21,0,0,0-5.29,1.55,18.77,18.77,0,0,0-2.41,1.45,13,13,0,0,0-1.94,1.53,14.75,14.75,0,0,0-1.57,2l-1.29,1.88Z"/><path class="cls-21" d="M52.64,65.34l1.26-1.83a13.72,13.72,0,0,1,1.48-1.91,13.16,13.16,0,0,1,1.83-1.44,17.25,17.25,0,0,1,2.31-1.39,20.53,20.53,0,0,1,5.1-1.49l.15,0a23.75,23.75,0,0,0,5.16-1.44,8.41,8.41,0,0,0,3.94-3.38l.59.34a7.65,7.65,0,0,1-3.6,3.08,23.15,23.15,0,0,1-5,1.38l-.14,0a21,21,0,0,0-5.29,1.55A18.69,18.69,0,0,0,58,60.26a12.07,12.07,0,0,0-1.94,1.53,15.09,15.09,0,0,0-1.58,2l-1.28,1.87Z"/><path class="cls-21" d="M52.67,62.76a15.38,15.38,0,0,1,1.53-2,12.9,12.9,0,0,1,1.89-1.49,18.82,18.82,0,0,1,2.35-1.42,21.6,21.6,0,0,1,5.2-1.52,24,24,0,0,0,5.22-1.44,7.79,7.79,0,0,0,4-3.57l-1.25-.72a7.77,7.77,0,0,1-3.94,3.57,24.62,24.62,0,0,1-5.22,1.44,21.15,21.15,0,0,0-5.2,1.52,18.12,18.12,0,0,0-2.35,1.42A13,13,0,0,0,53,60.07a14,14,0,0,0-1.53,2L50,64.2l1.24.72Z"/><path class="cls-15" d="M77.34,16.27l-11.88-7-.17.37a7.43,7.43,0,0,1-3.76,3.39,23.76,23.76,0,0,1-5,1.39l-.14,0A22.09,22.09,0,0,0,51.1,16a19.59,19.59,0,0,0-2.4,1.45A13.16,13.16,0,0,0,46.76,19a14.24,14.24,0,0,0-1.57,2L43.85,23l-.38-.09v.65l12.21,7.16,1.68-2.45a14,14,0,0,1,1.49-1.91,11.82,11.82,0,0,1,1.83-1.44A18.5,18.5,0,0,1,63,23.48,21,21,0,0,1,68.09,22l.14,0a24.25,24.25,0,0,0,5.17-1.44,8.18,8.18,0,0,0,4.13-3.75l.15-.31v-.65Z"/><path class="cls-16" d="M43.47,22.87l1.72-2.5a13.62,13.62,0,0,1,1.57-2,13.24,13.24,0,0,1,1.94-1.54,19.54,19.54,0,0,1,2.4-1.44,21.64,21.64,0,0,1,5.29-1.55l.14,0a23.76,23.76,0,0,0,5-1.39A7.37,7.37,0,0,0,65.29,9l.17-.38,12.22,7.17-.15.31a8.18,8.18,0,0,1-4.13,3.75,23.68,23.68,0,0,1-5.17,1.44l-.14,0A20.53,20.53,0,0,0,63,22.84a17.25,17.25,0,0,0-2.31,1.39,12.45,12.45,0,0,0-1.83,1.44,14.6,14.6,0,0,0-1.49,1.91L55.68,30Z"/><path class="cls-17" d="M77.18,16a7.81,7.81,0,0,1-3.94,3.57A24.62,24.62,0,0,1,68,21a21.15,21.15,0,0,0-5.2,1.52,18.12,18.12,0,0,0-2.35,1.42,13.54,13.54,0,0,0-1.89,1.48,14.81,14.81,0,0,0-1.53,2l-1.48,2.16-8.11-4.76-1.58-.92L44,22.75l1.49-2.17A13.14,13.14,0,0,1,47,18.63a11.73,11.73,0,0,1,1.88-1.49,18.82,18.82,0,0,1,2.35-1.42,21.41,21.41,0,0,1,5.2-1.52,24.15,24.15,0,0,0,5.23-1.45,7.75,7.75,0,0,0,3.94-3.56l1.87,1.1,1.57.92Z"/><path class="cls-18" d="M46.42,21.13a13.77,13.77,0,0,1,1.53-2,12.31,12.31,0,0,1,1.88-1.49,18.23,18.23,0,0,1,2.36-1.42,21.6,21.6,0,0,1,5.2-1.52,24,24,0,0,0,5.22-1.44,7.73,7.73,0,0,0,3.94-3.57l-.92-.54a7.85,7.85,0,0,1-3.94,3.57,24.71,24.71,0,0,1-5.23,1.44,21.21,21.21,0,0,0-5.19,1.52,18.23,18.23,0,0,0-2.36,1.42A12.25,12.25,0,0,0,47,18.62a13.31,13.31,0,0,0-1.53,2L44,22.75l.93.54Z"/><path class="cls-19" d="M69.07,11.21A8.08,8.08,0,0,1,65,14.93a23.13,23.13,0,0,1-5.17,1.44l-.14,0a20.53,20.53,0,0,0-5.1,1.49,19.91,19.91,0,0,0-2.31,1.39,13.16,13.16,0,0,0-1.83,1.44,13.82,13.82,0,0,0-1.48,1.92l-1.47,2.13-1.58-.92,1.5-2.19a14.92,14.92,0,0,1,1.57-2,13.31,13.31,0,0,1,1.95-1.54,19,19,0,0,1,2.4-1.44,22.09,22.09,0,0,1,5.29-1.55l.13,0a22.55,22.55,0,0,0,5-1.39,7.41,7.41,0,0,0,3.76-3.38v0Z"/><path class="cls-18" d="M48.62,22.42a13.77,13.77,0,0,1,1.53-2A12.31,12.31,0,0,1,52,19a18.23,18.23,0,0,1,2.36-1.42A21.52,21.52,0,0,1,59.58,16a23.89,23.89,0,0,0,5.22-1.44,7.75,7.75,0,0,0,4-3.57l-.92-.54a7.83,7.83,0,0,1-3.95,3.57,23.89,23.89,0,0,1-5.22,1.44A21.28,21.28,0,0,0,53.46,17a18.82,18.82,0,0,0-2.35,1.42,13.54,13.54,0,0,0-1.89,1.48,14,14,0,0,0-1.52,2L46.21,24l.92.54Z"/><path class="cls-20" d="M53.27,25.15a13.7,13.7,0,0,1,1.52-2,12.9,12.9,0,0,1,1.89-1.49A18.82,18.82,0,0,1,59,20.28a21.6,21.6,0,0,1,5.2-1.52,24,24,0,0,0,5.22-1.44,7.79,7.79,0,0,0,4-3.57L72.15,13a7.77,7.77,0,0,1-3.94,3.57A24.62,24.62,0,0,1,63,18a21.15,21.15,0,0,0-5.2,1.52A18.12,18.12,0,0,0,55.44,21a12.33,12.33,0,0,0-1.89,1.48,14,14,0,0,0-1.53,2l-1.48,2.16,1.24.72Z"/><path class="cls-18" d="M55.31,26.33a14.46,14.46,0,0,1,1.52-2,12.9,12.9,0,0,1,1.89-1.49,18.82,18.82,0,0,1,2.35-1.42,21.73,21.73,0,0,1,5.2-1.52,23.89,23.89,0,0,0,5.22-1.44,7.79,7.79,0,0,0,4-3.57l-1.25-.72a7.73,7.73,0,0,1-3.94,3.57A24,24,0,0,1,65,19.22a21.15,21.15,0,0,0-5.2,1.52,18.82,18.82,0,0,0-2.35,1.42,12.9,12.9,0,0,0-1.89,1.49,13.93,13.93,0,0,0-1.53,2l-1.48,2.16,1.24.72Z"/><path class="cls-19" d="M56.9,27.28a14,14,0,0,1,1.53-2,12.47,12.47,0,0,1,1.89-1.48,17.47,17.47,0,0,1,2.35-1.42,21.15,21.15,0,0,1,5.2-1.52,24,24,0,0,0,5.22-1.44A7.77,7.77,0,0,0,77,15.88l-1.24-.72a7.75,7.75,0,0,1-3.94,3.56,24,24,0,0,1-5.23,1.45,21.18,21.18,0,0,0-5.19,1.51,20.79,20.79,0,0,0-2.36,1.42,13,13,0,0,0-1.88,1.49,13.77,13.77,0,0,0-1.53,2l-1.49,2.17,1.25.72Z"/><path class="cls-21" d="M54.72,28.6,56,26.77a13.07,13.07,0,0,1,1.49-1.91,11.36,11.36,0,0,1,1.83-1.44A17.83,17.83,0,0,1,61.59,22a20.61,20.61,0,0,1,5.11-1.49l.14,0A24,24,0,0,0,72,19.07a8.32,8.32,0,0,0,3.94-3.39l.59.35a7.58,7.58,0,0,1-3.6,3.07,23,23,0,0,1-5,1.39l-.14,0a21.29,21.29,0,0,0-5.29,1.55,18.69,18.69,0,0,0-2.4,1.45,13,13,0,0,0-1.94,1.53,14.16,14.16,0,0,0-1.57,2L55.3,28.94Z"/><path class="cls-21" d="M51.08,26.47l1.25-1.83a14.6,14.6,0,0,1,1.49-1.91,12,12,0,0,1,1.83-1.44A17.25,17.25,0,0,1,58,19.9a20.53,20.53,0,0,1,5.1-1.49l.14,0a23.44,23.44,0,0,0,5.16-1.44,8.38,8.38,0,0,0,4-3.38l.59.34A7.62,7.62,0,0,1,69.3,17a22.77,22.77,0,0,1-5,1.39l-.14,0a21,21,0,0,0-5.29,1.55,18,18,0,0,0-2.4,1.45,12.07,12.07,0,0,0-1.94,1.53,14.32,14.32,0,0,0-1.58,2l-1.28,1.87Z"/><path class="cls-21" d="M51.11,23.89a13.93,13.93,0,0,1,1.53-2,12.39,12.39,0,0,1,1.89-1.49A18.12,18.12,0,0,1,56.88,19a21.15,21.15,0,0,1,5.2-1.52,24,24,0,0,0,5.22-1.44,7.73,7.73,0,0,0,3.94-3.57L70,11.77a7.75,7.75,0,0,1-3.94,3.56,24.06,24.06,0,0,1-5.22,1.45,21.15,21.15,0,0,0-5.2,1.52,18.23,18.23,0,0,0-2.36,1.42A12.25,12.25,0,0,0,51.4,21.2a13.31,13.31,0,0,0-1.53,2l-1.49,2.16,1.25.72Z"/><path class="cls-15" d="M121.82,55.66l-11.88-7-.18.37A7.33,7.33,0,0,1,106,52.44a22.47,22.47,0,0,1-5,1.39l-.14,0a22.15,22.15,0,0,0-5.28,1.55,18.54,18.54,0,0,0-2.41,1.45,13,13,0,0,0-1.94,1.53,14.24,14.24,0,0,0-1.57,2l-1.33,1.94-.39-.09v.64l12.21,7.17,1.69-2.46a13.07,13.07,0,0,1,1.49-1.91,12.08,12.08,0,0,1,1.83-1.44,17.83,17.83,0,0,1,2.3-1.39,20.61,20.61,0,0,1,5.11-1.49l.14,0a23.59,23.59,0,0,0,5.16-1.44A8.1,8.1,0,0,0,122,56.16l.15-.31V55.2Z"/><path class="cls-16" d="M87.94,62.26l1.72-2.5a14.24,14.24,0,0,1,1.57-2,13.7,13.7,0,0,1,1.94-1.53,19.73,19.73,0,0,1,2.41-1.45,22.15,22.15,0,0,1,5.28-1.55l.14,0a23,23,0,0,0,5-1.38,7.38,7.38,0,0,0,3.76-3.39l.18-.37,12.21,7.16-.15.32a8.14,8.14,0,0,1-4.13,3.75,24.16,24.16,0,0,1-5.16,1.44l-.14,0a20.62,20.62,0,0,0-5.11,1.48,19,19,0,0,0-2.3,1.39,11.55,11.55,0,0,0-1.83,1.45A12.56,12.56,0,0,0,101.84,67l-1.69,2.45Z"/><path class="cls-17" d="M121.66,55.36a7.77,7.77,0,0,1-4,3.56,23.89,23.89,0,0,1-5.22,1.44,21.65,21.65,0,0,0-5.19,1.52,19.42,19.42,0,0,0-2.36,1.42,12.31,12.31,0,0,0-1.88,1.49,13.77,13.77,0,0,0-1.53,2L100,68.92l-8.1-4.76-1.58-.93-1.87-1.1L90,60a14.53,14.53,0,0,1,1.53-2,13.61,13.61,0,0,1,1.89-1.49,19.3,19.3,0,0,1,2.35-1.42,21.13,21.13,0,0,1,5.2-1.51,24.64,24.64,0,0,0,5.22-1.45,7.73,7.73,0,0,0,3.94-3.57l1.88,1.1,1.57.93Z"/><path class="cls-18" d="M90.9,60.52a13.25,13.25,0,0,1,1.52-2,12.84,12.84,0,0,1,1.89-1.48,18.82,18.82,0,0,1,2.35-1.42,21.15,21.15,0,0,1,5.2-1.52,23.91,23.91,0,0,0,5.22-1.45,7.77,7.77,0,0,0,4-3.56l-.93-.54a7.75,7.75,0,0,1-3.94,3.56,24,24,0,0,1-5.22,1.44,21.6,21.6,0,0,0-5.2,1.52,20.1,20.1,0,0,0-2.35,1.42A12.39,12.39,0,0,0,91.5,58,14.53,14.53,0,0,0,90,60l-1.48,2.17.92.54Z"/><path class="cls-19" d="M113.55,50.6a8.11,8.11,0,0,1-4.12,3.72,23.44,23.44,0,0,1-5.16,1.44l-.14,0A20.53,20.53,0,0,0,99,57.28a17.25,17.25,0,0,0-2.31,1.39,13.16,13.16,0,0,0-1.83,1.44A13.79,13.79,0,0,0,93.4,62l-1.46,2.14-1.58-.93,1.5-2.18a13.62,13.62,0,0,1,1.57-2,13.1,13.1,0,0,1,1.94-1.54,18,18,0,0,1,2.41-1.44,21.93,21.93,0,0,1,5.28-1.56l.14,0a23.76,23.76,0,0,0,5-1.39A7.43,7.43,0,0,0,112,49.7l0,0Z"/><path class="cls-18" d="M93.09,61.81a14,14,0,0,1,1.53-2,13,13,0,0,1,1.89-1.48,17.47,17.47,0,0,1,2.35-1.42,21.15,21.15,0,0,1,5.2-1.52A24.62,24.62,0,0,0,109.28,54a7.77,7.77,0,0,0,3.94-3.57l-.92-.54a7.75,7.75,0,0,1-3.94,3.56,24.64,24.64,0,0,1-5.22,1.45,21.13,21.13,0,0,0-5.2,1.51,19.42,19.42,0,0,0-2.36,1.42A12.31,12.31,0,0,0,93.7,59.3a13.77,13.77,0,0,0-1.53,2l-1.49,2.17.93.54Z"/><path class="cls-20" d="M97.74,64.54a13.31,13.31,0,0,1,1.53-2,12.25,12.25,0,0,1,1.88-1.48,18.23,18.23,0,0,1,2.36-1.42,21.21,21.21,0,0,1,5.19-1.52,24,24,0,0,0,5.23-1.45,7.75,7.75,0,0,0,3.94-3.56l-1.24-.72A7.81,7.81,0,0,1,112.68,56a23.89,23.89,0,0,1-5.22,1.44,21.52,21.52,0,0,0-5.19,1.52,19.42,19.42,0,0,0-2.36,1.42A12.31,12.31,0,0,0,98,61.85a13.77,13.77,0,0,0-1.53,2L95,66l1.24.72Z"/><path class="cls-18" d="M99.78,65.72a13.23,13.23,0,0,1,1.53-2,12.31,12.31,0,0,1,1.88-1.49,18.23,18.23,0,0,1,2.36-1.42,21.21,21.21,0,0,1,5.19-1.52A24,24,0,0,0,116,57.89a7.77,7.77,0,0,0,3.94-3.57l-1.24-.72a7.79,7.79,0,0,1-3.94,3.56,24.15,24.15,0,0,1-5.23,1.45,21.21,21.21,0,0,0-5.19,1.52A19.35,19.35,0,0,0,102,61.54,13,13,0,0,0,100.07,63a13.77,13.77,0,0,0-1.53,2l-1.49,2.17,1.25.72Z"/><path class="cls-19" d="M101.38,66.66a14.46,14.46,0,0,1,1.52-2,12.9,12.9,0,0,1,1.89-1.49,20.1,20.1,0,0,1,2.35-1.42,21.73,21.73,0,0,1,5.2-1.52,23.89,23.89,0,0,0,5.22-1.44,7.81,7.81,0,0,0,4-3.56l-1.24-.73a7.79,7.79,0,0,1-4,3.57,24,24,0,0,1-5.22,1.44,21.6,21.6,0,0,0-5.2,1.52,18.82,18.82,0,0,0-2.35,1.42A12.9,12.9,0,0,0,101.66,64a14.53,14.53,0,0,0-1.53,2L98.65,68.1l1.24.73Z"/><path class="cls-21" d="M99.19,68l1.26-1.83a13.72,13.72,0,0,1,1.48-1.91,13.16,13.16,0,0,1,1.83-1.44,17.9,17.9,0,0,1,2.31-1.39,20.53,20.53,0,0,1,5.1-1.49l.15,0a23.75,23.75,0,0,0,5.16-1.44,8.35,8.35,0,0,0,3.94-3.38l.59.34a7.65,7.65,0,0,1-3.6,3.08,23.76,23.76,0,0,1-5,1.39l-.14,0A21.9,21.9,0,0,0,107,61.45a18.69,18.69,0,0,0-2.4,1.45,12.66,12.66,0,0,0-1.94,1.53,15.09,15.09,0,0,0-1.58,2l-1.28,1.87Z"/><path class="cls-21" d="M95.55,65.85,96.81,64a13.16,13.16,0,0,1,1.48-1.91,11.82,11.82,0,0,1,1.83-1.44,18.75,18.75,0,0,1,2.31-1.4,20.92,20.92,0,0,1,5.11-1.48l.14,0a24.16,24.16,0,0,0,5.16-1.44,8.32,8.32,0,0,0,3.94-3.39l.59.34a7.59,7.59,0,0,1-3.6,3.08,23.76,23.76,0,0,1-5,1.39l-.14,0a21,21,0,0,0-5.29,1.55,19.77,19.77,0,0,0-2.4,1.44A13.24,13.24,0,0,0,99,62.31a13.62,13.62,0,0,0-1.57,2l-1.29,1.87Z"/><path class="cls-21" d="M95.59,63.27a13.77,13.77,0,0,1,1.53-2A13,13,0,0,1,99,59.82a19.35,19.35,0,0,1,2.36-1.41,21.08,21.08,0,0,1,5.19-1.52,23.91,23.91,0,0,0,5.22-1.45,7.81,7.81,0,0,0,4-3.56l-1.24-.72a7.81,7.81,0,0,1-4,3.56,23.89,23.89,0,0,1-5.22,1.44,21.6,21.6,0,0,0-5.2,1.52,20.1,20.1,0,0,0-2.35,1.42,12.9,12.9,0,0,0-1.89,1.49,14.46,14.46,0,0,0-1.52,2c-.5.72-1,1.44-1.49,2.17l1.24.72Z"/><path class="cls-15" d="M91.69,25l11.88-7,.17.38a7.49,7.49,0,0,0,3.76,3.38,23.76,23.76,0,0,0,5,1.39l.14,0a22.09,22.09,0,0,1,5.29,1.55,19.59,19.59,0,0,1,2.4,1.45,12.14,12.14,0,0,1,1.94,1.54,13.62,13.62,0,0,1,1.57,2l1.34,1.94.38-.09v.65l-12.21,7.16-1.69-2.45A13.72,13.72,0,0,0,110.18,35a11.82,11.82,0,0,0-1.83-1.44A17.25,17.25,0,0,0,106,32.2a20.53,20.53,0,0,0-5.1-1.49l-.14,0a24.25,24.25,0,0,1-5.17-1.44,8.18,8.18,0,0,1-4.13-3.75l-.14-.31v-.65Z"/><path class="cls-16" d="M125.56,31.58l-1.72-2.5a13.62,13.62,0,0,0-1.57-2,12.73,12.73,0,0,0-1.94-1.54,19.54,19.54,0,0,0-2.4-1.44,21.64,21.64,0,0,0-5.29-1.55l-.14,0a23.17,23.17,0,0,1-5-1.39,7.41,7.41,0,0,1-3.76-3.38l-.17-.38L91.36,24.53l.14.31a8.18,8.18,0,0,0,4.13,3.75A23.68,23.68,0,0,0,100.8,30l.14,0a20.53,20.53,0,0,1,5.1,1.49,17.25,17.25,0,0,1,2.31,1.39,13.16,13.16,0,0,1,1.83,1.44,13.72,13.72,0,0,1,1.48,1.91l1.69,2.46Z"/><path class="cls-17" d="M91.85,24.68a7.81,7.81,0,0,0,3.94,3.57A24.62,24.62,0,0,0,101,29.69a21.15,21.15,0,0,1,5.2,1.52,18.12,18.12,0,0,1,2.35,1.42,13.54,13.54,0,0,1,1.89,1.48,14.81,14.81,0,0,1,1.53,2l1.48,2.16,8.11-4.76,1.58-.92,1.87-1.1-1.49-2.16a13.32,13.32,0,0,0-1.52-2,12.9,12.9,0,0,0-1.89-1.49,18.82,18.82,0,0,0-2.35-1.42,21.41,21.41,0,0,0-5.2-1.52,24.13,24.13,0,0,1-5.23-1.44,7.81,7.81,0,0,1-3.94-3.57L101.53,19l-1.57.92Z"/><path class="cls-18" d="M122.61,29.84a13.77,13.77,0,0,0-1.53-2,12.31,12.31,0,0,0-1.88-1.49A18.23,18.23,0,0,0,116.84,25a21.65,21.65,0,0,0-5.19-1.52A24,24,0,0,1,106.42,22a7.73,7.73,0,0,1-3.94-3.57l.92-.54a7.79,7.79,0,0,0,3.95,3.57,23.89,23.89,0,0,0,5.22,1.44,21.08,21.08,0,0,1,5.19,1.52,18.23,18.23,0,0,1,2.36,1.42A12.31,12.31,0,0,1,122,27.34a12.73,12.73,0,0,1,1.53,2L125,31.46l-.92.54Z"/><path class="cls-19" d="M100,19.92a8.08,8.08,0,0,0,4.11,3.72,23.7,23.7,0,0,0,5.17,1.45l.14,0a20.66,20.66,0,0,1,5.1,1.48,19,19,0,0,1,2.3,1.39,12.68,12.68,0,0,1,1.84,1.44,13.82,13.82,0,0,1,1.48,1.92l1.47,2.13,1.58-.92-1.5-2.19a14.92,14.92,0,0,0-1.57-2,12.6,12.6,0,0,0-2-1.53,18,18,0,0,0-2.4-1.45,22.09,22.09,0,0,0-5.29-1.55l-.13,0a22.55,22.55,0,0,1-5-1.39A7.41,7.41,0,0,1,101.54,19v0Z"/><path class="cls-18" d="M120.41,31.13a13.77,13.77,0,0,0-1.53-2A12.31,12.31,0,0,0,117,27.68a19.42,19.42,0,0,0-2.36-1.42,21.52,21.52,0,0,0-5.19-1.52,23.89,23.89,0,0,1-5.22-1.44,7.75,7.75,0,0,1-4-3.57l.92-.54a7.79,7.79,0,0,0,4,3.57,24,24,0,0,0,5.22,1.44,21.15,21.15,0,0,1,5.2,1.52,18.82,18.82,0,0,1,2.35,1.42,12.9,12.9,0,0,1,1.89,1.49,13.86,13.86,0,0,1,1.52,2l1.49,2.16-.92.54Z"/><path class="cls-21" d="M117.92,32.6a14.53,14.53,0,0,0-1.53-2,12.39,12.39,0,0,0-1.89-1.49,18.12,18.12,0,0,0-2.35-1.42,21.6,21.6,0,0,0-5.2-1.52,24,24,0,0,1-5.22-1.44,7.73,7.73,0,0,1-3.94-3.57L99,20.48A7.77,7.77,0,0,0,103,24.05a24.62,24.62,0,0,0,5.22,1.44,21.15,21.15,0,0,1,5.2,1.52,17.47,17.47,0,0,1,2.35,1.42,12.47,12.47,0,0,1,1.89,1.48,13.31,13.31,0,0,1,1.53,2L120.65,34l-1.25.72Z"/><path class="cls-20" d="M115.77,33.86a14.53,14.53,0,0,0-1.53-2,12.9,12.9,0,0,0-1.89-1.49A18.82,18.82,0,0,0,110,29a21.6,21.6,0,0,0-5.2-1.52A24,24,0,0,1,99.58,26a7.79,7.79,0,0,1-4-3.57l1.25-.72a7.77,7.77,0,0,0,3.94,3.57A24.62,24.62,0,0,0,106,26.75a21.15,21.15,0,0,1,5.2,1.52,17.47,17.47,0,0,1,2.35,1.42,12.39,12.39,0,0,1,1.89,1.49,13.93,13.93,0,0,1,1.53,2l1.48,2.16-1.24.72Z"/><path class="cls-18" d="M113.72,35a14.46,14.46,0,0,0-1.52-2,12.9,12.9,0,0,0-1.89-1.49A20.1,20.1,0,0,0,108,30.17a21.73,21.73,0,0,0-5.2-1.52,24,24,0,0,1-5.22-1.44,7.81,7.81,0,0,1-4-3.56l1.25-.73a7.73,7.73,0,0,0,3.94,3.57A24,24,0,0,0,104,27.93a21.6,21.6,0,0,1,5.2,1.52,18.82,18.82,0,0,1,2.35,1.42,12.39,12.39,0,0,1,1.89,1.49,14.53,14.53,0,0,1,1.53,2l1.48,2.16-1.24.72Z"/><path class="cls-19" d="M112.13,36a13.23,13.23,0,0,0-1.53-2,11.92,11.92,0,0,0-1.89-1.49,17.47,17.47,0,0,0-2.35-1.42,21.15,21.15,0,0,0-5.2-1.52,24,24,0,0,1-5.22-1.44A7.73,7.73,0,0,1,92,24.59l1.24-.72a7.79,7.79,0,0,0,3.94,3.56,24,24,0,0,0,5.23,1.45,21.21,21.21,0,0,1,5.19,1.52A19.35,19.35,0,0,1,110,31.81a13,13,0,0,1,1.88,1.49,13.31,13.31,0,0,1,1.53,2l1.49,2.16-1.25.72Z"/><path class="cls-21" d="M114.31,37.31l-1.25-1.83a13.07,13.07,0,0,0-1.49-1.91,11.48,11.48,0,0,0-1.83-1.44,17.83,17.83,0,0,0-2.3-1.39,20.61,20.61,0,0,0-5.11-1.49l-.14,0A23.59,23.59,0,0,1,97,27.78a8.32,8.32,0,0,1-3.94-3.39l-.59.35a7.58,7.58,0,0,0,3.6,3.07,23,23,0,0,0,5,1.39l.14,0a21.29,21.29,0,0,1,5.29,1.55,18.69,18.69,0,0,1,2.4,1.45,13,13,0,0,1,1.94,1.53,14.16,14.16,0,0,1,1.57,2l1.29,1.88Z"/><path class="cls-21" d="M118,35.18l-1.25-1.83a14.6,14.6,0,0,0-1.49-1.91A12.6,12.6,0,0,0,113.38,30a17.25,17.25,0,0,0-2.31-1.39,20.53,20.53,0,0,0-5.1-1.49l-.14,0a23.44,23.44,0,0,1-5.16-1.44,8.43,8.43,0,0,1-4-3.38l-.58.34a7.55,7.55,0,0,0,3.59,3.07,22.77,22.77,0,0,0,5,1.39l.14,0a21,21,0,0,1,5.29,1.55,18,18,0,0,1,2.4,1.45,12.6,12.6,0,0,1,2,1.53,14.24,14.24,0,0,1,1.57,2l1.28,1.87Z"/><path class="cls-15" d="M16.92,40.13l11.88-7,.17.38a7.41,7.41,0,0,0,3.76,3.38,23.17,23.17,0,0,0,5,1.39l.14,0a21.64,21.64,0,0,1,5.29,1.55,19.54,19.54,0,0,1,2.4,1.44,12.73,12.73,0,0,1,1.94,1.54,13.62,13.62,0,0,1,1.57,2l1.34,1.94.38-.09v.65L38.58,54.55,36.9,52.09a14.6,14.6,0,0,0-1.49-1.91,12.45,12.45,0,0,0-1.83-1.44,17.25,17.25,0,0,0-2.31-1.39,20.53,20.53,0,0,0-5.1-1.49l-.14,0a23.44,23.44,0,0,1-5.16-1.44,8.2,8.2,0,0,1-4.14-3.75l-.14-.31v-.65Z"/><path class="cls-16" d="M50.79,46.73l-1.72-2.49a14.24,14.24,0,0,0-1.57-2,12.07,12.07,0,0,0-1.94-1.53,18.42,18.42,0,0,0-2.4-1.45,22.09,22.09,0,0,0-5.29-1.55l-.14,0a22.62,22.62,0,0,1-5-1.39A7.41,7.41,0,0,1,29,32.89l-.17-.37L16.59,39.68l.14.32a8.14,8.14,0,0,0,4.14,3.74A23.44,23.44,0,0,0,26,45.18l.14,0a20.53,20.53,0,0,1,5.1,1.49,18.37,18.37,0,0,1,2.31,1.39,13.16,13.16,0,0,1,1.83,1.44,14.6,14.6,0,0,1,1.49,1.91l1.68,2.46Z"/><path class="cls-17" d="M17.08,39.83A7.73,7.73,0,0,0,21,43.4a24,24,0,0,0,5.22,1.44,21.6,21.6,0,0,1,5.2,1.52,17.47,17.47,0,0,1,2.35,1.42,12.9,12.9,0,0,1,1.89,1.49,14.53,14.53,0,0,1,1.53,2l1.48,2.16,8.11-4.75,1.58-.93,1.87-1.1-1.49-2.16a13.86,13.86,0,0,0-1.52-2A12.9,12.9,0,0,0,45.35,41,18.82,18.82,0,0,0,43,39.58a21.41,21.41,0,0,0-5.2-1.52,24.28,24.28,0,0,1-5.23-1.44,7.77,7.77,0,0,1-3.94-3.57l-1.87,1.1-1.57.92Z"/><path class="cls-18" d="M47.84,45a13.77,13.77,0,0,0-1.53-2,12.31,12.31,0,0,0-1.88-1.49,19.42,19.42,0,0,0-2.36-1.42,21.18,21.18,0,0,0-5.19-1.51,24.56,24.56,0,0,1-5.23-1.45,7.79,7.79,0,0,1-3.94-3.56l.92-.55a7.75,7.75,0,0,0,3.95,3.57,23.89,23.89,0,0,0,5.22,1.44A21.52,21.52,0,0,1,43,39.58,18.23,18.23,0,0,1,45.35,41a12.9,12.9,0,0,1,1.89,1.49,14.46,14.46,0,0,1,1.52,2l1.49,2.16-.92.55Z"/><path class="cls-19" d="M25.19,35.07A8.14,8.14,0,0,0,29.3,38.8a24.25,24.25,0,0,0,5.17,1.44l.14,0a20.53,20.53,0,0,1,5.1,1.49A18.6,18.6,0,0,1,42,43.15a12.45,12.45,0,0,1,1.83,1.44,13.72,13.72,0,0,1,1.48,1.91l1.47,2.14,1.58-.93-1.5-2.18a15,15,0,0,0-1.57-2,12.6,12.6,0,0,0-2-1.53A18,18,0,0,0,41,40.53,22.09,22.09,0,0,0,35.67,39l-.13,0a23.28,23.28,0,0,1-5-1.4,7.34,7.34,0,0,1-3.75-3.38l0,0Z"/><path class="cls-18" d="M45.64,46.28a13.77,13.77,0,0,0-1.53-2,13,13,0,0,0-1.88-1.49,20,20,0,0,0-2.35-1.41,20.85,20.85,0,0,0-5.2-1.52,23.91,23.91,0,0,1-5.22-1.45,7.81,7.81,0,0,1-3.95-3.56l.93-.55a7.73,7.73,0,0,0,3.94,3.57,24,24,0,0,0,5.22,1.44,21.6,21.6,0,0,1,5.2,1.52,18.82,18.82,0,0,1,2.35,1.42A12.9,12.9,0,0,1,45,43.78a14.53,14.53,0,0,1,1.53,2l1.48,2.16-.92.55Z"/><path class="cls-21" d="M43.15,47.75a14.53,14.53,0,0,0-1.53-2,11.92,11.92,0,0,0-1.89-1.49,19.3,19.3,0,0,0-2.35-1.42,21.6,21.6,0,0,0-5.2-1.52A24,24,0,0,1,27,39.92,7.73,7.73,0,0,1,23,36.35l1.24-.72A7.73,7.73,0,0,0,28.2,39.2a24,24,0,0,0,5.23,1.44,21.65,21.65,0,0,1,5.19,1.52A18.23,18.23,0,0,1,41,43.58a12.31,12.31,0,0,1,1.88,1.49,13.77,13.77,0,0,1,1.53,2l1.49,2.16-1.25.72Z"/><path class="cls-20" d="M41,49a14.53,14.53,0,0,0-1.53-2,12.9,12.9,0,0,0-1.89-1.49,20.1,20.1,0,0,0-2.35-1.42A21.13,21.13,0,0,0,30,42.63a24.64,24.64,0,0,1-5.22-1.45,7.75,7.75,0,0,1-3.94-3.56l1.24-.73a7.73,7.73,0,0,0,3.94,3.57,24,24,0,0,0,5.22,1.44,21.6,21.6,0,0,1,5.2,1.52,17.47,17.47,0,0,1,2.35,1.42,11.92,11.92,0,0,1,1.89,1.49,13.77,13.77,0,0,1,1.53,2l1.49,2.16-1.25.73C42,50.45,41.49,49.73,41,49Z"/><path class="cls-18" d="M39,50.2a13.25,13.25,0,0,0-1.52-2,13.61,13.61,0,0,0-1.89-1.49,20,20,0,0,0-2.35-1.41A21.15,21.15,0,0,0,28,43.81a24.06,24.06,0,0,1-5.22-1.45,7.81,7.81,0,0,1-3.95-3.56l1.25-.72A7.75,7.75,0,0,0,24,41.64a24,24,0,0,0,5.22,1.44,21.6,21.6,0,0,1,5.2,1.52A19.3,19.3,0,0,1,36.78,46a12.39,12.39,0,0,1,1.89,1.49,14.53,14.53,0,0,1,1.53,2c.49.72,1,1.44,1.48,2.17l-1.24.72Z"/><path class="cls-19" d="M37.36,51.14a13.77,13.77,0,0,0-1.53-2,11.92,11.92,0,0,0-1.89-1.49,17.47,17.47,0,0,0-2.35-1.42,21.6,21.6,0,0,0-5.2-1.52,24,24,0,0,1-5.22-1.44,7.73,7.73,0,0,1-3.94-3.57L18.47,39a7.77,7.77,0,0,0,3.94,3.57A24.13,24.13,0,0,0,27.64,44a21.21,21.21,0,0,1,5.19,1.52A18.23,18.23,0,0,1,35.19,47a12.31,12.31,0,0,1,1.88,1.49,13.23,13.23,0,0,1,1.53,2l1.49,2.16-1.25.72Z"/><path class="cls-21" d="M39.54,52.46l-1.25-1.83a13.72,13.72,0,0,0-1.48-1.91A13.16,13.16,0,0,0,35,47.28a18.6,18.6,0,0,0-2.31-1.39,20.48,20.48,0,0,0-5.11-1.49l-.14,0a23.59,23.59,0,0,1-5.16-1.44,8.36,8.36,0,0,1-3.94-3.38l-.59.34A7.53,7.53,0,0,0,21.33,43a22.62,22.62,0,0,0,5,1.39l.14,0a21.16,21.16,0,0,1,5.29,1.55,18.69,18.69,0,0,1,2.4,1.45,13,13,0,0,1,1.94,1.53,14.24,14.24,0,0,1,1.57,2L39,52.8Z"/><path class="cls-21" d="M43.18,50.33,41.93,48.5a14.6,14.6,0,0,0-1.49-1.91,12.6,12.6,0,0,0-1.83-1.44,19,19,0,0,0-2.3-1.39,20.74,20.74,0,0,0-5.11-1.49l-.14,0A24,24,0,0,1,25.9,40.8,8.38,8.38,0,0,1,22,37.42l-.58.34A7.62,7.62,0,0,0,25,40.84a23.93,23.93,0,0,0,5,1.39l.15,0a22,22,0,0,1,5.28,1.55,18,18,0,0,1,2.4,1.45,13.23,13.23,0,0,1,2,1.53,14.24,14.24,0,0,1,1.57,2l1.28,1.87Z"/><path class="cls-22" d="M75,67.37a7.79,7.79,0,0,1-.28,1,1.34,1.34,0,0,1-.07.18,7.58,7.58,0,0,1-.93,1.67l0,0a6.13,6.13,0,0,1-.63.72h0A5.38,5.38,0,0,1,71.44,72l-.31.13a5.82,5.82,0,0,1-3.88.15,4.25,4.25,0,0,1-2-1.48,5.25,5.25,0,0,1-.6-1.12.83.83,0,0,1,0-.12,2,2,0,0,1-.11-.46,1,1,0,0,1,.07-.57.58.58,0,0,1,.17-.21l.15-.08c.49-.19,1.31.07,1.81,0A10.81,10.81,0,0,0,70,67.06a9.38,9.38,0,0,0,1.57-.9,7.28,7.28,0,0,0,1.51-1.67c.33-.49.59-1.47,1.22-1.29a.91.91,0,0,1,.18.08,1.07,1.07,0,0,1,.42.51A6,6,0,0,1,75,67.37Z"/><path class="cls-23" d="M74.11,63.56c.21.3-.26,1-.4,1.29a8.12,8.12,0,0,1-.83,1.24,7.82,7.82,0,0,1-2.64,2,8.18,8.18,0,0,1-1,.39c-.22.07-1.08.28-1.29.32s-.42.09-.63.11a6.18,6.18,0,0,1-1.29,0c-.2,0-.64-.16-.67-.42,0,0,0-.08.05-.09s.22,0,.32,0a2.32,2.32,0,0,0,.46,0,8.47,8.47,0,0,0,1.33-.16A7.85,7.85,0,0,0,68.83,68a8,8,0,0,0,1.49-.68c.26-.16.54-.31.79-.48a15.74,15.74,0,0,0,1.94-2.09c.12-.17.7-1.53,1-1.22Z"/><path class="cls-24" d="M75,67.37a7.79,7.79,0,0,1-.28,1,1.34,1.34,0,0,1-.07.18,7.58,7.58,0,0,1-.93,1.67l0,0c-.22.24-.4.5-.64.73A5.38,5.38,0,0,1,71.44,72l-.31.13a5.82,5.82,0,0,1-3.88.15,4.25,4.25,0,0,1-2-1.48,5.25,5.25,0,0,1-.6-1.12.83.83,0,0,1,0-.12,2,2,0,0,1-.11-.46,1.3,1.3,0,0,1,0-.44c0-.14.19-.32.32-.16s.12.43.19.6a3.8,3.8,0,0,0,2.47,2.14,8.47,8.47,0,0,0,1.73.3,4.82,4.82,0,0,0,1.69-.07A3.73,3.73,0,0,0,72.07,71a4.46,4.46,0,0,0,.76-.68A13.38,13.38,0,0,0,75,67.37Z"/><path class="cls-25" d="M74.64,64.42c0-.12-.1-.26-.22-.25s-.17.1-.21.19c-.32.66-.51,1.38-.83,2a3.3,3.3,0,0,1-.57.86,5.26,5.26,0,0,1-1.34,1,8.84,8.84,0,0,1-2.25.93,11.71,11.71,0,0,1-2.64.2c-.24,0-.47,0-.7,0h-.06c-.07,0,0,.13,0,.2a2,2,0,0,0,.7.68,6.77,6.77,0,0,0,.9.43,7,7,0,0,0,.81.28,6.6,6.6,0,0,0,1.72.15,4.27,4.27,0,0,0,1.62-.3,4.54,4.54,0,0,0,1.26-.88,5.31,5.31,0,0,0,.94-1.07,6.68,6.68,0,0,0,.78-2.22A4.83,4.83,0,0,0,74.64,64.42Z"/><path class="cls-22" d="M59.27,37A7.62,7.62,0,0,1,59,38a1,1,0,0,1-.07.18A7.65,7.65,0,0,1,58,39.85l0,0a5.49,5.49,0,0,1-.64.73h0a5.59,5.59,0,0,1-1.59,1.1l-.3.12a5.72,5.72,0,0,1-3.89.15,4.16,4.16,0,0,1-2-1.48,5.17,5.17,0,0,1-.6-1.11.56.56,0,0,1,0-.12,1.68,1.68,0,0,1-.11-.47,1,1,0,0,1,.06-.56A.74.74,0,0,1,49,38a.51.51,0,0,1,.16-.09c.49-.19,1.31.07,1.8,0a10.75,10.75,0,0,0,3.29-1.2,9.44,9.44,0,0,0,1.57-.91,7.28,7.28,0,0,0,1.51-1.67c.33-.49.59-1.47,1.21-1.28a.89.89,0,0,1,.19.07,1.13,1.13,0,0,1,.42.51A6.06,6.06,0,0,1,59.27,37Z"/><path class="cls-23" d="M58.42,33.22c.2.31-.27,1-.4,1.3a8.55,8.55,0,0,1-.83,1.23,7.89,7.89,0,0,1-3.68,2.43c-.23.07-1.08.28-1.29.32s-.42.08-.63.1a6.18,6.18,0,0,1-1.29,0c-.21,0-.64-.16-.67-.42,0,0,0-.08,0-.09s.22,0,.31,0a2.48,2.48,0,0,0,.47,0A8.6,8.6,0,0,0,51.79,38a8.89,8.89,0,0,0,1.35-.34A9.14,9.14,0,0,0,54.63,37c.26-.16.53-.3.79-.48a16.23,16.23,0,0,0,1.94-2.08c.12-.18.7-1.54,1-1.23Z"/><path class="cls-24" d="M59.27,37A7.62,7.62,0,0,1,59,38a1,1,0,0,1-.07.18A7.65,7.65,0,0,1,58,39.85l0,0c-.22.24-.4.5-.64.73a5.59,5.59,0,0,1-1.59,1.1l-.3.12a5.72,5.72,0,0,1-3.89.15,4.16,4.16,0,0,1-2-1.48,5.17,5.17,0,0,1-.6-1.11.56.56,0,0,1,0-.12,2.12,2.12,0,0,1-.11-.47,1,1,0,0,1,0-.43c0-.14.19-.32.32-.17a2.28,2.28,0,0,1,.18.61,3.86,3.86,0,0,0,2.48,2.13,8.35,8.35,0,0,0,1.73.3,4.75,4.75,0,0,0,1.68-.06,4,4,0,0,0,1.17-.48,4.52,4.52,0,0,0,.77-.67A13.61,13.61,0,0,0,59.27,37Z"/><path class="cls-25" d="M59,34.09c0-.12-.1-.26-.23-.26s-.16.11-.2.19c-.33.67-.51,1.39-.83,2a3,3,0,0,1-.58.86,5.31,5.31,0,0,1-1.33,1,8.73,8.73,0,0,1-2.26.92,11.62,11.62,0,0,1-2.64.2l-.7,0h-.06c-.07,0,0,.13,0,.19a2.1,2.1,0,0,0,.71.68,5.2,5.2,0,0,0,.89.43,8,8,0,0,0,.82.29,7.06,7.06,0,0,0,1.72.14,4.21,4.21,0,0,0,1.61-.29,4.45,4.45,0,0,0,1.27-.88,6,6,0,0,0,.94-1.08,6.55,6.55,0,0,0,.78-2.21A4.85,4.85,0,0,0,59,34.09Z"/><path class="cls-22" d="M101.23,48.28a7.79,7.79,0,0,1-.28,1,.87.87,0,0,1-.07.17,7.43,7.43,0,0,1-.93,1.68l0,0a6.13,6.13,0,0,1-.63.72h0a5.38,5.38,0,0,1-1.58,1.09l-.31.13a5.76,5.76,0,0,1-3.88.14,4.09,4.09,0,0,1-2-1.47,5.09,5.09,0,0,1-.61-1.12s0-.08,0-.12a2.89,2.89,0,0,1-.11-.47,1,1,0,0,1,.07-.56.51.51,0,0,1,.17-.21.44.44,0,0,1,.15-.08c.49-.19,1.31.07,1.81,0A11.08,11.08,0,0,0,96.24,48a10.14,10.14,0,0,0,1.57-.9,7.13,7.13,0,0,0,1.51-1.68c.33-.49.59-1.46,1.22-1.28a.91.91,0,0,1,.18.08,1,1,0,0,1,.42.51A6,6,0,0,1,101.23,48.28Z"/><path class="cls-23" d="M100.38,44.47c.21.3-.26,1-.4,1.29A7.89,7.89,0,0,1,99.15,47a7.67,7.67,0,0,1-2.64,2,8.24,8.24,0,0,1-1,.4c-.22.07-1.08.28-1.29.32s-.42.08-.63.1a6.18,6.18,0,0,1-1.29,0c-.2,0-.64-.17-.66-.42a.1.1,0,0,1,0-.1c.1,0,.22,0,.32.06a2.33,2.33,0,0,0,.46,0,8.46,8.46,0,0,0,1.33-.15,9.33,9.33,0,0,0,1.36-.34,7.64,7.64,0,0,0,1.48-.69c.27-.15.54-.3.79-.47a15.74,15.74,0,0,0,1.94-2.09c.12-.18.7-1.54,1-1.22Z"/><path class="cls-24" d="M101.23,48.28a7.79,7.79,0,0,1-.28,1,.87.87,0,0,1-.07.17,7.43,7.43,0,0,1-.93,1.68l0,0c-.22.24-.4.5-.64.73a5.38,5.38,0,0,1-1.58,1.09l-.31.13a5.76,5.76,0,0,1-3.88.14,4.09,4.09,0,0,1-2-1.47,5.09,5.09,0,0,1-.61-1.12s0-.08,0-.12a2.89,2.89,0,0,1-.11-.47,1.24,1.24,0,0,1,0-.43c0-.14.19-.32.33-.16s.11.43.18.6a3.76,3.76,0,0,0,2.47,2.13,7.86,7.86,0,0,0,1.73.31,5.07,5.07,0,0,0,1.69-.07,3.75,3.75,0,0,0,1.17-.48,4,4,0,0,0,.76-.67A13.61,13.61,0,0,0,101.23,48.28Z"/><path class="cls-25" d="M100.91,45.33c0-.12-.1-.26-.22-.25s-.16.1-.21.19c-.32.66-.51,1.38-.83,2a3.35,3.35,0,0,1-.57.87,5.8,5.8,0,0,1-1.34,1,9.21,9.21,0,0,1-2.25.93,11.71,11.71,0,0,1-2.64.2c-.24,0-.47,0-.7,0h-.06c-.07,0,0,.13,0,.19a2.13,2.13,0,0,0,.71.69,5.68,5.68,0,0,0,.9.42,5.57,5.57,0,0,0,.81.29,7.06,7.06,0,0,0,1.72.14,4.26,4.26,0,0,0,1.62-.29,4.4,4.4,0,0,0,1.26-.88,5.31,5.31,0,0,0,.94-1.07,6.68,6.68,0,0,0,.78-2.22A4.84,4.84,0,0,0,100.91,45.33Z"/><path class="cls-22" d="M84.37,12.15a7.82,7.82,0,0,1-.27,1,1.34,1.34,0,0,0-.07.18A7.23,7.23,0,0,1,83.09,15l0,0a5.42,5.42,0,0,1-.63.72h0a5.56,5.56,0,0,1-1.59,1.09l-.31.13a5.75,5.75,0,0,1-3.88.15,4.17,4.17,0,0,1-2-1.48,4.32,4.32,0,0,1-.6-1.12.73.73,0,0,1,0-.12,2.78,2.78,0,0,1-.11-.46,1.17,1.17,0,0,1,.07-.57.58.58,0,0,1,.17-.21l.15-.08c.49-.19,1.31.07,1.81,0a10.72,10.72,0,0,0,3.28-1.21,8.41,8.41,0,0,0,1.57-.9,6.85,6.85,0,0,0,1.51-1.67c.34-.49.6-1.47,1.22-1.29a.71.71,0,0,1,.18.08,1.09,1.09,0,0,1,.43.51A6,6,0,0,1,84.37,12.15Z"/><path class="cls-23" d="M83.53,8.34c.2.3-.27,1-.41,1.29a6.88,6.88,0,0,1-.83,1.24,7.73,7.73,0,0,1-2.64,2,9.15,9.15,0,0,1-1,.4c-.23.06-1.08.27-1.29.31s-.42.09-.64.11a6.09,6.09,0,0,1-1.28,0c-.21,0-.65-.16-.67-.42,0,0,0-.08,0-.09s.23,0,.32.05a2.37,2.37,0,0,0,.46,0,8.6,8.6,0,0,0,1.34-.16,7,7,0,0,0,1.35-.34,7.93,7.93,0,0,0,1.48-.68c.27-.16.54-.31.8-.48a16.44,16.44,0,0,0,1.94-2.09c.12-.17.7-1.53,1-1.22C83.51,8.31,83.52,8.33,83.53,8.34Z"/><path class="cls-24" d="M84.37,12.15a7.82,7.82,0,0,1-.27,1,1.34,1.34,0,0,0-.07.18A7.23,7.23,0,0,1,83.09,15l0,0c-.21.24-.4.5-.63.73a5.56,5.56,0,0,1-1.59,1.09l-.31.13a5.75,5.75,0,0,1-3.88.15,4.17,4.17,0,0,1-2-1.48,4.32,4.32,0,0,1-.6-1.12.73.73,0,0,1,0-.12,2.78,2.78,0,0,1-.11-.46,1.3,1.3,0,0,1,0-.44c0-.14.19-.32.32-.16a2.32,2.32,0,0,1,.18.6,3.83,3.83,0,0,0,2.47,2.14,8.45,8.45,0,0,0,1.74.3,4.75,4.75,0,0,0,1.68-.07,3.73,3.73,0,0,0,1.17-.47,4.45,4.45,0,0,0,.76-.67A13,13,0,0,0,84.37,12.15Z"/><path class="cls-25" d="M84.05,9.2c0-.12-.1-.26-.22-.25s-.16.1-.2.19c-.33.67-.52,1.38-.83,2a3.34,3.34,0,0,1-.58.86,5.21,5.21,0,0,1-1.33.95,8.56,8.56,0,0,1-2.26.93,11.67,11.67,0,0,1-2.64.2c-.24,0-.46,0-.7,0h-.06c-.07,0,0,.13,0,.2a2.1,2.1,0,0,0,.71.68,6.65,6.65,0,0,0,.89.43,6.1,6.1,0,0,0,.82.28,6.56,6.56,0,0,0,1.71.15,3.8,3.8,0,0,0,2.89-1.18,5.64,5.64,0,0,0,.94-1.07A6.91,6.91,0,0,0,84,11.37,4.83,4.83,0,0,0,84.05,9.2Z"/><path class="cls-22" d="M132.65,30.22a6.37,6.37,0,0,1-.28,1l-.06.18a7.62,7.62,0,0,1-.94,1.67l0,0a6.13,6.13,0,0,1-.63.72h0a5.38,5.38,0,0,1-1.58,1.09l-.31.13a5.75,5.75,0,0,1-3.88.15,4.17,4.17,0,0,1-2-1.48,4.87,4.87,0,0,1-.61-1.12.83.83,0,0,1,0-.12,2.78,2.78,0,0,1-.11-.46,1,1,0,0,1,.07-.57.58.58,0,0,1,.17-.21l.15-.08c.49-.19,1.31.07,1.81,0a10.72,10.72,0,0,0,3.28-1.21,9.38,9.38,0,0,0,1.57-.9,7.06,7.06,0,0,0,1.51-1.67c.34-.49.59-1.47,1.22-1.29a.91.91,0,0,1,.18.08,1.07,1.07,0,0,1,.42.51A6,6,0,0,1,132.65,30.22Z"/><path class="cls-23" d="M131.8,26.41c.21.3-.26,1-.4,1.29a6.88,6.88,0,0,1-.83,1.24,7.82,7.82,0,0,1-2.64,2,7.65,7.65,0,0,1-1,.39c-.22.07-1.08.28-1.29.32s-.42.09-.63.11a6.08,6.08,0,0,1-1.28,0c-.21,0-.65-.17-.67-.42a.08.08,0,0,1,0-.09c.1-.05.22,0,.32,0a2.37,2.37,0,0,0,.46,0,8.47,8.47,0,0,0,1.33-.16,8,8,0,0,0,1.36-.34,8.24,8.24,0,0,0,1.48-.68c.27-.16.54-.31.79-.48a15.74,15.74,0,0,0,1.94-2.09c.12-.17.7-1.53,1-1.22Z"/><path class="cls-24" d="M132.65,30.22a6.37,6.37,0,0,1-.28,1l-.06.18a7.62,7.62,0,0,1-.94,1.67l0,0c-.22.24-.4.5-.64.73a5.38,5.38,0,0,1-1.58,1.09l-.31.13a5.75,5.75,0,0,1-3.88.15,4.17,4.17,0,0,1-2-1.48,4.87,4.87,0,0,1-.61-1.12.83.83,0,0,1,0-.12,2.78,2.78,0,0,1-.11-.46,1.3,1.3,0,0,1,0-.44c0-.14.2-.32.33-.16s.11.43.18.6a3.83,3.83,0,0,0,2.47,2.14,8.47,8.47,0,0,0,1.73.3,4.81,4.81,0,0,0,1.69-.07,3.73,3.73,0,0,0,1.17-.47,4.46,4.46,0,0,0,.76-.68A13.38,13.38,0,0,0,132.65,30.22Z"/><path class="cls-25" d="M132.33,27.27c0-.12-.1-.26-.22-.25s-.16.1-.21.19c-.32.66-.51,1.38-.83,2.05a3.3,3.3,0,0,1-.57.86,5.21,5.21,0,0,1-1.33.95,9.06,9.06,0,0,1-2.26.93,11.67,11.67,0,0,1-2.64.2c-.24,0-.47,0-.7,0h-.06c-.07,0-.05.13,0,.2a2.07,2.07,0,0,0,.7.68,6.77,6.77,0,0,0,.9.43,7.92,7.92,0,0,0,.82.28,7,7,0,0,0,1.71.15,4.27,4.27,0,0,0,1.62-.3,4.45,4.45,0,0,0,1.27-.88,5.59,5.59,0,0,0,.93-1.07,6.46,6.46,0,0,0,.78-2.22A4.83,4.83,0,0,0,132.33,27.27Z"/><path class="cls-22" d="M28.91,49.22a6.23,6.23,0,0,1-.28,1l-.06.18A7.3,7.3,0,0,1,27.63,52l0,0a6.22,6.22,0,0,1-.63.73h0a5.41,5.41,0,0,1-1.58,1.1l-.31.12a5.69,5.69,0,0,1-3.88.15,4.17,4.17,0,0,1-2-1.48,4.43,4.43,0,0,1-.6-1.11l-.05-.12a2.89,2.89,0,0,1-.11-.47,1.13,1.13,0,0,1,.07-.56.51.51,0,0,1,.17-.21.6.6,0,0,1,.15-.09c.49-.19,1.31.07,1.81,0a10.46,10.46,0,0,0,3.28-1.21,8.41,8.41,0,0,0,1.57-.9A6.85,6.85,0,0,0,27,46.33c.34-.49.6-1.47,1.22-1.28a.67.67,0,0,1,.18.07,1.09,1.09,0,0,1,.43.51A6,6,0,0,1,28.91,49.22Z"/><path class="cls-23" d="M28.07,45.4c.2.31-.27,1-.41,1.29a6.88,6.88,0,0,1-.83,1.24,7.49,7.49,0,0,1-2.64,2,7.7,7.7,0,0,1-1,.4c-.22.07-1.07.28-1.29.32a6.37,6.37,0,0,1-.63.1,6.09,6.09,0,0,1-1.28,0c-.21,0-.65-.16-.67-.42,0,0,0-.08,0-.09s.23,0,.32,0a2.37,2.37,0,0,0,.46,0,8.59,8.59,0,0,0,1.34-.15,8.89,8.89,0,0,0,1.35-.34,8.67,8.67,0,0,0,1.48-.69c.27-.16.54-.3.8-.48A17.8,17.8,0,0,0,27,46.59c.12-.18.69-1.54,1-1.23Z"/><path class="cls-24" d="M28.91,49.22a6.23,6.23,0,0,1-.28,1l-.06.18A7.3,7.3,0,0,1,27.63,52l0,0c-.21.24-.4.5-.64.73a5.41,5.41,0,0,1-1.58,1.1l-.31.12a5.69,5.69,0,0,1-3.88.15,4.17,4.17,0,0,1-2-1.48,4.43,4.43,0,0,1-.6-1.11l-.05-.12a2.89,2.89,0,0,1-.11-.47,1.25,1.25,0,0,1,0-.43c0-.15.19-.33.32-.17A2.32,2.32,0,0,1,19,51a3.83,3.83,0,0,0,2.47,2.14,8.45,8.45,0,0,0,1.74.3,4.75,4.75,0,0,0,1.68-.07A3.73,3.73,0,0,0,26,52.87a4.45,4.45,0,0,0,.76-.67A13.61,13.61,0,0,0,28.91,49.22Z"/><path class="cls-25" d="M28.59,46.27c0-.12-.1-.26-.22-.26s-.16.11-.2.19c-.33.67-.52,1.39-.83,2a3.34,3.34,0,0,1-.58.86,5.5,5.5,0,0,1-1.33,1,8.88,8.88,0,0,1-2.26.92,11.67,11.67,0,0,1-2.64.2c-.24,0-.46,0-.7,0h-.06c-.07,0-.05.14,0,.2a2,2,0,0,0,.71.68,5.62,5.62,0,0,0,.89.43,8,8,0,0,0,.82.29,7,7,0,0,0,1.71.14,4.26,4.26,0,0,0,1.62-.29,4.45,4.45,0,0,0,1.27-.88,6,6,0,0,0,.94-1.08,6.77,6.77,0,0,0,.78-2.21A4.84,4.84,0,0,0,28.59,46.27Z"/><path class="cls-22" d="M128.32,59.53a7.79,7.79,0,0,1-.28,1,.87.87,0,0,1-.07.17,7.43,7.43,0,0,1-.93,1.68l0,0a6.13,6.13,0,0,1-.63.72h0a5.38,5.38,0,0,1-1.58,1.09l-.31.13a5.76,5.76,0,0,1-3.88.14,4.09,4.09,0,0,1-2-1.47,5.09,5.09,0,0,1-.61-1.12l0-.12a2.12,2.12,0,0,1-.11-.47,1,1,0,0,1,.07-.56.51.51,0,0,1,.17-.21.44.44,0,0,1,.15-.08c.49-.19,1.31.07,1.81,0a11.08,11.08,0,0,0,3.28-1.21,10.14,10.14,0,0,0,1.57-.9,7.13,7.13,0,0,0,1.51-1.68c.33-.49.59-1.46,1.22-1.28a.91.91,0,0,1,.18.08,1,1,0,0,1,.42.51A6,6,0,0,1,128.32,59.53Z"/><path class="cls-23" d="M127.47,55.72c.21.3-.26,1-.4,1.29a7.89,7.89,0,0,1-.83,1.24,7.67,7.67,0,0,1-2.64,2,8.24,8.24,0,0,1-1,.4c-.22.07-1.08.28-1.29.32s-.42.08-.63.1a6.18,6.18,0,0,1-1.29,0c-.2,0-.64-.17-.66-.42a.1.1,0,0,1,0-.1c.1,0,.22,0,.32.06a2.33,2.33,0,0,0,.46,0,8.46,8.46,0,0,0,1.33-.15,8.89,8.89,0,0,0,1.35-.34,7.46,7.46,0,0,0,1.49-.69c.26-.15.54-.3.79-.47a15.74,15.74,0,0,0,1.94-2.09c.12-.18.7-1.54,1-1.22Z"/><path class="cls-24" d="M128.32,59.53a7.79,7.79,0,0,1-.28,1,.87.87,0,0,1-.07.17,7.43,7.43,0,0,1-.93,1.68l0,0c-.22.24-.4.5-.64.73a5.38,5.38,0,0,1-1.58,1.09l-.31.13a5.76,5.76,0,0,1-3.88.14,4.09,4.09,0,0,1-2-1.47,5.09,5.09,0,0,1-.61-1.12l0-.12a2.12,2.12,0,0,1-.11-.47,1.24,1.24,0,0,1,0-.43c0-.14.19-.32.33-.16s.11.43.18.6a3.76,3.76,0,0,0,2.47,2.13,7.86,7.86,0,0,0,1.73.31,5.07,5.07,0,0,0,1.69-.07,3.75,3.75,0,0,0,1.17-.48,4,4,0,0,0,.76-.67A13.61,13.61,0,0,0,128.32,59.53Z"/><path class="cls-25" d="M128,56.58c0-.12-.1-.26-.22-.25s-.16.1-.21.19c-.32.66-.51,1.38-.83,2a3.35,3.35,0,0,1-.57.87,5.8,5.8,0,0,1-1.34,1,9.21,9.21,0,0,1-2.25.93,11.71,11.71,0,0,1-2.64.2c-.24,0-.47,0-.7,0h-.06c-.07,0-.05.13,0,.19a2,2,0,0,0,.7.69,5.68,5.68,0,0,0,.9.42,5.57,5.57,0,0,0,.81.29,7.06,7.06,0,0,0,1.72.14A3.71,3.71,0,0,0,126.18,62a5.11,5.11,0,0,0,.94-1.08,6.55,6.55,0,0,0,.78-2.21A4.84,4.84,0,0,0,128,56.58Z"/><path class="cls-26" d="M92.22,57c-.25-.46-.59-2.17-1.15-2.56-2.46-1.73-7-1.82-10.15-.36a6.54,6.54,0,0,0-1.41.88,11.65,11.65,0,0,0-9.39-.11,4.84,4.84,0,0,0-2.61,2.82l-.14-.13-.08,1.65v.16h0a3.48,3.48,0,0,0,1.5,3,9.86,9.86,0,0,0,5.73,1.44l0,.95h0A3,3,0,0,0,76,67.38c2.45,1.73,7,2,10.14.49,1.79-.83,2.74-2,2.77-3.22l.1-2-.46-.18-.06.23A3.6,3.6,0,0,0,88,62.1l.48.09-.13.29A8.66,8.66,0,0,0,89.73,62c1.7-.79,2.64-1.91,2.76-3h0V58.9s.12-2.35.12-2.35ZM89.2,60a7.53,7.53,0,0,1-1.06.24l-.54.36-.94-.34-.11,2.12.56.55c1.5,1.47.9,1.88-1.51,3C82.89,67.14,79,67,76.85,65.47c-1.22-.86-1.7-.48-1.16-1.58l.38-.75L76.18,61l-.66.47-.22.62,0,.57-.48-1.35a8.64,8.64,0,0,1-5.13-1.24c-2.12-1.49-1.73-1.85,1-3.11a10.06,10.06,0,0,1,8.1,0l.82.42.66-.53a5.82,5.82,0,0,1,1.22-.74c2.71-1.26,6.63-1.07,8.75.42S91.91,58.7,89.2,60Z"/><path class="cls-27" d="M88.08,60.48a11.07,11.07,0,0,0,1.76-.61c3.15-1.46,3.7-4,1.25-5.78s-7-1.94-10.15-.48a7.22,7.22,0,0,0-1.41.86,11.68,11.68,0,0,0-9.38,0c-3.15,1.46-3.71,4-1.25,5.77a9.92,9.92,0,0,0,5.95,1.44c-.61,1.23-.24,2.58,1.24,3.62,2.46,1.73,7,1.95,10.15.49C89.09,64.42,89.81,62.17,88.08,60.48ZM76.87,64.9a2.4,2.4,0,0,1-1.07-3.13l.38-.75-1.36.06a8.66,8.66,0,0,1-5.14-1.24c-2.12-1.49-1.63-3.72,1.07-5a10.05,10.05,0,0,1,8.1,0l.83.42.66-.53A5.5,5.5,0,0,1,81.55,54c2.71-1.26,6.64-1.07,8.76.42s1.63,3.72-1.08,5A8.08,8.08,0,0,1,87.7,60l-1,.27.55.54c1.51,1.47.83,3.43-1.59,4.55C82.92,66.58,79,66.39,76.87,64.9Z"/><path class="cls-26" d="M97.31,35.92c-.25-.46-.58-2.16-1.15-2.56-2.45-1.73-7-1.81-10.15-.35a6.39,6.39,0,0,0-1.41.87,11.67,11.67,0,0,0-9.38-.11,4.8,4.8,0,0,0-2.61,2.82l-.14-.13-.08,1.65a.2.2,0,0,0,0,.07v.09h0a3.48,3.48,0,0,0,1.51,2.95,9.81,9.81,0,0,0,5.72,1.44l0,1h0a3,3,0,0,0,1.52,2.66c2.46,1.73,7,1.95,10.14.49,1.8-.83,2.75-2,2.78-3.22l.1-2-.47-.18-.06.23a3.6,3.6,0,0,0-.48-.58l.48.09-.13.3a10.4,10.4,0,0,0,1.39-.5c1.69-.79,2.63-1.9,2.76-3h0V37.8s.13-2.35.13-2.35Zm-3,2.94a7.87,7.87,0,0,1-1.06.24l-.55.36-.94-.33-.1,2.12.55.54c1.51,1.48.9,1.88-1.51,3C88,46,84.06,45.86,81.94,44.37c-1.22-.86-1.7-.48-1.15-1.57l.37-.76.11-2.12-.66.47L80.4,41l0,.57-.47-1.35A8.66,8.66,0,0,1,74.76,39c-2.12-1.49-1.72-1.85,1-3.11a10,10,0,0,1,8.1,0l.82.42.67-.54a5.5,5.5,0,0,1,1.21-.74c2.71-1.26,6.64-1.07,8.75.42S97,37.6,94.3,38.86Z"/><path class="cls-27" d="M93.17,39.38a10.73,10.73,0,0,0,1.76-.61c3.15-1.46,3.71-4,1.25-5.77s-7-1.95-10.15-.49a7.13,7.13,0,0,0-1.4.86,11.7,11.7,0,0,0-9.39,0c-3.15,1.46-3.7,4.05-1.25,5.77a9.94,9.94,0,0,0,6,1.44c-.61,1.23-.24,2.58,1.25,3.62,2.45,1.73,7,2,10.14.49C94.19,43.32,94.9,41.07,93.17,39.38ZM82,43.8a2.41,2.41,0,0,1-1.08-3.12l.38-.76L79.91,40a8.68,8.68,0,0,1-5.14-1.24c-2.12-1.49-1.63-3.72,1.08-5a10,10,0,0,1,8.1,0l.82.42.66-.54a6,6,0,0,1,1.21-.74c2.72-1.26,6.64-1.07,8.76.42s1.63,3.72-1.08,5a7.74,7.74,0,0,1-1.52.52l-1,.27.56.54c1.5,1.48.82,3.43-1.59,4.55C88,45.48,84.08,45.29,82,43.8Z"/><path class="cls-26" d="M37.64,32.59c-.25-.46-.58-2.17-1.15-2.57-2.45-1.72-7-1.81-10.15-.35a7.24,7.24,0,0,0-1.41.87,11.67,11.67,0,0,0-9.38-.1,4.77,4.77,0,0,0-2.61,2.82l-.14-.14-.08,1.66a.17.17,0,0,0,0,.07v.09h0a3.48,3.48,0,0,0,1.51,3,9.81,9.81,0,0,0,5.72,1.44l-.05,1h0A3,3,0,0,0,21.41,43c2.46,1.73,7,1.95,10.14.49,1.8-.83,2.74-2,2.78-3.22l.1-2L34,38l-.06.24a3.6,3.6,0,0,0-.48-.58l.48.09-.13.29a9.14,9.14,0,0,0,1.39-.49c1.69-.79,2.63-1.91,2.76-3h0v-.06c0-.06.13-2.35.13-2.35Zm-3,2.93a7.69,7.69,0,0,1-1,.25l-.55.36-.94-.34L32,37.91l.55.55c1.51,1.47.9,1.87-1.51,3-2.71,1.26-6.63,1.07-8.75-.42-1.22-.85-1.7-.47-1.15-1.57l.37-.75.11-2.12-.66.47-.21.62,0,.57-.47-1.35a8.66,8.66,0,0,1-5.14-1.24c-2.12-1.49-1.72-1.85,1-3.11a10.05,10.05,0,0,1,8.1,0L25,33l.67-.53a5.5,5.5,0,0,1,1.21-.74c2.71-1.26,6.64-1.07,8.75.41S37.34,34.27,34.62,35.52Z"/><path class="cls-27" d="M33.5,36a9.85,9.85,0,0,0,1.76-.6c3.15-1.46,3.71-4,1.25-5.78s-7-1.94-10.15-.48A6.68,6.68,0,0,0,25,30a11.7,11.7,0,0,0-9.39,0c-3.15,1.46-3.71,4-1.25,5.77a10,10,0,0,0,5.95,1.44c-.61,1.23-.24,2.58,1.25,3.62,2.45,1.73,7,2,10.14.49C34.52,40,35.23,37.74,33.5,36ZM22.3,40.47a2.41,2.41,0,0,1-1.08-3.13l.38-.75-1.36.06a8.68,8.68,0,0,1-5.14-1.24c-2.12-1.49-1.63-3.72,1.08-5a10.06,10.06,0,0,1,8.1,0l.82.42.66-.53A6,6,0,0,1,27,29.61c2.71-1.26,6.64-1.07,8.76.41s1.63,3.73-1.08,5a8.73,8.73,0,0,1-1.52.52l-1.05.26.56.55c1.5,1.47.82,3.43-1.59,4.55C28.34,42.14,24.41,42,22.3,40.47Z"/><path class="cls-26" d="M80.38,18.63c-.25-.46-.59-2.17-1.15-2.57-2.46-1.72-7-1.81-10.16-.35a7.14,7.14,0,0,0-1.4.87,11.69,11.69,0,0,0-9.39-.1,4.81,4.81,0,0,0-2.61,2.82l-.14-.14-.08,1.66V21h0A3.48,3.48,0,0,0,57,23.93a9.84,9.84,0,0,0,5.73,1.44l0,.95h0A3,3,0,0,0,64.15,29c2.45,1.73,7,1.94,10.14.49,1.79-.84,2.74-2,2.77-3.22l.1-2-.46-.18-.06.24a3.69,3.69,0,0,0-.48-.58l.48.08-.13.3a7.8,7.8,0,0,0,1.38-.5c1.7-.78,2.64-1.9,2.76-3h0v-.06c0-.06.12-2.35.12-2.35Zm-3,2.93a7.5,7.5,0,0,1-1.06.25l-.54.36-.94-.34L74.71,24l.56.55c1.5,1.47.9,1.87-1.51,3-2.71,1.26-6.64,1.07-8.76-.42-1.22-.85-1.69-.47-1.15-1.57l.38-.75.11-2.12-.66.47-.22.62,0,.57L63,22.94a8.77,8.77,0,0,1-5.14-1.24c-2.11-1.49-1.72-1.85,1-3.11a10.06,10.06,0,0,1,8.1,0l.82.42.66-.53a5.82,5.82,0,0,1,1.22-.74c2.71-1.26,6.63-1.08,8.75.41S80.07,20.31,77.36,21.56Z"/><path class="cls-27" d="M76.23,22.08a10,10,0,0,0,1.77-.6c3.15-1.46,3.7-4.05,1.24-5.78s-7-1.94-10.14-.48a6.37,6.37,0,0,0-1.41.86,11.7,11.7,0,0,0-9.39,0c-3.14,1.46-3.7,4-1.24,5.77A10,10,0,0,0,63,23.25c-.62,1.23-.24,2.58,1.24,3.62,2.46,1.73,7,1.95,10.14.49C77.25,26,78,23.78,76.23,22.08ZM65,26.51A2.4,2.4,0,0,1,64,23.38l.38-.75L63,22.69a8.64,8.64,0,0,1-5.13-1.24c-2.12-1.49-1.63-3.72,1.07-5a10,10,0,0,1,8.1,0l.82.42.67-.53a5.5,5.5,0,0,1,1.21-.74c2.71-1.26,6.64-1.07,8.75.41s1.64,3.73-1.07,5a8.85,8.85,0,0,1-1.53.52l-1,.26.55.55c1.51,1.47.83,3.43-1.59,4.55C71.08,28.18,67.15,28,65,26.51Z"/><path class="cls-28" d="M71.93,41.14c-.27-.51-.64-2.38-1.26-2.82-2.7-1.89-7.69-2-11.14-.38a7.59,7.59,0,0,0-1.55,1,12.8,12.8,0,0,0-10.3-.12,5.26,5.26,0,0,0-2.86,3.1l-.16-.15-.09,1.82v.18h0A3.8,3.8,0,0,0,46.22,47a10.73,10.73,0,0,0,6.28,1.58l0,1h0a3.3,3.3,0,0,0,1.67,2.93c2.69,1.89,7.68,2.13,11.13.53,2-.91,3-2.22,3-3.53l.11-2.22-.51-.2-.07.26a3.75,3.75,0,0,0-.52-.64l.53.1-.15.32a10.09,10.09,0,0,0,1.52-.54c1.87-.87,2.9-2.09,3-3.33h0V43.2c0-.06.14-2.58.14-2.58Zm-3.31,3.22a11.66,11.66,0,0,1-1.16.27l-.6.39-1-.37L65.71,47l.61.6c1.66,1.62,1,2.06-1.66,3.29-3,1.37-7.28,1.17-9.6-.46-1.34-.95-1.86-.53-1.26-1.73l.41-.83.11-2.32L53.6,46l-.23.69,0,.62-.52-1.49a9.52,9.52,0,0,1-5.64-1.36c-2.32-1.63-1.89-2,1.08-3.41a11,11,0,0,1,8.89,0l.9.46.73-.58a6.23,6.23,0,0,1,1.33-.82c3-1.38,7.28-1.18,9.61.46S71.6,43,68.62,44.36Z"/><path class="cls-29" d="M67.38,44.93a10.82,10.82,0,0,0,1.94-.67c3.45-1.6,4.07-4.44,1.37-6.34S63,35.79,59.55,37.39a7.35,7.35,0,0,0-1.54,1,12.83,12.83,0,0,0-10.31,0c-3.45,1.6-4.06,4.43-1.37,6.33a10.93,10.93,0,0,0,6.54,1.57c-.68,1.36-.26,2.84,1.36,4,2.7,1.9,7.68,2.14,11.13.54C68.5,49.26,69.29,46.79,67.38,44.93ZM55.09,49.78c-1.34-.94-1.78-2.22-1.18-3.43l.41-.82-1.49.06a9.52,9.52,0,0,1-5.64-1.36c-2.32-1.63-1.79-4.09,1.18-5.46a11,11,0,0,1,8.89,0l.9.46.73-.58a6.66,6.66,0,0,1,1.33-.82c3-1.38,7.29-1.17,9.61.46s1.79,4.09-1.18,5.47a9.34,9.34,0,0,1-1.67.57l-1.15.29.61.6c1.65,1.62.9,3.77-1.75,5C61.72,51.62,57.41,51.42,55.09,49.78Z"/><path class="cls-28" d="M117.18,16.85c-.27-.51-.64-2.38-1.26-2.82-2.7-1.89-7.69-2-11.14-.38a7.59,7.59,0,0,0-1.55.95,12.8,12.8,0,0,0-10.3-.11,5.26,5.26,0,0,0-2.86,3.1l-.16-.16-.09,1.82v.18h0a3.8,3.8,0,0,0,1.65,3.24,10.88,10.88,0,0,0,6.28,1.58l0,1h0a3.3,3.3,0,0,0,1.67,2.93c2.69,1.9,7.68,2.13,11.13.53,2-.91,3-2.22,3-3.53l.11-2.22-.51-.2-.07.26a3.75,3.75,0,0,0-.52-.64l.53.1-.15.32a10.09,10.09,0,0,0,1.52-.54c1.87-.87,2.9-2.09,3-3.33h0v-.06c0-.06.14-2.58.14-2.58Zm-3.31,3.22a9.41,9.41,0,0,1-1.16.27l-.6.39-1-.37L111,22.69l.61.6c1.66,1.62,1,2.06-1.66,3.29-3,1.38-7.28,1.17-9.6-.46-1.34-.94-1.86-.52-1.26-1.73l.41-.82.11-2.33-.72.51-.23.69,0,.62-.52-1.48a9.45,9.45,0,0,1-5.64-1.37c-2.32-1.63-1.89-2,1.08-3.4a11,11,0,0,1,8.89,0l.9.46.73-.58a6.23,6.23,0,0,1,1.33-.82c3-1.38,7.28-1.17,9.61.46S116.85,18.69,113.87,20.07Z"/><path class="cls-29" d="M112.63,20.64a10.82,10.82,0,0,0,1.94-.67c3.45-1.6,4.07-4.44,1.37-6.33s-7.68-2.14-11.14-.54a7.35,7.35,0,0,0-1.54,1A12.83,12.83,0,0,0,93,14c-3.45,1.6-4.06,4.43-1.37,6.33a11,11,0,0,0,6.54,1.58c-.68,1.35-.26,2.83,1.36,4,2.7,1.9,7.68,2.14,11.13.54C113.75,25,114.54,22.5,112.63,20.64ZM100.34,25.5c-1.34-.95-1.78-2.23-1.18-3.43l.41-.83-1.49.07a9.59,9.59,0,0,1-5.64-1.37c-2.32-1.63-1.79-4.08,1.18-5.46a11,11,0,0,1,8.89,0l.9.46.73-.59a6.66,6.66,0,0,1,1.33-.82c3-1.38,7.29-1.17,9.61.46s1.79,4.09-1.18,5.47a9.34,9.34,0,0,1-1.67.58l-1.15.28.61.6c1.65,1.62.9,3.77-1.75,5C107,27.34,102.66,27.13,100.34,25.5Z"/><path class="cls-28" d="M141.74,37c-.27-.51-.64-2.37-1.26-2.81-2.7-1.9-7.69-2-11.14-.39a7.19,7.19,0,0,0-1.55,1,12.8,12.8,0,0,0-10.3-.12,5.26,5.26,0,0,0-2.86,3.1l-.16-.15-.09,1.82v.17h0A3.8,3.8,0,0,0,116,42.83a10.73,10.73,0,0,0,6.28,1.58l0,1.05h0a3.32,3.32,0,0,0,1.67,2.93c2.69,1.89,7.68,2.13,11.13.53,2-.91,3-2.23,3-3.54l.11-2.22L137.7,43l-.07.26a3.4,3.4,0,0,0-.52-.64l.53.09-.15.33a10.11,10.11,0,0,0,1.52-.55c1.87-.86,2.9-2.08,3-3.33h0v-.06c0-.07.14-2.58.14-2.58Zm-3.31,3.22a9.38,9.38,0,0,1-1.16.28l-.6.39-1-.37-.12,2.32.61.6c1.66,1.62,1,2.06-1.66,3.29-3,1.38-7.28,1.18-9.6-.46-1.34-.94-1.86-.52-1.26-1.72l.41-.83.11-2.32-.72.51-.23.68,0,.63-.52-1.49A9.52,9.52,0,0,1,117,40.38c-2.32-1.63-1.89-2,1.08-3.41A11,11,0,0,1,127,37l.9.46.73-.59a6.2,6.2,0,0,1,1.33-.81c3-1.38,7.28-1.18,9.61.45S141.41,38.85,138.43,40.23Z"/><path class="cls-29" d="M137.19,40.8a10.07,10.07,0,0,0,1.94-.66c3.45-1.61,4.07-4.44,1.37-6.34s-7.68-2.13-11.14-.53a7.35,7.35,0,0,0-1.54.95,12.83,12.83,0,0,0-10.31,0c-3.45,1.6-4.06,4.44-1.36,6.33a10.9,10.9,0,0,0,6.53,1.58c-.68,1.35-.27,2.83,1.36,4,2.7,1.89,7.68,2.13,11.13.53C138.31,45.14,139.1,42.67,137.19,40.8ZM124.9,45.66c-1.34-.94-1.78-2.23-1.18-3.43l.41-.82-1.49.06A9.52,9.52,0,0,1,117,40.11c-2.32-1.64-1.79-4.09,1.18-5.47a11,11,0,0,1,8.89,0l.91.46.72-.58a6.23,6.23,0,0,1,1.33-.82c3-1.38,7.29-1.18,9.61.46s1.79,4.09-1.18,5.47a9.34,9.34,0,0,1-1.67.57l-1.15.29.61.6c1.65,1.62.9,3.76-1.75,5C131.53,47.5,127.22,47.3,124.9,45.66Z"/><path class="cls-30" d="M58.73,21.07c.08,1.18.2,2.35.39,3.51a16.64,16.64,0,0,0,1.71,5c.18.34.37.69.58,1a22.14,22.14,0,0,0,4.39,5.16,51.16,51.16,0,0,0,14.45,8.62c3,1.25,6.37,2.75,9.64,3.11,6.12.66,8.32-6.25,6.66-10.48A4.88,4.88,0,0,0,94.2,34.3c-4.94-2.39-13.76.66-22.66-3.1-5.33-2.24-8.9-6.79-12-11.55-.1-.16-.3-.65-.51-.7C58.51,18.82,58.69,20.68,58.73,21.07Z"/><path class="cls-31" d="M61.41,30.61a22.14,22.14,0,0,0,4.39,5.16,51.16,51.16,0,0,0,14.45,8.62c3,1.25,6.37,2.75,9.64,3.11,6.12.66,8.32-6.25,6.66-10.48h0a2.9,2.9,0,0,0-3.76,1.18,6,6,0,0,0-.47,4.24c.21,1.08.48,2.39-.35,3.1a2.5,2.5,0,0,1-1.28.48c-3.52.5-7-1-10.18-2.56C73.58,40.08,66.72,36.08,61.41,30.61Z"/><path class="cls-32" d="M93,41.36l.13.09c.2.12.42.2.62.34A1.56,1.56,0,0,1,94.36,43a.06.06,0,0,1,0,0,4.46,4.46,0,0,1-.3,1.43.9.9,0,0,0,0,.56.08.08,0,0,0,0,0,.28.28,0,0,0,.06.09.43.43,0,0,0,.53,0,1,1,0,0,0,.34-.44c.42-.86.41-2.21,1.67-2.11,1.54.11,3,.55,4.55.79,1.22.19,3.06.16,3.5-1.3a2.51,2.51,0,0,0-.15-1.57,5.32,5.32,0,0,0-1.65-2.27c-.54-.42-1.24,0-1.44.61a.39.39,0,0,0,.09.43,3.51,3.51,0,0,0,.4.37,2.52,2.52,0,0,1,.6.82.84.84,0,0,1-.2.94,1.23,1.23,0,0,1-.6.17,10.25,10.25,0,0,1-4.4-.82,2,2,0,0,1-1.11-1.49c-.07-.25-.13-.51-.19-.74a1.61,1.61,0,0,0-.18-.52.44.44,0,0,0-.48-.18c-.25.08-.28.41-.3.67a1.87,1.87,0,0,1-.63,1.54,2.55,2.55,0,0,1-1.09.28.72.72,0,0,0-.53.22A.58.58,0,0,0,93,41.36Z"/><path class="cls-33" d="M65.48,28.78a16.32,16.32,0,0,0,2.13,1.76,25.7,25.7,0,0,0,6.92,3.08,27.45,27.45,0,0,0,5.13,1.18,62.15,62.15,0,0,0,7.72-.09c.89,0,7-.07,5.42,2-.39.5-.89.72-1.14,1.36s-.23,1.25-.46,1.85A3.61,3.61,0,0,1,88.27,42a9.26,9.26,0,0,1-3.72-.46A68.17,68.17,0,0,1,73.23,37a20.6,20.6,0,0,1-5.44-3.43c-2.65-2.56-3.86-6.27-6.21-9.1C62.85,25.91,64.08,27.44,65.48,28.78Z"/><path class="cls-34" d="M79,35.79c1.53.12,3.07.07,4.6.05.78,0,1.57,0,2.35,0A10.49,10.49,0,0,1,88,36a1.86,1.86,0,0,1,1.12.63,1.26,1.26,0,0,1,.33.61c.15,1.15-1.23,1.35-2,1.48a13.68,13.68,0,0,1-5-.34c-4.69-1-9.44-2.56-12.89-5.88A20.07,20.07,0,0,0,79,35.79Z"/><path class="cls-26" d="M94.36,43a.06.06,0,0,1,0,0,4.46,4.46,0,0,1-.3,1.43.9.9,0,0,0,0,.56.08.08,0,0,0,0,0,.28.28,0,0,0,.06.09.43.43,0,0,0,.53,0,1,1,0,0,0,.34-.44c.42-.86.41-2.21,1.67-2.11,1.54.11,3,.55,4.55.79,1.22.19,3.06.16,3.5-1.3a2.51,2.51,0,0,0-.15-1.57,5.32,5.32,0,0,0-1.65-2.27c-.54-.42-1.24,0-1.44.61a.39.39,0,0,0,.09.43l.07,0c.14-.32.33-.69.67-.76a1,1,0,0,1,.89.4,4.38,4.38,0,0,1,1.09,1.54,2.32,2.32,0,0,1,0,1.66,1.55,1.55,0,0,1-1.23.84,4.63,4.63,0,0,1-1.39,0c-1.53-.17-3-.48-4.55-.71a1.79,1.79,0,0,0-1.49.23c-.23.2-.3.46-.59.6a.46.46,0,0,1-.19,0,.31.31,0,0,1-.27-.23,2.45,2.45,0,0,1-.08-.37,1.23,1.23,0,0,0-.77-.94,4.94,4.94,0,0,0-.55-.15c.2.12.42.2.62.34A1.56,1.56,0,0,1,94.36,43Z"/><path class="cls-35" d="M95.84,41c-.16-.14-.41-.41-.3-.66s.37-.13.52,0A6.09,6.09,0,0,0,98,41.35a6.29,6.29,0,0,0,1,.28c.39,0,.78.19,1.17.24a11,11,0,0,0,1.72.09h.38s.23-.07.27-.05c.19.1-.06.33-.15.39a1.34,1.34,0,0,1-.62.11,18.29,18.29,0,0,1-3-.26,6.78,6.78,0,0,1-2.6-1Z"/></g></g></svg>