<svg xmlns="http://www.w3.org/2000/svg" viewBox="0 0 153.06 93.99"><defs><style>.cls-1{fill:#f17900;}.cls-2{fill:#ffa433;}.cls-3{fill:#ffcd36;}.cls-4{fill:#ffb433;}.cls-5{fill:#ff6900;}.cls-6{fill:#ff4000;}.cls-7{fill:#ff8000;}.cls-8{fill:#f2c22f;}.cls-9{fill:#eecfa7;}.cls-10{fill:#f6e3cb;}.cls-11{fill:#f2d9bc;}.cls-12{fill:#bf250d;}.cls-13{fill:#e63317;}.cls-14{fill:#4d7326;}.cls-15{fill:#5a9223;}.cls-16{fill:#ffc000;}.cls-17{fill:#ffe657;}.cls-18{fill:#a88a94;}.cls-19{fill:#bd9ba6;}.cls-20{fill:#d9b2bf;}.cls-21{fill:#ffd8e5;}.cls-22{fill:#a6cb6c;}</style></defs><g id="Layer_2" data-name="Layer 2"><g id="Layer"><path class="cls-1" d="M152.88,44.36c0-.34-.07-.68-.12-1-.3-2.48-.85-5-2.57-6.77a12.53,12.53,0,0,0-3.5-2.2c-.16-.09-.31-.18-.44-.27C141.19,27.3,133,21.18,121.71,16.5c-13.46-5.61-29.18-8.3-44.78-8.27h-.8c-15.6,0-31.31,2.66-44.78,8.27C20.12,21.18,11.88,27.3,6.82,34.09c-.14.09-.28.18-.45.27a12.53,12.53,0,0,0-3.5,2.2C1.16,38.33.6,40.85.3,43.33c0,.35-.08.69-.11,1A36.18,36.18,0,0,0,4,64.75c3.16,5.73,8.35,10.12,13.61,13.75a74.1,74.1,0,0,0,13.49,7.22C44.76,91.41,60.72,94.09,76.53,94c15.81.1,31.77-2.58,45.43-8.27a74.1,74.1,0,0,0,13.49-7.22c5.26-3.63,10.44-8,13.61-13.75A36.18,36.18,0,0,0,152.88,44.36Z"/><ellipse class="cls-2" cx="76.47" cy="42.89" rx="42.88" ry="75.79" transform="translate(33.01 119.03) rotate(-89.57)"/><path class="cls-3" d="M120.57,76.06C87.9,89.67,41.67,85.62,17.31,67S-.31,22.29,32.36,8.67s78.9-9.56,103.26,9S153.24,62.44,120.57,76.06Z"/><ellipse class="cls-4" cx="76.47" cy="41.85" rx="40.47" ry="71.53" transform="translate(34.05 118) rotate(-89.57)"/><path class="cls-1" d="M117.18,72.14C87,84.47,44.34,80.8,21.85,64S5.58,23.45,35.75,11.12s72.84-8.67,95.33,8.18S147.35,59.81,117.18,72.14Z"/><path class="cls-5" d="M66.69,80.47a13.11,13.11,0,0,1-5.85-1.88c-.69-.35-1.34-.69-2-1A10.31,10.31,0,0,0,54.91,77a12.86,12.86,0,0,1-3.29-.4,26.47,26.47,0,0,1-8-4.4c-2.52-1.8-4.9-3.5-7.77-4.21a14.35,14.35,0,0,0-3.38-.32h-1.3l-1.3,0c-2.46,0-4.44-.28-6.09-1.61a11.27,11.27,0,0,1-2.49-3.31c-.3-.53-.61-1.08-.95-1.58A10.87,10.87,0,0,0,16,57.46L14.94,57a8.48,8.48,0,0,1-3.12-1.85c-1.85-2-1.37-4.69-.91-7.3.34-1.93.69-3.92.11-5.6a10.59,10.59,0,0,0-1.61-2.71,8,8,0,0,1-2-4.17C7.3,33,9.34,29.78,11.3,28.21a29.93,29.93,0,0,1,2.53-1.74,18.16,18.16,0,0,0,3.48-2.63,18.59,18.59,0,0,0,2.3-3.21,16.94,16.94,0,0,1,2.84-3.78C25,14.46,28.58,14,32,13.47a28.1,28.1,0,0,0,6.18-1.34,27,27,0,0,0,4.57-2.5c1.06-.67,2.16-1.37,3.32-2A24.41,24.41,0,0,1,57.29,5.31a44.29,44.29,0,0,1,4.46.24,17.44,17.44,0,0,0,1.79.09,35.85,35.85,0,0,0,7.71-1.11A37.16,37.16,0,0,1,79.12,3.4h.62a25.1,25.1,0,0,1,6.51,1.38,27.45,27.45,0,0,0,5.48,1.29c.51,0,1,.08,1.67.08s1.47,0,2.2-.07S97.08,6,97.83,6a14.9,14.9,0,0,1,3.34.32A20.59,20.59,0,0,1,106.86,9,27.15,27.15,0,0,0,111,11.09a26.73,26.73,0,0,0,5.27,1.13A26.22,26.22,0,0,1,122,13.47a17.73,17.73,0,0,1,4,2.46,24,24,0,0,0,2.68,1.79l.59.31a14.45,14.45,0,0,1,5.26,4c.49.63.92,1.31,1.35,2a13.29,13.29,0,0,0,2.79,3.46,16,16,0,0,0,2.38,1.44c1.67.88,3.4,1.78,4.11,3.61a7.74,7.74,0,0,1,.22,3.7,10,10,0,0,0-.07,2.37,10,10,0,0,0,.88,2.69,11.32,11.32,0,0,1,.94,2.79c.41,2.51-.7,5.19-3.3,8-.49.52-1,1-1.49,1.53a17.86,17.86,0,0,0-3.86,4.81,18.5,18.5,0,0,0-.76,2,14.31,14.31,0,0,1-1.22,2.86c-1.82,3-5.22,4-8.5,5a31.26,31.26,0,0,0-4.42,1.59,28.21,28.21,0,0,0-4.48,2.88,36.92,36.92,0,0,1-3.71,2.49,9.67,9.67,0,0,1-5,1.36,19.65,19.65,0,0,1-3.74-.45,18.36,18.36,0,0,0-3.42-.32,19,19,0,0,0-5.37.77,29.79,29.79,0,0,0-3.5,1.36,19.37,19.37,0,0,1-5.65,1.82c-.4,0-.81.07-1.23.07a24.61,24.61,0,0,1-6-1,31.43,31.43,0,0,0-4.31-.89c-.45,0-.86-.06-1.27-.06a8.55,8.55,0,0,0-2.31.29,15.14,15.14,0,0,0-2.51,1,12,12,0,0,1-3.81,1.28C67.16,80.46,66.92,80.47,66.69,80.47Z"/><path class="cls-6" d="M77.35,77.41a10,10,0,0,0-3.78.24c-2.14.58-4,2-6.23,2.27-3,.31-5.64-1.64-8.3-2.78s-4.8-.38-7.28-1.09c-6-1.71-9.93-7.17-15.77-8.62-4-1-8.7.77-11.87-1.8-1.52-1.22-2.24-3.16-3.35-4.78A11.49,11.49,0,0,0,16.25,57c-1.4-.66-3-1.07-4.05-2.2-3-3.2.73-8.57-.69-12.71C10.68,39.65,8.12,37.9,8,35.33,7.83,33,9.87,30,11.63,28.62,13.58,27.05,16,26,17.69,24.2c2-2.08,3-5,5.11-7,4-3.72,10.45-2.66,15.57-4.63,2.84-1.09,5.22-3.1,7.93-4.47,4.75-2.38,10.2-2.6,15.4-2.07,6.32.65,11.85-2.34,18-2.14,4.09.13,7.88,2.28,12,2.67,3.12.3,6.32-.44,9.37.26,3.54.82,6.38,3.47,9.79,4.72s7.46,1,11,2.38c2.52,1,4.35,3,6.67,4.22s4.07,2.06,5.69,4.18c1.41,1.84,2.4,4.07,4.23,5.51,2.12,1.68,5.34,2.31,6.33,4.83.73,1.86-.14,4,.11,5.95s1.52,3.58,1.83,5.49c.45,2.79-1.24,5.48-3.17,7.55s-4.22,3.91-5.44,6.46c-.74,1.57-1,3.33-1.95,4.8-2.54,4.13-8.34,4.32-12.71,6.41-3,1.41-5.35,3.79-8.21,5.39s-5.22,1.45-8.35.85a19.44,19.44,0,0,0-9,.46c-3.08.9-5.87,2.81-9.06,3.16C84.91,79.65,81.1,77.8,77.35,77.41Z"/><path class="cls-7" d="M66.69,78.91a11.77,11.77,0,0,1-5.14-1.71c-.69-.35-1.39-.71-2.11-1a11.59,11.59,0,0,0-4.48-.8,11.36,11.36,0,0,1-2.91-.34c-2.77-.79-5.07-2.43-7.51-4.17s-5.14-3.67-8.3-4.46a15.86,15.86,0,0,0-3.76-.36H31.15l-1.27,0c-2.13,0-3.81-.22-5.11-1.26A9.85,9.85,0,0,1,22.66,62c-.32-.56-.65-1.14-1-1.69a12.39,12.39,0,0,0-4.94-4.22l-1.15-.49A7.13,7.13,0,0,1,13,54.08c-1.33-1.42-1-3.52-.53-6,.38-2.12.76-4.31.05-6.38a11.67,11.67,0,0,0-1.82-3.12A6.84,6.84,0,0,1,9,35.27c-.11-1.81,1.64-4.53,3.28-5.84.74-.59,1.54-1.1,2.39-1.65a20,20,0,0,0,3.77-2.86,20.17,20.17,0,0,0,2.5-3.47A15.71,15.71,0,0,1,23.5,18c2.24-2.06,5.39-2.51,8.72-3a29.46,29.46,0,0,0,6.53-1.44A27.35,27.35,0,0,0,43.58,11a36.38,36.38,0,0,1,3.19-1.88,23,23,0,0,1,10.52-2.2,41.28,41.28,0,0,1,4.3.24c.63.06,1.29.09,1.95.09a37.56,37.56,0,0,0,8-1.14A34.68,34.68,0,0,1,79.12,5h.57a23.73,23.73,0,0,1,6.1,1.31,28.56,28.56,0,0,0,5.79,1.36c.56.05,1.15.08,1.82.08s1.53,0,2.26-.07,1.46-.06,2.17-.06a12.9,12.9,0,0,1,3,.29,18.89,18.89,0,0,1,5.26,2.43,28.13,28.13,0,0,0,4.41,2.25,27,27,0,0,0,5.59,1.2,24.33,24.33,0,0,1,5.34,1.17,16.36,16.36,0,0,1,3.7,2.25A23.33,23.33,0,0,0,128,19.09l.59.32A12.94,12.94,0,0,1,133.32,23c.45.58.85,1.2,1.27,1.86a15.08,15.08,0,0,0,3.14,3.84,16.88,16.88,0,0,0,2.63,1.59c1.54.81,2.88,1.51,3.38,2.8a6.45,6.45,0,0,1,.12,3,11.36,11.36,0,0,0-.07,2.74,11.22,11.22,0,0,0,1,3.11,10.15,10.15,0,0,1,.83,2.41c.33,2-.65,4.26-2.91,6.68-.46.5-1,1-1.45,1.48a19.46,19.46,0,0,0-4.16,5.25,19,19,0,0,0-.83,2.15,12.76,12.76,0,0,1-1.07,2.55c-1.52,2.46-4.49,3.37-7.63,4.34a33.34,33.34,0,0,0-4.64,1.67,29,29,0,0,0-4.72,3,35,35,0,0,1-3.55,2.39A8.24,8.24,0,0,1,110.45,75a18.55,18.55,0,0,1-3.43-.42,20,20,0,0,0-3.72-.35,20.71,20.71,0,0,0-5.81.83,31.35,31.35,0,0,0-3.69,1.43,18.34,18.34,0,0,1-5.19,1.7,9.16,9.16,0,0,1-1.06.06,23.18,23.18,0,0,1-5.57-1,32.91,32.91,0,0,0-4.52-.92c-.5-.05-1-.08-1.44-.08a10.11,10.11,0,0,0-2.73.36,16.27,16.27,0,0,0-2.75,1.1,11,11,0,0,1-3.31,1.14A4.87,4.87,0,0,1,66.69,78.91Z"/><path class="cls-8" d="M66.69,78A11.12,11.12,0,0,1,62,76.34c-.69-.36-1.41-.72-2.16-1A12.57,12.57,0,0,0,55,74.43a10.9,10.9,0,0,1-2.68-.3c-2.61-.75-4.84-2.35-7.21-4-2.6-1.85-5.29-3.77-8.63-4.6a16.53,16.53,0,0,0-4-.4l-1.34,0H29.88c-1.93,0-3.43-.18-4.5-1a9,9,0,0,1-1.88-2.6c-.33-.58-.67-1.17-1.07-1.76a13.32,13.32,0,0,0-5.33-4.54c-.39-.18-.79-.35-1.2-.52a6.48,6.48,0,0,1-2.23-1.23c-.95-1-.72-2.62-.28-5.14.38-2.14.81-4.56,0-6.86a13.16,13.16,0,0,0-2-3.38A6.11,6.11,0,0,1,10,35.22c-.09-1.46,1.49-3.9,2.91-5a26.64,26.64,0,0,1,2.31-1.59,20.11,20.11,0,0,0,3.94-3A20.61,20.61,0,0,0,21.76,22a15,15,0,0,1,2.4-3.24c2-1.86,5-2.28,8.19-2.74a29.62,29.62,0,0,0,6.74-1.49,28.6,28.6,0,0,0,5-2.72c1.06-.67,2.06-1.3,3.1-1.83A22.09,22.09,0,0,1,57.29,7.84a42,42,0,0,1,4.2.22,19.81,19.81,0,0,0,2,.11A38.35,38.35,0,0,0,71.79,7a34.43,34.43,0,0,1,7.33-1.07h.54a22.91,22.91,0,0,1,5.85,1.28,30.15,30.15,0,0,0,6,1.39c.59.05,1.21.08,1.91.08s1.54,0,2.3-.07,1.42-.06,2.13-.06a12.84,12.84,0,0,1,2.77.26,18.93,18.93,0,0,1,5,2.33,28.37,28.37,0,0,0,4.57,2.32,27.57,27.57,0,0,0,5.79,1.26,23.77,23.77,0,0,1,5.13,1.11A15.25,15.25,0,0,1,124.54,18a25.13,25.13,0,0,0,3,2l.6.32a12,12,0,0,1,4.45,3.32c.42.55.81,1.15,1.23,1.8a15.56,15.56,0,0,0,3.35,4.06,17.13,17.13,0,0,0,2.77,1.69c1.37.73,2.56,1.35,2.93,2.3a5.87,5.87,0,0,1,.06,2.51,12.61,12.61,0,0,0-.07,3,12.23,12.23,0,0,0,1.08,3.37,9.48,9.48,0,0,1,.76,2.18c.34,2.12-1.26,4.36-2.66,5.86-.46.5-.94,1-1.43,1.46a20.48,20.48,0,0,0-4.35,5.51,20.49,20.49,0,0,0-.87,2.26,11.86,11.86,0,0,1-1,2.35c-1.33,2.16-4.13,3-7.09,3.93a32.4,32.4,0,0,0-4.77,1.72,30.11,30.11,0,0,0-4.88,3.12A34.87,34.87,0,0,1,114.19,73a7.31,7.31,0,0,1-3.74,1,17.77,17.77,0,0,1-3.25-.41,21,21,0,0,0-3.9-.36,21.48,21.48,0,0,0-6.08.87,31.21,31.21,0,0,0-3.8,1.47,17.72,17.72,0,0,1-4.92,1.62,7.5,7.5,0,0,1-.94,0,22.59,22.59,0,0,1-5.34-.92,34,34,0,0,0-4.66-1c-.54,0-1-.08-1.54-.08a11.11,11.11,0,0,0-3,.39,18.56,18.56,0,0,0-2.91,1.15,9.89,9.89,0,0,1-3,1.06Z"/><path class="cls-9" d="M37.77,34.54a4.1,4.1,0,0,1-3.54,2.56A4.78,4.78,0,0,1,32.54,37a11.89,11.89,0,0,1-3.21-1.47l-.22-.13,0,0-4.87,2.81a3,3,0,0,1-1.24.38,3,3,0,0,1-.95,0,2,2,0,0,1-.62-.22L19,36.88a.82.82,0,0,1-.48-.62h0a.38.38,0,0,1,0-.15v-.52h.27a1.77,1.77,0,0,1,.41-.32l1.51-.87.31-.18,3.06-1.76-.16-.09c-1.13-.61-3.07-1.35-3.21-2.24a1.81,1.81,0,0,1,0-.23h0v-.52l.07,0c.67-2.09,6.17-2.28,8.89-1.92A11.79,11.79,0,0,1,34,28.84l1.35.78.34.21a4.67,4.67,0,0,1,.43.3A3.89,3.89,0,0,1,37.77,34.54Z"/><path class="cls-9" d="M21.44,35.42c.2.08.39.18.59.27a.27.27,0,0,1,.08.07s0,.08,0,.12a1.77,1.77,0,0,1-.08.33,1.16,1.16,0,0,0,0,.37v1.56a2,2,0,0,1-.62-.22L19,36.54a.86.86,0,0,1-.48-.62v0a.33.33,0,0,1,0-.14c0-.11-.05-.33,0-.42s.37-.19.5-.22a3,3,0,0,1,1.29,0A5.5,5.5,0,0,1,21.44,35.42Z"/><path class="cls-10" d="M37.77,33.68a3.89,3.89,0,0,0-1.64-4.41,7.5,7.5,0,0,0-.78-.51L34,28a11.92,11.92,0,0,0-4.34-1.37c-3-.39-9.4-.12-8.93,2.65.14.89,2.08,1.63,3.21,2.24l.16.08L19.22,34.4c-.83.48-.92,1.21-.2,1.62L21.4,37.4a3.11,3.11,0,0,0,2.81-.12l4.87-2.81.25.14a11.6,11.6,0,0,0,3.21,1.48,4.78,4.78,0,0,0,1.69.15A4.1,4.1,0,0,0,37.77,33.68Z"/><path class="cls-11" d="M33.75,34.34a4.21,4.21,0,0,1-1.28.17c-.5,0-1,0-1.49,0s-.93-.07-1.38,0a2.12,2.12,0,0,0-1.09.38c-1.41.84-2.86,1.66-4.3,2.48a3.11,3.11,0,0,1-2.81.12l-.8-.47-.48-.27L19,36c-.72-.41-.63-1.14.2-1.62l3.89-2.24c.35-.21.86-.39.9-.69a1,1,0,0,0-.43-.82h0c-.35-.33-.81-.64-.83-1a.64.64,0,0,1,0-.2,1.54,1.54,0,0,1,.54-.69,7.62,7.62,0,0,1,5.16-1.15,11.16,11.16,0,0,1,4,1.3c1.43.75,2.53,1.56,2.93,2.73A2.16,2.16,0,0,1,33.75,34.34Z"/><path class="cls-10" d="M33.16,31.88a1.82,1.82,0,0,1-.94,1.3,3.32,3.32,0,0,1-.81.45,8.86,8.86,0,0,1-1.47.26,23,23,0,0,0-3,.73c-1,.28-1.93.6-2.85,1a18.66,18.66,0,0,0-2.44,1,3.09,3.09,0,0,1-.48.25,1.35,1.35,0,0,1-.59.07h0l-.48-.27a.25.25,0,0,1,0-.28,4.49,4.49,0,0,1,1.23-1.06,6.92,6.92,0,0,0,1.29-1.23,10.72,10.72,0,0,0,1-1.48,5.79,5.79,0,0,0,.67-1.34,4.93,4.93,0,0,1,.27-.88,2.69,2.69,0,0,1,1.86-1.16,6.55,6.55,0,0,1,4.05.42c.45.22.89.45,1.31.69C32.45,30.76,33.15,31.25,33.16,31.88Z"/><path class="cls-9" d="M26.89,31.28a2.63,2.63,0,0,0,.44-.32c.11-.09.19-.19.17-.3s-.19-.16-.34-.21A9.35,9.35,0,0,0,26,30.19c-.55-.13-1.08-.27-1.6-.42a5,5,0,0,0-1.26-.28,1.3,1.3,0,0,0-.52.05c-.16.05-.28.17-.22.26s.07.06.11.09l2.24,1.39a1.75,1.75,0,0,0,1.17.33A2.39,2.39,0,0,0,26.89,31.28Z"/><path class="cls-9" d="M29.94,32.8c.36-.19.77-.58,1.17-.34a2.2,2.2,0,0,1,.67.81,9,9,0,0,0,.73.93,1.6,1.6,0,0,1,.48.72.32.32,0,0,1-.08.3.57.57,0,0,1-.46.13.52.52,0,0,1-.15-.06L29.89,34c-.33-.17-.68-.39-.58-.67S29.67,33,29.94,32.8Z"/><path class="cls-9" d="M94.59,46.52a4.13,4.13,0,0,1-3.54,2.56,4.78,4.78,0,0,1-1.69-.15,11.9,11.9,0,0,1-3.21-1.48l-.22-.13h0L81,50.12a3,3,0,0,1-1.24.38,3.3,3.3,0,0,1-1,0,2,2,0,0,1-.62-.22l-2.39-1.38a.84.84,0,0,1-.47-.62h0v-.69h.28a1.75,1.75,0,0,1,.41-.31l1.5-.87.32-.18,3.06-1.77-.16-.08c-1.13-.61-3.07-1.35-3.22-2.24,0-.08,0-.16,0-.23h0v-.52l.07,0c.67-2.09,6.16-2.27,8.89-1.92a11.79,11.79,0,0,1,4.34,1.37l1.35.78.33.2a4.91,4.91,0,0,1,.44.31A3.9,3.9,0,0,1,94.59,46.52Z"/><path class="cls-9" d="M78.26,47.4c.2.08.39.17.59.27a.24.24,0,0,1,.08.06.25.25,0,0,1,0,.12,3.37,3.37,0,0,1-.09.34,1.51,1.51,0,0,0,0,.37v1.56a2.27,2.27,0,0,1-.62-.22l-2.39-1.38a.88.88,0,0,1-.48-.63h0v-.15a1.13,1.13,0,0,1,0-.41c.07-.13.37-.19.5-.23a3.07,3.07,0,0,1,1.28,0A4.86,4.86,0,0,1,78.26,47.4Z"/><path class="cls-10" d="M94.59,45.66a3.9,3.9,0,0,0-1.65-4.41,7.34,7.34,0,0,0-.77-.51L90.82,40a11.79,11.79,0,0,0-4.34-1.37c-3-.39-9.4-.12-8.94,2.65.15.89,2.09,1.63,3.22,2.24l.16.08L76,46.38c-.83.48-.93,1.2-.21,1.62l2.39,1.38A3.14,3.14,0,0,0,81,49.26l4.87-2.81.25.14a11.9,11.9,0,0,0,3.21,1.48,4.78,4.78,0,0,0,1.69.15A4.13,4.13,0,0,0,94.59,45.66Z"/><path class="cls-11" d="M90.57,46.32a4.54,4.54,0,0,1-1.28.17c-.51,0-1,0-1.49-.05s-.93-.06-1.38,0a2,2,0,0,0-1.09.38c-1.41.84-2.87,1.65-4.3,2.48a3.14,3.14,0,0,1-2.81.12l-.81-.47-.47-.27L75.83,48c-.71-.41-.62-1.14.21-1.62l3.89-2.25c.35-.2.86-.39.9-.68a1,1,0,0,0-.43-.82h0c-.35-.33-.81-.64-.83-1a.42.42,0,0,1,0-.19,1.52,1.52,0,0,1,.54-.7,7.66,7.66,0,0,1,5.15-1.14,11.28,11.28,0,0,1,4,1.29c1.43.76,2.53,1.57,2.93,2.73A2.17,2.17,0,0,1,90.57,46.32Z"/><path class="cls-10" d="M90,43.86a1.79,1.79,0,0,1-.93,1.3,3.32,3.32,0,0,1-.81.45,9,9,0,0,1-1.47.26,22.59,22.59,0,0,0-3,.73c-1,.28-1.93.6-2.86.95A19.12,19.12,0,0,0,78.5,48.6a2.48,2.48,0,0,1-.49.24,1.06,1.06,0,0,1-.58.07h0l-.47-.27a.26.26,0,0,1,0-.29,4.75,4.75,0,0,1,1.22-1.05,6.44,6.44,0,0,0,1.3-1.24,10.64,10.64,0,0,0,1-1.47,5.66,5.66,0,0,0,.67-1.35,4.84,4.84,0,0,1,.27-.87,2.73,2.73,0,0,1,1.86-1.17,6.62,6.62,0,0,1,4,.43c.45.22.89.45,1.3.69C89.27,42.74,90,43.23,90,43.86Z"/><path class="cls-9" d="M83.71,43.25a3.35,3.35,0,0,0,.44-.31c.1-.09.19-.2.17-.3s-.19-.16-.34-.21c-.35-.12-.75-.18-1.13-.27-.55-.12-1.09-.26-1.6-.42A5.52,5.52,0,0,0,80,41.46a1.51,1.51,0,0,0-.52,0c-.16.06-.28.18-.22.27a.45.45,0,0,0,.1.09l2.25,1.39a1.81,1.81,0,0,0,1.17.33A2.26,2.26,0,0,0,83.71,43.25Z"/><path class="cls-9" d="M86.76,44.78c.36-.19.77-.59,1.17-.35a2.23,2.23,0,0,1,.67.82,7.75,7.75,0,0,0,.73.92,1.66,1.66,0,0,1,.48.73.3.3,0,0,1-.09.3.59.59,0,0,1-.46.13l-.14-.06L86.71,46c-.33-.18-.68-.4-.58-.67S86.49,44.93,86.76,44.78Z"/><path class="cls-9" d="M116.37,27.42A4.1,4.1,0,0,1,112.83,30a4.78,4.78,0,0,1-1.69-.15,11.9,11.9,0,0,1-3.21-1.48l-.22-.13h0L102.81,31a3,3,0,0,1-1.24.38,3.3,3.3,0,0,1-.95,0,2,2,0,0,1-.62-.22l-2.38-1.38a.86.86,0,0,1-.48-.62h0v0a.33.33,0,0,1,0-.14v-.52h.27a1.72,1.72,0,0,1,.41-.32l1.51-.87.31-.18,3.06-1.77-.16-.08c-1.13-.61-3.07-1.35-3.21-2.24a.93.93,0,0,1,0-.23h0v-.52l.07,0c.68-2.1,6.17-2.28,8.89-1.93a11.73,11.73,0,0,1,4.34,1.37l1.35.78a3.79,3.79,0,0,1,.34.2c.15.1.3.2.44.31A3.89,3.89,0,0,1,116.37,27.42Z"/><path class="cls-9" d="M100,28.3c.2.08.39.17.59.27a.24.24,0,0,1,.08.06.17.17,0,0,1,0,.12,1.87,1.87,0,0,1-.08.34,1.16,1.16,0,0,0,0,.37V31a2.27,2.27,0,0,1-.62-.22l-2.38-1.38a.86.86,0,0,1-.48-.62v0a.38.38,0,0,1,0-.15c0-.1,0-.32,0-.41s.37-.19.5-.23a3.11,3.11,0,0,1,1.29,0A4.93,4.93,0,0,1,100,28.3Z"/><path class="cls-10" d="M116.37,26.56a3.89,3.89,0,0,0-1.64-4.41,7.5,7.5,0,0,0-.78-.51l-1.34-.78a11.79,11.79,0,0,0-4.35-1.37c-3-.39-9.4-.12-8.93,2.65.14.89,2.08,1.63,3.21,2.24l.16.08-4.88,2.82c-.83.48-.92,1.21-.2,1.62L100,30.28a3.14,3.14,0,0,0,2.81-.12l4.87-2.81.25.14A11.9,11.9,0,0,0,111.14,29a4.78,4.78,0,0,0,1.69.15A4.12,4.12,0,0,0,116.37,26.56Z"/><path class="cls-11" d="M112.35,27.22a4.21,4.21,0,0,1-1.28.17c-.5,0-1,0-1.49-.05s-.93-.06-1.38,0a2,2,0,0,0-1.09.38c-1.41.84-2.86,1.65-4.3,2.48a3.14,3.14,0,0,1-2.81.12l-.8-.47-.48-.27-1.1-.64c-.72-.41-.63-1.14.2-1.62L101.71,25c.35-.21.86-.4.9-.69a1,1,0,0,0-.43-.82h0c-.35-.33-.81-.64-.83-1.05a.63.63,0,0,1,0-.19,1.57,1.57,0,0,1,.54-.7,7.68,7.68,0,0,1,5.16-1.14,11.16,11.16,0,0,1,4,1.29c1.43.76,2.53,1.57,2.93,2.73A2.17,2.17,0,0,1,112.35,27.22Z"/><path class="cls-10" d="M111.76,24.76a1.84,1.84,0,0,1-.94,1.3,3.32,3.32,0,0,1-.81.45,8.86,8.86,0,0,1-1.47.26,23,23,0,0,0-3,.73c-1,.28-1.93.6-2.85.95a18.66,18.66,0,0,0-2.44,1.05,2.39,2.39,0,0,1-.48.24,1.23,1.23,0,0,1-.59.08h0l-.48-.27a.26.26,0,0,1,0-.29,4.64,4.64,0,0,1,1.23-1.05A6.65,6.65,0,0,0,101.2,27a10.07,10.07,0,0,0,1-1.47,5.66,5.66,0,0,0,.67-1.35,5.8,5.8,0,0,1,.27-.87A2.75,2.75,0,0,1,105,22.1a6.62,6.62,0,0,1,4,.43c.45.22.89.45,1.31.69C111.05,23.64,111.75,24.13,111.76,24.76Z"/><path class="cls-9" d="M105.5,24.15a3,3,0,0,0,.43-.31.39.39,0,0,0,.18-.3c0-.11-.2-.16-.35-.21a9.35,9.35,0,0,0-1.13-.26c-.55-.13-1.08-.27-1.6-.43a5.52,5.52,0,0,0-1.26-.28,1.31,1.31,0,0,0-.52.06c-.16,0-.28.17-.22.26a.53.53,0,0,0,.11.09l2.24,1.39a1.77,1.77,0,0,0,1.17.33A2.35,2.35,0,0,0,105.5,24.15Z"/><path class="cls-9" d="M108.54,25.68c.37-.19.77-.59,1.17-.35a2.23,2.23,0,0,1,.67.82,8,8,0,0,0,.73.92,1.58,1.58,0,0,1,.48.73.32.32,0,0,1-.08.3.61.61,0,0,1-.46.13.52.52,0,0,1-.15-.06l-2.41-1.3c-.33-.17-.68-.39-.58-.67S108.27,25.83,108.54,25.68Z"/><path class="cls-9" d="M47,54.56a4.12,4.12,0,0,1-3.54,2.56A4.78,4.78,0,0,1,41.8,57a11.9,11.9,0,0,1-3.21-1.48l-.22-.13h0l-4.87,2.81a3,3,0,0,1-1.24.38,3.3,3.3,0,0,1-.95,0,2,2,0,0,1-.62-.22L28.27,56.9a.84.84,0,0,1-.47-.62h0V55.6h.28a1.54,1.54,0,0,1,.41-.32l1.5-.87.32-.18,3.06-1.77-.16-.08C32.07,51.77,30.13,51,30,50.14c0-.08,0-.16,0-.23h0v-.52l.07,0c.67-2.09,6.16-2.27,8.89-1.92a11.79,11.79,0,0,1,4.34,1.37l1.35.78.33.2a4.91,4.91,0,0,1,.44.31A3.9,3.9,0,0,1,47,54.56Z"/><path class="cls-9" d="M30.7,55.44c.2.08.39.17.59.27a.24.24,0,0,1,.08.06.25.25,0,0,1,0,.12,3.37,3.37,0,0,1-.09.34,1.53,1.53,0,0,0,0,.37v1.56a2.27,2.27,0,0,1-.62-.22l-2.39-1.38a.88.88,0,0,1-.48-.62v-.17a1.13,1.13,0,0,1,0-.41c.07-.13.37-.19.5-.23a3.07,3.07,0,0,1,1.28,0A4.86,4.86,0,0,1,30.7,55.44Z"/><path class="cls-10" d="M47,53.7a3.9,3.9,0,0,0-1.65-4.41,7.34,7.34,0,0,0-.77-.51L43.26,48a11.79,11.79,0,0,0-4.34-1.37c-3-.39-9.4-.12-8.94,2.65.15.89,2.09,1.63,3.22,2.24l.16.08-4.88,2.82c-.84.48-.93,1.2-.21,1.62l2.39,1.38a3.14,3.14,0,0,0,2.81-.12l4.87-2.81.25.14a11.9,11.9,0,0,0,3.21,1.48,4.78,4.78,0,0,0,1.69.15A4.13,4.13,0,0,0,47,53.7Z"/><path class="cls-11" d="M43,54.36a4.54,4.54,0,0,1-1.28.17c-.51,0-1,0-1.49-.05s-.94-.06-1.38,0a2,2,0,0,0-1.09.38c-1.41.84-2.87,1.65-4.3,2.48a3.14,3.14,0,0,1-2.81.12L29.85,57l-.47-.27L28.27,56c-.71-.41-.62-1.14.21-1.62l3.89-2.25c.35-.2.86-.39.9-.68a1,1,0,0,0-.43-.82h0c-.35-.33-.81-.64-.83-1a.42.42,0,0,1,0-.19,1.52,1.52,0,0,1,.54-.7,7.66,7.66,0,0,1,5.15-1.14,11.28,11.28,0,0,1,4,1.29c1.42.76,2.53,1.57,2.93,2.73A2.17,2.17,0,0,1,43,54.36Z"/><path class="cls-10" d="M42.41,51.9a1.79,1.79,0,0,1-.93,1.3,3.22,3.22,0,0,1-.82.45,8.74,8.74,0,0,1-1.46.26,22.59,22.59,0,0,0-3,.73c-1,.28-1.93.6-2.86,1a18.52,18.52,0,0,0-2.43,1,2.48,2.48,0,0,1-.49.24,1.17,1.17,0,0,1-.58.08h0l-.47-.27a.26.26,0,0,1,0-.29,4.75,4.75,0,0,1,1.22-1,6.44,6.44,0,0,0,1.3-1.24,10.64,10.64,0,0,0,1-1.47,5.66,5.66,0,0,0,.67-1.35,4.84,4.84,0,0,1,.27-.87,2.73,2.73,0,0,1,1.86-1.17,6.62,6.62,0,0,1,4,.43c.45.22.89.45,1.3.69C41.71,50.78,42.41,51.27,42.41,51.9Z"/><path class="cls-9" d="M36.15,51.29a2.61,2.61,0,0,0,.44-.31c.1-.09.19-.2.17-.3s-.19-.16-.34-.21a9.81,9.81,0,0,0-1.13-.26c-.55-.13-1.09-.27-1.6-.43a5.52,5.52,0,0,0-1.26-.28,1.51,1.51,0,0,0-.52,0c-.16.06-.28.18-.22.27a.45.45,0,0,0,.1.09L34,51.3a1.75,1.75,0,0,0,1.17.33A2.26,2.26,0,0,0,36.15,51.29Z"/><path class="cls-9" d="M39.2,52.82c.36-.19.77-.59,1.17-.35a2.23,2.23,0,0,1,.67.82,7.75,7.75,0,0,0,.73.92,1.66,1.66,0,0,1,.48.73.3.3,0,0,1-.09.3.59.59,0,0,1-.46.13l-.14-.06L39.15,54c-.33-.18-.68-.4-.58-.67S38.93,53,39.2,52.82Z"/><path class="cls-9" d="M64.53,46.39A4.13,4.13,0,0,1,61,49a4.78,4.78,0,0,1-1.69-.15,11.89,11.89,0,0,1-3.21-1.47l-.22-.13,0,0L51,50a3,3,0,0,1-1.24.37,2.73,2.73,0,0,1-.95,0,2,2,0,0,1-.62-.22l-2.38-1.38a.82.82,0,0,1-.48-.62h0a.38.38,0,0,1,0-.15v-.52h.27a2,2,0,0,1,.41-.32l1.51-.87.31-.18,3.06-1.76-.16-.09c-1.12-.61-3.07-1.35-3.21-2.24a1.79,1.79,0,0,1,0-.23h0v-.52l.07,0c.68-2.09,6.17-2.28,8.89-1.92a11.92,11.92,0,0,1,4.34,1.36l1.35.78.34.21c.15.09.3.2.44.3A3.92,3.92,0,0,1,64.53,46.39Z"/><path class="cls-9" d="M48.19,47.27c.2.08.4.18.59.27,0,0,.07,0,.08.07s0,.08,0,.12a1.77,1.77,0,0,1-.08.33,1.16,1.16,0,0,0,0,.37V50a2,2,0,0,1-.62-.22l-2.38-1.38a.86.86,0,0,1-.48-.62v0a.33.33,0,0,1,0-.14c0-.11,0-.33,0-.42s.37-.19.5-.22a3,3,0,0,1,1.29,0A5.5,5.5,0,0,1,48.19,47.27Z"/><path class="cls-10" d="M64.52,45.53a3.89,3.89,0,0,0-1.64-4.41,7.5,7.5,0,0,0-.78-.51l-1.34-.78a11.78,11.78,0,0,0-4.35-1.36c-3-.4-9.4-.13-8.93,2.64.15.89,2.08,1.63,3.21,2.24l.16.08L46,46.25c-.83.48-.92,1.21-.2,1.62l2.38,1.38A3.11,3.11,0,0,0,51,49.13l4.88-2.81.24.14a11.6,11.6,0,0,0,3.21,1.48,4.78,4.78,0,0,0,1.69.15A4.1,4.1,0,0,0,64.52,45.53Z"/><path class="cls-11" d="M60.51,46.2a4.66,4.66,0,0,1-1.29.16c-.5,0-1,0-1.49,0s-.93-.07-1.38,0a2.12,2.12,0,0,0-1.09.38c-1.41.84-2.86,1.66-4.3,2.48a3.11,3.11,0,0,1-2.81.12l-.8-.46-.48-.28-1.1-.64c-.72-.41-.63-1.14.2-1.62L49.86,44c.36-.21.86-.39.9-.69a1,1,0,0,0-.43-.82h0c-.34-.33-.81-.64-.83-1a.64.64,0,0,1,0-.2,1.54,1.54,0,0,1,.54-.69,7.62,7.62,0,0,1,5.16-1.15,11.16,11.16,0,0,1,4,1.3c1.43.75,2.53,1.56,2.93,2.73A2.17,2.17,0,0,1,60.51,46.2Z"/><path class="cls-10" d="M59.91,43.73A1.79,1.79,0,0,1,59,45a3.15,3.15,0,0,1-.81.45,8.86,8.86,0,0,1-1.47.26,24.75,24.75,0,0,0-3,.73c-1,.28-1.93.6-2.85,1a18.66,18.66,0,0,0-2.44,1,3.09,3.09,0,0,1-.48.25,1.35,1.35,0,0,1-.59.07h0l-.48-.28a.25.25,0,0,1,0-.28,4.49,4.49,0,0,1,1.23-1.06,6.62,6.62,0,0,0,1.29-1.23,10.15,10.15,0,0,0,1-1.48A5.79,5.79,0,0,0,51,43.12a5.92,5.92,0,0,1,.27-.88,2.71,2.71,0,0,1,1.86-1.16,6.55,6.55,0,0,1,4.05.42c.46.22.89.45,1.31.69C59.2,42.61,59.9,43.1,59.91,43.73Z"/><path class="cls-9" d="M53.65,43.13a3,3,0,0,0,.43-.32.38.38,0,0,0,.18-.3c0-.1-.2-.16-.34-.21A10,10,0,0,0,52.78,42c-.55-.13-1.08-.27-1.6-.42a5.4,5.4,0,0,0-1.26-.28,1.3,1.3,0,0,0-.52,0c-.16,0-.28.17-.22.26s.07.06.11.09l2.24,1.39a1.77,1.77,0,0,0,1.17.33A2.44,2.44,0,0,0,53.65,43.13Z"/><path class="cls-9" d="M56.7,44.65c.36-.19.76-.58,1.17-.34a2.27,2.27,0,0,1,.66.81,9,9,0,0,0,.73.93,1.72,1.72,0,0,1,.49.72.35.35,0,0,1-.09.3.57.57,0,0,1-.46.13.52.52,0,0,1-.15-.06l-2.41-1.3c-.33-.17-.68-.39-.58-.67S56.42,44.8,56.7,44.65Z"/><path class="cls-9" d="M113.85,63.87a4.15,4.15,0,0,1-3.54,2.56,4.81,4.81,0,0,1-1.7-.15,11.69,11.69,0,0,1-3.2-1.48l-.23-.13h0l-4.87,2.81a3,3,0,0,1-1.25.38,3.34,3.34,0,0,1-1,0,2.32,2.32,0,0,1-.61-.22l-2.39-1.38a.88.88,0,0,1-.48-.62h0v0a.75.75,0,0,1,0-.15V64.9h.27a1.76,1.76,0,0,1,.42-.31l1.5-.87.31-.18,3.06-1.77-.16-.08c-1.12-.61-3.06-1.35-3.21-2.24a2,2,0,0,1,0-.23h0V58.7l.07,0c.67-2.09,6.16-2.27,8.89-1.92a11.79,11.79,0,0,1,4.34,1.37l1.34.78a3.79,3.79,0,0,1,.34.2c.15.1.3.2.44.31A3.91,3.91,0,0,1,113.85,63.87Z"/><path class="cls-9" d="M97.51,64.75a6.28,6.28,0,0,1,.59.27.18.18,0,0,1,.09.06.17.17,0,0,1,0,.12,1.87,1.87,0,0,1-.08.34,1.5,1.5,0,0,0,0,.37v1.56a2.32,2.32,0,0,1-.61-.22l-2.39-1.38a.88.88,0,0,1-.48-.63h0a.75.75,0,0,1,0-.15,1.41,1.41,0,0,1,0-.41c.07-.13.37-.19.51-.23a3.07,3.07,0,0,1,1.28,0A4.93,4.93,0,0,1,97.51,64.75Z"/><path class="cls-10" d="M113.85,63a3.91,3.91,0,0,0-1.65-4.41c-.24-.18-.5-.35-.78-.52l-1.34-.77a11.79,11.79,0,0,0-4.34-1.37c-3-.39-9.41-.12-8.94,2.64.15.9,2.09,1.64,3.21,2.25l.16.08-4.88,2.82c-.83.48-.92,1.2-.2,1.62l2.39,1.38a3.14,3.14,0,0,0,2.81-.12l4.87-2.81.25.14a11.39,11.39,0,0,0,3.2,1.47,4.83,4.83,0,0,0,1.7.16A4.15,4.15,0,0,0,113.85,63Z"/><path class="cls-11" d="M109.83,63.67a5,5,0,0,1-1.29.17c-.5,0-1,0-1.49-.05s-.93-.07-1.37,0a2.08,2.08,0,0,0-1.09.37c-1.42.84-2.87,1.66-4.3,2.49a3.14,3.14,0,0,1-2.81.12l-.81-.47L96.19,66l-1.1-.63c-.72-.42-.63-1.14.21-1.63l3.88-2.24c.36-.2.87-.39.91-.68a1,1,0,0,0-.44-.82l0,0c-.34-.32-.8-.63-.82-1a.47.47,0,0,1,0-.2,1.57,1.57,0,0,1,.55-.69,7.58,7.58,0,0,1,5.15-1.14,11.16,11.16,0,0,1,4,1.29,5.58,5.58,0,0,1,2.94,2.73A2.17,2.17,0,0,1,109.83,63.67Z"/><path class="cls-10" d="M109.23,61.21a1.82,1.82,0,0,1-.93,1.3,3.39,3.39,0,0,1-.82.45,8.86,8.86,0,0,1-1.47.26,24.11,24.11,0,0,0-3,.72c-1,.29-1.93.61-2.86,1a18.52,18.52,0,0,0-2.43,1,2.78,2.78,0,0,1-.49.24,1.09,1.09,0,0,1-.59.07h0L96.19,66a.29.29,0,0,1,0-.28,4.64,4.64,0,0,1,1.23-1,6.44,6.44,0,0,0,1.3-1.24,11.63,11.63,0,0,0,1-1.47,5.8,5.8,0,0,0,.66-1.35,7.25,7.25,0,0,1,.27-.87,2.74,2.74,0,0,1,1.87-1.17,6.57,6.57,0,0,1,4,.43c.45.22.88.45,1.3.69C108.52,60.08,109.23,60.58,109.23,61.21Z"/><path class="cls-9" d="M103,60.6a4.19,4.19,0,0,0,.44-.31c.1-.09.19-.2.17-.3s-.2-.16-.34-.21c-.35-.12-.76-.18-1.14-.27-.54-.12-1.08-.26-1.6-.42a5.32,5.32,0,0,0-1.25-.28,1.54,1.54,0,0,0-.53,0c-.16.06-.27.18-.21.27a.27.27,0,0,0,.1.08l2.24,1.39a1.78,1.78,0,0,0,1.18.34A2.46,2.46,0,0,0,103,60.6Z"/><path class="cls-9" d="M106,62.13c.36-.19.77-.59,1.17-.35a2.11,2.11,0,0,1,.66.82,10.14,10.14,0,0,0,.73.92,1.69,1.69,0,0,1,.49.73.3.3,0,0,1-.09.3.6.6,0,0,1-.46.13l-.15-.06L106,63.32c-.32-.18-.67-.4-.58-.68S105.75,62.28,106,62.13Z"/><path class="cls-9" d="M90.37,17.64a4.12,4.12,0,0,1-3.54,2.56A4.8,4.8,0,0,1,85.14,20a11.89,11.89,0,0,1-3.21-1.47l-.22-.13h0l-4.87,2.81a3,3,0,0,1-1.24.38,3.3,3.3,0,0,1-.95,0,2.27,2.27,0,0,1-.62-.22L71.62,20a.83.83,0,0,1-.48-.62h0v-.69h.28a1.52,1.52,0,0,1,.41-.31l1.5-.87.32-.18,3.06-1.77-.16-.08c-1.13-.61-3.07-1.35-3.22-2.25,0-.07,0-.15,0-.22h0v-.52l.07,0c.67-2.09,6.16-2.27,8.89-1.92a11.79,11.79,0,0,1,4.34,1.37l1.35.77.33.21a4.91,4.91,0,0,1,.44.31A3.89,3.89,0,0,1,90.37,17.64Z"/><path class="cls-9" d="M74,18.51l.59.28a.16.16,0,0,1,.08.06.25.25,0,0,1,0,.12,3.37,3.37,0,0,1-.09.34,1.51,1.51,0,0,0,0,.37v1.56A2,2,0,0,1,74,21l-2.38-1.37a.87.87,0,0,1-.49-.63h0v-.15a1.13,1.13,0,0,1,0-.41c.07-.13.37-.19.5-.23a2.91,2.91,0,0,1,1.28,0A5.37,5.37,0,0,1,74,18.51Z"/><path class="cls-10" d="M90.37,16.78a3.89,3.89,0,0,0-1.65-4.41,7.39,7.39,0,0,0-.77-.52l-1.35-.77a11.79,11.79,0,0,0-4.34-1.37c-3-.39-9.4-.12-8.94,2.64.15.9,2.09,1.64,3.22,2.25l.16.08L71.82,17.5c-.83.48-.93,1.2-.21,1.62L74,20.5a3.14,3.14,0,0,0,2.81-.12l4.87-2.82.25.15a11.89,11.89,0,0,0,3.21,1.47,5,5,0,0,0,1.69.16A4.12,4.12,0,0,0,90.37,16.78Z"/><path class="cls-11" d="M86.35,17.44a4.54,4.54,0,0,1-1.28.16c-.5,0-1,0-1.49,0s-.93-.07-1.38,0a2,2,0,0,0-1.09.37c-1.41.84-2.87,1.66-4.3,2.49A3.14,3.14,0,0,1,74,20.5L73.2,20l-.48-.28-1.1-.63c-.72-.42-.63-1.14.2-1.63l3.89-2.24c.35-.21.86-.39.9-.68a1,1,0,0,0-.43-.82l0,0c-.35-.32-.81-.63-.83-1a.75.75,0,0,1,0-.2,1.54,1.54,0,0,1,.54-.69,7.6,7.6,0,0,1,5.15-1.14,11.28,11.28,0,0,1,4,1.29c1.43.76,2.53,1.57,2.93,2.73A2.17,2.17,0,0,1,86.35,17.44Z"/><path class="cls-10" d="M85.75,15a1.79,1.79,0,0,1-.93,1.3,4.16,4.16,0,0,1-.81.45,8.86,8.86,0,0,1-1.47.26,24.27,24.27,0,0,0-3,.72c-1,.29-1.93.61-2.86,1a19.12,19.12,0,0,0-2.43,1,4.47,4.47,0,0,1-.49.24,1.06,1.06,0,0,1-.58.07h0l-.48-.28a.25.25,0,0,1,0-.28,4.64,4.64,0,0,1,1.23-1,7,7,0,0,0,1.29-1.24,10.64,10.64,0,0,0,1-1.47,5.85,5.85,0,0,0,.67-1.35,4.84,4.84,0,0,1,.27-.87A2.66,2.66,0,0,1,79,12.32a6.55,6.55,0,0,1,4,.43c.45.22.89.45,1.3.69C85.05,13.85,85.75,14.35,85.75,15Z"/><path class="cls-9" d="M79.49,14.37a3.35,3.35,0,0,0,.44-.31c.1-.1.19-.2.17-.3s-.19-.17-.34-.22c-.35-.12-.75-.17-1.13-.26-.55-.12-1.09-.26-1.6-.42a5.52,5.52,0,0,0-1.26-.28,1.51,1.51,0,0,0-.52.05c-.16.06-.28.18-.22.27a.27.27,0,0,0,.1.08l2.25,1.39a1.75,1.75,0,0,0,1.17.34A2.4,2.4,0,0,0,79.49,14.37Z"/><path class="cls-9" d="M82.54,15.9c.36-.2.77-.59,1.17-.35a2.15,2.15,0,0,1,.67.82,8.65,8.65,0,0,0,.73.92,1.66,1.66,0,0,1,.48.73.3.3,0,0,1-.09.3.55.55,0,0,1-.46.12.35.35,0,0,1-.14-.06l-2.41-1.29c-.33-.18-.68-.4-.58-.68S82.27,16.05,82.54,15.9Z"/><path class="cls-9" d="M37.67,20.71a4.13,4.13,0,0,0,3.54,2.56,4.83,4.83,0,0,0,1.7-.15,11.69,11.69,0,0,0,3.2-1.48l.23-.13h0l4.87,2.81a3,3,0,0,0,1.25.38,3.25,3.25,0,0,0,.94,0,2,2,0,0,0,.62-.22l2.39-1.38a.88.88,0,0,0,.48-.62h0v-1l-.28.34a1.54,1.54,0,0,0-.41-.32l-1.5-.87-.31-.18-3.06-1.77.15-.08c1.13-.61,3.07-1.35,3.22-2.24a2,2,0,0,0,0-.23h0v-.52l-.07,0c-.67-2.1-6.16-2.28-8.89-1.93A11.79,11.79,0,0,0,41.44,15l-1.34.78a3.79,3.79,0,0,0-.34.2c-.15.1-.3.2-.44.31A3.91,3.91,0,0,0,37.67,20.71Z"/><path class="cls-9" d="M37.67,20.34a4.13,4.13,0,0,0,3.54,2.56,4.83,4.83,0,0,0,1.7-.15,11.4,11.4,0,0,0,3.2-1.48l.23-.13a6.17,6.17,0,0,0,0-1.36c0-.31.12-1-.14-1.09a2.15,2.15,0,0,0-1.32.11c-.46.13-.91.33-1.37.48a6.85,6.85,0,0,1-2.06.35,1.56,1.56,0,0,1-.48,0,2.06,2.06,0,0,1-.49-.25,2.14,2.14,0,0,1-1-1.06,3.09,3.09,0,0,1-.05-.86,2.92,2.92,0,0,0-.19-1.13c-.75,0-1.27,1.05-1.51,1.7A3.64,3.64,0,0,0,37.67,20.34Z"/><path class="cls-10" d="M37.67,19.82a3.92,3.92,0,0,1,1.65-4.41,7.5,7.5,0,0,1,.78-.51l1.34-.78a12,12,0,0,1,4.34-1.36c3-.39,9.4-.13,8.94,2.64-.15.89-2.09,1.63-3.22,2.24l-.15.09,4.87,2.81c.84.48.93,1.21.21,1.62L54,23.54a3.11,3.11,0,0,1-2.81-.12l-4.87-2.81a2,2,0,0,1-.25.14,11.4,11.4,0,0,1-3.2,1.48,4.81,4.81,0,0,1-1.7.15A4.13,4.13,0,0,1,37.67,19.82Z"/><path class="cls-11" d="M41.69,20.49a4.61,4.61,0,0,0,1.29.16c.5,0,1,0,1.48,0s.94-.07,1.38-.05a2.12,2.12,0,0,1,1.09.38c1.42.84,2.87,1.66,4.3,2.48a3.11,3.11,0,0,0,2.81.12l.81-.46.48-.28,1.1-.64c.72-.41.63-1.14-.21-1.62L52.33,18.3c-.35-.21-.86-.39-.9-.69a1,1,0,0,1,.44-.82h0c.35-.33.81-.64.83-1a.36.36,0,0,0,0-.2,1.48,1.48,0,0,0-.54-.69A7.58,7.58,0,0,0,47,13.7,11.36,11.36,0,0,0,43,15a5.54,5.54,0,0,0-2.94,2.73A2.17,2.17,0,0,0,41.69,20.49Z"/><path class="cls-10" d="M42.29,18a1.8,1.8,0,0,0,.93,1.3,3.39,3.39,0,0,0,.82.45,8.86,8.86,0,0,0,1.47.26,24.14,24.14,0,0,1,3,.73c1,.28,1.93.6,2.86.95a18.52,18.52,0,0,1,2.43,1.05,3.21,3.21,0,0,0,.49.25,1.32,1.32,0,0,0,.59.07h0l.48-.28a.29.29,0,0,0,0-.28,4.49,4.49,0,0,0-1.23-1.06,6.69,6.69,0,0,1-1.3-1.23,10.15,10.15,0,0,1-1-1.48,6.22,6.22,0,0,1-.67-1.34,5.42,5.42,0,0,0-.26-.87,2.71,2.71,0,0,0-1.87-1.17,6.57,6.57,0,0,0-4,.42c-.45.22-.88.45-1.3.69C43,16.9,42.29,17.39,42.29,18Z"/><path class="cls-9" d="M48.55,17.42a3.12,3.12,0,0,1-.44-.32c-.1-.09-.19-.19-.17-.3s.2-.16.34-.21a10.32,10.32,0,0,1,1.13-.26c.55-.13,1.09-.27,1.61-.42a5.32,5.32,0,0,1,1.25-.28,1.28,1.28,0,0,1,.52,0c.17.05.28.17.22.26s-.06.06-.1.09l-2.25,1.39a1.73,1.73,0,0,1-1.17.33A2.39,2.39,0,0,1,48.55,17.42Z"/><path class="cls-9" d="M45.5,19c-.36-.2-.77-.59-1.17-.35a2.2,2.2,0,0,0-.67.81,6.92,6.92,0,0,1-.73.93,1.79,1.79,0,0,0-.48.72.32.32,0,0,0,.09.31.56.56,0,0,0,.46.12.67.67,0,0,0,.15-.06l2.4-1.29c.33-.18.68-.4.58-.68S45.77,19.09,45.5,19Z"/><path class="cls-9" d="M55.16,65.73a4.13,4.13,0,0,0,3.55,2.56,4.78,4.78,0,0,0,1.69-.15,11.89,11.89,0,0,0,3.21-1.47l.22-.13,0,0,4.88,2.81a2.9,2.9,0,0,0,1.24.38,2.73,2.73,0,0,0,1,0,2,2,0,0,0,.62-.22l2.38-1.38a.82.82,0,0,0,.48-.62h0a.38.38,0,0,0,0-.15v-.85l-.27.33a2.34,2.34,0,0,0-.41-.32l-1.51-.87-.31-.18-3.06-1.76.16-.09c1.12-.61,3.06-1.35,3.21-2.24a1.79,1.79,0,0,0,0-.23h0v-.52l-.07,0c-.68-2.09-6.17-2.28-8.89-1.92A12,12,0,0,0,58.93,60l-1.34.78-.34.21-.44.3A3.92,3.92,0,0,0,55.16,65.73Z"/><path class="cls-9" d="M55.16,65.36a4.13,4.13,0,0,0,3.55,2.56,4.78,4.78,0,0,0,1.69-.15,11.89,11.89,0,0,0,3.21-1.47l.22-.13a6.27,6.27,0,0,0,0-1.37c0-.31.12-.95-.14-1.09a2.19,2.19,0,0,0-1.31.11c-.47.13-.91.33-1.37.48a7.31,7.31,0,0,1-2.06.36,1.86,1.86,0,0,1-.48,0,1.74,1.74,0,0,1-.49-.25,2.16,2.16,0,0,1-1-1.06,3,3,0,0,1-.05-.85,2.61,2.61,0,0,0-.19-1.14c-.75,0-1.27,1-1.51,1.7A3.64,3.64,0,0,0,55.16,65.36Z"/><path class="cls-10" d="M55.17,64.84a3.9,3.9,0,0,1,1.64-4.41,7.5,7.5,0,0,1,.78-.51l1.34-.77a11.79,11.79,0,0,1,4.35-1.37c3-.39,9.4-.12,8.93,2.64-.15.89-2.08,1.64-3.21,2.24l-.16.09,4.88,2.81c.83.49.92,1.21.2,1.63l-2.38,1.37a3.11,3.11,0,0,1-2.81-.11l-4.88-2.82-.24.15a11.89,11.89,0,0,1-3.21,1.47,5,5,0,0,1-1.69.16A4.13,4.13,0,0,1,55.17,64.84Z"/><path class="cls-11" d="M59.18,65.51a4.66,4.66,0,0,0,1.29.16c.5,0,1,0,1.49,0s.93-.07,1.38,0a2,2,0,0,1,1.09.37c1.41.84,2.86,1.66,4.3,2.49a3.14,3.14,0,0,0,2.81.12l.8-.47.48-.28,1.1-.63c.72-.42.63-1.15-.2-1.63l-3.89-2.24c-.36-.21-.86-.39-.9-.68a.94.94,0,0,1,.43-.82l0,0c.34-.32.81-.63.83-1a.75.75,0,0,0,0-.2,1.54,1.54,0,0,0-.54-.69,7.56,7.56,0,0,0-5.16-1.14,11.16,11.16,0,0,0-4,1.29c-1.43.76-2.53,1.57-2.93,2.73A2.17,2.17,0,0,0,59.18,65.51Z"/><path class="cls-10" d="M59.78,63.05a1.81,1.81,0,0,0,.94,1.3,3.46,3.46,0,0,0,.81.44,7.18,7.18,0,0,0,1.47.26,24.75,24.75,0,0,1,3,.73c1,.29,1.93.61,2.85,1a18.66,18.66,0,0,1,2.44,1.05,4.29,4.29,0,0,0,.48.24,1.11,1.11,0,0,0,.59.07h0l.48-.28a.25.25,0,0,0,0-.28,4.64,4.64,0,0,0-1.23-1.05,6.73,6.73,0,0,1-1.3-1.24,11.53,11.53,0,0,1-1-1.47,5.85,5.85,0,0,1-.67-1.35,5.8,5.8,0,0,0-.27-.87,2.68,2.68,0,0,0-1.86-1.17,6.48,6.48,0,0,0-4,.43c-.46.21-.89.45-1.31.69C60.49,61.92,59.79,62.42,59.78,63.05Z"/><path class="cls-9" d="M66,62.44a3,3,0,0,1-.43-.32c-.11-.09-.19-.19-.18-.29s.2-.17.34-.22c.35-.12.76-.17,1.14-.26.55-.12,1.08-.26,1.6-.42a5.4,5.4,0,0,1,1.26-.28,1.51,1.51,0,0,1,.52.05c.16.06.28.18.22.27a.31.31,0,0,1-.11.08l-2.24,1.39a1.83,1.83,0,0,1-1.17.34A2.45,2.45,0,0,1,66,62.44Z"/><path class="cls-9" d="M63,64c-.36-.2-.76-.59-1.17-.35a2.22,2.22,0,0,0-.66.82,10.14,10.14,0,0,1-.73.92,1.69,1.69,0,0,0-.49.73.35.35,0,0,0,.09.3.57.57,0,0,0,.46.12.34.34,0,0,0,.15-.06l2.41-1.29c.33-.18.68-.4.58-.68S63.27,64.12,63,64Z"/><path class="cls-9" d="M113.48,48.71A4.12,4.12,0,0,0,117,51.27a4.8,4.8,0,0,0,1.69-.16,11.89,11.89,0,0,0,3.21-1.47l.22-.13h0L127,52.31a3,3,0,0,0,1.24.38,3.32,3.32,0,0,0,.95,0,2.27,2.27,0,0,0,.62-.22l2.38-1.38a.85.85,0,0,0,.48-.63h0a.38.38,0,0,0,0-.15v-.85l-.27.33a1.69,1.69,0,0,0-.41-.31l-1.51-.87-.31-.18-3.06-1.77a.8.8,0,0,1,.16-.08c1.13-.62,3.07-1.36,3.21-2.25a.82.82,0,0,0,0-.22h0v-.53l-.07,0c-.68-2.09-6.17-2.27-8.89-1.92A11.73,11.73,0,0,0,117.25,43l-1.35.77-.34.21c-.15.1-.3.2-.44.31A3.89,3.89,0,0,0,113.48,48.71Z"/><path class="cls-9" d="M113.48,48.34A4.12,4.12,0,0,0,117,50.9a4.8,4.8,0,0,0,1.69-.16,11.89,11.89,0,0,0,3.21-1.47l.22-.13a6.18,6.18,0,0,0,0-1.36c0-.31.13-1-.14-1.1a2.27,2.27,0,0,0-1.31.11c-.47.14-.91.34-1.37.49a6.85,6.85,0,0,1-2.06.35,1.54,1.54,0,0,1-.48-.05,1.49,1.49,0,0,1-.49-.24,2.14,2.14,0,0,1-1-1.07,3,3,0,0,1,0-.85,2.94,2.94,0,0,0-.19-1.14c-.76,0-1.28,1.06-1.52,1.71A3.64,3.64,0,0,0,113.48,48.34Z"/><path class="cls-10" d="M113.48,47.82a3.89,3.89,0,0,1,1.64-4.41,7.5,7.5,0,0,1,.78-.51l1.35-.78a11.67,11.67,0,0,1,4.34-1.37c3-.39,9.4-.12,8.93,2.65-.15.89-2.08,1.63-3.21,2.24l-.16.08L132,48.54c.83.48.92,1.21.2,1.62l-2.38,1.38a3.14,3.14,0,0,1-2.81-.12l-4.88-2.81-.24.14a11.9,11.9,0,0,1-3.21,1.48,4.78,4.78,0,0,1-1.69.15A4.12,4.12,0,0,1,113.48,47.82Z"/><path class="cls-11" d="M117.5,48.48a4.54,4.54,0,0,0,1.28.17c.5,0,1,0,1.49,0s.93-.06,1.38,0a2,2,0,0,1,1.09.38c1.41.84,2.86,1.65,4.3,2.48a3.14,3.14,0,0,0,2.81.12l.8-.47.48-.27,1.1-.64c.72-.41.63-1.14-.2-1.62l-3.89-2.25c-.35-.2-.86-.39-.9-.68a1,1,0,0,1,.43-.82h0c.35-.33.81-.64.83-1.05a.63.63,0,0,0,0-.19,1.52,1.52,0,0,0-.54-.7,7.68,7.68,0,0,0-5.16-1.14,11.16,11.16,0,0,0-4,1.29c-1.43.76-2.53,1.57-2.93,2.73A2.17,2.17,0,0,0,117.5,48.48Z"/><path class="cls-10" d="M118.09,46a1.84,1.84,0,0,0,.94,1.3,3.32,3.32,0,0,0,.81.45,8.86,8.86,0,0,0,1.47.26,23,23,0,0,1,3,.73c1,.28,1.93.6,2.85,1a18.66,18.66,0,0,1,2.44,1,2.39,2.39,0,0,0,.48.24,1.23,1.23,0,0,0,.59.08h0l.48-.27a.26.26,0,0,0,0-.29,4.64,4.64,0,0,0-1.23-1,6.65,6.65,0,0,1-1.29-1.24,10.07,10.07,0,0,1-1-1.47A5.66,5.66,0,0,1,127,45.4a4.84,4.84,0,0,0-.27-.87,2.73,2.73,0,0,0-1.86-1.17,6.62,6.62,0,0,0-4,.43c-.46.22-.89.45-1.31.69C118.8,44.9,118.1,45.39,118.09,46Z"/><path class="cls-9" d="M124.36,45.41a3.35,3.35,0,0,1-.44-.31c-.11-.09-.19-.2-.17-.3s.19-.16.33-.21c.35-.12.76-.18,1.14-.27.55-.12,1.08-.26,1.6-.42a5.52,5.52,0,0,1,1.26-.28,1.51,1.51,0,0,1,.52.05c.16.06.28.18.22.27a.53.53,0,0,1-.11.09l-2.24,1.39a1.82,1.82,0,0,1-1.17.33A2.26,2.26,0,0,1,124.36,45.41Z"/><path class="cls-9" d="M121.3,46.94c-.36-.19-.76-.59-1.16-.35a2.23,2.23,0,0,0-.67.82,8,8,0,0,1-.73.92,1.69,1.69,0,0,0-.49.73.35.35,0,0,0,.09.3.61.61,0,0,0,.46.13l.15-.06,2.41-1.3c.33-.17.68-.4.58-.67S121.58,47.09,121.3,46.94Z"/><path class="cls-9" d="M39.35,34.13a4.16,4.16,0,0,0,3.54,2.56,5.08,5.08,0,0,0,1.7-.16,11.68,11.68,0,0,0,3.2-1.47l.23-.13,0,0,4.87,2.82a3.21,3.21,0,0,0,1.25.38,3.34,3.34,0,0,0,1,0,2,2,0,0,0,.61-.23l2.39-1.37a.88.88,0,0,0,.48-.63h0a.75.75,0,0,0,0-.15v-.85l-.27.33a2.1,2.1,0,0,0-.42-.32L56.4,34l-.31-.19L53,32l.16-.09c1.12-.61,3.06-1.35,3.21-2.24a1.79,1.79,0,0,0,0-.23h0V29l-.07,0c-.67-2.09-6.16-2.27-8.89-1.92a11.79,11.79,0,0,0-4.34,1.37l-1.34.77-.34.21-.44.3A3.93,3.93,0,0,0,39.35,34.13Z"/><path class="cls-9" d="M39.35,33.76a4.15,4.15,0,0,0,3.54,2.56,4.83,4.83,0,0,0,1.7-.16,11.68,11.68,0,0,0,3.2-1.47l.23-.13a6.18,6.18,0,0,0,0-1.36c0-.31.12-1-.14-1.1a2.31,2.31,0,0,0-1.32.11c-.46.14-.9.34-1.36.49a7,7,0,0,1-2.07.35,1.57,1.57,0,0,1-.48,0,3,3,0,0,1-1.51-1.31,3,3,0,0,1,0-.85,2.77,2.77,0,0,0-.19-1.14c-.75.05-1.27,1.06-1.51,1.71A3.64,3.64,0,0,0,39.35,33.76Z"/><path class="cls-10" d="M39.35,33.24A3.91,3.91,0,0,1,41,28.83a7.5,7.5,0,0,1,.78-.51l1.34-.78a11.79,11.79,0,0,1,4.34-1.37c3-.39,9.41-.12,8.94,2.65-.15.89-2.09,1.63-3.21,2.24l-.16.08L57.91,34c.83.48.92,1.2.2,1.62L55.72,37a3.14,3.14,0,0,1-2.81-.12L48,34l-.25.14a11.69,11.69,0,0,1-3.2,1.48,5.06,5.06,0,0,1-1.7.15A4.15,4.15,0,0,1,39.35,33.24Z"/><path class="cls-11" d="M43.37,33.9a5,5,0,0,0,1.29.17c.5,0,1,0,1.49,0s.93-.06,1.37,0a2,2,0,0,1,1.09.38c1.42.83,2.87,1.65,4.3,2.48a3.14,3.14,0,0,0,2.81.12l.81-.47.48-.28,1.1-.63c.72-.42.63-1.14-.21-1.62L54,31.71c-.36-.2-.87-.39-.91-.68a1,1,0,0,1,.44-.82l0,0c.34-.32.8-.63.82-1a.47.47,0,0,0,0-.2,1.57,1.57,0,0,0-.55-.69,7.58,7.58,0,0,0-5.15-1.14,11.16,11.16,0,0,0-4,1.29,5.58,5.58,0,0,0-2.94,2.73A2.18,2.18,0,0,0,43.37,33.9Z"/><path class="cls-10" d="M44,31.44a1.82,1.82,0,0,0,.93,1.3,3.39,3.39,0,0,0,.82.45,8.86,8.86,0,0,0,1.47.26,24.11,24.11,0,0,1,3,.72c1,.29,1.93.61,2.86,1a18.52,18.52,0,0,1,2.43,1,2.78,2.78,0,0,0,.49.24,1.09,1.09,0,0,0,.59.07h0l.48-.28a.29.29,0,0,0,0-.28,4.64,4.64,0,0,0-1.23-1,6.44,6.44,0,0,1-1.3-1.24,11.63,11.63,0,0,1-1-1.47,5.8,5.8,0,0,1-.66-1.35,7.25,7.25,0,0,0-.27-.87,2.74,2.74,0,0,0-1.86-1.17,6.67,6.67,0,0,0-4.06.43c-.45.22-.88.45-1.3.69C44.68,30.31,44,30.81,44,31.44Z"/><path class="cls-9" d="M50.23,30.83a3.2,3.2,0,0,1-.43-.31c-.11-.09-.2-.2-.18-.3s.2-.16.34-.21c.35-.12.76-.18,1.14-.27.54-.12,1.08-.26,1.6-.42A5.29,5.29,0,0,1,54,29a1.51,1.51,0,0,1,.52.05c.16.06.27.18.21.27a.27.27,0,0,1-.1.08l-2.24,1.39a1.77,1.77,0,0,1-1.17.34A2.3,2.3,0,0,1,50.23,30.83Z"/><path class="cls-9" d="M47.18,32.36c-.36-.19-.77-.59-1.17-.35a2.11,2.11,0,0,0-.66.82,8.92,8.92,0,0,1-.73.92,1.69,1.69,0,0,0-.49.73.3.3,0,0,0,.09.3.6.6,0,0,0,.46.13l.15-.06,2.4-1.3c.33-.18.69-.4.59-.68S47.45,32.51,47.18,32.36Z"/><path class="cls-12" d="M51.22,20.58c-.3-.55-.7-2.56-1.36-3-2.89-2-8.25-2.13-12-.41a8,8,0,0,0-1.66,1A13.76,13.76,0,0,0,25.18,18a5.65,5.65,0,0,0-3.07,3.33l-.17-.16-.09,1.95a.25.25,0,0,1,0,.08v.1h0a4.07,4.07,0,0,0,1.77,3.48,11.55,11.55,0,0,0,6.74,1.7l-.06,1.12h0a3.54,3.54,0,0,0,1.79,3.14c2.89,2,8.25,2.29,11.95.57,2.11-1,3.23-2.38,3.27-3.79l.12-2.38L46.88,27l-.07.27a4.38,4.38,0,0,0-.57-.68l.57.1-.16.35a10.49,10.49,0,0,0,1.63-.59c2-.92,3.11-2.24,3.26-3.57h0v-.07c0-.07.15-2.77.15-2.77ZM47.66,24a8.51,8.51,0,0,1-1.25.29l-.64.43-1.11-.4-.12,2.5.65.64C47,29.23,46.26,29.7,43.41,31c-3.19,1.48-7.81,1.26-10.31-.5-1.44-1-2-.56-1.35-1.85l.44-.88.12-2.5-.77.55-.25.73,0,.67-.55-1.59a10.21,10.21,0,0,1-6.06-1.46c-2.49-1.76-2-2.18,1.16-3.66a11.82,11.82,0,0,1,9.54,0l1,.49.78-.63a6.89,6.89,0,0,1,1.43-.87c3.19-1.48,7.82-1.26,10.32.49S50.85,22.55,47.66,24Z"/><path class="cls-13" d="M46.33,24.64a11.57,11.57,0,0,0,2.08-.71c3.71-1.72,4.37-4.77,1.47-6.8s-8.25-2.29-12-.57a8,8,0,0,0-1.66,1,13.76,13.76,0,0,0-11.06,0c-3.71,1.71-4.36,4.76-1.47,6.79a11.79,11.79,0,0,0,7,1.7c-.72,1.45-.28,3,1.47,4.26,2.89,2,8.24,2.3,11.94.58C47.53,29.3,48.38,26.64,46.33,24.64ZM33.14,29.86c-1.44-1-1.91-2.39-1.27-3.69l.44-.88-1.6.07a10.25,10.25,0,0,1-6.05-1.46c-2.49-1.76-1.92-4.39,1.27-5.87a11.82,11.82,0,0,1,9.54,0l1,.49.78-.62a6.84,6.84,0,0,1,1.42-.88c3.2-1.48,7.83-1.26,10.32.49s1.92,4.39-1.27,5.87a9.49,9.49,0,0,1-1.8.62l-1.23.31.66.64c1.77,1.74,1,4-1.87,5.36C40.26,31.83,35.63,31.61,33.14,29.86Z"/><path class="cls-12" d="M95.29,54.43c-.29-.55-.69-2.55-1.36-3-2.89-2-8.25-2.14-12-.42a7.89,7.89,0,0,0-1.65,1,13.8,13.8,0,0,0-11.06-.13,5.62,5.62,0,0,0-3.07,3.33L66,55.06,65.92,57v.19h0a4.08,4.08,0,0,0,1.77,3.47,11.58,11.58,0,0,0,6.74,1.7l-.05,1.12h0a3.54,3.54,0,0,0,1.79,3.14c2.89,2,8.24,2.3,12,.58,2.11-1,3.23-2.39,3.26-3.8L91.5,61,91,60.82l-.07.28a3.94,3.94,0,0,0-.56-.69l.56.1-.15.35a10.47,10.47,0,0,0,1.63-.58c2-.93,3.11-2.24,3.25-3.58h0v-.06c0-.07.15-2.78.15-2.78Zm-3.55,3.46c-.39.17-.81.15-1.25.29l-.64.42-1.11-.4-.13,2.5.66.64c1.77,1.74,1.06,2.21-1.78,3.53-3.19,1.48-7.82,1.26-10.31-.49-1.44-1-2-.56-1.36-1.85l.45-.89.12-2.5-.77.55-.26.74,0,.67-.56-1.6a10.18,10.18,0,0,1-6-1.46c-2.49-1.75-2-2.18,1.16-3.66a11.82,11.82,0,0,1,9.54,0l1,.49.78-.62a6.92,6.92,0,0,1,1.43-.88c3.19-1.48,7.82-1.26,10.31.49S94.93,56.4,91.74,57.89Z"/><path class="cls-13" d="M90.41,58.5a11.6,11.6,0,0,0,2.08-.72C96.19,56.06,96.85,53,94,51s-8.25-2.29-12-.57a7.61,7.61,0,0,0-1.65,1,13.76,13.76,0,0,0-11.06,0c-3.71,1.72-4.37,4.76-1.48,6.8a11.82,11.82,0,0,0,7,1.69c-.73,1.45-.29,3,1.46,4.27,2.89,2,8.25,2.29,11.95.57C91.61,63.15,92.45,60.5,90.41,58.5Zm-13.2,5.21C75.77,62.7,75.3,61.32,76,60l.44-.89-1.6.07a10.16,10.16,0,0,1-6.05-1.46C66.24,56,66.81,53.36,70,51.88a11.82,11.82,0,0,1,9.54,0l1,.5.78-.63a6.92,6.92,0,0,1,1.43-.88c3.19-1.48,7.82-1.26,10.32.5s1.92,4.38-1.27,5.87a10.54,10.54,0,0,1-1.8.61l-1.23.31.65.65c1.78,1.73,1,4-1.87,5.36C84.33,65.68,79.71,65.46,77.21,63.71Z"/><path class="cls-12" d="M113.29,18.84c-.28-.51-.65-2.38-1.27-2.81-2.69-1.9-7.68-2-11.14-.39a7.11,7.11,0,0,0-1.54,1A12.8,12.8,0,0,0,89,16.48a5.28,5.28,0,0,0-2.87,3.1L86,19.43l-.09,1.82a.17.17,0,0,1,0,.07v.1h0a3.8,3.8,0,0,0,1.65,3.24,10.88,10.88,0,0,0,6.28,1.58l0,1h0a3.28,3.28,0,0,0,1.66,2.92c2.7,1.9,7.68,2.14,11.13.54,2-.92,3-2.23,3.05-3.54l.11-2.22-.51-.2-.07.26a3.41,3.41,0,0,0-.53-.63l.53.09-.14.33a10.53,10.53,0,0,0,1.52-.55c1.86-.86,2.89-2.09,3-3.33h0v-.06c0-.07.14-2.59.14-2.59ZM110,22.06a7.73,7.73,0,0,1-1.17.27l-.59.4-1-.37-.11,2.32.61.6c1.65,1.62,1,2.06-1.66,3.29-3,1.38-7.28,1.17-9.61-.46-1.34-.94-1.86-.52-1.26-1.73l.41-.82.12-2.33-.72.51-.24.69,0,.62-.52-1.48a9.52,9.52,0,0,1-5.64-1.36c-2.32-1.64-1.89-2,1.08-3.41a11,11,0,0,1,8.89,0l.9.46.73-.58a6.66,6.66,0,0,1,1.33-.82c3-1.38,7.29-1.17,9.61.46S113,20.68,110,22.06Z"/><path class="cls-13" d="M108.74,22.63a10.71,10.71,0,0,0,1.93-.67c3.46-1.6,4.07-4.43,1.37-6.33s-7.68-2.14-11.13-.53a7.58,7.58,0,0,0-1.55.94,12.81,12.81,0,0,0-10.3,0c-3.45,1.6-4.06,4.44-1.37,6.33a10.92,10.92,0,0,0,6.53,1.58c-.67,1.35-.26,2.83,1.37,4,2.69,1.89,7.68,2.13,11.13.53C109.86,27,110.64,24.49,108.74,22.63Zm-12.3,4.86c-1.33-.94-1.77-2.23-1.17-3.43l.41-.83-1.5.07a9.43,9.43,0,0,1-5.63-1.37c-2.33-1.63-1.79-4.08,1.18-5.46a11,11,0,0,1,8.89,0l.9.46.73-.59a6.2,6.2,0,0,1,1.33-.81c3-1.38,7.28-1.18,9.61.46S113,20.11,110,21.49a9.07,9.07,0,0,1-1.67.58l-1.15.29.61.6c1.66,1.61.91,3.76-1.74,5C103.08,29.33,98.77,29.12,96.44,27.49Z"/><path class="cls-14" d="M135.42,35.41c-.28-.51-.65-2.38-1.26-2.82-2.7-1.89-7.69-2-11.15-.38a7.51,7.51,0,0,0-1.54.95,12.8,12.8,0,0,0-10.3-.12,5.28,5.28,0,0,0-2.87,3.1l-.15-.15-.09,1.82V38h0a3.8,3.8,0,0,0,1.65,3.24A10.73,10.73,0,0,0,116,42.8l0,1.05h0a3.29,3.29,0,0,0,1.66,2.93c2.7,1.89,7.68,2.13,11.13.53,2-.91,3-2.22,3.05-3.53l.11-2.22-.51-.2-.07.26a3.75,3.75,0,0,0-.52-.64l.52.1-.14.32a10.5,10.5,0,0,0,1.52-.54c1.86-.87,2.89-2.09,3-3.33h0v-.06c0-.06.13-2.58.13-2.58Zm-3.31,3.22a11.25,11.25,0,0,1-1.17.27l-.59.39-1-.37-.11,2.33.61.6c1.65,1.62,1,2.06-1.66,3.29-3,1.37-7.28,1.17-9.61-.46-1.33-1-1.86-.53-1.26-1.73l.42-.82.11-2.33-.72.51-.24.69,0,.62-.52-1.48a9.61,9.61,0,0,1-5.64-1.37c-2.32-1.63-1.89-2,1.09-3.41a11,11,0,0,1,8.88,0l.91.46.72-.58a6.23,6.23,0,0,1,1.33-.82c3-1.38,7.29-1.18,9.61.46S135.08,37.25,132.11,38.63Z"/><path class="cls-15" d="M130.87,39.2a10.71,10.71,0,0,0,1.93-.67c3.46-1.6,4.07-4.44,1.37-6.34s-7.68-2.13-11.13-.53a6.86,6.86,0,0,0-1.54.95,12.83,12.83,0,0,0-10.31,0c-3.45,1.6-4.06,4.43-1.37,6.33a11,11,0,0,0,6.53,1.58c-.67,1.35-.26,2.83,1.37,4,2.69,1.9,7.68,2.14,11.13.54C132,43.53,132.77,41.06,130.87,39.2Zm-12.29,4.85c-1.34-.94-1.78-2.22-1.18-3.43l.41-.82-1.49.06a9.52,9.52,0,0,1-5.64-1.36c-2.33-1.63-1.79-4.09,1.18-5.46a11,11,0,0,1,8.89,0l.9.46.73-.58a6.66,6.66,0,0,1,1.33-.82c3-1.38,7.28-1.17,9.61.46s1.79,4.09-1.19,5.47a9.08,9.08,0,0,1-1.67.57l-1.15.29.61.6c1.66,1.62.91,3.77-1.74,5C125.21,45.89,120.9,45.69,118.58,44.05Z"/><path class="cls-14" d="M62.54,52.6c-.28-.51-.64-2.38-1.26-2.81-2.7-1.9-7.69-2-11.15-.39a7.36,7.36,0,0,0-1.54,1,12.8,12.8,0,0,0-10.3-.12,5.28,5.28,0,0,0-2.87,3.1l-.15-.15L35.18,55v.17h0a3.8,3.8,0,0,0,1.65,3.24A10.73,10.73,0,0,0,43.11,60l0,1h0A3.3,3.3,0,0,0,44.72,64c2.7,1.9,7.68,2.14,11.14.54,2-.92,3-2.23,3-3.54L59,58.75l-.51-.19-.07.25a3.69,3.69,0,0,0-.52-.63l.52.09-.14.33a10.53,10.53,0,0,0,1.52-.55c1.86-.86,2.89-2.09,3-3.33h0v-.06c0-.07.13-2.59.13-2.59Zm-3.31,3.22a7.73,7.73,0,0,1-1.17.27l-.59.4-1-.37-.11,2.32.61.6c1.65,1.62,1,2.06-1.66,3.29-3,1.38-7.28,1.17-9.6-.46-1.34-.94-1.87-.52-1.27-1.72l.42-.83L44.93,57l-.72.52-.24.68,0,.62-.52-1.48A9.49,9.49,0,0,1,37.79,56c-2.33-1.64-1.9-2,1.08-3.41a11,11,0,0,1,8.88,0l.91.46.72-.58a6.66,6.66,0,0,1,1.33-.82c3-1.37,7.29-1.17,9.61.46S62.2,54.44,59.23,55.82Z"/><path class="cls-15" d="M58,56.39a11.07,11.07,0,0,0,1.94-.66c3.45-1.61,4.06-4.44,1.36-6.34s-7.67-2.14-11.13-.53a7.23,7.23,0,0,0-1.54.94,12.83,12.83,0,0,0-10.31,0c-3.45,1.6-4.06,4.44-1.37,6.33a10.92,10.92,0,0,0,6.53,1.58c-.67,1.35-.26,2.83,1.37,4,2.69,1.89,7.68,2.13,11.13.53C59.11,60.73,59.89,58.26,58,56.39ZM45.7,61.25c-1.34-.94-1.78-2.23-1.18-3.43l.41-.83-1.49.07A9.52,9.52,0,0,1,37.8,55.7C35.48,54.06,36,51.61,39,50.23a11,11,0,0,1,8.89,0l.9.46.73-.59a6.63,6.63,0,0,1,1.33-.81c3-1.38,7.28-1.18,9.61.46s1.79,4.08-1.19,5.46a8.39,8.39,0,0,1-1.67.58l-1.15.29.61.6c1.66,1.61.91,3.76-1.74,5C52.33,63.09,48,62.88,45.7,61.25Z"/><path class="cls-16" d="M116.14,44.85c-.27-.51-.64-2.38-1.26-2.82-2.7-1.89-7.69-2-11.15-.38a7.79,7.79,0,0,0-1.54,1,12.8,12.8,0,0,0-10.3-.11A5.23,5.23,0,0,0,89,45.58l-.15-.15-.09,1.82v.18h0a3.81,3.81,0,0,0,1.65,3.24,10.8,10.8,0,0,0,6.28,1.57l0,1h0a3.3,3.3,0,0,0,1.67,2.93c2.69,1.9,7.68,2.13,11.13.53,2-.91,3-2.22,3-3.53l.11-2.22-.51-.2-.07.26a3.75,3.75,0,0,0-.52-.64l.53.1-.15.32a10.5,10.5,0,0,0,1.52-.54c1.87-.87,2.89-2.09,3-3.33h0v-.06c0-.06.13-2.58.13-2.58Zm-3.31,3.22a11.66,11.66,0,0,1-1.16.27l-.6.39-1-.37-.12,2.33.61.6c1.65,1.62,1,2.06-1.66,3.29-3,1.38-7.28,1.17-9.6-.46-1.34-.95-1.87-.52-1.27-1.73l.42-.82.11-2.33-.72.51-.24.69,0,.62L97,49.58a9.51,9.51,0,0,1-5.63-1.37c-2.33-1.63-1.89-2,1.08-3.41a11,11,0,0,1,8.88,0l.91.46.73-.58a5.77,5.77,0,0,1,1.33-.82c3-1.38,7.28-1.18,9.6.46S115.8,46.69,112.83,48.07Z"/><path class="cls-17" d="M111.59,48.64a10.82,10.82,0,0,0,1.94-.67c3.45-1.6,4.06-4.44,1.37-6.34s-7.68-2.13-11.14-.53a7.1,7.1,0,0,0-1.54.95,12.83,12.83,0,0,0-10.31,0c-3.45,1.6-4.06,4.43-1.37,6.33a11,11,0,0,0,6.54,1.58c-.68,1.35-.27,2.83,1.36,4,2.7,1.9,7.68,2.14,11.13.54C112.71,53,113.5,50.5,111.59,48.64ZM99.3,53.5c-1.34-1-1.78-2.23-1.18-3.44l.41-.82L97,49.3a9.52,9.52,0,0,1-5.64-1.36c-2.32-1.63-1.79-4.08,1.18-5.46a11,11,0,0,1,8.89,0l.9.46.73-.58a6.66,6.66,0,0,1,1.33-.82c3-1.38,7.28-1.17,9.61.46s1.79,4.09-1.18,5.47a9.18,9.18,0,0,1-1.68.58l-1.14.28.61.6c1.65,1.62.9,3.77-1.75,5C105.93,55.33,101.62,55.13,99.3,53.5Z"/><path class="cls-16" d="M86,26.47c-.28-.51-.65-2.38-1.27-2.81-2.69-1.9-7.69-2-11.14-.39a6.88,6.88,0,0,0-1.54,1,12.83,12.83,0,0,0-10.31-.12,5.29,5.29,0,0,0-2.86,3.1l-.16-.15-.08,1.82a.17.17,0,0,0,0,.07v.1h0a3.85,3.85,0,0,0,1.65,3.24,10.76,10.76,0,0,0,6.29,1.58l-.06,1.05h0a3.31,3.31,0,0,0,1.66,2.93c2.7,1.89,7.68,2.13,11.13.53,2-.91,3-2.23,3-3.54l.11-2.22L82,32.43l-.06.25a4.32,4.32,0,0,0-.53-.63l.53.09-.14.33a11,11,0,0,0,1.52-.55c1.86-.86,2.89-2.09,3-3.33h0v-.06c0-.07.14-2.58.14-2.58Zm-3.32,3.22a8.58,8.58,0,0,1-1.16.28l-.59.39-1-.37-.11,2.32.61.6c1.65,1.62,1,2.06-1.66,3.29-3,1.38-7.28,1.18-9.61-.46-1.34-.94-1.86-.52-1.26-1.72l.41-.83.12-2.32-.72.51-.24.68,0,.62-.52-1.48a9.52,9.52,0,0,1-5.64-1.36c-2.32-1.64-1.89-2,1.08-3.41a11,11,0,0,1,8.89,0l.9.46.73-.59a6.2,6.2,0,0,1,1.33-.81c3-1.38,7.29-1.18,9.61.45S85.69,28.31,82.71,29.69Z"/><path class="cls-17" d="M81.48,30.26a10.69,10.69,0,0,0,1.93-.66c3.46-1.61,4.07-4.44,1.37-6.34s-7.68-2.13-11.13-.53a7.58,7.58,0,0,0-1.55.94,12.85,12.85,0,0,0-10.3,0c-3.45,1.6-4.07,4.44-1.37,6.33A10.9,10.9,0,0,0,67,31.54c-.67,1.35-.26,2.83,1.37,4,2.69,1.89,7.68,2.13,11.13.53C82.6,34.6,83.38,32.13,81.48,30.26Zm-12.3,4.86c-1.34-.94-1.78-2.23-1.18-3.43l.42-.82-1.5.06a9.49,9.49,0,0,1-5.63-1.36C59,27.93,59.5,25.48,62.47,24.1a11,11,0,0,1,8.88,0l.91.46L73,24a5.77,5.77,0,0,1,1.33-.82c3-1.38,7.28-1.18,9.6.46s1.8,4.09-1.18,5.47a9.08,9.08,0,0,1-1.67.57L79.92,30l.61.6c1.65,1.62.91,3.76-1.74,5C75.82,37,71.51,36.75,69.18,35.12Z"/><path class="cls-18" d="M73,9.89c-4-3-11.6-3.63-16.94-1.36-3.33,1.41-5,3.61-4.81,5.8a5.37,5.37,0,0,0,2.41,3.78c4,3,11.6,3.63,16.94,1.36,3-1.26,4.62-3.15,4.81-5.11C75.58,12.82,74.81,11.23,73,9.89Zm-9.66,9.52A15.18,15.18,0,0,1,54.55,17a3.74,3.74,0,0,1-1.84-3.26c.18-1.46,1.61-2.86,3.94-3.85a17.3,17.3,0,0,1,6.69-1.26A15.16,15.16,0,0,1,72.16,11c1.32,1,2,2.15,1.84,3.26-.18,1.46-1.61,2.86-3.93,3.85A17.39,17.39,0,0,1,63.37,19.41Z"/><path class="cls-19" d="M75.44,13.67A5.42,5.42,0,0,0,73,9.89c-4-3-11.6-3.63-16.94-1.36-3,1.26-4.63,3.15-4.81,5.1-.15,1.55.63,3.14,2.41,4.48,4,3,11.6,3.63,16.94,1.36C74,18.05,75.63,15.85,75.44,13.67ZM63.34,7.9a15.23,15.23,0,0,1,8.82,2.44c1.32,1,2,2.15,1.84,3.26-.18,1.46-1.61,2.87-3.93,3.85a17.21,17.21,0,0,1-6.7,1.26,15.25,15.25,0,0,1-8.82-2.44c-1.32-1-2-2.15-1.84-3.26.18-1.47,1.61-2.87,3.94-3.86A17.3,17.3,0,0,1,63.34,7.9Z"/><path class="cls-20" d="M73,9.19c-4-3-11.6-3.63-16.94-1.36-3.33,1.42-5,3.61-4.81,5.8a5.33,5.33,0,0,0,2.41,3.78c4,3,11.6,3.63,16.94,1.37,3-1.27,4.62-3.16,4.81-5.11C75.58,12.12,74.81,10.53,73,9.19Zm-9.66,9.52a15.25,15.25,0,0,1-8.82-2.44c-1.32-1-2-2.15-1.84-3.26.18-1.47,1.61-2.87,3.94-3.86A17.3,17.3,0,0,1,63.34,7.9a15.23,15.23,0,0,1,8.82,2.44c1.32,1,2,2.15,1.84,3.26-.18,1.46-1.61,2.87-3.93,3.85A17.21,17.21,0,0,1,63.37,18.71Z"/><path class="cls-21" d="M72.59,9.77C70.44,8.14,67,7.18,63.34,7.18a18,18,0,0,0-7,1.31C53.8,9.58,52.21,11.2,52,12.92c-.17,1.37.58,2.76,2.12,3.92a16,16,0,0,0,9.25,2.59,18.24,18.24,0,0,0,7-1.31c2.56-1.1,4.15-2.71,4.36-4.43C74.88,12.31,74.13,10.92,72.59,9.77ZM74,13.6c-.18,1.46-1.61,2.87-3.93,3.85a17.21,17.21,0,0,1-6.7,1.26,15.25,15.25,0,0,1-8.82-2.44c-1.32-1-2-2.15-1.84-3.26.18-1.47,1.61-2.87,3.94-3.86A17.3,17.3,0,0,1,63.34,7.9a15.23,15.23,0,0,1,8.82,2.44C73.48,11.33,74.14,12.49,74,13.6Z"/><path class="cls-19" d="M72.38,10.05a15.63,15.63,0,0,0-9-2.51,17.65,17.65,0,0,0-6.83,1.28c-2.45,1-4,2.55-4.15,4.14-.15,1.24.55,2.52,2,3.59a15.55,15.55,0,0,0,9,2.52,17.7,17.7,0,0,0,6.84-1.29c2.44-1,4-2.54,4.15-4.14C74.51,12.4,73.81,11.13,72.38,10.05ZM74,13.6c-.18,1.46-1.61,2.87-3.93,3.85a17.21,17.21,0,0,1-6.7,1.26,15.25,15.25,0,0,1-8.82-2.44c-1.32-1-2-2.15-1.84-3.26.18-1.47,1.61-2.87,3.94-3.86A17.3,17.3,0,0,1,63.34,7.9a15.23,15.23,0,0,1,8.82,2.44C73.48,11.33,74.14,12.49,74,13.6Z"/><path class="cls-18" d="M43.34,40.24c-4-3-11.6-3.63-16.94-1.36-3.33,1.42-5,3.61-4.81,5.8A5.4,5.4,0,0,0,24,48.46c4,3,11.6,3.64,16.94,1.37,3-1.27,4.63-3.16,4.81-5.11C45.9,43.17,45.12,41.58,43.34,40.24Zm-9.65,9.52a15.29,15.29,0,0,1-8.83-2.44c-1.32-1-2-2.15-1.83-3.26.18-1.47,1.61-2.87,3.93-3.86A17.36,17.36,0,0,1,33.66,39a15.28,15.28,0,0,1,8.82,2.44c1.32,1,2,2.15,1.83,3.26-.17,1.46-1.61,2.87-3.93,3.85A17.16,17.16,0,0,1,33.69,49.76Z"/><path class="cls-19" d="M45.75,44a5.44,5.44,0,0,0-2.41-3.78c-4-3-11.6-3.63-16.94-1.36-3,1.27-4.63,3.16-4.81,5.11-.15,1.55.63,3.14,2.41,4.47,4,3,11.6,3.64,16.94,1.37C44.27,48.41,45.94,46.21,45.75,44ZM33.66,38.25a15.28,15.28,0,0,1,8.82,2.44c1.32,1,2,2.16,1.83,3.27-.17,1.46-1.61,2.86-3.93,3.85a17.34,17.34,0,0,1-6.69,1.25,15.29,15.29,0,0,1-8.83-2.44c-1.32-1-2-2.15-1.83-3.26.18-1.46,1.61-2.87,3.93-3.85A17.17,17.17,0,0,1,33.66,38.25Z"/><path class="cls-20" d="M43.34,39.55c-4-3-11.6-3.64-16.94-1.37-3.33,1.42-5,3.62-4.81,5.81A5.44,5.44,0,0,0,24,47.77c4,3,11.6,3.63,16.94,1.36,3-1.26,4.63-3.16,4.81-5.11C45.9,42.47,45.12,40.89,43.34,39.55Zm-9.65,9.51a15.29,15.29,0,0,1-8.83-2.44c-1.32-1-2-2.15-1.83-3.26.18-1.46,1.61-2.87,3.93-3.85a17.17,17.17,0,0,1,6.7-1.26,15.28,15.28,0,0,1,8.82,2.44c1.32,1,2,2.16,1.83,3.27-.17,1.46-1.61,2.86-3.93,3.85A17.34,17.34,0,0,1,33.69,49.06Z"/><path class="cls-21" d="M42.91,40.12a16,16,0,0,0-9.25-2.59,17.87,17.87,0,0,0-7,1.32c-2.56,1.09-4.16,2.7-4.37,4.42-.16,1.37.59,2.77,2.12,3.92a15.94,15.94,0,0,0,9.26,2.59,18,18,0,0,0,7-1.31C43.22,47.38,44.82,45.76,45,44,45.19,42.67,44.44,41.27,42.91,40.12ZM44.31,44c-.17,1.46-1.61,2.86-3.93,3.85a17.34,17.34,0,0,1-6.69,1.25,15.29,15.29,0,0,1-8.83-2.44c-1.32-1-2-2.15-1.83-3.26.18-1.46,1.61-2.87,3.93-3.85a17.17,17.17,0,0,1,6.7-1.26,15.28,15.28,0,0,1,8.82,2.44C43.8,41.69,44.45,42.85,44.31,44Z"/><path class="cls-19" d="M42.69,40.41a15.55,15.55,0,0,0-9-2.52,17.52,17.52,0,0,0-6.84,1.29c-2.44,1-4,2.55-4.15,4.14-.15,1.24.55,2.51,2,3.59a15.63,15.63,0,0,0,9,2.51,17.69,17.69,0,0,0,6.83-1.28c2.44-1,4-2.55,4.15-4.14C44.82,42.76,44.12,41.48,42.69,40.41ZM44.31,44c-.17,1.46-1.61,2.86-3.93,3.85a17.34,17.34,0,0,1-6.69,1.25,15.29,15.29,0,0,1-8.83-2.44c-1.32-1-2-2.15-1.83-3.26.18-1.46,1.61-2.87,3.93-3.85a17.17,17.17,0,0,1,6.7-1.26,15.28,15.28,0,0,1,8.82,2.44C43.8,41.69,44.45,42.85,44.31,44Z"/><path class="cls-18" d="M85.42,33.83c-4-3-11.6-3.63-16.94-1.36-3.33,1.42-5,3.62-4.81,5.81a5.37,5.37,0,0,0,2.41,3.78c4,3,11.6,3.63,16.94,1.36,3-1.27,4.62-3.16,4.81-5.11C88,36.76,87.2,35.17,85.42,33.83Zm-9.66,9.52a15.25,15.25,0,0,1-8.82-2.44c-1.32-1-2-2.15-1.84-3.26.18-1.46,1.61-2.87,3.94-3.86a17.3,17.3,0,0,1,6.69-1.25A15.23,15.23,0,0,1,84.55,35c1.32,1,2,2.15,1.84,3.26-.18,1.46-1.61,2.87-3.93,3.86A17.36,17.36,0,0,1,75.76,43.35Z"/><path class="cls-19" d="M87.83,37.61a5.44,5.44,0,0,0-2.41-3.78c-4-3-11.6-3.63-16.94-1.36-3,1.27-4.63,3.16-4.81,5.11-.15,1.55.63,3.14,2.41,4.47,4,3,11.6,3.64,16.94,1.37C86.35,42,88,39.8,87.83,37.61Zm-12.1-5.77a15.16,15.16,0,0,1,8.82,2.45c1.32,1,2,2.15,1.84,3.26-.18,1.46-1.61,2.86-3.93,3.85a17.36,17.36,0,0,1-6.7,1.26,15.25,15.25,0,0,1-8.82-2.45A3.74,3.74,0,0,1,65.1,37c.18-1.46,1.61-2.86,3.94-3.85A17.3,17.3,0,0,1,75.73,31.84Z"/><path class="cls-20" d="M85.42,33.14c-4-3-11.6-3.64-16.94-1.36-3.33,1.41-5,3.61-4.81,5.8a5.37,5.37,0,0,0,2.41,3.78c4,3,11.6,3.63,16.94,1.36,3-1.26,4.62-3.16,4.81-5.11C88,36.06,87.2,34.48,85.42,33.14Zm-9.66,9.52a15.25,15.25,0,0,1-8.82-2.45A3.74,3.74,0,0,1,65.1,37c.18-1.46,1.61-2.86,3.94-3.85a17.3,17.3,0,0,1,6.69-1.26,15.16,15.16,0,0,1,8.82,2.45c1.32,1,2,2.15,1.84,3.26-.18,1.46-1.61,2.86-3.93,3.85A17.36,17.36,0,0,1,75.76,42.66Z"/><path class="cls-21" d="M85,33.71a16,16,0,0,0-9.25-2.59,18,18,0,0,0-7,1.32c-2.57,1.09-4.16,2.7-4.37,4.42-.17,1.38.58,2.77,2.12,3.93,2.15,1.62,5.61,2.58,9.25,2.58a18.05,18.05,0,0,0,7-1.31c2.56-1.09,4.15-2.7,4.36-4.43C87.27,36.26,86.52,34.86,85,33.71Zm1.41,3.84c-.18,1.46-1.61,2.86-3.93,3.85a17.36,17.36,0,0,1-6.7,1.26,15.25,15.25,0,0,1-8.82-2.45A3.74,3.74,0,0,1,65.1,37c.18-1.46,1.61-2.86,3.94-3.85a17.3,17.3,0,0,1,6.69-1.26,15.16,15.16,0,0,1,8.82,2.45C85.87,35.28,86.53,36.44,86.39,37.55Z"/><path class="cls-19" d="M84.77,34a15.58,15.58,0,0,0-9-2.52,17.47,17.47,0,0,0-6.83,1.29c-2.45,1-4,2.55-4.15,4.14-.15,1.24.55,2.52,2,3.59a15.63,15.63,0,0,0,9,2.52,17.7,17.7,0,0,0,6.84-1.29c2.44-1,4-2.55,4.15-4.14C86.9,36.35,86.2,35.07,84.77,34Zm1.62,3.55c-.18,1.46-1.61,2.86-3.93,3.85a17.36,17.36,0,0,1-6.7,1.26,15.25,15.25,0,0,1-8.82-2.45A3.74,3.74,0,0,1,65.1,37c.18-1.46,1.61-2.86,3.94-3.85a17.3,17.3,0,0,1,6.69-1.26,15.16,15.16,0,0,1,8.82,2.45C85.87,35.28,86.53,36.44,86.39,37.55Z"/><path class="cls-18" d="M121.59,23.45c-4-3-11.6-3.64-16.94-1.37-3.33,1.42-5,3.62-4.81,5.81a5.44,5.44,0,0,0,2.41,3.78c4,3,11.6,3.63,16.94,1.36,3-1.27,4.63-3.16,4.81-5.11C124.15,26.37,123.37,24.78,121.59,23.45ZM111.94,33a15.29,15.29,0,0,1-8.83-2.44c-1.32-1-2-2.15-1.83-3.26.18-1.46,1.61-2.87,3.93-3.85a17.17,17.17,0,0,1,6.7-1.26,15.28,15.28,0,0,1,8.82,2.44c1.32,1,2,2.16,1.83,3.26-.17,1.47-1.61,2.87-3.93,3.86A17.3,17.3,0,0,1,111.94,33Z"/><path class="cls-19" d="M124,27.22a5.4,5.4,0,0,0-2.41-3.77c-4-3-11.6-3.64-16.94-1.37-3,1.27-4.63,3.16-4.81,5.11-.15,1.55.63,3.14,2.41,4.47,4,3,11.6,3.64,16.94,1.37C122.52,31.61,124.19,29.41,124,27.22Zm-12.09-5.77a15.2,15.2,0,0,1,8.82,2.45c1.32,1,2,2.15,1.83,3.26C122.39,28.62,121,30,118.63,31a17.3,17.3,0,0,1-6.69,1.26,15.21,15.21,0,0,1-8.83-2.45c-1.32-1-2-2.15-1.83-3.26.18-1.46,1.61-2.86,3.93-3.85A17.36,17.36,0,0,1,111.91,21.45Z"/><path class="cls-20" d="M121.59,22.75c-4-3-11.6-3.63-16.94-1.36-3.33,1.41-5,3.61-4.81,5.8A5.44,5.44,0,0,0,102.25,31c4,3,11.6,3.63,16.94,1.36,3-1.26,4.63-3.15,4.81-5.11C124.15,25.68,123.37,24.09,121.59,22.75Zm-9.65,9.52a15.21,15.21,0,0,1-8.83-2.45c-1.32-1-2-2.15-1.83-3.26.18-1.46,1.61-2.86,3.93-3.85a17.36,17.36,0,0,1,6.7-1.26,15.2,15.2,0,0,1,8.82,2.45c1.32,1,2,2.15,1.83,3.26C122.39,28.62,121,30,118.63,31A17.3,17.3,0,0,1,111.94,32.27Z"/><path class="cls-21" d="M121.16,23.32a16,16,0,0,0-9.25-2.59,18.05,18.05,0,0,0-7,1.32c-2.56,1.09-4.16,2.7-4.37,4.43-.16,1.37.59,2.76,2.12,3.92A16,16,0,0,0,111.94,33a18,18,0,0,0,7-1.32c2.56-1.09,4.16-2.7,4.37-4.43C123.44,25.87,122.69,24.48,121.16,23.32Zm1.4,3.84C122.39,28.62,121,30,118.63,31a17.3,17.3,0,0,1-6.69,1.26,15.21,15.21,0,0,1-8.83-2.45c-1.32-1-2-2.15-1.83-3.26.18-1.46,1.61-2.86,3.93-3.85a17.36,17.36,0,0,1,6.7-1.26,15.2,15.2,0,0,1,8.82,2.45C122.05,24.89,122.7,26.05,122.56,27.16Z"/><path class="cls-19" d="M120.94,23.61a15.55,15.55,0,0,0-9-2.52,17.7,17.7,0,0,0-6.84,1.29c-2.44,1-4,2.55-4.15,4.14-.15,1.24.55,2.52,2,3.59a15.56,15.56,0,0,0,9,2.52,17.69,17.69,0,0,0,6.83-1.29c2.44-1,4-2.55,4.15-4.14C123.07,26,122.37,24.68,120.94,23.61Zm1.62,3.55C122.39,28.62,121,30,118.63,31a17.3,17.3,0,0,1-6.69,1.26,15.21,15.21,0,0,1-8.83-2.45c-1.32-1-2-2.15-1.83-3.26.18-1.46,1.61-2.86,3.93-3.85a17.36,17.36,0,0,1,6.7-1.26,15.2,15.2,0,0,1,8.82,2.45C122.05,24.89,122.7,26.05,122.56,27.16Z"/><path class="cls-18" d="M126.25,53.87c-4-3-11.6-3.63-16.94-1.36-3.32,1.42-5,3.62-4.81,5.81a5.44,5.44,0,0,0,2.41,3.78c4,3,11.6,3.63,16.94,1.36,3-1.27,4.63-3.16,4.81-5.11C128.81,56.8,128,55.21,126.25,53.87Zm-9.65,9.52A15.23,15.23,0,0,1,107.78,61c-1.32-1-2-2.15-1.84-3.26.18-1.46,1.61-2.87,3.93-3.86a17.39,17.39,0,0,1,6.7-1.25A15.25,15.25,0,0,1,125.39,55a3.74,3.74,0,0,1,1.84,3.26c-.18,1.47-1.61,2.87-3.94,3.86A17.3,17.3,0,0,1,116.6,63.39Z"/><path class="cls-19" d="M128.66,57.65a5.37,5.37,0,0,0-2.41-3.78c-4-3-11.6-3.63-16.94-1.36-3,1.27-4.62,3.16-4.81,5.11-.14,1.55.63,3.14,2.41,4.47,4,3,11.6,3.64,16.94,1.37C127.18,62,128.85,59.84,128.66,57.65Zm-12.09-5.77a15.18,15.18,0,0,1,8.82,2.45,3.74,3.74,0,0,1,1.84,3.26c-.18,1.46-1.61,2.86-3.94,3.85a17.3,17.3,0,0,1-6.69,1.26,15.23,15.23,0,0,1-8.82-2.45c-1.32-1-2-2.15-1.84-3.26.18-1.46,1.61-2.86,3.93-3.85A17.39,17.39,0,0,1,116.57,51.88Z"/><path class="cls-20" d="M126.25,53.18c-4-3-11.6-3.64-16.94-1.36-3.32,1.41-5,3.61-4.81,5.8a5.44,5.44,0,0,0,2.41,3.78c4,3,11.6,3.63,16.94,1.36,3-1.26,4.63-3.15,4.81-5.11C128.81,56.1,128,54.52,126.25,53.18ZM116.6,62.7a15.23,15.23,0,0,1-8.82-2.45c-1.32-1-2-2.15-1.84-3.26.18-1.46,1.61-2.86,3.93-3.85a17.39,17.39,0,0,1,6.7-1.26,15.18,15.18,0,0,1,8.82,2.45,3.74,3.74,0,0,1,1.84,3.26c-.18,1.46-1.61,2.86-3.94,3.85A17.3,17.3,0,0,1,116.6,62.7Z"/><path class="cls-21" d="M125.82,53.75a16,16,0,0,0-9.25-2.59,18.05,18.05,0,0,0-7,1.32c-2.56,1.09-4.15,2.7-4.36,4.43-.17,1.37.58,2.76,2.12,3.92,2.15,1.62,5.61,2.58,9.25,2.58a18,18,0,0,0,7-1.31c2.57-1.09,4.16-2.7,4.37-4.43C128.11,56.3,127.36,54.91,125.82,53.75Zm1.41,3.84c-.18,1.46-1.61,2.86-3.94,3.85a17.3,17.3,0,0,1-6.69,1.26,15.23,15.23,0,0,1-8.82-2.45c-1.32-1-2-2.15-1.84-3.26.18-1.46,1.61-2.86,3.93-3.85a17.39,17.39,0,0,1,6.7-1.26,15.18,15.18,0,0,1,8.82,2.45A3.74,3.74,0,0,1,127.23,57.59Z"/><path class="cls-19" d="M125.61,54a15.61,15.61,0,0,0-9-2.52,17.43,17.43,0,0,0-6.83,1.29c-2.45,1-4,2.55-4.16,4.14-.15,1.24.55,2.51,2,3.59a15.58,15.58,0,0,0,9,2.52,17.65,17.65,0,0,0,6.83-1.29c2.45-1,4-2.55,4.15-4.14C127.73,56.39,127,55.11,125.61,54Zm1.62,3.55c-.18,1.46-1.61,2.86-3.94,3.85a17.3,17.3,0,0,1-6.69,1.26,15.23,15.23,0,0,1-8.82-2.45c-1.32-1-2-2.15-1.84-3.26.18-1.46,1.61-2.86,3.93-3.85a17.39,17.39,0,0,1,6.7-1.26,15.18,15.18,0,0,1,8.82,2.45A3.74,3.74,0,0,1,127.23,57.59Z"/><path class="cls-15" d="M67.57,14.64a3.89,3.89,0,0,1-.12,1.66,4.47,4.47,0,0,0,.54-.82c.22,0,.36.22.45.42A18.27,18.27,0,0,1,69,17.79a6.07,6.07,0,0,1,.33,1.52,19.15,19.15,0,0,1-.09,3.86,18.42,18.42,0,0,1-.51,2.54A3.6,3.6,0,0,1,68.24,27a.81.81,0,0,1-.69.3,16.43,16.43,0,0,1-2.22-.12,14.69,14.69,0,0,1-1.6-.34,12.19,12.19,0,0,1-2.84-1,3.82,3.82,0,0,1-.66-.36c-.22-.17-.34-.51-.56-.67a1.58,1.58,0,0,0,1,.29c-.13-.41-.57-.4-.9-.55a3,3,0,0,1-1.28-1.35,1,1,0,0,0,1,.07,3.56,3.56,0,0,1-1.41-1.55,2.8,2.8,0,0,1,1.4-.14l-.3-.44c.1.05,1.13.13,1.29.2s.78.42.71.05a2.83,2.83,0,0,1,.87.09c.52.17.81.69,1.29.92h0c.07,0,.07-.11.05-.17a2.64,2.64,0,0,0-1.23-1.05,8.65,8.65,0,0,0-1.64-.51,2.92,2.92,0,0,1-1.87-1.31,3.28,3.28,0,0,1,2.44-.18,3.45,3.45,0,0,0-1.65-.89A2,2,0,0,1,58,16.53c0,.16.55.37.69.41.34.1.7.15,1,.23a3.8,3.8,0,0,1-2-2,1.3,1.3,0,0,0,.64-.06c.15-.13-.15-.28-.21-.37a2.1,2.1,0,0,1-.24-.69,1.1,1.1,0,0,1,0-.65.69.69,0,0,1,.1-.19,3.22,3.22,0,0,1,1.34,1.14,1.32,1.32,0,0,1,.47-.87A6.12,6.12,0,0,1,61,16a2.69,2.69,0,0,1,1.15-1.65,7.72,7.72,0,0,1,1.35,3.92l.29-.78a6,6,0,0,1,1.25,2.35,1.46,1.46,0,0,0,0-1.56c-.24-.49-.62-.91-.84-1.41a2.74,2.74,0,0,1-.1-2,.65.65,0,0,1,.34.21c.1.09.26.17.38.09A.28.28,0,0,0,65,15c.29-.67-.19-1.49.06-2.17a2,2,0,0,1,1.59,1.29.91.91,0,0,1,.18-.47C67.25,13.65,67.51,14.19,67.57,14.64Z"/><path class="cls-14" d="M57.91,13.42a13.31,13.31,0,0,0,2.38,3.16A8.77,8.77,0,0,1,61.53,18a13.3,13.3,0,0,0,1.21,1.66c.28.33.6.63.89.95s.45.65.71.94c.42.46.89.86,1.32,1.29.13.12.24.25.36.37a7.31,7.31,0,0,1,.65.82,7.78,7.78,0,0,1,.42.74L68,26.44c.11.21.35.45.16.65a.84.84,0,0,1-.59.19,16.43,16.43,0,0,1-2.22-.12,14.69,14.69,0,0,1-1.6-.34,12.19,12.19,0,0,1-2.84-1,3.82,3.82,0,0,1-.66-.36c-.22-.17-.34-.51-.56-.67a1.58,1.58,0,0,0,1,.29c-.13-.41-.57-.4-.9-.55a3,3,0,0,1-1.28-1.35,1,1,0,0,0,1,.07,3.56,3.56,0,0,1-1.41-1.55,2.8,2.8,0,0,1,1.4-.14l-.3-.44c.1.05,1.13.13,1.29.2s.78.42.71.05a2.83,2.83,0,0,1,.87.09c.52.17.81.69,1.29.92h0c.07,0,.07-.11.05-.17a2.64,2.64,0,0,0-1.23-1.05,8.65,8.65,0,0,0-1.64-.51,2.92,2.92,0,0,1-1.87-1.31,3.28,3.28,0,0,1,2.44-.18,3.45,3.45,0,0,0-1.65-.89A2,2,0,0,1,58,16.53c0,.16.55.37.69.41.34.1.7.15,1,.23a3.8,3.8,0,0,1-2-2,1.3,1.3,0,0,0,.64-.06c.15-.13-.15-.28-.21-.37a2.1,2.1,0,0,1-.24-.69A1.1,1.1,0,0,1,57.91,13.42Z"/><path class="cls-22" d="M66.19,17.21c0,.15,0,.25,0,.26a.37.37,0,0,1-.2-.09c-.17-.13-.33-.25-.48-.38a5,5,0,0,1-.8-.86A4.63,4.63,0,0,0,66,17.65a2.66,2.66,0,0,1,.78,2,10.86,10.86,0,0,1,0,2.28c0,.44-.1.88-.15,1.33a1.73,1.73,0,0,1-.07.31.15.15,0,0,1-.05.07s-.11,0-.16-.06c-.58-.59-1-1.33-1.59-1.91-.24-.23-.47-.45-.7-.69s-.42-.34-.44-.62c-.06-.61.14-1.22.08-1.82A11,11,0,0,0,63.48,20c-.1.39-.46-.17-.56-.29s-.43-.5-.65-.74a2.26,2.26,0,0,1-.33-1.56c0-.25,0-.5,0-.76a3.38,3.38,0,0,0-.14-1.27,22.51,22.51,0,0,0-.08,2.73.07.07,0,0,1,0,.05c0,.05-.12,0-.16-.06l-.78-1.17a4.31,4.31,0,0,1-.48-1c-.08-.23-.13-.47-.2-.71a4,4,0,0,1-.25-.65,3,3,0,0,0,.26,1.15.53.53,0,0,1,.08.32.85.85,0,0,1-.25-.17,9.42,9.42,0,0,1-.69-.72,3.22,3.22,0,0,1-.57-.76,4.29,4.29,0,0,0,1,1.43c.13.14.19.19,0,.21a1.28,1.28,0,0,1-.47-.07c-.3-.09-.58-.23-.88-.32a2.58,2.58,0,0,0,.94.46,2.34,2.34,0,0,1,.9.26,3.23,3.23,0,0,1,.54.77c.13.21.53.62.13.74a.81.81,0,0,1-.31,0,4.73,4.73,0,0,1-1.66-.56,1.09,1.09,0,0,0,.41.32,3.84,3.84,0,0,0,1.48.4,1.07,1.07,0,0,1,.59.12,1.87,1.87,0,0,1,.33.45q.42.55.87,1.08c.14.15.16.23-.07.3a1.06,1.06,0,0,1-.5,0,16.42,16.42,0,0,1-2-.36,2.26,2.26,0,0,0,1.12.4c.82.11,1.74,0,2.37.62s1.07,1,1.55,1.59.68.92,1,1.39a13.86,13.86,0,0,1,.9,1.23c.05.1.1.24,0,.32a.22.22,0,0,1-.19.06,4.12,4.12,0,0,1-1.24-.32,6,6,0,0,1-1.27-.63,10.08,10.08,0,0,1-1.11-1.15,10.47,10.47,0,0,0-1.37-1.1,14.06,14.06,0,0,0,1,1.14,8.46,8.46,0,0,1,1,.93c.27.41-.46.1-.6,0s-.31-.39-.5-.57a6.08,6.08,0,0,0-.56-.38c-.23-.18-.46-.35-.7-.51a14.25,14.25,0,0,0-1.5-.91,1.53,1.53,0,0,0,.53.48c.71.49,1.41,1,2.08,1.54a.28.28,0,0,1,.07.09c0,.16-.38,0-.44-.06s-.39-.13-.59-.21a6.93,6.93,0,0,1-.75-.43,8.74,8.74,0,0,0-1.75-1,5.86,5.86,0,0,0,1.14.81c.49.3,1,.58,1.5.85.13.07,1,.37.53.54a2.06,2.06,0,0,1-1.36-.08,10.53,10.53,0,0,0-1.3-.45.84.84,0,0,0,.47.3,9.33,9.33,0,0,0,1.71.51,3.86,3.86,0,0,0,.9,0,1.52,1.52,0,0,1,.52,0c.33.11-.08.3-.24.39a4.42,4.42,0,0,1-1.67.45,7.22,7.22,0,0,0,1.23,0,2.32,2.32,0,0,0,1.14-.39,1.08,1.08,0,0,1,1.07,0,9.52,9.52,0,0,1,2.38.91,3.1,3.1,0,0,1,.51.45,3.39,3.39,0,0,1,.28.53.31.31,0,0,0,.21.16c.2,0,.13-.2.08-.3a6.27,6.27,0,0,1-1-4.05,7.94,7.94,0,0,0,0-2.75c0-.27-.06-.55-.1-.82a1.57,1.57,0,0,1,.09-.71A14.75,14.75,0,0,1,67.79,17a1.1,1.1,0,0,0,.12-.71c-.12.32-.25.64-.4,1s-.22.51-.35.75a.47.47,0,0,1-.15.19h0s0,0,0,0a5.71,5.71,0,0,1-.29-.61,1.12,1.12,0,0,1-.2-.58,3.5,3.5,0,0,1,.21-1,2.54,2.54,0,0,0,.16-1.51c-.09.52-.21,1-.34,1.54a.29.29,0,0,1-.1.18c-.24.2-.39-.89-.44-1.05a7.29,7.29,0,0,0-.53-1.29,13.44,13.44,0,0,0,.38,2A10.72,10.72,0,0,1,66.19,17.21Z"/><path class="cls-15" d="M59.42,28a2.92,2.92,0,0,1,1.17.47,3.66,3.66,0,0,0-.46-.58c0-.16.24-.21.41-.22a12,12,0,0,1,1.47.05,4.68,4.68,0,0,1,1.18.12,13.68,13.68,0,0,1,2.76,1,13,13,0,0,1,1.71.95,2.61,2.61,0,0,1,.81.61.65.65,0,0,1,.06.57,11.83,11.83,0,0,1-.6,1.57,10.43,10.43,0,0,1-.62,1.08A8.91,8.91,0,0,1,66,35.37a3,3,0,0,1-.41.39c-.18.12-.45.13-.62.25a1.09,1.09,0,0,0,.43-.63c-.32,0-.41.32-.6.52a2.17,2.17,0,0,1-1.27.61.75.75,0,0,0,.3-.73,2.67,2.67,0,0,1-1.45.66,2.06,2.06,0,0,1,.23-1l-.39.11c.06-.06.36-.78.44-.88s.48-.47.2-.5a2.55,2.55,0,0,1,.26-.61c.25-.33.69-.42,1-.72l0,0c0-.05-.06-.08-.12-.07a2,2,0,0,0-1,.64,7.33,7.33,0,0,0-.75,1.07,2.16,2.16,0,0,1-1.37,1,2.55,2.55,0,0,1,.43-1.8c-.46.17-.7.59-1,1a1.52,1.52,0,0,1-1.64.67c.12,0,.4-.31.45-.4s.27-.47.41-.7a2.89,2.89,0,0,1-1.9,1c.05,0,.13-.42.11-.47s-.24,0-.32.07a1.69,1.69,0,0,1-.55,0,.81.81,0,0,1-.46-.17.43.43,0,0,1-.11-.12,2.48,2.48,0,0,1,1.12-.7,1.05,1.05,0,0,1-.52-.54A4.59,4.59,0,0,1,58.92,33,2,2,0,0,1,58,31.79a5.84,5.84,0,0,1,3.13-.06l-.49-.39a4.45,4.45,0,0,1,2-.36,1.1,1.1,0,0,0-1.11-.38c-.41.06-.8.24-1.22.29a2.12,2.12,0,0,1-1.48-.4.5.5,0,0,1,.23-.2c.09-.05.19-.15.15-.25a.18.18,0,0,0-.07-.1c-.42-.37-1.12-.21-1.56-.55a1.55,1.55,0,0,1,1.3-.85.7.7,0,0,1-.3-.24C58.64,28,59.08,27.91,59.42,28Z"/><path class="cls-14" d="M56.32,34.65a10.52,10.52,0,0,0,2.82-1,7.48,7.48,0,0,1,1.31-.56,10.69,10.69,0,0,0,1.48-.49c.3-.13.59-.29.88-.42s.58-.18.85-.3c.42-.19.82-.44,1.23-.65l.35-.18a6.55,6.55,0,0,1,.74-.27c.21-.06.42-.1.64-.14L68,30.4c.17,0,.41-.15.5,0a.64.64,0,0,1,0,.47,11.83,11.83,0,0,1-.6,1.57,10.43,10.43,0,0,1-.62,1.08A8.91,8.91,0,0,1,66,35.37a3,3,0,0,1-.41.39c-.18.12-.45.13-.62.25a1.09,1.09,0,0,0,.43-.63c-.32,0-.41.32-.6.52a2.17,2.17,0,0,1-1.27.61.75.75,0,0,0,.3-.73,2.67,2.67,0,0,1-1.45.66,2.06,2.06,0,0,1,.23-1l-.39.11c.06-.06.36-.78.44-.88s.48-.47.2-.5a2.55,2.55,0,0,1,.26-.61c.25-.33.69-.42,1-.72l0,0c0-.05-.06-.08-.12-.07a2,2,0,0,0-1,.64,7.33,7.33,0,0,0-.75,1.07,2.16,2.16,0,0,1-1.37,1,2.55,2.55,0,0,1,.43-1.8c-.46.17-.7.59-1,1a1.52,1.52,0,0,1-1.64.67c.12,0,.4-.31.45-.4s.27-.47.41-.7a2.89,2.89,0,0,1-1.9,1c.05,0,.13-.42.11-.47s-.24,0-.32.07a1.69,1.69,0,0,1-.55,0A.81.81,0,0,1,56.32,34.65Z"/><path class="cls-22" d="M61,29.55c.11,0,.18.05.17.1a.2.2,0,0,1-.11.13l-.38.26a4.87,4.87,0,0,1-.8.38,3.58,3.58,0,0,0,1.4-.65,2,2,0,0,1,1.6-.11,8.53,8.53,0,0,1,1.65.51l.92.42a.72.72,0,0,1,.21.12.07.07,0,0,1,0,.05s0,.08-.08.1c-.56.28-1.19.4-1.74.71l-.66.35a.79.79,0,0,1-.55.17c-.45-.1-.84-.38-1.29-.48a8.1,8.1,0,0,0,1,.53c.26.17-.22.3-.33.34l-.69.3a1.76,1.76,0,0,1-1.19-.12l-.54-.2a2.68,2.68,0,0,0-1-.18,18.73,18.73,0,0,0,1.95.68l0,0s0,.08-.08.1l-1,.29a3.61,3.61,0,0,1-.8.13l-.55,0a3.17,3.17,0,0,1-.53,0,2.07,2.07,0,0,0,.89.08.39.39,0,0,1,.24,0,.58.58,0,0,1-.17.14c-.22.12-.45.23-.68.33a2.13,2.13,0,0,1-.68.24,3.38,3.38,0,0,0,1.27-.41c.13-.06.18-.1.14.07a.92.92,0,0,1-.16.31c-.13.2-.3.37-.43.57a1.83,1.83,0,0,0,.54-.57c.12-.19.21-.46.4-.59a2.24,2.24,0,0,1,.68-.21c.18,0,.57-.24.57.08a.81.81,0,0,1-.07.22,3.55,3.55,0,0,1-.78,1.06.81.81,0,0,0,.32-.21,3,3,0,0,0,.63-1,.88.88,0,0,1,.22-.4,1.87,1.87,0,0,1,.4-.13c.33-.11.66-.24,1-.38.14-.06.2-.06.2.12a1,1,0,0,1-.1.37,11.52,11.52,0,0,1-.72,1.34,1.7,1.7,0,0,0,.55-.72c.27-.56.4-1.25,1-1.56s1-.53,1.51-.74a12.71,12.71,0,0,1,1.23-.42c.37-.11.71-.28,1.09-.36.09,0,.2,0,.24.06s0,.1,0,.15a3.35,3.35,0,0,1-.52.82,5,5,0,0,1-.75.77,6.37,6.37,0,0,1-1.08.53,9.24,9.24,0,0,0-1.11.73,10.27,10.27,0,0,0,1.07-.48,5,5,0,0,1,.89-.47c.36-.11,0,.35-.17.42s-.36.13-.52.22-.26.22-.41.32a6.55,6.55,0,0,0-.53.39,10.39,10.39,0,0,0-1,.87,1.23,1.23,0,0,0,.47-.27c.51-.4,1-.79,1.59-1.14a.08.08,0,0,1,.08,0c.11,0-.12.26-.15.3a3.37,3.37,0,0,1-.29.37,3.41,3.41,0,0,1-.48.45,6.44,6.44,0,0,0-1.13,1,4.25,4.25,0,0,0,.85-.63c.32-.29.64-.58,1-.89.08-.08.49-.64.51-.25a1.64,1.64,0,0,1-.37,1,8.24,8.24,0,0,0-.63.83.72.72,0,0,0,.33-.27,6.36,6.36,0,0,0,.75-1.11,2.62,2.62,0,0,0,.24-.64,1.18,1.18,0,0,1,.1-.38c.16-.21.2.13.23.26a3.17,3.17,0,0,1-.07,1.3,5.29,5.29,0,0,0,.31-.87,1.91,1.91,0,0,0,0-.92.8.8,0,0,1,.23-.77,6.53,6.53,0,0,1,1.21-1.5,1.94,1.94,0,0,1,.43-.27,2.51,2.51,0,0,1,.45-.08.26.26,0,0,0,.17-.11c0-.14-.12-.15-.2-.13a4.79,4.79,0,0,1-3.15-.22,6,6,0,0,0-2-.65l-.62-.12a1.22,1.22,0,0,1-.49-.23,10.58,10.58,0,0,1-.89-.74.87.87,0,0,0-.49-.26c.2.17.4.33.59.51s.32.27.46.43a.25.25,0,0,1,.1.15,0,0,0,0,1,0,0l0,0c-.17.05-.34,0-.51.07a.94.94,0,0,1-.47,0,2.87,2.87,0,0,1-.68-.38,2,2,0,0,0-1-.47c.35.19.69.39,1,.61a.23.23,0,0,1,.11.11c.09.22-.73.08-.86.08a5.31,5.31,0,0,0-1.05.08,9.69,9.69,0,0,0,1.53.18A10.17,10.17,0,0,1,61,29.55Z"/><path class="cls-15" d="M80,25.22a3.27,3.27,0,0,1-1.25.47,3.49,3.49,0,0,0,.78.11c.07.16,0,.34-.16.47a14,14,0,0,1-1.18,1,4.93,4.93,0,0,1-1,.75,14.33,14.33,0,0,1-4.83,1.72,2.91,2.91,0,0,1-1.07.11.69.69,0,0,1-.45-.41,11.7,11.7,0,0,1-.66-1.64c-.13-.42-.21-.84-.3-1.27a10.65,10.65,0,0,1-.26-2.38,3.94,3.94,0,0,1,0-.6c.06-.22.26-.42.3-.63a1.22,1.22,0,0,0,.12.8c.25-.23.09-.55.09-.84a2.43,2.43,0,0,1,.55-1.38.78.78,0,0,0,.3.78,2.81,2.81,0,0,1,.65-1.54,2.12,2.12,0,0,1,.57,1c.07-.12.14-.25.22-.37,0,.09.28.86.29,1s-.05.7.2.53a2.59,2.59,0,0,1,.23.66c0,.43-.24.82-.24,1.24a.08.08,0,0,1,0,0c0,.05.1,0,.14,0a2.14,2.14,0,0,0,.35-1.24,8,8,0,0,0-.18-1.37,2.27,2.27,0,0,1,.32-1.79,2.73,2.73,0,0,1,.95,1.71,2.78,2.78,0,0,0,.08-1.49,1.64,1.64,0,0,1,.8-1.7c-.13.06-.09.53-.07.64.05.28.12.56.19.84a3,3,0,0,1,.74-2.15c0,.05.21.42.26.44s.15-.2.19-.27a2,2,0,0,1,.42-.41,1,1,0,0,1,.48-.2.47.47,0,0,1,.17,0,2.58,2.58,0,0,1-.36,1.35,1.05,1.05,0,0,1,.78,0A4.86,4.86,0,0,1,76.83,21a2.19,2.19,0,0,1,1.58.28A6.21,6.21,0,0,1,76,23.53l.67-.06a4.75,4.75,0,0,1-1.28,1.7,1.2,1.2,0,0,0,1.14-.51c.27-.34.45-.76.73-1.09a2.17,2.17,0,0,1,1.44-.75.56.56,0,0,1,0,.31.25.25,0,0,0,.06.31.2.2,0,0,0,.13,0c.59,0,1-.63,1.6-.68a1.61,1.61,0,0,1-.4,1.59.69.69,0,0,1,.4,0C80.64,24.65,80.34,25,80,25.22Z"/><path class="cls-14" d="M77.66,17.81a11.14,11.14,0,0,0-1.48,2.79A7.72,7.72,0,0,1,75.57,22a11.83,11.83,0,0,0-.8,1.43c-.14.32-.25.64-.38,1s-.32.55-.44.84c-.19.45-.32.93-.49,1.39l-.15.38a5.28,5.28,0,0,1-.38.75c-.12.19-.25.37-.39.55l-.91,1.2c-.11.15-.21.41-.41.34a.65.65,0,0,1-.34-.37,11.7,11.7,0,0,1-.66-1.64c-.13-.42-.21-.84-.3-1.27a10.65,10.65,0,0,1-.26-2.38,3.94,3.94,0,0,1,0-.6c.06-.22.26-.42.3-.63a1.22,1.22,0,0,0,.12.8c.25-.23.09-.55.09-.84a2.43,2.43,0,0,1,.55-1.38.78.78,0,0,0,.3.78,2.81,2.81,0,0,1,.65-1.54,2.12,2.12,0,0,1,.57,1c.07-.12.14-.25.22-.37,0,.09.28.86.29,1s-.05.7.2.53a2.59,2.59,0,0,1,.23.66c0,.43-.24.82-.24,1.24a.08.08,0,0,1,0,0c0,.05.1,0,.14,0a2.14,2.14,0,0,0,.35-1.24,8,8,0,0,0-.18-1.37,2.27,2.27,0,0,1,.32-1.79,2.73,2.73,0,0,1,.95,1.71,2.78,2.78,0,0,0,.08-1.49,1.64,1.64,0,0,1,.8-1.7c-.13.06-.09.53-.07.64.05.28.12.56.19.84a3,3,0,0,1,.74-2.15c0,.05.21.42.26.44s.15-.2.19-.27a2,2,0,0,1,.42-.41A1,1,0,0,1,77.66,17.81Z"/><path class="cls-22" d="M77.71,25.09c-.1.06-.18.09-.2,0a.25.25,0,0,1,0-.17c0-.16.07-.32.12-.48a4.06,4.06,0,0,1,.35-.87,3.74,3.74,0,0,0-.63,1.51c-.15.62-.65.91-1.17,1.23a8.49,8.49,0,0,1-1.64.78l-1,.34a1.14,1.14,0,0,1-.25.06H73.2s0-.09,0-.14c.23-.62.63-1.16.85-1.8l.25-.73c.08-.2.11-.42.31-.53.42-.25.93-.31,1.35-.55a8.84,8.84,0,0,0-1.13.27c-.32.06,0-.39,0-.5s.22-.48.32-.72c.16-.39.65-.6,1-.76.18-.09.37-.16.55-.24a2.82,2.82,0,0,0,.88-.54c-.71.16-1.31.64-2,.87h0s0-.09,0-.14c.19-.32.38-.64.58-.95a3.88,3.88,0,0,1,.53-.68c.14-.13.3-.25.45-.38s.26-.34.39-.4a2.26,2.26,0,0,0-.75.58c-.06.06-.11.14-.2.16a.66.66,0,0,1,0-.24c.09-.25.18-.49.29-.74a2.89,2.89,0,0,1,.36-.67,3.55,3.55,0,0,0-.69,1.23c-.05.14-.07.2-.16.05a1.14,1.14,0,0,1-.1-.36c0-.25,0-.5-.07-.75a1.94,1.94,0,0,0,0,.83,1.9,1.9,0,0,1,.11.74,2.31,2.31,0,0,1-.38.66c-.1.16-.27.59-.49.34a.76.76,0,0,1-.11-.22,3.63,3.63,0,0,1-.15-1.39.78.78,0,0,0-.09.4,2.94,2.94,0,0,0,.2,1.21.83.83,0,0,1,.12.46,3.11,3.11,0,0,1-.22.4c-.18.32-.34.65-.49,1-.06.15-.11.19-.24.05a.94.94,0,0,1-.18-.36,14.16,14.16,0,0,1-.41-1.55,1.82,1.82,0,0,0,.09.95c.19.62.58,1.25.35,1.92s-.39,1.12-.64,1.65-.43.81-.65,1.2-.36.73-.6,1.07c0,.07-.13.15-.22.12s-.09-.07-.11-.12a3.34,3.34,0,0,1-.18-1,4.27,4.27,0,0,1,0-1.13,7.45,7.45,0,0,1,.45-1.19,9,9,0,0,0,.34-1.36c-.18.37-.34.75-.48,1.13a5.74,5.74,0,0,1-.35,1c-.2.34-.22-.3-.17-.45s.18-.36.24-.55a4.51,4.51,0,0,0,.09-.53c0-.23.1-.46.14-.69.07-.46.12-.92.15-1.39a1.31,1.31,0,0,0-.17.55c-.11.68-.25,1.35-.42,2,0,0,0,.07,0,.08s-.1-.28-.1-.33a4.21,4.21,0,0,1,0-.5,4,4,0,0,1,0-.69,7.26,7.26,0,0,0,.15-1.61,4.65,4.65,0,0,0-.21,1.1c0,.46-.08.92-.11,1.38,0,.11.07.85-.21.56a1.65,1.65,0,0,1-.4-1,8,8,0,0,0-.12-1.1.85.85,0,0,0,0,.45,6.58,6.58,0,0,0,.21,1.4,2.77,2.77,0,0,0,.27.67.87.87,0,0,1,.19.37c0,.27-.24,0-.36-.05a3.43,3.43,0,0,1-.88-1.05,5.86,5.86,0,0,0,.39.89,2,2,0,0,0,.67.7c.3.17.34.45.38.77a7.64,7.64,0,0,1,.13,2,1.83,1.83,0,0,1-.15.52c-.07.17-.2.25-.28.39a.24.24,0,0,0,0,.2c0,.15.19,0,.24,0A5,5,0,0,1,74,27.68a6.59,6.59,0,0,0,2-.91l.56-.35a1.27,1.27,0,0,1,.54-.17c.41-.06.82-.05,1.23-.07a.79.79,0,0,0,.55-.15,7.31,7.31,0,0,1-.81,0c-.23,0-.45,0-.67,0a.43.43,0,0,1-.19,0l0,0v0c.1-.16.24-.27.35-.42a.88.88,0,0,1,.36-.33,2.35,2.35,0,0,1,.79-.19,2.17,2.17,0,0,0,1.15-.39c-.41.1-.82.19-1.23.26a.29.29,0,0,1-.16,0c-.23-.11.51-.59.61-.68a6.45,6.45,0,0,0,.76-.81,10.19,10.19,0,0,0-1.32.94A9.31,9.31,0,0,1,77.71,25.09Z"/><path class="cls-15" d="M71.2,34.74a1.49,1.49,0,0,0,.19.52c-.22.2-.45.4-.65.56,0-.12,0-.23.05-.36a4.1,4.1,0,0,0-.15-2.15A4.08,4.08,0,0,0,69.54,32l-1.36-1.23c.16-.19.46,0,.64.13l1.47,1.34a.9.9,0,0,0-.21-.8c-1-1.59-2.24-3.23-2.4-5.13,1.63,1.5,1.72,4.1,3.11,5.82a13.19,13.19,0,0,0,.13-1.41,1.39,1.39,0,0,1,.71-1.15A8.56,8.56,0,0,0,71.2,34.74Z"/><path class="cls-15" d="M77.67,28.76a9.12,9.12,0,0,1-3,1.67c-.37.16-.73.32-1.08.5a7.16,7.16,0,0,0-1.23.79,4.3,4.3,0,0,1,2.32-1.87,15.77,15.77,0,0,0,2.21-1c.19-.12.54-.53.78-.45S77.85,28.58,77.67,28.76Z"/><path class="cls-15" d="M93,39.45a6.07,6.07,0,0,1-1.91-1.69,7.14,7.14,0,0,0,.49,1.41c-.2.27-.6.23-.93.15a26.66,26.66,0,0,1-2.77-1.11,9.91,9.91,0,0,1-2.16-1,28.79,28.79,0,0,1-4.6-3.7,29.51,29.51,0,0,1-2.6-3,5.3,5.3,0,0,1-1.13-1.73,1.24,1.24,0,0,1,.28-1.12,24.56,24.56,0,0,1,2.2-2.58,24.4,24.4,0,0,1,1.9-1.63,19.14,19.14,0,0,1,3.8-2.55,6.5,6.5,0,0,1,1-.47c.43-.11,1,.07,1.35-.05a2.34,2.34,0,0,0-1.26.91c.62.22,1-.33,1.51-.58a4.41,4.41,0,0,1,2.82-.3A1.54,1.54,0,0,0,90,21.6a5.36,5.36,0,0,1,3.2-.27A4.09,4.09,0,0,1,92,23.16l.83.05c-.15.07-1.22,1.24-1.44,1.38s-1.24.55-.72.81a4.47,4.47,0,0,1-.92,1c-.7.48-1.6.34-2.32.71,0,0,0,0-.06.05s.06.19.17.22A4.05,4.05,0,0,0,90,26.84a13.93,13.93,0,0,0,2.15-1.52,4.45,4.45,0,0,1,3.33-1.06,5.06,5.06,0,0,1-2,3.14A5.33,5.33,0,0,0,96,26.22a3.1,3.1,0,0,1,3.57-.16c-.2-.15-1,.33-1.14.46-.44.32-.84.7-1.25,1.05a5.77,5.77,0,0,1,4.3-.63c-.1,0-.52.72-.52.82,0,.31.48.08.65.09a3.39,3.39,0,0,1,1.06.35,1.76,1.76,0,0,1,.76.64,1.36,1.36,0,0,1,.13.3,5,5,0,0,1-2.62.58,2,2,0,0,1,.62,1.37,9.26,9.26,0,0,1-4.2-.89,4.12,4.12,0,0,1,.92,2.94,11.91,11.91,0,0,1-6-2c.23.36.46.72.68,1.08a9.34,9.34,0,0,1-4-.66A2.25,2.25,0,0,0,90.83,33c.83.17,1.68.1,2.5.29a4.13,4.13,0,0,1,2.55,1.76.93.93,0,0,1-.56.22c-.22,0-.46.17-.47.38a.57.57,0,0,0,.08.25c.55,1,2,1.15,2.59,2.09a3.08,3.08,0,0,1-3.06.73,1.39,1.39,0,0,1,.41.66C94.48,40,93.59,39.79,93,39.45Z"/><path class="cls-14" d="M103.45,28.84a21.14,21.14,0,0,0-6-.05,14,14,0,0,1-2.88.19,20.72,20.72,0,0,0-3.15-.07c-.66,0-1.31.14-2,.2s-1.21-.06-1.81,0c-.94.08-1.86.28-2.79.4-.26,0-.52.07-.79.09a12.18,12.18,0,0,1-1.6,0c-.43,0-.86-.11-1.29-.18L78.28,29c-.36-.06-.89,0-.94-.41a1.29,1.29,0,0,1,.32-.9,24.56,24.56,0,0,1,2.2-2.58,24.4,24.4,0,0,1,1.9-1.63,19.14,19.14,0,0,1,3.8-2.55,6.5,6.5,0,0,1,1-.47c.43-.11,1,.07,1.35-.05a2.34,2.34,0,0,0-1.26.91c.62.22,1-.33,1.51-.58a4.41,4.41,0,0,1,2.82-.3A1.54,1.54,0,0,0,90,21.6a5.36,5.36,0,0,1,3.2-.27A4.09,4.09,0,0,1,92,23.16l.83.05c-.15.07-1.22,1.24-1.44,1.38s-1.24.55-.72.81a4.47,4.47,0,0,1-.92,1c-.7.48-1.6.34-2.32.71,0,0,0,0-.06.05s.06.19.17.22A4.05,4.05,0,0,0,90,26.84a13.93,13.93,0,0,0,2.15-1.52,4.45,4.45,0,0,1,3.33-1.06,5.06,5.06,0,0,1-2,3.14A5.33,5.33,0,0,0,96,26.22a3.1,3.1,0,0,1,3.57-.16c-.2-.15-1,.33-1.14.46-.44.32-.84.7-1.25,1.05a5.77,5.77,0,0,1,4.3-.63c-.1,0-.52.72-.52.82,0,.31.48.08.65.09a3.39,3.39,0,0,1,1.06.35A1.76,1.76,0,0,1,103.45,28.84Z"/><path class="cls-22" d="M91.14,35.38c-.2-.11-.31-.22-.26-.3a.48.48,0,0,1,.3-.17c.3-.08.6-.16.9-.22a8.31,8.31,0,0,1,1.79-.19,7.22,7.22,0,0,0-3.12.29c-1.18.3-2.11-.31-3.12-.9a16.25,16.25,0,0,1-2.79-2.09c-.5-.47-1-.95-1.47-1.42a1.9,1.9,0,0,1-.32-.38.21.21,0,0,1,0-.12c0-.09.13-.12.22-.13,1.26-.16,2.54,0,3.8-.16.5-.08,1-.16,1.49-.22a1.65,1.65,0,0,1,1.16,0c.79.49,1.34,1.31,2.14,1.81a15.61,15.61,0,0,0-1.48-1.68c-.38-.49.63-.41.87-.42.5,0,1-.05,1.51-.09a3.49,3.49,0,0,1,2.2,1c.3.24.59.5.89.73a5.24,5.24,0,0,0,1.69,1c-.9-1.07-2.24-1.66-3.25-2.62a.18.18,0,0,1,0-.07c0-.1.12-.14.22-.13.72,0,1.43.08,2.15.14a6.83,6.83,0,0,1,1.61.3c.35.13.69.28,1,.42a5.07,5.07,0,0,1,1,.3,4.26,4.26,0,0,0-1.63-.75.9.9,0,0,1-.46-.19,1.31,1.31,0,0,1,.43-.16,12.84,12.84,0,0,1,1.52-.16,4.76,4.76,0,0,1,1.46,0,6.64,6.64,0,0,0-2.7-.07c-.29,0-.4.05-.23-.23a2.1,2.1,0,0,1,.53-.5c.38-.28.81-.5,1.2-.77a3.59,3.59,0,0,0-1.42.71c-.35.27-.71.74-1.16.85a5,5,0,0,1-1.44-.06c-.37,0-1.25.07-1-.54a1,1,0,0,1,.28-.37,7,7,0,0,1,2.22-1.5,1.69,1.69,0,0,0-.76.2A5.8,5.8,0,0,0,95.19,28c-.18.21-.4.53-.69.6a3.55,3.55,0,0,1-.86,0c-.71,0-1.41,0-2.11.06-.33,0-.43,0-.31-.38a1.71,1.71,0,0,1,.45-.62A26.42,26.42,0,0,1,94,25.61a3.5,3.5,0,0,0-1.54,1c-.89.89-1.61,2.11-3,2.31-1.12.16-2.24.33-3.38.39-.87,0-1.74,0-2.62-.05a22.67,22.67,0,0,1-2.33-.07c-.17,0-.39-.09-.42-.26a.44.44,0,0,1,.12-.3,6.45,6.45,0,0,1,1.54-1.2,9.43,9.43,0,0,1,1.94-1,13.91,13.91,0,0,1,2.42-.28,18.2,18.2,0,0,0,2.62-.64c-.79,0-1.57.09-2.35.19a10.16,10.16,0,0,1-2,.3c-.75-.05.32-.64.61-.68s.77,0,1.15-.08.64-.23,1-.32.86-.24,1.29-.38a24.28,24.28,0,0,0,2.49-1,2.4,2.4,0,0,0-1.08.19c-1.25.42-2.51.79-3.8,1.1a.25.25,0,0,1-.17,0c-.22-.1.4-.43.48-.48.26-.18.53-.35.8-.51A8.89,8.89,0,0,1,89,23.38,13.18,13.18,0,0,0,91.8,22.2a9.31,9.31,0,0,0-2,.62q-1.22.49-2.43,1.05c-.2.09-1.38.87-1.14.13a3.17,3.17,0,0,1,1.36-1.58,17.25,17.25,0,0,0,1.76-1.16,1.37,1.37,0,0,0-.81.3,13.3,13.3,0,0,0-2.2,1.6,5.57,5.57,0,0,0-.88,1.06,2,2,0,0,1-.46.65c-.44.3-.29-.38-.24-.65a6.6,6.6,0,0,1,1-2.44,10.85,10.85,0,0,0-1.17,1.46A3.59,3.59,0,0,0,84,25c0,.66-.46,1-1,1.32a14.42,14.42,0,0,1-3.33,2,3.78,3.78,0,0,1-1,.21,6.17,6.17,0,0,1-.91-.15.45.45,0,0,0-.38.1c-.21.23.12.35.28.37,2,.26,4.5,1,5.84,2.58A12.23,12.23,0,0,0,86.8,34l1.09.64a2.49,2.49,0,0,1,.77.78,19.61,19.61,0,0,1,1.21,2,1.63,1.63,0,0,0,.74.81c-.27-.44-.54-.89-.77-1.36s-.42-.74-.59-1.13a.64.64,0,0,1-.09-.36.14.14,0,0,1,0-.06h.06c.35,0,.67.17,1,.22a1.79,1.79,0,0,1,.89.3,5.35,5.35,0,0,1,1,1.19,3.92,3.92,0,0,0,1.68,1.6c-.54-.59-1.06-1.21-1.54-1.85a.53.53,0,0,1-.14-.28c0-.48,1.45.35,1.69.44a11.42,11.42,0,0,0,2.06.56,20.66,20.66,0,0,0-2.78-1.4A17.87,17.87,0,0,1,91.14,35.38Z"/><path class="cls-15" d="M75.75,53.54a4.66,4.66,0,0,1,.08-1.86,4.64,4.64,0,0,0-.57.93c-.25,0-.41-.24-.52-.46a20.07,20.07,0,0,1-.64-2.09,7.05,7.05,0,0,1-.42-1.7,20.79,20.79,0,0,1,0-4.32,21.1,21.1,0,0,1,.49-2.86,3.94,3.94,0,0,1,.46-1.44.94.94,0,0,1,.77-.36,18.63,18.63,0,0,1,2.48.07c.61.07,1.21.2,1.81.33a14.12,14.12,0,0,1,3.2,1,5.45,5.45,0,0,1,.76.39c.25.19.39.56.65.74a1.71,1.71,0,0,0-1.1-.3c.16.46.65.43,1,.59a3.34,3.34,0,0,1,1.48,1.47,1.1,1.1,0,0,0-1.17,0,4,4,0,0,1,1.63,1.7,3.12,3.12,0,0,1-1.57.19l.35.49c-.11,0-1.27-.12-1.45-.18s-.88-.45-.79,0a3.55,3.55,0,0,1-1-.07c-.59-.18-.93-.76-1.47-1h-.06c-.08,0-.08.13,0,.2A3,3,0,0,0,81.54,46a10.68,10.68,0,0,0,1.86.52A3.23,3.23,0,0,1,85.53,48a3.75,3.75,0,0,1-2.73.28,3.84,3.84,0,0,0,1.88.93,2.26,2.26,0,0,1,1.73,2c0-.19-.63-.41-.78-.44-.39-.1-.79-.15-1.18-.23a4.24,4.24,0,0,1,2.34,2.16c0-.07-.65,0-.7.08s.17.31.24.41a2.26,2.26,0,0,1,.29.76,1.29,1.29,0,0,1,0,.73.7.7,0,0,1-.11.21A3.52,3.52,0,0,1,85,53.59a1.58,1.58,0,0,1-.5,1A6.79,6.79,0,0,1,83,51.78a3.05,3.05,0,0,1-1.25,1.88,8.8,8.8,0,0,1-1.63-4.35l-.3.88a6.7,6.7,0,0,1-1.47-2.58,1.63,1.63,0,0,0,0,1.74c.29.55.72,1,1,1.56a3,3,0,0,1,.16,2.26.71.71,0,0,1-.38-.22c-.12-.1-.3-.18-.43-.09a.34.34,0,0,0-.1.16c-.31.76.25,1.66,0,2.44a2.26,2.26,0,0,1-1.82-1.41,1,1,0,0,1-.19.54C76.14,54.63,75.83,54,75.75,53.54Z"/><path class="cls-14" d="M86.61,54.6a15.34,15.34,0,0,0-2.76-3.46,10.51,10.51,0,0,1-1.44-1.55A13.92,13.92,0,0,0,81,47.76c-.32-.36-.68-.68-1-1s-.52-.71-.83-1c-.48-.5-1-.93-1.52-1.41l-.41-.4a8.13,8.13,0,0,1-.75-.9c-.18-.26-.34-.54-.5-.81l-1-1.84c-.13-.23-.41-.5-.2-.72a1,1,0,0,1,.66-.24,18.63,18.63,0,0,1,2.48.07c.61.07,1.21.2,1.81.33a14.12,14.12,0,0,1,3.2,1,5.45,5.45,0,0,1,.76.39c.25.19.39.56.65.74a1.71,1.71,0,0,0-1.1-.3c.16.46.65.43,1,.59a3.34,3.34,0,0,1,1.48,1.47,1.1,1.1,0,0,0-1.17,0,4,4,0,0,1,1.63,1.7,3.12,3.12,0,0,1-1.57.19l.35.49c-.11,0-1.27-.12-1.45-.18s-.88-.45-.79,0a3.55,3.55,0,0,1-1-.07c-.59-.18-.93-.76-1.47-1h-.06c-.08,0-.08.13,0,.2A3,3,0,0,0,81.54,46a10.68,10.68,0,0,0,1.86.52A3.23,3.23,0,0,1,85.53,48a3.75,3.75,0,0,1-2.73.28,3.84,3.84,0,0,0,1.88.93,2.26,2.26,0,0,1,1.73,2c0-.19-.63-.41-.78-.44-.39-.1-.79-.15-1.18-.23a4.24,4.24,0,0,1,2.34,2.16c0-.07-.65,0-.7.08s.17.31.24.41a2.26,2.26,0,0,1,.29.76A1.29,1.29,0,0,1,86.61,54.6Z"/><path class="cls-22" d="M77.22,50.62c0-.17,0-.29,0-.29a.35.35,0,0,1,.23.09c.18.14.37.27.54.41a5.84,5.84,0,0,1,.93.93,5.21,5.21,0,0,0-1.6-1.64,3,3,0,0,1-.92-2.19,11.47,11.47,0,0,1-.1-2.55c0-.5.08-1,.13-1.49a1.51,1.51,0,0,1,.06-.36.13.13,0,0,1,0-.07c.06,0,.13,0,.18.06.67.64,1.15,1.46,1.85,2.09l.81.74c.21.2.47.37.51.68.08.68-.13,1.37,0,2a12.31,12.31,0,0,0,.28-1.61c.1-.45.52.17.64.3s.49.55.75.81A2.65,2.65,0,0,1,82,50.32c0,.28,0,.56,0,.84a4,4,0,0,0,.21,1.43,28.41,28.41,0,0,0,0-3.06s0,0,0-.06.13,0,.18.06l.9,1.29a4.34,4.34,0,0,1,.57,1.06c.1.25.17.52.25.78s.29.53.29.72a3,3,0,0,0-.32-1.28.59.59,0,0,1-.1-.34,1.22,1.22,0,0,1,.29.17,9.81,9.81,0,0,1,.79.79,3.54,3.54,0,0,1,.67.83A4.87,4.87,0,0,0,84.5,52c-.14-.15-.21-.2,0-.23a1.36,1.36,0,0,1,.53.07c.34.08.66.23,1,.33A2.58,2.58,0,0,0,85,51.66a2.69,2.69,0,0,1-1-.26,3.47,3.47,0,0,1-.63-.85c-.15-.23-.62-.68-.17-.83a.65.65,0,0,1,.34,0,5.13,5.13,0,0,1,1.88.57,1.14,1.14,0,0,0-.47-.34,4.19,4.19,0,0,0-1.67-.41,1.13,1.13,0,0,1-.66-.11,2.69,2.69,0,0,1-.39-.5c-.32-.41-.65-.8-1-1.18-.17-.17-.19-.25.07-.34a1.18,1.18,0,0,1,.56,0,18.76,18.76,0,0,1,2.23.34,2.56,2.56,0,0,0-1.28-.42c-.91-.1-1.94.06-2.67-.62s-1.22-1.12-1.77-1.74-.8-1-1.19-1.51a15.17,15.17,0,0,1-1-1.36c-.07-.11-.13-.26,0-.36a.31.31,0,0,1,.22-.07,4.83,4.83,0,0,1,1.4.32,7,7,0,0,1,1.44.67,10.7,10.7,0,0,1,1.27,1.25A12,12,0,0,0,82,45.06c-.38-.43-.77-.85-1.19-1.25a8.22,8.22,0,0,1-1.11-1c-.31-.45.51-.12.67,0s.37.43.58.62a7,7,0,0,0,.64.41l.8.56a17.84,17.84,0,0,0,1.71,1,1.71,1.71,0,0,0-.61-.52c-.81-.52-1.61-1.07-2.37-1.66a.28.28,0,0,1-.09-.1c0-.17.43,0,.5,0l.66.23a6.37,6.37,0,0,1,.86.45,9.63,9.63,0,0,0,2,1.09,6.33,6.33,0,0,0-1.3-.88c-.56-.32-1.14-.62-1.71-.91-.15-.07-1.14-.38-.6-.59a2.3,2.3,0,0,1,1.51.05,13.36,13.36,0,0,0,1.48.47,1,1,0,0,0-.55-.33,9.7,9.7,0,0,0-1.92-.51,4.26,4.26,0,0,0-1,0,1.63,1.63,0,0,1-.58,0c-.37-.12.08-.34.26-.44a5,5,0,0,1,1.85-.56,8.94,8.94,0,0,0-1.37,0,2.59,2.59,0,0,0-1.27.48,1.22,1.22,0,0,1-1.2.06,10.52,10.52,0,0,1-2.69-1,2.65,2.65,0,0,1-.58-.48,4,4,0,0,1-.34-.58.34.34,0,0,0-.23-.18c-.23,0-.15.24-.08.34a7.06,7.06,0,0,1,1.23,4.51A8.79,8.79,0,0,0,76,47.52c0,.31.09.61.14.92a1.83,1.83,0,0,1-.09.8,13.51,13.51,0,0,1-.59,1.61,1.2,1.2,0,0,0-.12.8c.13-.36.26-.72.42-1.07s.22-.57.36-.85a.65.65,0,0,1,.17-.22h0s0,0,0,0c.15.2.22.46.35.67a1.38,1.38,0,0,1,.23.65,3.69,3.69,0,0,1-.2,1.14,3,3,0,0,0-.14,1.69c.09-.58.21-1.16.35-1.73a.38.38,0,0,1,.1-.21c.26-.23.47,1,.53,1.17a8.14,8.14,0,0,0,.62,1.42,14.17,14.17,0,0,0-.48-2.22A11.76,11.76,0,0,1,77.22,50.62Z"/><path class="cls-15" d="M84.46,38.36a3.16,3.16,0,0,1-1.32-.49,3.6,3.6,0,0,0,.54.63c-.05.18-.27.24-.45.27-.57.07-1.1,0-1.66,0a5.91,5.91,0,0,1-1.32-.09,15.42,15.42,0,0,1-3.11-1,15.64,15.64,0,0,1-2-1,3,3,0,0,1-.93-.67.7.7,0,0,1-.08-.63,13.88,13.88,0,0,1,.62-1.78,12,12,0,0,1,.66-1.22,10.42,10.42,0,0,1,1.44-2.08,3.93,3.93,0,0,1,.45-.46c.2-.14.5-.15.69-.29a1.24,1.24,0,0,0-.47.72c.37,0,.46-.37.66-.6a2.54,2.54,0,0,1,1.4-.73.86.86,0,0,0-.31.83,3,3,0,0,1,1.6-.78,2.35,2.35,0,0,1-.22,1.17l.44-.13c-.07.06-.38.88-.47,1s-.53.53-.21.56a2.44,2.44,0,0,1-.28.69c-.26.38-.76.49-1.05.83l0,0s.07.08.14.08a2.33,2.33,0,0,0,1.14-.75,8.33,8.33,0,0,0,.81-1.22A2.42,2.42,0,0,1,82.69,30a2.81,2.81,0,0,1-.43,2c.52-.21.77-.69,1.11-1.14a1.73,1.73,0,0,1,1.82-.8c-.14,0-.44.37-.5.47-.16.26-.29.53-.44.8a3.21,3.21,0,0,1,2.1-1.2c-.06,0-.13.48-.11.53s.26,0,.36-.08a1.78,1.78,0,0,1,.61,0,.86.86,0,0,1,.52.18.37.37,0,0,1,.13.12,2.86,2.86,0,0,1-1.23.83,1.12,1.12,0,0,1,.59.58,5.23,5.23,0,0,1-2.34.39A2.23,2.23,0,0,1,85.94,34a6.64,6.64,0,0,1-3.51.17l.57.42a5,5,0,0,1-2.2.46,1.24,1.24,0,0,0,1.26.39c.46-.08.89-.29,1.35-.36a2.31,2.31,0,0,1,1.67.4.56.56,0,0,1-.25.23c-.1.06-.2.17-.16.29a.23.23,0,0,0,.09.11c.48.4,1.25.2,1.75.56a1.68,1.68,0,0,1-1.43,1,.83.83,0,0,1,.35.26C85.34,38.33,84.84,38.42,84.46,38.36Z"/><path class="cls-14" d="M87.73,30.79A11.55,11.55,0,0,0,84.6,32a7.93,7.93,0,0,1-1.45.67,11.91,11.91,0,0,0-1.64.6c-.33.15-.65.33-1,.49s-.64.22-.94.36c-.47.23-.91.52-1.36.77l-.39.2a5.26,5.26,0,0,1-.82.34c-.23.07-.47.12-.7.17l-1.56.33c-.2,0-.46.18-.57,0a.67.67,0,0,1,0-.52,13.88,13.88,0,0,1,.62-1.78,12,12,0,0,1,.66-1.22,10.42,10.42,0,0,1,1.44-2.08,3.93,3.93,0,0,1,.45-.46c.2-.14.5-.15.69-.29a1.24,1.24,0,0,0-.47.72c.37,0,.46-.37.66-.6a2.54,2.54,0,0,1,1.4-.73.86.86,0,0,0-.31.83,3,3,0,0,1,1.6-.78,2.35,2.35,0,0,1-.22,1.17l.44-.13c-.07.06-.38.88-.47,1s-.53.53-.21.56a2.44,2.44,0,0,1-.28.69c-.26.38-.76.49-1.05.83l0,0s.07.08.14.08a2.33,2.33,0,0,0,1.14-.75,8.33,8.33,0,0,0,.81-1.22A2.42,2.42,0,0,1,82.69,30a2.81,2.81,0,0,1-.43,2c.52-.21.77-.69,1.11-1.14a1.73,1.73,0,0,1,1.82-.8c-.14,0-.44.37-.5.47-.16.26-.29.53-.44.8a3.21,3.21,0,0,1,2.1-1.2c-.06,0-.13.48-.11.53s.26,0,.36-.08a1.78,1.78,0,0,1,.61,0A.86.86,0,0,1,87.73,30.79Z"/><path class="cls-22" d="M82.69,36.63c-.12,0-.2-.05-.19-.1a.29.29,0,0,1,.12-.15l.42-.29a4.42,4.42,0,0,1,.89-.46,4,4,0,0,0-1.56.78,2.26,2.26,0,0,1-1.79.16,9.17,9.17,0,0,1-1.86-.52l-1-.44a.7.7,0,0,1-.24-.13l0,0s0-.09.09-.12c.61-.33,1.31-.48,1.93-.84l.72-.41c.2-.11.38-.26.61-.22.51.1,1,.41,1.47.51a8.8,8.8,0,0,0-1.1-.57c-.3-.18.24-.34.36-.39l.76-.35a2,2,0,0,1,1.35.09l.61.2a2.62,2.62,0,0,0,1.07.18,22.74,22.74,0,0,0-2.21-.7l0,0s0-.09.08-.11l1.14-.35a3.42,3.42,0,0,1,.89-.17h.62a3,3,0,0,1,.59,0,2.54,2.54,0,0,0-1-.07.45.45,0,0,1-.28,0,.82.82,0,0,1,.2-.17c.24-.14.49-.27.74-.39a2.71,2.71,0,0,1,.76-.29,3.63,3.63,0,0,0-1.41.51c-.14.07-.2.1-.16-.08a1.08,1.08,0,0,1,.17-.36c.14-.22.32-.42.46-.64a2,2,0,0,0-.59.65,2.11,2.11,0,0,1-.42.67,2.85,2.85,0,0,1-.76.26c-.2.06-.63.29-.63-.07a.71.71,0,0,1,.06-.25,4,4,0,0,1,.85-1.22.89.89,0,0,0-.35.26A3.17,3.17,0,0,0,83.31,32a.86.86,0,0,1-.24.45,2,2,0,0,1-.45.16c-.36.14-.72.29-1.07.46-.17.07-.23.07-.24-.14a1.19,1.19,0,0,1,.11-.41A14.36,14.36,0,0,1,82.18,31a1.83,1.83,0,0,0-.6.82c-.28.63-.4,1.41-1,1.78s-1.1.62-1.67.88-.9.34-1.36.5a12.63,12.63,0,0,1-1.22.44c-.1,0-.22,0-.27-.06a.2.2,0,0,1,0-.17,3.39,3.39,0,0,1,.56-.93,4.56,4.56,0,0,1,.81-.89,8.44,8.44,0,0,1,1.19-.63,9.49,9.49,0,0,0,1.22-.85,12.63,12.63,0,0,0-1.17.57,6.45,6.45,0,0,1-1,.56c-.39.13,0-.39.18-.47s.39-.17.58-.27.28-.26.44-.37l.59-.45a14.81,14.81,0,0,0,1.09-1,1.29,1.29,0,0,0-.52.32c-.56.47-1.14.91-1.74,1.33,0,0-.06,0-.09,0s.12-.3.15-.34.2-.29.31-.43a4.26,4.26,0,0,1,.53-.51,7.31,7.31,0,0,0,1.24-1.18,4.68,4.68,0,0,0-.93.73c-.36.33-.71.68-1,1-.09.08-.54.73-.56.29a1.68,1.68,0,0,1,.38-1.08,11,11,0,0,0,.68-1,.75.75,0,0,0-.36.32,7,7,0,0,0-.81,1.27,3.07,3.07,0,0,0-.25.72,1,1,0,0,1-.1.43c-.17.24-.23-.14-.26-.28a3.64,3.64,0,0,1,0-1.47,6,6,0,0,0-.31,1,2,2,0,0,0,0,1,.86.86,0,0,1-.23.87,7.86,7.86,0,0,1-1.3,1.72,2.26,2.26,0,0,1-.49.31,3,3,0,0,1-.5.11.23.23,0,0,0-.17.13c-.07.16.13.15.22.13a5.28,5.28,0,0,1,3.53.16,6.92,6.92,0,0,0,2.23.66l.69.11a1.35,1.35,0,0,1,.56.25,11.35,11.35,0,0,1,1,.8.93.93,0,0,0,.54.27l-.67-.55c-.17-.16-.36-.3-.53-.46a.48.48,0,0,1-.12-.17v0h0c.18-.06.38,0,.57-.1a1,1,0,0,1,.52,0,2.85,2.85,0,0,1,.77.41,2.23,2.23,0,0,0,1.19.49c-.4-.2-.79-.42-1.17-.65a.3.3,0,0,1-.13-.12c-.1-.24.82-.11,1-.11a7.74,7.74,0,0,0,1.17-.12,11,11,0,0,0-1.71-.17A9.07,9.07,0,0,1,82.69,36.63Z"/><path class="cls-15" d="M61.47,42.08a3.58,3.58,0,0,1,1.38-.57,3.69,3.69,0,0,0-.87-.1c-.09-.18,0-.38.16-.53a15.83,15.83,0,0,1,1.29-1.17,5.79,5.79,0,0,1,1.09-.87,16.39,16.39,0,0,1,5.36-2.07,3,3,0,0,1,1.2-.15.73.73,0,0,1,.51.43,13.9,13.9,0,0,1,.79,1.82,14.11,14.11,0,0,1,.37,1.42,11.36,11.36,0,0,1,.37,2.65,4.93,4.93,0,0,1,0,.67c0,.25-.28.48-.32.72a1.36,1.36,0,0,0-.15-.89c-.28.27-.09.61-.08.94A2.64,2.64,0,0,1,72,45.94a.88.88,0,0,0-.36-.86,3.13,3.13,0,0,1-.68,1.75,2.39,2.39,0,0,1-.66-1.07l-.24.42c0-.1-.34-1-.36-1.11s0-.79-.24-.59a2.8,2.8,0,0,1-.27-.73c-.07-.49.23-.93.22-1.4a.09.09,0,0,0,0-.05s-.12,0-.16,0a2.4,2.4,0,0,0-.35,1.4,8,8,0,0,0,.25,1.52,2.66,2.66,0,0,1-.3,2,3,3,0,0,1-1.12-1.89,3.08,3.08,0,0,0,0,1.68A1.81,1.81,0,0,1,66.8,49c.14-.06.08-.59.06-.71-.06-.32-.16-.62-.24-.93a3.33,3.33,0,0,1-.77,2.42c.05,0-.24-.46-.29-.48s-.17.22-.22.31a2,2,0,0,1-.45.47,1,1,0,0,1-.54.23h-.18a2.93,2.93,0,0,1,.36-1.53,1.12,1.12,0,0,1-.88,0,5.5,5.5,0,0,1,1.55-2,2.4,2.4,0,0,1-1.78-.27A6.91,6.91,0,0,1,66,43.85l-.74.08A5.47,5.47,0,0,1,66.65,42a1.32,1.32,0,0,0-1.26.61c-.29.39-.48.86-.79,1.24a2.38,2.38,0,0,1-1.58.88.61.61,0,0,1,0-.35A.28.28,0,0,0,63,44a.19.19,0,0,0-.15,0c-.65,0-1.11.74-1.76.82a1.81,1.81,0,0,1,.4-1.8.77.77,0,0,1-.45,0C60.81,42.73,61.13,42.31,61.47,42.08Z"/><path class="cls-14" d="M64.35,50.29a12,12,0,0,0,1.58-3.16,8.52,8.52,0,0,1,.64-1.56,12.61,12.61,0,0,0,.85-1.63c.15-.36.26-.73.4-1.09s.34-.62.47-1c.2-.51.33-1,.5-1.57,0-.15.1-.29.16-.43a6.53,6.53,0,0,1,.39-.85c.13-.22.28-.43.43-.64l1-1.36c.13-.18.23-.47.46-.39a.74.74,0,0,1,.39.39,13.9,13.9,0,0,1,.79,1.82,14.11,14.11,0,0,1,.37,1.42,11.36,11.36,0,0,1,.37,2.65,4.93,4.93,0,0,1,0,.67c0,.25-.28.48-.32.72a1.36,1.36,0,0,0-.15-.89c-.28.27-.09.61-.08.94A2.64,2.64,0,0,1,72,45.94a.88.88,0,0,0-.36-.86,3.13,3.13,0,0,1-.68,1.75,2.39,2.39,0,0,1-.66-1.07l-.24.42c0-.1-.34-1-.36-1.11s0-.79-.24-.59a2.8,2.8,0,0,1-.27-.73c-.07-.49.23-.93.22-1.4a.09.09,0,0,0,0-.05s-.12,0-.16,0a2.4,2.4,0,0,0-.35,1.4,8,8,0,0,0,.25,1.52,2.66,2.66,0,0,1-.3,2,3,3,0,0,1-1.12-1.89,3.08,3.08,0,0,0,0,1.68A1.81,1.81,0,0,1,66.8,49c.14-.06.08-.59.06-.71-.06-.32-.16-.62-.24-.93a3.33,3.33,0,0,1-.77,2.42c.05,0-.24-.46-.29-.48s-.17.22-.22.31a2,2,0,0,1-.45.47A1,1,0,0,1,64.35,50.29Z"/><path class="cls-22" d="M64.08,42.15c.11-.07.19-.11.22-.06a.23.23,0,0,1,0,.2,5.17,5.17,0,0,1-.11.54,4.79,4.79,0,0,1-.36,1,4.28,4.28,0,0,0,.65-1.71c.15-.7.7-1,1.27-1.41a10.06,10.06,0,0,1,1.82-.93l1.12-.4a.9.9,0,0,1,.28-.08.1.1,0,0,1,.07,0s0,.09,0,.14c-.24.7-.68,1.33-.89,2l-.27.84c-.07.22-.11.47-.32.6-.46.29-1,.37-1.5.66a9.44,9.44,0,0,0,1.26-.35c.36-.07.05.44,0,.56-.12.27-.24.55-.34.82-.17.44-.7.69-1.11.89l-.62.28a3.14,3.14,0,0,0-1,.63,23.28,23.28,0,0,0,2.21-1h0c.06,0,0,.1,0,.15L66,46.61a4.31,4.31,0,0,1-.57.76c-.16.16-.33.3-.49.45s-.28.38-.42.45a2.46,2.46,0,0,0,.81-.66.56.56,0,0,1,.22-.19.83.83,0,0,1,0,.27,6.34,6.34,0,0,1-.3.83,2.64,2.64,0,0,1-.38.77,3.91,3.91,0,0,0,.73-1.4c.06-.16.08-.22.18-.06a1.11,1.11,0,0,1,.13.4c.05.28.05.56.1.84a2.29,2.29,0,0,0,0-.94,2,2,0,0,1-.15-.82,2.8,2.8,0,0,1,.4-.74c.11-.19.29-.68.55-.4a.77.77,0,0,1,.12.24A4.31,4.31,0,0,1,67.08,48a1,1,0,0,0,.09-.45,3.5,3.5,0,0,0-.27-1.35.86.86,0,0,1-.14-.51A2.13,2.13,0,0,1,67,45.2c.18-.37.35-.74.51-1.12.07-.18.12-.22.27-.07a1.09,1.09,0,0,1,.22.39,17.9,17.9,0,0,1,.5,1.73,2,2,0,0,0-.13-1.06c-.23-.69-.69-1.39-.45-2.14s.4-1.26.66-1.87.46-.91.7-1.37a11.44,11.44,0,0,1,.63-1.2c.06-.09.15-.18.25-.15s.09.07.12.13a3.86,3.86,0,0,1,.24,1.12,5.31,5.31,0,0,1,0,1.26A8.31,8.31,0,0,1,70,42.2a8.9,8.9,0,0,0-.34,1.53,11.7,11.7,0,0,0,.5-1.28,6.3,6.3,0,0,1,.36-1.14c.22-.38.26.33.21.5s-.19.4-.26.62,0,.4-.08.6-.09.51-.13.77a13.65,13.65,0,0,0-.12,1.56,1.59,1.59,0,0,0,.17-.61c.1-.77.23-1.53.4-2.28a.3.3,0,0,1,0-.1c.11-.08.12.32.13.38a5.14,5.14,0,0,1,.06.55,5,5,0,0,1,0,.78,7.78,7.78,0,0,0-.11,1.8,5.18,5.18,0,0,0,.2-1.23c0-.52.06-1,.07-1.55,0-.13-.1-1,.23-.63a1.87,1.87,0,0,1,.48,1.11A8.45,8.45,0,0,0,72,44.81a.85.85,0,0,0,0-.5,7.6,7.6,0,0,0-.28-1.57,3.41,3.41,0,0,0-.33-.73,1.2,1.2,0,0,1-.23-.41c0-.31.28-.05.41,0a3.63,3.63,0,0,1,1,1.15,5.94,5.94,0,0,0-.46-1,2.11,2.11,0,0,0-.78-.76,1,1,0,0,1-.44-.84,8.32,8.32,0,0,1-.21-2.27,2,2,0,0,1,.15-.59c.07-.19.21-.28.31-.44a.25.25,0,0,0,0-.22c-.06-.17-.21,0-.27,0a5.56,5.56,0,0,1-2.85,2.41,7,7,0,0,0-2.2,1.08l-.62.41a1.53,1.53,0,0,1-.6.21,12.85,12.85,0,0,1-1.37.11,1,1,0,0,0-.62.18c.3,0,.61-.05.91-.05s.5,0,.75,0a.38.38,0,0,1,.21.05s0,0,0,0,0,0,0,0a5.58,5.58,0,0,1-.37.48,1,1,0,0,1-.39.39,3.28,3.28,0,0,1-.88.24,2.3,2.3,0,0,0-1.28.47A13,13,0,0,1,63,42.4a.37.37,0,0,1,.18,0c.26.12-.55.68-.66.78a6.58,6.58,0,0,0-.82.93A10.89,10.89,0,0,0,63.16,43,10.51,10.51,0,0,1,64.08,42.15Z"/><path class="cls-15" d="M75.6,40.66a7.84,7.84,0,0,1-1.41-2.09c-.75-1.2-2-2.09-2.52-3.38-.06-.14-.24-.31-.33-.19a1.83,1.83,0,0,1-.29,2,10.36,10.36,0,0,1,.08-1.1A1.64,1.64,0,0,0,70,34.57a4.54,4.54,0,0,0-1.87-.18c-1.13.07-2.26.18-3.38.32a4.12,4.12,0,0,0-.78.16l1.63-.72a32.24,32.24,0,0,1,3.4-.28,3.59,3.59,0,0,1,2.6.66,19.48,19.48,0,0,0,3.3,1.78,2.26,2.26,0,0,1-2-.28c-.2-.22-.43-.45-.64-.66a2.12,2.12,0,0,0,.64.66,7,7,0,0,1,.71.91c.35.55.59,1.18.93,1.75A5.19,5.19,0,0,1,75.6,40.66Z"/></g></g></svg>