<svg xmlns="http://www.w3.org/2000/svg" viewBox="0 0 153.06 93.99"><defs><style>.cls-1{fill:#f17900;}.cls-2{fill:#ffa433;}.cls-3{fill:#ffcd36;}.cls-4{fill:#ffb433;}.cls-5{fill:#ff6900;}.cls-6{fill:#ff4000;}.cls-7{fill:#ff8000;}.cls-8{fill:#ffe657;}.cls-9{fill:#fff7ed;}.cls-10{fill:#f6dab3;}.cls-11{fill:#f2d8b6;}.cls-12{fill:#1b1a15;}.cls-13{fill:#2b2b2b;}.cls-14{fill:#b8230f;}.cls-15{fill:#e90;}.cls-16{fill:#da281f;}.cls-17{fill:#b8221a;}.cls-18{fill:#68a828;}.cls-19{fill:#ff3f36;}.cls-20{fill:#ff5952;}.cls-21{fill:#4d7326;}.cls-22{fill:#a6cb6c;}</style></defs><g id="Layer_2" data-name="Layer 2"><g id="Layer"><path class="cls-1" d="M152.88,44.36c0-.34-.07-.68-.12-1-.3-2.48-.85-5-2.57-6.77a12.53,12.53,0,0,0-3.5-2.2c-.16-.09-.31-.18-.44-.27C141.19,27.3,133,21.18,121.71,16.5c-13.46-5.61-29.18-8.3-44.78-8.27h-.8c-15.6,0-31.31,2.66-44.78,8.27C20.12,21.18,11.88,27.3,6.82,34.09l-.44.27a12.44,12.44,0,0,0-3.51,2.2C1.16,38.33.6,40.85.3,43.33l-.12,1A36.27,36.27,0,0,0,4,64.75c3.16,5.73,8.35,10.12,13.61,13.75a74.1,74.1,0,0,0,13.49,7.22C44.76,91.41,60.72,94.09,76.53,94c15.81.1,31.77-2.58,45.43-8.27a74.1,74.1,0,0,0,13.49-7.22c5.26-3.63,10.44-8,13.61-13.75A36.18,36.18,0,0,0,152.88,44.36Z"/><path class="cls-2" d="M121.77,77.49c-33.56,14-81,9.83-106.07-9.28S-2.4,22.26,31.16,8.28s81.05-9.83,106.07,9.28S155.33,63.51,121.77,77.49Z"/><path class="cls-3" d="M120.57,76.06C87.9,89.67,41.67,85.62,17.31,67S-.31,22.29,32.36,8.67s78.9-9.56,103.26,9S153.24,62.44,120.57,76.06Z"/><path class="cls-4" d="M119.22,74.51C87.55,87.7,42.73,83.78,19.12,65.74S2,22.38,33.71,9.19,110.2-.09,133.81,18,150.89,61.31,119.22,74.51Z"/><path class="cls-1" d="M117.18,72.14C87,84.47,44.34,80.8,21.85,64S5.59,23.45,35.75,11.12s72.84-8.67,95.33,8.19S147.35,59.81,117.18,72.14Z"/><path class="cls-5" d="M66.69,80.48a13.16,13.16,0,0,1-5.85-1.89c-.69-.35-1.34-.69-2-1A10.35,10.35,0,0,0,54.91,77a12.86,12.86,0,0,1-3.29-.4,26.47,26.47,0,0,1-8-4.4c-2.52-1.8-4.9-3.5-7.77-4.21a13.88,13.88,0,0,0-3.39-.32H31.18l-1.3,0c-2.46,0-4.44-.28-6.09-1.61a11.27,11.27,0,0,1-2.49-3.31c-.3-.53-.61-1.08-1-1.58A10.77,10.77,0,0,0,16,57.46L14.94,57a8.37,8.37,0,0,1-3.12-1.86c-1.85-2-1.37-4.68-.91-7.29.34-1.93.69-3.92.11-5.6a10.59,10.59,0,0,0-1.61-2.71,8,8,0,0,1-2-4.17C7.3,33,9.34,29.78,11.3,28.21a29.93,29.93,0,0,1,2.53-1.74,18.16,18.16,0,0,0,3.48-2.63,18.59,18.59,0,0,0,2.3-3.21,16.94,16.94,0,0,1,2.84-3.78C25,14.46,28.58,14,32,13.47a28.1,28.1,0,0,0,6.18-1.34,27,27,0,0,0,4.57-2.5c1.06-.67,2.16-1.37,3.32-2A24.41,24.41,0,0,1,57.29,5.31a44.29,44.29,0,0,1,4.46.24,17.44,17.44,0,0,0,1.79.09,35.85,35.85,0,0,0,7.71-1.11A37.16,37.16,0,0,1,79.12,3.4h.62a25.1,25.1,0,0,1,6.51,1.38,27.45,27.45,0,0,0,5.48,1.29c.51,0,1,.08,1.67.08s1.48,0,2.2-.07S97.08,6,97.83,6a14.9,14.9,0,0,1,3.34.32A20.59,20.59,0,0,1,106.86,9,27.15,27.15,0,0,0,111,11.09a26.73,26.73,0,0,0,5.27,1.13A26.35,26.35,0,0,1,122,13.47a17.73,17.73,0,0,1,4,2.46,24,24,0,0,0,2.68,1.79l.59.31a14.45,14.45,0,0,1,5.26,4c.49.63.92,1.31,1.35,2a13.29,13.29,0,0,0,2.79,3.46,16.54,16.54,0,0,0,2.38,1.44c1.67.88,3.4,1.78,4.11,3.61a7.74,7.74,0,0,1,.22,3.7,10,10,0,0,0-.07,2.37,10,10,0,0,0,.88,2.69,11.32,11.32,0,0,1,.94,2.79c.41,2.51-.7,5.19-3.3,8-.49.52-1,1-1.49,1.53a17.86,17.86,0,0,0-3.86,4.81,18.5,18.5,0,0,0-.76,2,14.31,14.31,0,0,1-1.22,2.86c-1.82,3-5.22,4-8.5,5a31.26,31.26,0,0,0-4.42,1.59,28.21,28.21,0,0,0-4.48,2.88,36.92,36.92,0,0,1-3.71,2.49,9.68,9.68,0,0,1-5,1.36,19.65,19.65,0,0,1-3.73-.45,18.36,18.36,0,0,0-3.42-.32,19,19,0,0,0-5.37.77,29.79,29.79,0,0,0-3.5,1.36,19.67,19.67,0,0,1-5.65,1.82,12.15,12.15,0,0,1-1.23.07,24.7,24.7,0,0,1-6-1,31.43,31.43,0,0,0-4.31-.89c-.45,0-.86-.06-1.27-.06a8.55,8.55,0,0,0-2.31.29,15.14,15.14,0,0,0-2.51,1,12,12,0,0,1-3.81,1.28C67.16,80.46,66.92,80.48,66.69,80.48Z"/><path class="cls-6" d="M77.35,77.41a10,10,0,0,0-3.78.24c-2.14.58-4,2-6.23,2.27-3,.31-5.64-1.64-8.3-2.78s-4.8-.38-7.28-1.09c-6-1.71-9.93-7.17-15.77-8.62-4-1-8.7.76-11.87-1.79-1.52-1.23-2.24-3.17-3.35-4.79A11.49,11.49,0,0,0,16.25,57c-1.4-.66-3-1.07-4.05-2.2-3-3.2.73-8.57-.69-12.71C10.68,39.65,8.12,37.9,8,35.33,7.83,33,9.87,30,11.63,28.62c2-1.57,4.32-2.61,6.06-4.42,2-2.08,3-5,5.11-7,4-3.72,10.45-2.66,15.57-4.63,2.84-1.09,5.22-3.1,7.93-4.47,4.75-2.38,10.2-2.6,15.4-2.07,6.32.65,11.85-2.34,18-2.14,4.09.13,7.88,2.28,12,2.67,3.12.3,6.32-.44,9.37.26,3.54.82,6.38,3.47,9.79,4.72s7.46,1,11,2.38c2.52,1,4.35,3,6.68,4.22s4.05,2.06,5.68,4.18c1.41,1.85,2.4,4.07,4.23,5.51,2.12,1.68,5.34,2.31,6.33,4.83.73,1.86-.14,4,.11,5.95s1.52,3.58,1.83,5.49c.45,2.79-1.25,5.48-3.17,7.55s-4.22,3.91-5.44,6.46c-.74,1.57-1,3.33-1.95,4.8-2.54,4.13-8.34,4.32-12.71,6.41-3,1.41-5.35,3.79-8.21,5.39s-5.22,1.45-8.35.85a19.44,19.44,0,0,0-9,.46c-3.08.9-5.87,2.81-9.06,3.16C84.91,79.65,81.1,77.8,77.35,77.41Z"/><path class="cls-7" d="M66.69,78.91a11.73,11.73,0,0,1-5.14-1.71c-.69-.35-1.39-.71-2.11-1a11.59,11.59,0,0,0-4.48-.8,11.36,11.36,0,0,1-2.91-.34c-2.77-.79-5.08-2.43-7.51-4.17s-5.14-3.67-8.3-4.46a15.89,15.89,0,0,0-3.77-.36H31.15l-1.27,0c-2.13,0-3.81-.22-5.11-1.26A9.9,9.9,0,0,1,22.66,62c-.32-.55-.65-1.13-1-1.68a12.39,12.39,0,0,0-4.94-4.22l-1.15-.49A7.13,7.13,0,0,1,13,54.08c-1.33-1.42-1-3.52-.53-6,.38-2.12.76-4.31.05-6.38a11.67,11.67,0,0,0-1.82-3.12A6.84,6.84,0,0,1,9,35.27c-.11-1.81,1.64-4.53,3.28-5.84.74-.59,1.54-1.1,2.39-1.65a20,20,0,0,0,3.77-2.86,20.17,20.17,0,0,0,2.5-3.47A15.71,15.71,0,0,1,23.5,18c2.24-2.06,5.39-2.51,8.72-3a29.46,29.46,0,0,0,6.53-1.44A27.35,27.35,0,0,0,43.58,11a36.38,36.38,0,0,1,3.19-1.88,23,23,0,0,1,10.52-2.2,41.28,41.28,0,0,1,4.3.24c.63.06,1.29.09,1.95.09a37.75,37.75,0,0,0,8.05-1.14A34.5,34.5,0,0,1,79.12,5h.57a23.73,23.73,0,0,1,6.1,1.31,29.24,29.24,0,0,0,5.79,1.36c.56.05,1.15.08,1.82.08s1.53,0,2.27-.07,1.45-.06,2.16-.06a12.9,12.9,0,0,1,3,.29,19,19,0,0,1,5.26,2.43,28.13,28.13,0,0,0,4.41,2.25,27,27,0,0,0,5.59,1.2,24.33,24.33,0,0,1,5.34,1.17,16.36,16.36,0,0,1,3.7,2.25A23.33,23.33,0,0,0,128,19.09l.59.32A12.94,12.94,0,0,1,133.32,23c.45.58.85,1.2,1.27,1.86a15.08,15.08,0,0,0,3.14,3.84,16.88,16.88,0,0,0,2.63,1.59c1.54.81,2.88,1.51,3.38,2.8a6.32,6.32,0,0,1,.11,3,11.9,11.9,0,0,0-.06,2.74,11.22,11.22,0,0,0,1,3.11,10.62,10.62,0,0,1,.83,2.41c.33,2-.65,4.26-2.9,6.68-.47.5-1,1-1.46,1.48a19.46,19.46,0,0,0-4.16,5.25,19,19,0,0,0-.83,2.15,12.76,12.76,0,0,1-1.07,2.55c-1.52,2.46-4.49,3.37-7.63,4.34a33.34,33.34,0,0,0-4.64,1.67,29,29,0,0,0-4.72,3,35,35,0,0,1-3.55,2.39A8.24,8.24,0,0,1,110.45,75a18.55,18.55,0,0,1-3.43-.42,20,20,0,0,0-3.72-.35,20.66,20.66,0,0,0-5.81.83,31.35,31.35,0,0,0-3.69,1.43,18.34,18.34,0,0,1-5.19,1.7,9,9,0,0,1-1.06.06,23.18,23.18,0,0,1-5.57-1,32.91,32.91,0,0,0-4.52-.92c-.5-.05-1-.08-1.44-.08a10,10,0,0,0-2.72.36,16,16,0,0,0-2.76,1.1,11,11,0,0,1-3.31,1.14A4.87,4.87,0,0,1,66.69,78.91Z"/><path class="cls-8" d="M66.69,78A11.12,11.12,0,0,1,62,76.34c-.69-.36-1.41-.72-2.16-1A12.57,12.57,0,0,0,55,74.43a10.9,10.9,0,0,1-2.68-.3c-2.61-.75-4.84-2.35-7.21-4-2.6-1.85-5.29-3.77-8.63-4.6a16.53,16.53,0,0,0-4-.4l-1.34,0H29.88c-1.93,0-3.43-.18-4.5-1a9,9,0,0,1-1.88-2.6c-.33-.58-.67-1.17-1.07-1.76a13.32,13.32,0,0,0-5.33-4.54c-.39-.18-.79-.35-1.2-.52a6.48,6.48,0,0,1-2.23-1.23c-.95-1-.72-2.62-.28-5.14.38-2.14.81-4.56,0-6.86a13.16,13.16,0,0,0-2-3.38A6.09,6.09,0,0,1,10,35.21c-.09-1.45,1.49-3.89,2.91-5a26.64,26.64,0,0,1,2.31-1.59,20.47,20.47,0,0,0,4-3A21.06,21.06,0,0,0,21.76,22a14.66,14.66,0,0,1,2.4-3.24c2-1.86,5-2.28,8.19-2.74a29.62,29.62,0,0,0,6.74-1.49,28.6,28.6,0,0,0,5-2.72c1.06-.67,2.06-1.3,3.1-1.83A22.09,22.09,0,0,1,57.29,7.84a42,42,0,0,1,4.2.22,19.81,19.81,0,0,0,2,.11A38.35,38.35,0,0,0,71.79,7a34.34,34.34,0,0,1,7.33-1.07h.54a22.91,22.91,0,0,1,5.85,1.28,30.32,30.32,0,0,0,6,1.39c.59.05,1.21.08,1.91.08s1.53,0,2.3-.07,1.42-.06,2.13-.06a12.24,12.24,0,0,1,2.77.26,18.93,18.93,0,0,1,5,2.33,28.37,28.37,0,0,0,4.57,2.32,27.57,27.57,0,0,0,5.79,1.26,23.77,23.77,0,0,1,5.13,1.11A15.25,15.25,0,0,1,124.54,18a25.13,25.13,0,0,0,3,2l.6.32a12,12,0,0,1,4.45,3.32c.42.55.81,1.15,1.23,1.8a15.56,15.56,0,0,0,3.35,4.06,17.13,17.13,0,0,0,2.77,1.69c1.37.73,2.56,1.35,2.93,2.3a5.87,5.87,0,0,1,.06,2.51,12.61,12.61,0,0,0-.07,3,12.23,12.23,0,0,0,1.08,3.37,9.48,9.48,0,0,1,.76,2.18c.34,2.12-1.26,4.36-2.66,5.86-.46.5-.95,1-1.43,1.46a20.48,20.48,0,0,0-4.35,5.51,20.49,20.49,0,0,0-.87,2.26,11.86,11.86,0,0,1-1,2.35c-1.33,2.16-4.13,3-7.09,3.93a32.4,32.4,0,0,0-4.77,1.72,30.11,30.11,0,0,0-4.88,3.12A34.87,34.87,0,0,1,114.19,73a7.31,7.31,0,0,1-3.74,1,17.77,17.77,0,0,1-3.25-.41,21,21,0,0,0-3.9-.36,21.48,21.48,0,0,0-6.08.87,31.21,31.21,0,0,0-3.8,1.47,17.61,17.61,0,0,1-4.92,1.62,7.56,7.56,0,0,1-1,0,22.6,22.6,0,0,1-5.33-.92,34,34,0,0,0-4.66-1c-.54,0-1-.08-1.54-.08a11.11,11.11,0,0,0-3,.39,18.56,18.56,0,0,0-2.91,1.15,9.89,9.89,0,0,1-3,1.06Z"/><polygon class="cls-9" points="69.56 69.04 62.49 64.89 68.73 61.25 75.8 65.4 69.56 69.04"/><polygon class="cls-10" points="75.8 65.4 75.8 68.38 69.56 72.02 69.56 69.04 75.8 65.4"/><polygon class="cls-11" points="62.49 64.89 62.49 67.87 69.56 72.02 69.56 69.04 62.49 64.89"/><path class="cls-11" d="M71.39,66.55a.25.25,0,0,0-.33-.1l-.73.31a3,3,0,0,0-.65.82,1,1,0,0,0,0,1c.3-.08.46-.4.69-.61s.48-.28.7-.47a1,1,0,0,0,.34-.57A.55.55,0,0,0,71.39,66.55Z"/><path class="cls-11" d="M66.76,63.42a.25.25,0,0,0-.33-.11l-.73.31a3,3,0,0,0-.65.82,1,1,0,0,0,0,1c.3-.07.45-.4.68-.61s.49-.28.7-.46a1.13,1.13,0,0,0,.35-.58A.52.52,0,0,0,66.76,63.42Z"/><path class="cls-11" d="M71.32,63.7a1.82,1.82,0,0,0-1,.9,1.42,1.42,0,0,0-.08.18c-.06.12-.11.24-.16.35a.45.45,0,0,0,.41-.12c.12-.09.21-.2.33-.29s.28-.17.41-.26a.51.51,0,0,0,.24-.4Z"/><path class="cls-11" d="M69,65.82a1.86,1.86,0,0,0-1,.9c0,.06,0,.13-.08.19l-.15.35a.49.49,0,0,0,.41-.12c.11-.09.21-.21.32-.3s.28-.16.41-.26a.5.5,0,0,0,.25-.4Z"/><path class="cls-11" d="M69,61.88a1.82,1.82,0,0,0-1,.9L67.9,63l-.15.35a.49.49,0,0,0,.41-.12c.11-.09.21-.21.32-.3s.28-.16.41-.26a.49.49,0,0,0,.25-.4Z"/><path class="cls-11" d="M68.86,63.58l0,.4a9.26,9.26,0,0,0-1.08,1.79,7.43,7.43,0,0,1,.76-.6,1.59,1.59,0,0,0,.6-.73A.75.75,0,0,0,68.86,63.58Z"/><path class="cls-11" d="M73.1,64.36l0,.4A8.79,8.79,0,0,0,72,66.55a5.57,5.57,0,0,1,.76-.6,1.71,1.71,0,0,0,.6-.73A.75.75,0,0,0,73.1,64.36Z"/><polygon class="cls-9" points="90.84 55.09 83.77 50.95 90.01 47.3 97.08 51.45 90.84 55.09"/><polygon class="cls-10" points="97.08 51.45 97.08 54.43 90.84 58.07 90.84 55.09 97.08 51.45"/><polygon class="cls-11" points="83.77 50.95 83.77 53.92 90.84 58.07 90.84 55.09 83.77 50.95"/><path class="cls-11" d="M92.67,52.61a.25.25,0,0,0-.33-.11l-.73.31a3,3,0,0,0-.65.82,1,1,0,0,0,0,1c.3-.07.45-.4.68-.61s.48-.28.7-.46A1,1,0,0,0,92.7,53,.52.52,0,0,0,92.67,52.61Z"/><path class="cls-11" d="M88,49.47a.26.26,0,0,0-.33-.11l-.73.31a3.22,3.22,0,0,0-.65.82,1,1,0,0,0,0,1c.3-.08.45-.41.68-.61s.49-.29.7-.47a1.13,1.13,0,0,0,.35-.58A.53.53,0,0,0,88,49.47Z"/><path class="cls-11" d="M92.6,49.75a1.86,1.86,0,0,0-1,.9,1.54,1.54,0,0,0-.08.19,3.68,3.68,0,0,0-.15.35.46.46,0,0,0,.4-.12c.12-.09.21-.21.33-.3s.28-.16.41-.26a.49.49,0,0,0,.24-.4Z"/><path class="cls-11" d="M90.29,51.88a1.82,1.82,0,0,0-1,.9l-.08.18-.15.35a.49.49,0,0,0,.41-.12c.11-.09.21-.2.32-.3s.29-.16.42-.25a.54.54,0,0,0,.24-.41Z"/><path class="cls-11" d="M90.29,47.93a1.82,1.82,0,0,0-1,.9l-.08.18-.15.35a.48.48,0,0,0,.41-.11c.11-.09.21-.21.32-.3s.29-.17.42-.26a.54.54,0,0,0,.24-.4Z"/><path class="cls-11" d="M90.14,49.64l0,.39A9.57,9.57,0,0,0,89,51.82a6.18,6.18,0,0,1,.76-.59,1.69,1.69,0,0,0,.6-.73A.75.75,0,0,0,90.14,49.64Z"/><path class="cls-11" d="M94.38,50.42l0,.39a9.07,9.07,0,0,0-1.08,1.79A5.51,5.51,0,0,1,94,52a1.73,1.73,0,0,0,.6-.74A.74.74,0,0,0,94.38,50.42Z"/><polygon class="cls-9" points="90.6 69.67 83.53 65.53 89.77 61.88 96.84 66.03 90.6 69.67"/><polygon class="cls-10" points="96.84 66.03 96.84 69.01 90.6 72.66 90.6 69.67 96.84 66.03"/><polygon class="cls-11" points="83.53 65.53 83.53 68.51 90.6 72.66 90.6 69.67 83.53 65.53"/><path class="cls-11" d="M92.43,67.19a.25.25,0,0,0-.33-.11l-.73.31a3,3,0,0,0-.65.82,1,1,0,0,0,0,1c.3-.07.45-.4.68-.61s.48-.28.7-.46a1,1,0,0,0,.34-.58A.52.52,0,0,0,92.43,67.19Z"/><path class="cls-11" d="M87.8,64.05a.26.26,0,0,0-.33-.11l-.73.31a3.41,3.41,0,0,0-.65.82,1,1,0,0,0,0,1c.3-.08.45-.41.68-.61s.49-.29.7-.47a1.09,1.09,0,0,0,.35-.58A.53.53,0,0,0,87.8,64.05Z"/><path class="cls-11" d="M92.36,64.33a1.86,1.86,0,0,0-1,.9,1.54,1.54,0,0,0-.08.19c0,.11-.11.23-.16.35a.47.47,0,0,0,.41-.12c.12-.09.21-.21.33-.3s.28-.16.41-.26a.49.49,0,0,0,.24-.4Z"/><path class="cls-11" d="M90.05,66.46a1.82,1.82,0,0,0-1,.9l-.08.18-.15.35a.49.49,0,0,0,.41-.12l.32-.29c.13-.1.28-.17.41-.26a.52.52,0,0,0,.25-.4Z"/><path class="cls-11" d="M90.05,62.51a1.82,1.82,0,0,0-1,.9c0,.06,0,.12-.08.19l-.15.35a.53.53,0,0,0,.41-.12c.11-.09.21-.21.32-.3s.28-.16.41-.26a.52.52,0,0,0,.25-.4Z"/><path class="cls-11" d="M89.9,64.22l0,.39a9.91,9.91,0,0,0-1.08,1.79,6.18,6.18,0,0,1,.76-.59,1.69,1.69,0,0,0,.6-.73A.75.75,0,0,0,89.9,64.22Z"/><path class="cls-11" d="M94.14,65l0,.39A9.07,9.07,0,0,0,93,67.18a5.51,5.51,0,0,1,.76-.59,1.77,1.77,0,0,0,.6-.73A.75.75,0,0,0,94.14,65Z"/><polygon class="cls-9" points="120.58 57.05 113.51 52.91 119.76 49.26 126.83 53.41 120.58 57.05"/><polygon class="cls-10" points="126.83 53.41 126.83 56.39 120.58 60.03 120.58 57.05 126.83 53.41"/><polygon class="cls-11" points="113.51 52.91 113.51 55.88 120.58 60.03 120.58 57.05 113.51 52.91"/><path class="cls-11" d="M122.42,54.57a.26.26,0,0,0-.33-.11l-.73.31a3,3,0,0,0-.65.82,1,1,0,0,0,0,1c.3-.07.45-.4.68-.61s.49-.28.7-.46a1.06,1.06,0,0,0,.35-.58A.52.52,0,0,0,122.42,54.57Z"/><path class="cls-11" d="M117.79,51.43a.26.26,0,0,0-.33-.11l-.73.31a3,3,0,0,0-.65.82,1.06,1.06,0,0,0,0,1c.3-.08.46-.41.68-.61s.49-.29.71-.47a1.11,1.11,0,0,0,.34-.58A.52.52,0,0,0,117.79,51.43Z"/><path class="cls-11" d="M122.34,51.71a1.86,1.86,0,0,0-1,.9,1.54,1.54,0,0,1-.08.19l-.15.35a.53.53,0,0,0,.41-.12c.12-.09.21-.21.33-.3s.28-.16.41-.26a.52.52,0,0,0,.24-.4Z"/><path class="cls-11" d="M120,53.84a1.82,1.82,0,0,0-1,.9,1.42,1.42,0,0,0-.08.18l-.15.35a.46.46,0,0,0,.4-.12c.12-.09.21-.2.33-.3s.28-.16.41-.25a.51.51,0,0,0,.24-.41Z"/><path class="cls-11" d="M120,49.89a1.82,1.82,0,0,0-1,.9,1.42,1.42,0,0,0-.08.18l-.15.35a.46.46,0,0,0,.4-.11c.12-.09.21-.21.33-.3s.28-.17.41-.26a.51.51,0,0,0,.24-.4Z"/><path class="cls-11" d="M119.89,51.6l0,.39a9.07,9.07,0,0,0-1.08,1.79,6.08,6.08,0,0,1,.75-.59,1.72,1.72,0,0,0,.61-.73A.75.75,0,0,0,119.89,51.6Z"/><path class="cls-11" d="M124.13,52.38l0,.39A9.07,9.07,0,0,0,123,54.56a6.08,6.08,0,0,1,.75-.59,1.6,1.6,0,0,0,.6-.74A.73.73,0,0,0,124.13,52.38Z"/><polygon class="cls-9" points="134.38 45.25 127.31 41.1 133.55 37.45 140.62 41.6 134.38 45.25"/><polygon class="cls-10" points="140.62 41.6 140.62 44.58 134.38 48.23 134.38 45.25 140.62 41.6"/><polygon class="cls-11" points="127.31 41.1 127.31 44.08 134.38 48.23 134.38 45.25 127.31 41.1"/><path class="cls-11" d="M136.21,42.76a.26.26,0,0,0-.33-.11l-.73.31a3.18,3.18,0,0,0-.65.82,1,1,0,0,0,0,1c.3-.08.45-.41.68-.61s.48-.29.7-.47a1,1,0,0,0,.34-.58A.48.48,0,0,0,136.21,42.76Z"/><path class="cls-11" d="M131.58,39.62a.25.25,0,0,0-.33-.1l-.73.31a3.18,3.18,0,0,0-.65.81,1,1,0,0,0,0,1c.3-.08.45-.4.68-.61s.49-.28.7-.47a1.1,1.1,0,0,0,.35-.57A.55.55,0,0,0,131.58,39.62Z"/><path class="cls-11" d="M136.14,39.91a1.82,1.82,0,0,0-1,.9A1.42,1.42,0,0,0,135,41l-.15.35a.46.46,0,0,0,.4-.12c.12-.09.21-.21.33-.3s.28-.16.41-.26a.48.48,0,0,0,.24-.4Z"/><path class="cls-11" d="M133.83,42a1.82,1.82,0,0,0-1,.9l-.08.18-.15.35a.48.48,0,0,0,.41-.11c.11-.09.21-.21.32-.3s.29-.17.42-.26a.54.54,0,0,0,.24-.4Z"/><path class="cls-11" d="M133.83,38.08a1.9,1.9,0,0,0-1,.9c0,.06-.05.13-.08.19l-.15.35a.49.49,0,0,0,.41-.12c.11-.09.21-.21.32-.3s.29-.16.42-.26a.52.52,0,0,0,.24-.4Z"/><path class="cls-11" d="M133.68,39.79l0,.4A9.49,9.49,0,0,0,132.56,42a7.34,7.34,0,0,1,.76-.59,1.64,1.64,0,0,0,.6-.73A.75.75,0,0,0,133.68,39.79Z"/><path class="cls-11" d="M137.92,40.57l0,.4a9,9,0,0,0-1.08,1.78,5.51,5.51,0,0,1,.76-.59,1.71,1.71,0,0,0,.6-.73A.75.75,0,0,0,137.92,40.57Z"/><polygon class="cls-9" points="94.81 20.06 87.74 15.91 93.99 12.27 101.06 16.42 94.81 20.06"/><polygon class="cls-10" points="101.06 16.42 101.06 19.4 94.81 23.04 94.81 20.06 101.06 16.42"/><polygon class="cls-11" points="87.74 15.91 87.74 18.89 94.81 23.04 94.81 20.06 87.74 15.91"/><path class="cls-11" d="M96.64,17.58a.25.25,0,0,0-.33-.11l-.72.31a3.06,3.06,0,0,0-.66.82,1,1,0,0,0,0,1c.3-.07.45-.4.68-.61s.49-.28.7-.46a1.06,1.06,0,0,0,.35-.58A.47.47,0,0,0,96.64,17.58Z"/><path class="cls-11" d="M92,14.44a.26.26,0,0,0-.33-.11l-.73.31a3,3,0,0,0-.65.82,1.06,1.06,0,0,0,0,1c.3-.08.45-.41.68-.62s.49-.28.7-.46a1.06,1.06,0,0,0,.35-.58A.52.52,0,0,0,92,14.44Z"/><path class="cls-11" d="M96.57,14.72a1.82,1.82,0,0,0-1,.9c0,.06-.05.12-.08.19l-.15.35a.53.53,0,0,0,.41-.12c.12-.09.21-.21.32-.3s.29-.16.42-.26a.52.52,0,0,0,.24-.4Z"/><path class="cls-11" d="M94.27,16.85a1.82,1.82,0,0,0-1,.9,1.42,1.42,0,0,0-.08.18c-.06.12-.11.23-.16.35a.47.47,0,0,0,.41-.12c.12-.09.21-.21.33-.3s.28-.16.41-.26a.48.48,0,0,0,.24-.4Z"/><path class="cls-11" d="M94.27,12.9a1.82,1.82,0,0,0-1,.9,1.42,1.42,0,0,0-.08.18c-.06.12-.11.24-.16.35a.47.47,0,0,0,.41-.11c.12-.09.21-.21.33-.3s.28-.17.41-.26a.51.51,0,0,0,.24-.4Z"/><path class="cls-11" d="M94.12,14.61l0,.39A9.07,9.07,0,0,0,93,16.79a6.08,6.08,0,0,1,.75-.59,1.69,1.69,0,0,0,.61-.74A.74.74,0,0,0,94.12,14.61Z"/><path class="cls-11" d="M98.35,15.38l0,.4a9.62,9.62,0,0,0-1.09,1.79A7,7,0,0,1,98,17a1.6,1.6,0,0,0,.6-.74A.74.74,0,0,0,98.35,15.38Z"/><polygon class="cls-9" points="92.76 35.48 85.69 31.33 91.93 27.69 99 31.84 92.76 35.48"/><polygon class="cls-10" points="99 31.84 99 34.82 92.76 38.46 92.76 35.48 99 31.84"/><polygon class="cls-11" points="85.69 31.33 85.69 34.31 92.76 38.46 92.76 35.48 85.69 31.33"/><path class="cls-11" d="M94.59,33a.25.25,0,0,0-.33-.1l-.73.31a3,3,0,0,0-.65.81,1.06,1.06,0,0,0,0,1c.3-.08.45-.4.68-.61s.49-.28.7-.47a1,1,0,0,0,.35-.57A.55.55,0,0,0,94.59,33Z"/><path class="cls-11" d="M90,29.85a.25.25,0,0,0-.33-.1l-.73.31a3,3,0,0,0-.65.82,1,1,0,0,0,0,1c.3-.08.45-.4.68-.61s.48-.28.7-.47a1,1,0,0,0,.34-.57A.5.5,0,0,0,90,29.85Z"/><path class="cls-11" d="M94.51,30.14a1.78,1.78,0,0,0-1,.9l-.09.18-.15.35a.48.48,0,0,0,.41-.12c.12-.09.21-.2.33-.29s.28-.17.41-.26a.51.51,0,0,0,.24-.4Z"/><path class="cls-11" d="M92.21,32.26a1.86,1.86,0,0,0-1,.9c0,.06-.05.12-.08.19L91,33.7a.53.53,0,0,0,.41-.12c.11-.09.21-.21.32-.3s.28-.16.41-.26a.5.5,0,0,0,.25-.4Z"/><path class="cls-11" d="M92.21,28.32a1.82,1.82,0,0,0-1,.9l-.08.18-.15.35a.49.49,0,0,0,.41-.12c.11-.09.21-.21.32-.3s.28-.16.41-.26a.49.49,0,0,0,.25-.4Z"/><path class="cls-11" d="M92.06,30l0,.4a8.79,8.79,0,0,0-1.08,1.79,5.57,5.57,0,0,1,.76-.6,1.71,1.71,0,0,0,.6-.73A.75.75,0,0,0,92.06,30Z"/><path class="cls-11" d="M96.3,30.8l0,.4A9,9,0,0,0,95.18,33a7.21,7.21,0,0,1,.75-.59,1.66,1.66,0,0,0,.61-.73A.75.75,0,0,0,96.3,30.8Z"/><polygon class="cls-9" points="117.12 32.59 110.05 28.45 116.3 24.8 123.37 28.95 117.12 32.59"/><polygon class="cls-10" points="123.37 28.95 123.37 31.93 117.12 35.58 117.12 32.59 123.37 28.95"/><polygon class="cls-11" points="110.05 28.45 110.05 31.43 117.12 35.58 117.12 32.59 110.05 28.45"/><path class="cls-11" d="M119,30.11a.25.25,0,0,0-.33-.11l-.73.31a3,3,0,0,0-.65.82,1,1,0,0,0,0,1c.3-.07.45-.4.68-.61s.49-.28.7-.46a1.13,1.13,0,0,0,.35-.58A.53.53,0,0,0,119,30.11Z"/><path class="cls-11" d="M114.32,27a.26.26,0,0,0-.33-.11l-.72.31a3.22,3.22,0,0,0-.66.82,1,1,0,0,0,0,1c.3-.08.45-.41.68-.61s.49-.29.7-.47a1.09,1.09,0,0,0,.35-.58A.48.48,0,0,0,114.32,27Z"/><path class="cls-11" d="M118.88,27.25a1.86,1.86,0,0,0-1,.9,1.54,1.54,0,0,0-.08.19l-.15.35a.49.49,0,0,0,.41-.12c.11-.09.2-.21.32-.3s.28-.16.41-.26a.49.49,0,0,0,.24-.4Z"/><path class="cls-11" d="M116.57,29.38a1.78,1.78,0,0,0-1,.9l-.09.18-.15.35a.49.49,0,0,0,.41-.12c.12-.09.21-.2.33-.3s.28-.16.41-.25a.54.54,0,0,0,.24-.4Z"/><path class="cls-11" d="M116.57,25.43a1.78,1.78,0,0,0-1,.9l-.09.18-.15.35a.48.48,0,0,0,.41-.11c.12-.09.21-.21.33-.3s.28-.17.41-.26a.54.54,0,0,0,.24-.4Z"/><path class="cls-11" d="M116.42,27.14l0,.39a9.11,9.11,0,0,0-1.09,1.79,6.18,6.18,0,0,1,.76-.59,1.63,1.63,0,0,0,.6-.73A.73.73,0,0,0,116.42,27.14Z"/><path class="cls-11" d="M120.66,27.92l0,.39a9.57,9.57,0,0,0-1.08,1.79,5.51,5.51,0,0,1,.76-.59,1.69,1.69,0,0,0,.6-.73A.75.75,0,0,0,120.66,27.92Z"/><polygon class="cls-9" points="61.71 52.75 54.64 48.6 60.89 44.95 67.96 49.1 61.71 52.75"/><polygon class="cls-10" points="67.96 49.1 67.96 52.08 61.71 55.73 61.71 52.75 67.96 49.1"/><polygon class="cls-11" points="54.64 48.6 54.64 51.58 61.71 55.73 61.71 52.75 54.64 48.6"/><path class="cls-11" d="M63.54,50.26a.25.25,0,0,0-.32-.11l-.73.31a3,3,0,0,0-.65.82,1,1,0,0,0,0,1c.3-.08.45-.41.68-.61s.49-.29.7-.47a1,1,0,0,0,.35-.58A.48.48,0,0,0,63.54,50.26Z"/><path class="cls-11" d="M58.92,47.12a.26.26,0,0,0-.33-.11l-.73.32a3,3,0,0,0-.65.81,1.06,1.06,0,0,0,0,1c.3-.08.46-.4.68-.61s.49-.29.7-.47a1,1,0,0,0,.35-.58A.52.52,0,0,0,58.92,47.12Z"/><path class="cls-11" d="M63.47,47.41a1.82,1.82,0,0,0-1,.9,1.42,1.42,0,0,1-.08.18l-.15.35a.49.49,0,0,0,.41-.12c.12-.09.21-.21.32-.3s.29-.16.42-.26a.5.5,0,0,0,.24-.4Z"/><path class="cls-11" d="M61.17,49.53a1.82,1.82,0,0,0-1,.9,1.42,1.42,0,0,0-.08.18,3.73,3.73,0,0,1-.16.35.47.47,0,0,0,.41-.11c.12-.1.21-.21.33-.3s.28-.17.41-.26a.51.51,0,0,0,.24-.4Z"/><path class="cls-11" d="M61.17,45.58a1.86,1.86,0,0,0-1,.9,1.54,1.54,0,0,0-.08.19c-.05.11-.1.23-.16.35a.47.47,0,0,0,.41-.12c.12-.09.21-.21.33-.3s.28-.16.41-.26a.49.49,0,0,0,.24-.4Z"/><path class="cls-11" d="M61,47.29l0,.4a9,9,0,0,0-1.08,1.78,6.08,6.08,0,0,1,.75-.59,1.66,1.66,0,0,0,.61-.73A.75.75,0,0,0,61,47.29Z"/><path class="cls-11" d="M65.25,48.07l0,.39a10,10,0,0,0-1.09,1.79,7,7,0,0,1,.76-.59,1.57,1.57,0,0,0,.6-.73A.73.73,0,0,0,65.25,48.07Z"/><polygon class="cls-9" points="46.28 42.19 39.21 38.04 45.45 34.39 52.53 38.54 46.28 42.19"/><polygon class="cls-10" points="52.53 38.54 52.53 41.52 46.28 45.16 46.28 42.19 52.53 38.54"/><polygon class="cls-11" points="39.21 38.04 39.21 41.02 46.28 45.16 46.28 42.19 39.21 38.04"/><path class="cls-11" d="M48.11,39.7a.26.26,0,0,0-.33-.11l-.73.31a3,3,0,0,0-.65.82,1,1,0,0,0,0,1c.3-.08.45-.41.68-.62s.49-.28.7-.46a1.13,1.13,0,0,0,.35-.58A.53.53,0,0,0,48.11,39.7Z"/><path class="cls-11" d="M43.48,36.56a.26.26,0,0,0-.33-.11l-.72.31a3.22,3.22,0,0,0-.66.82,1,1,0,0,0,0,1c.3-.08.45-.41.68-.61s.49-.29.7-.47a1.09,1.09,0,0,0,.35-.58A.48.48,0,0,0,43.48,36.56Z"/><path class="cls-11" d="M48,36.84a1.9,1.9,0,0,0-1,.9,1.54,1.54,0,0,0-.08.19l-.15.35a.46.46,0,0,0,.4-.12c.12-.09.21-.21.33-.3s.28-.16.41-.26a.49.49,0,0,0,.24-.4Z"/><path class="cls-11" d="M45.73,39a1.82,1.82,0,0,0-1,.9,1.42,1.42,0,0,1-.08.18l-.15.35a.49.49,0,0,0,.41-.12c.12-.09.21-.2.33-.29s.28-.17.41-.26a.54.54,0,0,0,.24-.4Z"/><path class="cls-11" d="M45.73,35a1.82,1.82,0,0,0-1,.9c0,.06-.05.12-.08.19l-.15.35a.53.53,0,0,0,.41-.12c.12-.09.21-.21.33-.3s.28-.16.41-.26a.52.52,0,0,0,.24-.4Z"/><path class="cls-11" d="M45.58,36.73l0,.39a10.51,10.51,0,0,0-1.08,1.79,7,7,0,0,1,.76-.59,1.57,1.57,0,0,0,.6-.73A.73.73,0,0,0,45.58,36.73Z"/><path class="cls-11" d="M49.82,37.51l0,.39a9.91,9.91,0,0,0-1.08,1.79,6.18,6.18,0,0,1,.76-.59,1.64,1.64,0,0,0,.6-.73A.75.75,0,0,0,49.82,37.51Z"/><polygon class="cls-9" points="31.65 54.94 24.58 50.79 30.83 47.14 37.9 51.29 31.65 54.94"/><polygon class="cls-10" points="37.9 51.29 37.9 54.27 31.65 57.91 31.65 54.94 37.9 51.29"/><polygon class="cls-11" points="24.58 50.79 24.58 53.77 31.65 57.91 31.65 54.94 24.58 50.79"/><path class="cls-11" d="M33.48,52.45a.26.26,0,0,0-.33-.11l-.73.31a3.22,3.22,0,0,0-.65.82,1,1,0,0,0,0,1c.3-.08.45-.41.68-.62s.49-.28.7-.46a1.13,1.13,0,0,0,.35-.58A.48.48,0,0,0,33.48,52.45Z"/><path class="cls-11" d="M28.85,49.31a.26.26,0,0,0-.33-.11l-.72.31a3.22,3.22,0,0,0-.66.82,1.09,1.09,0,0,0,0,1c.3-.08.45-.41.68-.61s.49-.29.7-.47a1,1,0,0,0,.35-.58A.48.48,0,0,0,28.85,49.31Z"/><path class="cls-11" d="M33.41,49.59a1.9,1.9,0,0,0-1,.9c0,.06-.05.13-.08.19l-.15.35a.49.49,0,0,0,.41-.12c.11-.09.21-.21.32-.3s.28-.16.41-.26a.5.5,0,0,0,.25-.4Z"/><path class="cls-11" d="M31.1,51.72a1.78,1.78,0,0,0-1,.9L30,52.8l-.15.35a.45.45,0,0,0,.41-.12c.12-.09.21-.2.33-.29s.28-.17.41-.26a.54.54,0,0,0,.24-.4Z"/><path class="cls-11" d="M31.1,47.77a1.78,1.78,0,0,0-1,.9l-.09.19-.15.35a.52.52,0,0,0,.41-.12c.12-.09.21-.21.33-.3s.28-.16.41-.26a.52.52,0,0,0,.24-.4Z"/><path class="cls-11" d="M31,49.48l0,.39a10,10,0,0,0-1.09,1.79,7,7,0,0,1,.76-.59,1.57,1.57,0,0,0,.6-.73A.73.73,0,0,0,31,49.48Z"/><path class="cls-11" d="M35.19,50.26l0,.39a9.91,9.91,0,0,0-1.08,1.79,6.18,6.18,0,0,1,.76-.59,1.64,1.64,0,0,0,.6-.73A.73.73,0,0,0,35.19,50.26Z"/><polygon class="cls-9" points="62.9 18.84 55.83 14.69 62.07 11.04 69.14 15.19 62.9 18.84"/><polygon class="cls-10" points="69.14 15.19 69.14 18.17 62.9 21.82 62.9 18.84 69.14 15.19"/><polygon class="cls-11" points="55.83 14.69 55.83 17.67 62.9 21.82 62.9 18.84 55.83 14.69"/><path class="cls-11" d="M64.73,16.35a.26.26,0,0,0-.33-.11l-.73.31a3.18,3.18,0,0,0-.65.82,1.06,1.06,0,0,0,0,1c.3-.08.46-.41.68-.61s.49-.29.71-.47a1.07,1.07,0,0,0,.34-.58A.52.52,0,0,0,64.73,16.35Z"/><path class="cls-11" d="M60.1,13.21a.25.25,0,0,0-.33-.1l-.73.31a3,3,0,0,0-.65.81,1,1,0,0,0,0,1c.3-.08.45-.4.68-.61s.48-.28.7-.47a1.09,1.09,0,0,0,.35-.58A.53.53,0,0,0,60.1,13.21Z"/><path class="cls-11" d="M64.66,13.5a1.79,1.79,0,0,0-1,.9l-.09.18-.15.35a.47.47,0,0,0,.41-.12c.12-.09.21-.21.33-.3s.28-.16.41-.26a.48.48,0,0,0,.24-.4Z"/><path class="cls-11" d="M62.35,15.62a1.82,1.82,0,0,0-1,.9,1.42,1.42,0,0,0-.08.18l-.15.35a.48.48,0,0,0,.41-.11c.11-.09.21-.21.32-.3s.28-.17.41-.26a.52.52,0,0,0,.25-.4Z"/><path class="cls-11" d="M62.35,11.67a1.86,1.86,0,0,0-1,.9,1.54,1.54,0,0,0-.08.19l-.15.35A.49.49,0,0,0,61.5,13c.11-.09.21-.21.32-.3s.28-.16.41-.26a.5.5,0,0,0,.25-.4Z"/><path class="cls-11" d="M62.2,13.38l0,.4a9,9,0,0,0-1.08,1.78,5.51,5.51,0,0,1,.76-.59,1.64,1.64,0,0,0,.6-.73A.75.75,0,0,0,62.2,13.38Z"/><path class="cls-11" d="M66.44,14.16l0,.4a9,9,0,0,0-1.08,1.78,6.08,6.08,0,0,1,.75-.59,1.66,1.66,0,0,0,.61-.73A.75.75,0,0,0,66.44,14.16Z"/><polygon class="cls-9" points="62.19 33.41 55.12 29.26 61.37 25.61 68.44 29.76 62.19 33.41"/><polygon class="cls-10" points="68.44 29.76 68.44 32.74 62.19 36.38 62.19 33.41 68.44 29.76"/><polygon class="cls-11" points="55.12 29.26 55.12 32.24 62.19 36.38 62.19 33.41 55.12 29.26"/><path class="cls-11" d="M64,30.92a.25.25,0,0,0-.32-.11l-.73.31a3,3,0,0,0-.65.82,1,1,0,0,0,0,1c.3-.07.45-.4.68-.61s.49-.28.7-.46a1.06,1.06,0,0,0,.35-.58A.48.48,0,0,0,64,30.92Z"/><path class="cls-11" d="M59.4,27.78a.26.26,0,0,0-.33-.11l-.73.31a3.18,3.18,0,0,0-.65.82,1.06,1.06,0,0,0,0,1c.3-.08.46-.41.68-.61s.49-.29.71-.47a1.07,1.07,0,0,0,.34-.58A.52.52,0,0,0,59.4,27.78Z"/><path class="cls-11" d="M64,28.06a1.86,1.86,0,0,0-1,.9,1.54,1.54,0,0,1-.08.19l-.15.35a.49.49,0,0,0,.41-.12c.12-.09.21-.21.33-.3s.28-.16.41-.26a.52.52,0,0,0,.24-.4Z"/><path class="cls-11" d="M61.65,30.19a1.82,1.82,0,0,0-1,.9,1.42,1.42,0,0,0-.08.18l-.15.35a.46.46,0,0,0,.4-.12c.12-.09.21-.2.33-.29s.28-.17.41-.26a.51.51,0,0,0,.24-.4Z"/><path class="cls-11" d="M61.65,26.24a1.82,1.82,0,0,0-1,.9,1.08,1.08,0,0,0-.08.19l-.15.35a.49.49,0,0,0,.4-.12c.12-.09.21-.21.33-.3s.28-.16.41-.26a.51.51,0,0,0,.24-.4Z"/><path class="cls-11" d="M61.5,28l0,.39a9.37,9.37,0,0,0-1.08,1.79,5.51,5.51,0,0,1,.76-.59,1.71,1.71,0,0,0,.6-.73A.75.75,0,0,0,61.5,28Z"/><path class="cls-11" d="M65.73,28.73l0,.39a10,10,0,0,0-1.09,1.79,7,7,0,0,1,.76-.59,1.63,1.63,0,0,0,.6-.73A.72.72,0,0,0,65.73,28.73Z"/><polygon class="cls-9" points="33.09 28.54 26.02 24.39 32.27 20.75 39.34 24.9 33.09 28.54"/><polygon class="cls-10" points="39.34 24.9 39.34 27.88 33.09 31.52 33.09 28.54 39.34 24.9"/><polygon class="cls-11" points="26.02 24.39 26.02 27.37 33.09 31.52 33.09 28.54 26.02 24.39"/><path class="cls-11" d="M34.92,26.06a.25.25,0,0,0-.33-.11l-.73.31a3,3,0,0,0-.65.82,1,1,0,0,0,0,1c.3-.07.45-.4.68-.61s.49-.28.7-.46a1.13,1.13,0,0,0,.35-.58A.52.52,0,0,0,34.92,26.06Z"/><path class="cls-11" d="M30.29,22.92a.26.26,0,0,0-.33-.11l-.72.31a3.06,3.06,0,0,0-.66.82,1,1,0,0,0,0,1c.3-.08.45-.41.68-.62s.49-.28.7-.46a1.13,1.13,0,0,0,.35-.58A.48.48,0,0,0,30.29,22.92Z"/><path class="cls-11" d="M34.85,23.2a1.82,1.82,0,0,0-1,.9,1.08,1.08,0,0,0-.08.19l-.15.35a.53.53,0,0,0,.41-.12c.11-.09.2-.21.32-.3s.28-.16.41-.26a.51.51,0,0,0,.24-.4Z"/><path class="cls-11" d="M32.54,25.33a1.82,1.82,0,0,0-1,.9,1.42,1.42,0,0,1-.08.18l-.15.35a.49.49,0,0,0,.41-.12c.12-.09.21-.21.33-.3s.28-.16.41-.26a.5.5,0,0,0,.24-.4Z"/><path class="cls-11" d="M32.54,21.38a1.82,1.82,0,0,0-1,.9,1.42,1.42,0,0,1-.08.18l-.15.35a.48.48,0,0,0,.41-.11c.12-.1.21-.21.33-.3s.28-.17.41-.26a.54.54,0,0,0,.24-.4Z"/><path class="cls-11" d="M32.39,23.08l0,.4a9.57,9.57,0,0,0-1.08,1.79,6.18,6.18,0,0,1,.76-.59,1.6,1.6,0,0,0,.6-.74A.74.74,0,0,0,32.39,23.08Z"/><path class="cls-11" d="M36.63,23.86l0,.4a9.26,9.26,0,0,0-1.08,1.79,5.51,5.51,0,0,1,.76-.59,1.66,1.66,0,0,0,.6-.74A.76.76,0,0,0,36.63,23.86Z"/><path class="cls-12" d="M110.39,59.44a6.46,6.46,0,0,0-5.84-.47c-1.12.47-1.69,1.2-1.66,1.93V61a1.88,1.88,0,0,0,.83,1.3,6.52,6.52,0,0,0,5.84.47c1-.44,1.59-1.09,1.65-1.76a.28.28,0,0,0,0-.09A1.81,1.81,0,0,0,110.39,59.44Zm-1.94,2.47a3.66,3.66,0,0,1-3.26-.27,1,1,0,0,1-.46-.72c0-.42.28-.85.92-1.12a3.66,3.66,0,0,1,3.26.26,1,1,0,0,1,.46.86C109.34,61.3,109,61.66,108.45,61.91Z"/><path class="cls-12" d="M111,60a2.46,2.46,0,0,0-.57-.6,6.49,6.49,0,0,0-5.84-.47,3,3,0,0,0-1.41,1.08h-.25V61a1.88,1.88,0,0,0,.83,1.3,6.52,6.52,0,0,0,5.84.47c1-.44,1.59-1.09,1.65-1.76a.49.49,0,0,0,0-.12h0V60ZM105.65,59a3.63,3.63,0,0,1,3.26.26,1,1,0,0,1,.46.86c0,.38-.35.74-.92,1a3.63,3.63,0,0,1-3.26-.26,1,1,0,0,1-.46-.73C104.7,59.64,105,59.22,105.65,59Z"/><path class="cls-12" d="M110.39,58.58a6.49,6.49,0,0,0-5.84-.46c-1.12.47-1.69,1.2-1.66,1.93v.07a1.88,1.88,0,0,0,.83,1.3,6.52,6.52,0,0,0,5.84.47c1-.44,1.59-1.09,1.65-1.76a.28.28,0,0,0,0-.09A1.83,1.83,0,0,0,110.39,58.58Zm-1.94,2.47a3.63,3.63,0,0,1-3.26-.26,1,1,0,0,1-.46-.73c0-.42.28-.84.92-1.11a3.63,3.63,0,0,1,3.26.26,1,1,0,0,1,.46.86C109.34,60.45,109,60.81,108.45,61.05Z"/><path class="cls-13" d="M110.27,58.74a5.63,5.63,0,0,0-3.22-.9,6.18,6.18,0,0,0-2.42.46c-1,.42-1.58,1.07-1.55,1.75a.11.11,0,0,0,0,.05,1.64,1.64,0,0,0,.75,1.16,5.5,5.5,0,0,0,3.21.91,6.42,6.42,0,0,0,2.43-.46c.92-.39,1.48-1,1.54-1.6V60A1.61,1.61,0,0,0,110.27,58.74Zm-1.82,2.31a3.63,3.63,0,0,1-3.26-.26,1,1,0,0,1-.46-.73c0-.42.28-.84.92-1.11a3.63,3.63,0,0,1,3.26.26,1,1,0,0,1,.46.86C109.34,60.45,109,60.81,108.45,61.05Z"/><path class="cls-12" d="M107.74,22.68a6.52,6.52,0,0,0-5.84-.47c-1.11.47-1.69,1.21-1.66,1.93a.15.15,0,0,0,0,.07,1.83,1.83,0,0,0,.83,1.31,6.5,6.5,0,0,0,5.83.46c1-.43,1.6-1.09,1.66-1.76v-.09A1.78,1.78,0,0,0,107.74,22.68Zm-1.94,2.47a3.61,3.61,0,0,1-3.25-.26,1,1,0,0,1-.46-.73c0-.42.28-.84.92-1.11a3.63,3.63,0,0,1,3.26.26,1,1,0,0,1,.46.86C106.7,24.54,106.38,24.91,105.8,25.15Z"/><path class="cls-12" d="M108.31,23.28a2.28,2.28,0,0,0-.57-.6,6.52,6.52,0,0,0-5.84-.47,3,3,0,0,0-1.4,1.08h-.26v.82a.33.33,0,0,0,0,.1,1.8,1.8,0,0,0,.83,1.3,6.5,6.5,0,0,0,5.83.47c1-.43,1.6-1.08,1.66-1.76v-.11h0v-.83ZM103,22.19a3.66,3.66,0,0,1,3.26.27,1,1,0,0,1,.46.86c0,.37-.35.74-.93,1a3.64,3.64,0,0,1-3.25-.26,1.05,1.05,0,0,1-.46-.73C102.05,22.89,102.37,22.47,103,22.19Z"/><path class="cls-12" d="M107.74,21.83a6.52,6.52,0,0,0-5.84-.47c-1.11.47-1.69,1.2-1.66,1.93a.15.15,0,0,0,0,.07,1.8,1.8,0,0,0,.83,1.3,6.47,6.47,0,0,0,5.83.47c1-.43,1.6-1.09,1.66-1.76v-.09A1.78,1.78,0,0,0,107.74,21.83ZM105.8,24.3a3.64,3.64,0,0,1-3.25-.26,1.05,1.05,0,0,1-.46-.73c0-.42.28-.84.92-1.12a3.66,3.66,0,0,1,3.26.27,1,1,0,0,1,.46.86C106.7,23.69,106.38,24.06,105.8,24.3Z"/><path class="cls-13" d="M107.62,22a5.51,5.51,0,0,0-3.22-.91,6.21,6.21,0,0,0-2.42.46c-1,.43-1.57,1.08-1.54,1.75v.05a1.72,1.72,0,0,0,.76,1.17,5.55,5.55,0,0,0,3.21.9,6.21,6.21,0,0,0,2.42-.46c.93-.39,1.48-1,1.54-1.6a.15.15,0,0,0,0-.07A1.65,1.65,0,0,0,107.62,22ZM105.8,24.3a3.64,3.64,0,0,1-3.25-.26,1.05,1.05,0,0,1-.46-.73c0-.42.28-.84.92-1.12a3.66,3.66,0,0,1,3.26.27,1,1,0,0,1,.46.86C106.7,23.69,106.38,24.06,105.8,24.3Z"/><path class="cls-12" d="M134.22,30.27a6.5,6.5,0,0,0-5.83-.47c-1.11.47-1.69,1.2-1.66,1.93v.07a1.86,1.86,0,0,0,.83,1.3,6.49,6.49,0,0,0,5.84.47,2.36,2.36,0,0,0,1.65-1.76.28.28,0,0,0,0-.09A1.81,1.81,0,0,0,134.22,30.27Zm-1.93,2.47a3.63,3.63,0,0,1-3.26-.26,1,1,0,0,1-.46-.73c0-.42.28-.84.92-1.11a3.63,3.63,0,0,1,3.26.26,1,1,0,0,1,.46.86C133.18,32.13,132.86,32.5,132.29,32.74Z"/><path class="cls-12" d="M134.8,30.87a2.51,2.51,0,0,0-.58-.6,6.5,6.5,0,0,0-5.83-.47A3.14,3.14,0,0,0,127,30.88h-.25v.92a1.86,1.86,0,0,0,.83,1.3,6.52,6.52,0,0,0,5.84.47c1-.43,1.59-1.08,1.65-1.76a.41.41,0,0,0,0-.11h0v-.83Zm-5.31-1.09a3.66,3.66,0,0,1,3.26.27,1,1,0,0,1,.46.86c0,.37-.35.73-.92,1a3.66,3.66,0,0,1-3.26-.26,1.05,1.05,0,0,1-.46-.73C128.54,30.48,128.85,30.06,129.49,29.78Z"/><path class="cls-12" d="M134.22,29.42a6.5,6.5,0,0,0-5.83-.47c-1.11.47-1.69,1.2-1.66,1.93V31a1.86,1.86,0,0,0,.83,1.3,6.52,6.52,0,0,0,5.84.47A2.36,2.36,0,0,0,135.05,31a.28.28,0,0,0,0-.09A1.8,1.8,0,0,0,134.22,29.42Zm-1.93,2.47a3.66,3.66,0,0,1-3.26-.26,1.05,1.05,0,0,1-.46-.73c0-.42.28-.84.92-1.12a3.66,3.66,0,0,1,3.26.27,1,1,0,0,1,.46.86C133.18,31.28,132.86,31.64,132.29,31.89Z"/><path class="cls-13" d="M134.11,29.58a5.55,5.55,0,0,0-3.22-.91,6.18,6.18,0,0,0-2.42.46c-1,.43-1.58,1.08-1.55,1.75a.07.07,0,0,0,0,.05,1.67,1.67,0,0,0,.75,1.17,5.58,5.58,0,0,0,3.22.9,6.21,6.21,0,0,0,2.42-.46c.92-.39,1.48-1,1.54-1.6v-.07A1.61,1.61,0,0,0,134.11,29.58Zm-1.82,2.31a3.66,3.66,0,0,1-3.26-.26,1.05,1.05,0,0,1-.46-.73c0-.42.28-.84.92-1.12a3.66,3.66,0,0,1,3.26.27,1,1,0,0,1,.46.86C133.18,31.28,132.86,31.64,132.29,31.89Z"/><path class="cls-12" d="M72,22a6.52,6.52,0,0,0-5.84-.47C65,22,64.44,22.77,64.47,23.5a.13.13,0,0,0,0,.06,1.86,1.86,0,0,0,.83,1.31,6.5,6.5,0,0,0,5.83.46c1-.43,1.6-1.08,1.66-1.76v-.09A1.78,1.78,0,0,0,72,22ZM70,24.5a3.63,3.63,0,0,1-3.26-.26,1,1,0,0,1-.46-.73c0-.42.28-.84.92-1.11a3.63,3.63,0,0,1,3.26.26,1,1,0,0,1,.46.86C70.93,23.89,70.61,24.26,70,24.5Z"/><path class="cls-12" d="M72.54,22.63A2.28,2.28,0,0,0,72,22a6.52,6.52,0,0,0-5.84-.47,3,3,0,0,0-1.4,1.08h-.26v.82a.33.33,0,0,0,0,.1,1.83,1.83,0,0,0,.83,1.3,6.47,6.47,0,0,0,5.83.47c1-.43,1.6-1.08,1.66-1.76v-.11h0v-.83Zm-5.3-1.09a3.66,3.66,0,0,1,3.26.27,1,1,0,0,1,.46.86c0,.37-.35.74-.92,1a3.66,3.66,0,0,1-3.26-.26,1,1,0,0,1-.46-.73C66.28,22.24,66.6,21.82,67.24,21.54Z"/><path class="cls-12" d="M72,21.18a6.52,6.52,0,0,0-5.84-.47c-1.11.47-1.69,1.2-1.66,1.93a.15.15,0,0,0,0,.07,1.83,1.83,0,0,0,.83,1.3,6.47,6.47,0,0,0,5.83.47c1-.43,1.6-1.09,1.66-1.76v-.09A1.78,1.78,0,0,0,72,21.18ZM70,23.65a3.66,3.66,0,0,1-3.26-.26,1,1,0,0,1-.46-.73c0-.42.28-.84.92-1.12a3.66,3.66,0,0,1,3.26.27,1,1,0,0,1,.46.86C70.93,23,70.61,23.41,70,23.65Z"/><path class="cls-13" d="M71.85,21.34a5.51,5.51,0,0,0-3.22-.91,6.21,6.21,0,0,0-2.42.46c-1,.43-1.57,1.08-1.54,1.75v.05a1.72,1.72,0,0,0,.76,1.17,5.57,5.57,0,0,0,3.21.9,6.18,6.18,0,0,0,2.42-.46c.93-.39,1.48-1,1.54-1.6a.15.15,0,0,0,0-.07A1.62,1.62,0,0,0,71.85,21.34ZM70,23.65a3.66,3.66,0,0,1-3.26-.26,1,1,0,0,1-.46-.73c0-.42.28-.84.92-1.12a3.66,3.66,0,0,1,3.26.27,1,1,0,0,1,.46.86C70.93,23,70.61,23.41,70,23.65Z"/><path class="cls-12" d="M90.32,24a6.5,6.5,0,0,0-5.83-.47c-1.12.48-1.69,1.21-1.67,1.94a.13.13,0,0,0,0,.06,1.9,1.9,0,0,0,.83,1.31,6.49,6.49,0,0,0,5.84.46c1-.43,1.59-1.08,1.65-1.76a.25.25,0,0,0,0-.09A1.81,1.81,0,0,0,90.32,24Zm-1.93,2.47a3.63,3.63,0,0,1-3.26-.26,1,1,0,0,1-.46-.73c0-.42.28-.84.92-1.11a3.63,3.63,0,0,1,3.26.26,1,1,0,0,1,.46.86C89.28,25.87,89,26.24,88.39,26.48Z"/><path class="cls-12" d="M90.9,24.61a2.51,2.51,0,0,0-.58-.6,6.5,6.5,0,0,0-5.83-.47,3.08,3.08,0,0,0-1.41,1.08h-.26v.83a.27.27,0,0,0,0,.09,1.86,1.86,0,0,0,.83,1.3,6.49,6.49,0,0,0,5.84.47c1-.43,1.59-1.08,1.65-1.75a.49.49,0,0,0,0-.12h0v-.83Zm-5.31-1.09a3.66,3.66,0,0,1,3.26.27,1,1,0,0,1,.46.86c0,.37-.35.74-.92,1a3.63,3.63,0,0,1-3.26-.26,1,1,0,0,1-.46-.73C84.63,24.22,85,23.8,85.59,23.52Z"/><path class="cls-12" d="M90.32,23.16a6.5,6.5,0,0,0-5.83-.47c-1.12.47-1.69,1.2-1.67,1.93a.15.15,0,0,0,0,.07,1.86,1.86,0,0,0,.83,1.3,6.49,6.49,0,0,0,5.84.47,2.36,2.36,0,0,0,1.65-1.76.28.28,0,0,0,0-.09A1.81,1.81,0,0,0,90.32,23.16Zm-1.93,2.47a3.63,3.63,0,0,1-3.26-.26,1,1,0,0,1-.46-.73c0-.42.28-.84.92-1.12a3.66,3.66,0,0,1,3.26.27,1,1,0,0,1,.46.86C89.28,25,89,25.39,88.39,25.63Z"/><path class="cls-13" d="M90.21,23.32A5.55,5.55,0,0,0,87,22.41a6.26,6.26,0,0,0-2.43.46C83.56,23.3,83,24,83,24.62v.06a1.73,1.73,0,0,0,.76,1.16,5.57,5.57,0,0,0,3.21.9,6.26,6.26,0,0,0,2.43-.46c.92-.39,1.48-1,1.54-1.6v-.07A1.61,1.61,0,0,0,90.21,23.32Zm-1.82,2.31a3.63,3.63,0,0,1-3.26-.26,1,1,0,0,1-.46-.73c0-.42.28-.84.92-1.12a3.66,3.66,0,0,1,3.26.27,1,1,0,0,1,.46.86C89.28,25,89,25.39,88.39,25.63Z"/><path class="cls-12" d="M106,44.19a6.52,6.52,0,0,0-5.84-.47c-1.11.48-1.68,1.21-1.66,1.94a.13.13,0,0,0,0,.06A1.9,1.9,0,0,0,99.29,47a6.47,6.47,0,0,0,5.83.46c1-.43,1.6-1.08,1.66-1.76v-.09A1.78,1.78,0,0,0,106,44.19ZM104,46.66a3.63,3.63,0,0,1-3.26-.26,1,1,0,0,1-.46-.73c0-.42.28-.84.92-1.11a3.63,3.63,0,0,1,3.26.26,1,1,0,0,1,.46.86C104.91,46.05,104.59,46.42,104,46.66Z"/><path class="cls-12" d="M106.53,44.79a2.51,2.51,0,0,0-.58-.6,6.49,6.49,0,0,0-5.84-.46,3,3,0,0,0-1.4,1.07h-.26v.83a.27.27,0,0,0,0,.09,1.86,1.86,0,0,0,.83,1.3,6.47,6.47,0,0,0,5.83.47c1-.43,1.6-1.08,1.66-1.75v-.12h0v-.83Zm-5.31-1.08a3.63,3.63,0,0,1,3.26.26,1,1,0,0,1,.46.86c0,.37-.35.74-.92,1a3.63,3.63,0,0,1-3.26-.26,1,1,0,0,1-.46-.73C100.26,44.4,100.58,44,101.22,43.71Z"/><path class="cls-12" d="M106,43.34a6.52,6.52,0,0,0-5.84-.47c-1.11.47-1.68,1.2-1.66,1.93a.15.15,0,0,0,0,.07,1.9,1.9,0,0,0,.83,1.31,6.5,6.5,0,0,0,5.83.46c1-.43,1.6-1.09,1.66-1.76v-.09A1.78,1.78,0,0,0,106,43.34ZM104,45.81a3.63,3.63,0,0,1-3.26-.26,1,1,0,0,1-.46-.73c0-.42.28-.84.92-1.11a3.63,3.63,0,0,1,3.26.26,1,1,0,0,1,.46.86C104.91,45.2,104.59,45.57,104,45.81Z"/><path class="cls-13" d="M105.84,43.5a5.55,5.55,0,0,0-3.22-.91,6.42,6.42,0,0,0-2.43.46c-1,.43-1.57,1.08-1.54,1.75v.06A1.73,1.73,0,0,0,99.41,46a5.57,5.57,0,0,0,3.21.9,6.26,6.26,0,0,0,2.43-.46c.92-.39,1.48-1,1.53-1.6a.15.15,0,0,0,0-.07A1.63,1.63,0,0,0,105.84,43.5ZM104,45.81a3.63,3.63,0,0,1-3.26-.26,1,1,0,0,1-.46-.73c0-.42.28-.84.92-1.11a3.63,3.63,0,0,1,3.26.26,1,1,0,0,1,.46.86C104.91,45.2,104.59,45.57,104,45.81Z"/><path class="cls-12" d="M31.87,34A6.52,6.52,0,0,0,26,33.56c-1.11.47-1.68,1.2-1.66,1.93a.15.15,0,0,0,0,.07,1.86,1.86,0,0,0,.83,1.3,6.5,6.5,0,0,0,5.83.47c1-.44,1.6-1.09,1.66-1.76a.28.28,0,0,0,0-.09A1.8,1.8,0,0,0,31.87,34ZM29.94,36.5a3.63,3.63,0,0,1-3.26-.27,1,1,0,0,1-.46-.72c0-.42.28-.85.92-1.12a3.66,3.66,0,0,1,3.26.27,1,1,0,0,1,.46.86C30.83,35.89,30.51,36.25,29.94,36.5Z"/><path class="cls-12" d="M32.45,34.63a2.51,2.51,0,0,0-.58-.6A6.52,6.52,0,0,0,26,33.56a3.1,3.1,0,0,0-1.4,1.08h-.26v.82a.33.33,0,0,0,0,.1,1.86,1.86,0,0,0,.83,1.3,6.5,6.5,0,0,0,5.83.47c1-.43,1.6-1.09,1.66-1.76a.49.49,0,0,0,0-.12h0v-.82Zm-5.31-1.09a3.63,3.63,0,0,1,3.26.27,1,1,0,0,1,.46.86c0,.37-.35.73-.92,1a3.66,3.66,0,0,1-3.26-.27,1,1,0,0,1-.46-.72C26.18,34.24,26.5,33.81,27.14,33.54Z"/><path class="cls-12" d="M31.87,33.18A6.49,6.49,0,0,0,26,32.71c-1.11.47-1.68,1.2-1.66,1.93a.17.17,0,0,0,0,.07,1.88,1.88,0,0,0,.83,1.3,6.5,6.5,0,0,0,5.83.47c1-.44,1.6-1.09,1.66-1.76a.28.28,0,0,0,0-.09A1.8,1.8,0,0,0,31.87,33.18Zm-1.93,2.47a3.66,3.66,0,0,1-3.26-.27,1,1,0,0,1-.46-.72c0-.42.28-.85.92-1.12a3.63,3.63,0,0,1,3.26.27,1,1,0,0,1,.46.86C30.83,35,30.51,35.4,29.94,35.65Z"/><path class="cls-13" d="M31.76,33.33a5.63,5.63,0,0,0-3.22-.9,6.26,6.26,0,0,0-2.43.46c-1,.42-1.57,1.08-1.54,1.75v0a1.68,1.68,0,0,0,.76,1.16,5.5,5.5,0,0,0,3.21.91A6.26,6.26,0,0,0,31,36.3c.92-.39,1.48-1,1.54-1.6v-.07A1.64,1.64,0,0,0,31.76,33.33Zm-1.82,2.32a3.66,3.66,0,0,1-3.26-.27,1,1,0,0,1-.46-.72c0-.42.28-.85.92-1.12a3.63,3.63,0,0,1,3.26.27,1,1,0,0,1,.46.86C30.83,35,30.51,35.4,29.94,35.65Z"/><path class="cls-12" d="M53.17,17.85a6.49,6.49,0,0,0-5.84-.47c-1.11.47-1.69,1.2-1.66,1.93a.2.2,0,0,0,0,.07,1.88,1.88,0,0,0,.83,1.3,6.5,6.5,0,0,0,5.83.47c1-.44,1.6-1.09,1.66-1.76V19.3A1.76,1.76,0,0,0,53.17,17.85Zm-1.93,2.47A3.66,3.66,0,0,1,48,20.05a1,1,0,0,1-.46-.72c0-.42.28-.85.92-1.12a3.66,3.66,0,0,1,3.26.26,1,1,0,0,1,.46.86C52.13,19.71,51.81,20.07,51.24,20.32Z"/><path class="cls-12" d="M53.74,18.45a2.28,2.28,0,0,0-.57-.6,6.49,6.49,0,0,0-5.84-.47,2.92,2.92,0,0,0-1.4,1.08h-.26v.82a.33.33,0,0,0,0,.1,1.88,1.88,0,0,0,.83,1.3,6.5,6.5,0,0,0,5.83.47c1-.44,1.6-1.09,1.66-1.76v-.12h0v-.82Zm-5.3-1.09a3.63,3.63,0,0,1,3.26.26,1,1,0,0,1,.46.86c0,.38-.35.74-.92,1A3.66,3.66,0,0,1,48,19.2a1,1,0,0,1-.46-.72C47.48,18.06,47.8,17.63,48.44,17.36Z"/><path class="cls-12" d="M53.17,17a6.46,6.46,0,0,0-5.84-.47c-1.11.47-1.69,1.2-1.66,1.93a.2.2,0,0,0,0,.07,1.88,1.88,0,0,0,.83,1.3,6.5,6.5,0,0,0,5.83.47c1-.44,1.6-1.09,1.66-1.76v-.09A1.76,1.76,0,0,0,53.17,17Zm-1.93,2.47A3.66,3.66,0,0,1,48,19.2a1,1,0,0,1-.46-.72c0-.42.28-.85.92-1.12a3.63,3.63,0,0,1,3.26.26,1,1,0,0,1,.46.86C52.13,18.86,51.81,19.22,51.24,19.47Z"/><path class="cls-13" d="M53.05,17.15a5.58,5.58,0,0,0-3.22-.9,6.21,6.21,0,0,0-2.42.46c-1,.42-1.57,1.07-1.54,1.75v.05a1.68,1.68,0,0,0,.76,1.16,5.5,5.5,0,0,0,3.21.91,6.21,6.21,0,0,0,2.42-.46c.93-.39,1.48-1,1.54-1.6a.17.17,0,0,0,0-.07A1.62,1.62,0,0,0,53.05,17.15Zm-1.81,2.32A3.66,3.66,0,0,1,48,19.2a1,1,0,0,1-.46-.72c0-.42.28-.85.92-1.12a3.63,3.63,0,0,1,3.26.26,1,1,0,0,1,.46.86C52.13,18.86,51.81,19.22,51.24,19.47Z"/><path class="cls-12" d="M47.35,59.44A6.49,6.49,0,0,0,41.51,59c-1.11.47-1.68,1.2-1.66,1.93a.2.2,0,0,0,0,.07,1.88,1.88,0,0,0,.83,1.3,6.5,6.5,0,0,0,5.83.47c1-.44,1.6-1.09,1.66-1.76V60.9A1.78,1.78,0,0,0,47.35,59.44Zm-1.93,2.47a3.63,3.63,0,0,1-3.26-.26,1,1,0,0,1-.46-.73c0-.42.28-.84.92-1.11a3.63,3.63,0,0,1,3.26.26,1,1,0,0,1,.46.86C46.31,61.31,46,61.67,45.42,61.91Z"/><path class="cls-12" d="M47.93,60.05a2.37,2.37,0,0,0-.58-.61A6.49,6.49,0,0,0,41.51,59a2.92,2.92,0,0,0-1.4,1.08h-.26v.82a.33.33,0,0,0,0,.1,1.88,1.88,0,0,0,.83,1.3,6.5,6.5,0,0,0,5.83.47c1-.44,1.6-1.09,1.66-1.76v-.12h0v-.82ZM42.62,59a3.63,3.63,0,0,1,3.26.26,1,1,0,0,1,.46.86c0,.37-.35.74-.92,1a3.63,3.63,0,0,1-3.26-.26,1,1,0,0,1-.46-.73C41.66,59.65,42,59.23,42.62,59Z"/><path class="cls-12" d="M47.35,58.59a6.49,6.49,0,0,0-5.84-.46c-1.11.47-1.68,1.2-1.66,1.93a.13.13,0,0,0,0,.06,1.88,1.88,0,0,0,.83,1.31,6.47,6.47,0,0,0,5.83.46c1-.43,1.6-1.08,1.66-1.75v-.09A1.78,1.78,0,0,0,47.35,58.59Zm-1.93,2.47a3.63,3.63,0,0,1-3.26-.26,1,1,0,0,1-.46-.73c0-.42.28-.84.92-1.11a3.63,3.63,0,0,1,3.26.26,1,1,0,0,1,.46.86C46.31,60.45,46,60.82,45.42,61.06Z"/><path class="cls-13" d="M47.23,58.75a5.51,5.51,0,0,0-3.22-.9,6.25,6.25,0,0,0-2.42.46c-1,.42-1.57,1.07-1.54,1.75v0a1.73,1.73,0,0,0,.76,1.16,5.5,5.5,0,0,0,3.21.9,6.18,6.18,0,0,0,2.42-.46c.93-.38,1.49-1,1.54-1.59a.2.2,0,0,0,0-.07A1.62,1.62,0,0,0,47.23,58.75Zm-1.81,2.31a3.63,3.63,0,0,1-3.26-.26,1,1,0,0,1-.46-.73c0-.42.28-.84.92-1.11a3.63,3.63,0,0,1,3.26.26,1,1,0,0,1,.46.86C46.31,60.45,46,60.82,45.42,61.06Z"/><path class="cls-12" d="M49.68,49.27a6.49,6.49,0,0,0-5.84-.47c-1.11.47-1.69,1.2-1.66,1.93v.07A1.88,1.88,0,0,0,43,52.1a6.52,6.52,0,0,0,5.84.47c1-.44,1.59-1.09,1.65-1.76a.28.28,0,0,0,0-.09A1.81,1.81,0,0,0,49.68,49.27Zm-1.94,2.47a3.64,3.64,0,0,1-3.25-.27,1,1,0,0,1-.47-.72c0-.42.28-.85.92-1.12a3.66,3.66,0,0,1,3.26.26,1,1,0,0,1,.46.86C48.63,51.13,48.31,51.49,47.74,51.74Z"/><path class="cls-12" d="M50.25,49.87a2.66,2.66,0,0,0-.57-.6,6.49,6.49,0,0,0-5.84-.47,3,3,0,0,0-1.41,1.08h-.25v.92A1.88,1.88,0,0,0,43,52.1a6.52,6.52,0,0,0,5.84.47c1-.44,1.59-1.09,1.65-1.76a.49.49,0,0,0,0-.12h0v-.82Zm-5.31-1.09A3.63,3.63,0,0,1,48.2,49a1,1,0,0,1,.46.86c0,.38-.35.74-.92,1a3.6,3.6,0,0,1-3.25-.26,1,1,0,0,1-.47-.73C44,49.48,44.3,49.05,44.94,48.78Z"/><path class="cls-12" d="M49.68,48.42A6.46,6.46,0,0,0,43.84,48c-1.11.47-1.69,1.2-1.66,1.93V50a1.88,1.88,0,0,0,.83,1.3,6.52,6.52,0,0,0,5.84.47c1-.44,1.59-1.09,1.65-1.76a.28.28,0,0,0,0-.09A1.81,1.81,0,0,0,49.68,48.42Zm-1.94,2.46a3.6,3.6,0,0,1-3.25-.26,1,1,0,0,1-.47-.73c0-.41.28-.84.92-1.11A3.63,3.63,0,0,1,48.2,49a1,1,0,0,1,.46.86C48.63,50.28,48.31,50.64,47.74,50.88Z"/><path class="cls-13" d="M49.56,48.57a5.63,5.63,0,0,0-3.22-.9,6.21,6.21,0,0,0-2.42.46c-1,.42-1.57,1.07-1.55,1.75a.11.11,0,0,0,0,0,1.64,1.64,0,0,0,.75,1.16,5.51,5.51,0,0,0,3.22.91,6.4,6.4,0,0,0,2.42-.46c.92-.39,1.48-1,1.54-1.6v-.07A1.61,1.61,0,0,0,49.56,48.57Zm-1.82,2.31a3.6,3.6,0,0,1-3.25-.26,1,1,0,0,1-.47-.73c0-.41.28-.84.92-1.11A3.63,3.63,0,0,1,48.2,49a1,1,0,0,1,.46.86C48.63,50.28,48.31,50.64,47.74,50.88Z"/><path class="cls-12" d="M73.83,54.65A6.49,6.49,0,0,0,68,54.18c-1.11.47-1.69,1.2-1.66,1.93a.15.15,0,0,0,0,.07,1.88,1.88,0,0,0,.83,1.3A6.5,6.5,0,0,0,73,58c1-.44,1.6-1.09,1.66-1.76V56.1A1.76,1.76,0,0,0,73.83,54.65ZM71.9,57.12a3.63,3.63,0,0,1-3.26-.27,1,1,0,0,1-.46-.72c0-.42.28-.85.92-1.12a3.63,3.63,0,0,1,3.26.27,1,1,0,0,1,.46.86C72.79,56.51,72.47,56.87,71.9,57.12Z"/><path class="cls-12" d="M74.41,55.25a2.51,2.51,0,0,0-.58-.6A6.52,6.52,0,0,0,68,54.18a2.92,2.92,0,0,0-1.4,1.08h-.26v.82a.33.33,0,0,0,0,.1,1.88,1.88,0,0,0,.83,1.3A6.5,6.5,0,0,0,73,58c1-.44,1.6-1.09,1.66-1.76v-.12h0v-.82ZM69.1,54.16a3.66,3.66,0,0,1,3.26.26,1,1,0,0,1,.46.86c0,.38-.35.74-.92,1A3.66,3.66,0,0,1,68.64,56a1,1,0,0,1-.46-.72C68.14,54.86,68.46,54.43,69.1,54.16Z"/><path class="cls-12" d="M73.83,53.8A6.49,6.49,0,0,0,68,53.33c-1.11.47-1.69,1.2-1.66,1.93a.2.2,0,0,0,0,.07,1.88,1.88,0,0,0,.83,1.3A6.5,6.5,0,0,0,73,57.1c1-.44,1.6-1.09,1.66-1.76v-.09A1.76,1.76,0,0,0,73.83,53.8ZM71.9,56.27A3.66,3.66,0,0,1,68.64,56a1,1,0,0,1-.46-.72c0-.42.28-.85.92-1.12a3.66,3.66,0,0,1,3.26.26,1,1,0,0,1,.46.86C72.79,55.66,72.47,56,71.9,56.27Z"/><path class="cls-13" d="M73.71,54a5.58,5.58,0,0,0-3.22-.9,6.21,6.21,0,0,0-2.42.46c-1,.42-1.57,1.08-1.54,1.75v.05a1.68,1.68,0,0,0,.76,1.16,5.5,5.5,0,0,0,3.21.91,6.26,6.26,0,0,0,2.43-.46c.92-.39,1.48-1,1.53-1.6a.17.17,0,0,0,0-.07A1.62,1.62,0,0,0,73.71,54ZM71.9,56.27A3.66,3.66,0,0,1,68.64,56a1,1,0,0,1-.46-.72c0-.42.28-.85.92-1.12a3.66,3.66,0,0,1,3.26.26,1,1,0,0,1,.46.86C72.79,55.66,72.47,56,71.9,56.27Z"/><path class="cls-14" d="M107.94,65.7a4.45,4.45,0,0,0-2.58-.72,5,5,0,0,0-1.94.36c-.8.34-1.26.87-1.23,1.41v0a1.39,1.39,0,0,0,.6.93,4.48,4.48,0,0,0,2.58.72,5.16,5.16,0,0,0,1.94-.36c.74-.32,1.19-.79,1.23-1.29a.07.07,0,0,0,0-.05A1.31,1.31,0,0,0,107.94,65.7Z"/><path class="cls-15" d="M102.21,66.89a1.85,1.85,0,0,1,1.21-1.15,5,5,0,0,1,1.94-.37,4.45,4.45,0,0,1,2.58.72,1.51,1.51,0,0,1,.58.79s0-.06,0-.09a.07.07,0,0,0,0-.05,1.31,1.31,0,0,0-.61-1,4.45,4.45,0,0,0-2.58-.72,5,5,0,0,0-1.94.36c-.8.34-1.26.87-1.23,1.41v0S102.21,66.86,102.21,66.89Z"/><path class="cls-14" d="M99.81,58.53a4.4,4.4,0,0,0-2.58-.73,5,5,0,0,0-1.94.37c-.8.34-1.26.86-1.24,1.41a.08.08,0,0,0,0,0,1.35,1.35,0,0,0,.6.93,4.45,4.45,0,0,0,2.58.72,5,5,0,0,0,1.94-.37c.74-.31,1.18-.78,1.23-1.28v0A1.27,1.27,0,0,0,99.81,58.53Z"/><path class="cls-15" d="M94.08,59.72a1.88,1.88,0,0,1,1.21-1.16,5.16,5.16,0,0,1,1.94-.36,4.48,4.48,0,0,1,2.58.72,1.51,1.51,0,0,1,.58.79s0-.06,0-.09v0a1.27,1.27,0,0,0-.6-1,4.4,4.4,0,0,0-2.58-.73,5,5,0,0,0-1.94.37c-.8.34-1.26.86-1.24,1.41a.08.08,0,0,0,0,0A.36.36,0,0,0,94.08,59.72Z"/><path class="cls-14" d="M111.2,51.63a4.43,4.43,0,0,0-2.58-.73,5,5,0,0,0-1.94.37c-.8.34-1.26.86-1.24,1.41v0a1.37,1.37,0,0,0,.61.93,4.44,4.44,0,0,0,2.57.72,5.06,5.06,0,0,0,1.95-.37c.73-.31,1.18-.78,1.23-1.28v0A1.3,1.3,0,0,0,111.2,51.63Z"/><path class="cls-15" d="M105.47,52.82a1.88,1.88,0,0,1,1.21-1.16,5.16,5.16,0,0,1,1.94-.36,4.5,4.5,0,0,1,2.58.72,1.48,1.48,0,0,1,.57.79.32.32,0,0,0,0-.09v0a1.3,1.3,0,0,0-.6-1,4.43,4.43,0,0,0-2.58-.73,5,5,0,0,0-1.94.37c-.8.34-1.26.86-1.24,1.41v0Z"/><path class="cls-14" d="M133.36,50.44a4.45,4.45,0,0,0-2.58-.72,5.16,5.16,0,0,0-1.94.36c-.8.34-1.26.87-1.24,1.41a.06.06,0,0,0,0,0,1.35,1.35,0,0,0,.6.93,4.45,4.45,0,0,0,2.58.72,5,5,0,0,0,1.94-.36c.74-.32,1.19-.78,1.23-1.28a.13.13,0,0,0,0-.06A1.32,1.32,0,0,0,133.36,50.44Z"/><path class="cls-15" d="M127.63,51.64a1.86,1.86,0,0,1,1.21-1.16,5,5,0,0,1,1.94-.37,4.45,4.45,0,0,1,2.58.72,1.51,1.51,0,0,1,.58.79s0,0,0-.08a.13.13,0,0,0,0-.06,1.32,1.32,0,0,0-.61-1,4.45,4.45,0,0,0-2.58-.72,5.16,5.16,0,0,0-1.94.36c-.8.34-1.26.87-1.24,1.41a.06.06,0,0,0,0,0A.52.52,0,0,0,127.63,51.64Z"/><path class="cls-14" d="M130.18,58.17a4.48,4.48,0,0,0-2.58-.72,5.16,5.16,0,0,0-1.94.36c-.8.35-1.26.87-1.24,1.41a.06.06,0,0,0,0,0,1.32,1.32,0,0,0,.6.93,4.45,4.45,0,0,0,2.58.72,5,5,0,0,0,1.94-.36c.74-.32,1.18-.78,1.23-1.28v-.06A1.28,1.28,0,0,0,130.18,58.17Z"/><path class="cls-15" d="M124.45,59.37a1.88,1.88,0,0,1,1.21-1.16,5,5,0,0,1,1.94-.37,4.48,4.48,0,0,1,2.58.72,1.51,1.51,0,0,1,.58.79s0-.05,0-.08v-.06a1.28,1.28,0,0,0-.6-1,4.48,4.48,0,0,0-2.58-.72,5.16,5.16,0,0,0-1.94.36c-.8.35-1.26.87-1.24,1.41a.06.06,0,0,0,0,0A.52.52,0,0,0,124.45,59.37Z"/><path class="cls-14" d="M120.64,61.16a4.5,4.5,0,0,0-2.58-.72,5,5,0,0,0-1.94.36c-.8.34-1.26.87-1.24,1.41a.08.08,0,0,0,0,0,1.32,1.32,0,0,0,.6.93,4.45,4.45,0,0,0,2.58.72,5,5,0,0,0,1.94-.37c.74-.31,1.18-.78,1.23-1.28v0A1.27,1.27,0,0,0,120.64,61.16Z"/><path class="cls-15" d="M114.91,62.35a1.85,1.85,0,0,1,1.21-1.15,5,5,0,0,1,1.94-.37,4.5,4.5,0,0,1,2.58.72,1.43,1.43,0,0,1,.57.79.32.32,0,0,0,0-.09v0a1.27,1.27,0,0,0-.6-1,4.5,4.5,0,0,0-2.58-.72,5,5,0,0,0-1.94.36c-.8.34-1.26.87-1.24,1.41a.08.08,0,0,0,0,0A.36.36,0,0,0,114.91,62.35Z"/><path class="cls-14" d="M111.23,34.44a4.4,4.4,0,0,0-2.58-.73,5,5,0,0,0-1.94.37c-.8.34-1.26.86-1.24,1.4,0,0,0,0,0,0a1.31,1.31,0,0,0,.6.93,4.38,4.38,0,0,0,2.58.73,5,5,0,0,0,1.94-.37c.74-.31,1.18-.78,1.23-1.28a.13.13,0,0,0,0-.06A1.31,1.31,0,0,0,111.23,34.44Z"/><path class="cls-15" d="M105.5,35.63a1.88,1.88,0,0,1,1.21-1.16,5,5,0,0,1,1.94-.37,4.4,4.4,0,0,1,2.58.73,1.47,1.47,0,0,1,.58.79s0-.06,0-.09a.13.13,0,0,0,0-.06,1.31,1.31,0,0,0-.61-1,4.4,4.4,0,0,0-2.58-.73,5,5,0,0,0-1.94.37c-.8.34-1.26.86-1.24,1.4,0,0,0,0,0,0A.43.43,0,0,0,105.5,35.63Z"/><path class="cls-14" d="M88.26,41.28a4.38,4.38,0,0,0-2.58-.73,5,5,0,0,0-1.94.37c-.8.34-1.26.86-1.23,1.4v0a1.35,1.35,0,0,0,.6.93,4.48,4.48,0,0,0,2.58.72,5,5,0,0,0,1.94-.37c.74-.31,1.19-.78,1.23-1.28a.11.11,0,0,0,0,0A1.31,1.31,0,0,0,88.26,41.28Z"/><path class="cls-15" d="M82.53,42.47a1.88,1.88,0,0,1,1.21-1.16A5.16,5.16,0,0,1,85.68,41a4.45,4.45,0,0,1,2.58.72,1.51,1.51,0,0,1,.58.79s0-.06,0-.09a.11.11,0,0,0,0,0,1.31,1.31,0,0,0-.61-1,4.38,4.38,0,0,0-2.58-.73,5,5,0,0,0-1.94.37c-.8.34-1.26.86-1.23,1.4v0A.36.36,0,0,0,82.53,42.47Z"/><path class="cls-14" d="M82.41,31.81a4.45,4.45,0,0,0-2.58-.72,5,5,0,0,0-1.94.37c-.8.33-1.26.86-1.23,1.4v0a1.39,1.39,0,0,0,.6.93,4.48,4.48,0,0,0,2.58.72,5,5,0,0,0,1.94-.36c.74-.32,1.19-.78,1.23-1.28a.13.13,0,0,0,0-.06A1.3,1.3,0,0,0,82.41,31.81Z"/><path class="cls-15" d="M76.68,33a1.88,1.88,0,0,1,1.21-1.16,5,5,0,0,1,1.94-.37,4.45,4.45,0,0,1,2.58.72A1.51,1.51,0,0,1,83,33s0-.05,0-.08a.13.13,0,0,0,0-.06,1.3,1.3,0,0,0-.61-1,4.45,4.45,0,0,0-2.58-.72,5,5,0,0,0-1.94.37c-.8.33-1.26.86-1.23,1.4v0S76.68,33,76.68,33Z"/><path class="cls-14" d="M72.63,41.46a4.48,4.48,0,0,0-2.58-.72,5,5,0,0,0-1.94.37c-.8.34-1.26.86-1.24,1.4a.06.06,0,0,0,0,0,1.35,1.35,0,0,0,.6.93,4.38,4.38,0,0,0,2.58.73A5,5,0,0,0,72,43.84c.74-.31,1.18-.78,1.23-1.28V42.5A1.3,1.3,0,0,0,72.63,41.46Z"/><path class="cls-15" d="M66.9,42.66a1.88,1.88,0,0,1,1.21-1.16,5,5,0,0,1,1.94-.37,4.48,4.48,0,0,1,2.58.72,1.49,1.49,0,0,1,.58.8s0-.06,0-.09V42.5a1.3,1.3,0,0,0-.6-1,4.48,4.48,0,0,0-2.58-.72,5,5,0,0,0-1.94.37c-.8.34-1.26.86-1.24,1.4a.06.06,0,0,0,0,0A.43.43,0,0,0,66.9,42.66Z"/><path class="cls-14" d="M60.6,39.54A4.44,4.44,0,0,0,58,38.82a5.06,5.06,0,0,0-2,.37c-.8.34-1.25.86-1.23,1.4v0a1.33,1.33,0,0,0,.61.93,4.37,4.37,0,0,0,2.57.73A5,5,0,0,0,60,41.92c.74-.31,1.19-.78,1.24-1.28v-.06A1.31,1.31,0,0,0,60.6,39.54Z"/><path class="cls-15" d="M54.87,40.74a1.9,1.9,0,0,1,1.21-1.16,5.06,5.06,0,0,1,2-.37,4.37,4.37,0,0,1,2.57.73,1.42,1.42,0,0,1,.58.79.32.32,0,0,1,0-.09v-.06a1.31,1.31,0,0,0-.61-1A4.44,4.44,0,0,0,58,38.82a5.06,5.06,0,0,0-2,.37c-.8.34-1.25.86-1.23,1.4v0S54.87,40.7,54.87,40.74Z"/><path class="cls-14" d="M37.31,40.84a4.48,4.48,0,0,0-2.58-.72,5,5,0,0,0-1.94.37c-.8.34-1.26.86-1.24,1.4a.06.06,0,0,0,0,0,1.28,1.28,0,0,0,.6.93,4.38,4.38,0,0,0,2.58.73,5,5,0,0,0,1.94-.37c.74-.31,1.18-.78,1.23-1.28v-.06A1.3,1.3,0,0,0,37.31,40.84Z"/><path class="cls-15" d="M31.58,42a1.88,1.88,0,0,1,1.21-1.16,5,5,0,0,1,1.94-.37,4.4,4.4,0,0,1,2.58.73,1.4,1.4,0,0,1,.57.79.32.32,0,0,0,0-.09v-.06a1.3,1.3,0,0,0-.6-1,4.48,4.48,0,0,0-2.58-.72,5,5,0,0,0-1.94.37c-.8.34-1.26.86-1.24,1.4a.06.06,0,0,0,0,0A.43.43,0,0,0,31.58,42Z"/><path class="cls-14" d="M78.38,13.15a4.48,4.48,0,0,0-2.58-.72,5,5,0,0,0-1.94.36c-.8.34-1.26.87-1.24,1.41a.06.06,0,0,0,0,0,1.32,1.32,0,0,0,.6.93,4.45,4.45,0,0,0,2.58.72,5,5,0,0,0,1.94-.37c.74-.31,1.18-.78,1.23-1.28v-.05A1.27,1.27,0,0,0,78.38,13.15Z"/><path class="cls-15" d="M72.65,14.34a1.85,1.85,0,0,1,1.21-1.15,5,5,0,0,1,1.94-.37,4.48,4.48,0,0,1,2.58.72,1.51,1.51,0,0,1,.58.79s0-.06,0-.09v-.05a1.27,1.27,0,0,0-.6-1,4.48,4.48,0,0,0-2.58-.72,5,5,0,0,0-1.94.36c-.8.34-1.26.87-1.24,1.41a.06.06,0,0,0,0,0A.36.36,0,0,0,72.65,14.34Z"/><path class="cls-14" d="M103.64,11.89a4.5,4.5,0,0,0-2.58-.72,5.16,5.16,0,0,0-1.94.36c-.81.34-1.26.87-1.24,1.41v0a1.37,1.37,0,0,0,.61.93,4.44,4.44,0,0,0,2.57.72,5.16,5.16,0,0,0,1.94-.36c.74-.32,1.19-.78,1.24-1.29v-.05A1.31,1.31,0,0,0,103.64,11.89Z"/><path class="cls-15" d="M97.91,13.08a1.84,1.84,0,0,1,1.21-1.15,5,5,0,0,1,1.94-.37,4.5,4.5,0,0,1,2.58.72,1.48,1.48,0,0,1,.57.79.94.94,0,0,0,0-.09v-.05a1.31,1.31,0,0,0-.6-1,4.5,4.5,0,0,0-2.58-.72,5.16,5.16,0,0,0-1.94.36c-.81.34-1.26.87-1.24,1.41v0Z"/><path class="cls-14" d="M82.41,69.81a4.45,4.45,0,0,0-2.58-.72,5,5,0,0,0-1.94.37c-.8.34-1.26.86-1.23,1.4v0a1.35,1.35,0,0,0,.6.93,4.4,4.4,0,0,0,2.58.73,5,5,0,0,0,1.94-.37c.74-.31,1.19-.78,1.23-1.28a.13.13,0,0,0,0-.06A1.31,1.31,0,0,0,82.41,69.81Z"/><path class="cls-15" d="M76.68,71a1.9,1.9,0,0,1,1.21-1.16,5,5,0,0,1,1.94-.37,4.38,4.38,0,0,1,2.58.73A1.47,1.47,0,0,1,83,71s0-.06,0-.09a.13.13,0,0,0,0-.06,1.31,1.31,0,0,0-.61-1,4.45,4.45,0,0,0-2.58-.72,5,5,0,0,0-1.94.37c-.8.34-1.26.86-1.23,1.4v0S76.68,71,76.68,71Z"/><path class="cls-14" d="M53.4,28a4.4,4.4,0,0,0-2.58-.73,5,5,0,0,0-1.94.37c-.8.34-1.26.86-1.24,1.4,0,0,0,0,0,0a1.32,1.32,0,0,0,.6.94,4.45,4.45,0,0,0,2.58.72,5,5,0,0,0,1.94-.37c.74-.31,1.18-.78,1.23-1.28V29A1.27,1.27,0,0,0,53.4,28Z"/><path class="cls-15" d="M47.67,29.18A1.88,1.88,0,0,1,48.88,28a5,5,0,0,1,1.94-.36,4.48,4.48,0,0,1,2.58.72,1.4,1.4,0,0,1,.57.79.32.32,0,0,0,0-.09V29a1.27,1.27,0,0,0-.6-1,4.4,4.4,0,0,0-2.58-.73,5,5,0,0,0-1.94.37c-.8.34-1.26.86-1.24,1.4,0,0,0,0,0,0A.36.36,0,0,0,47.67,29.18Z"/><path class="cls-14" d="M82.41,59a4.38,4.38,0,0,0-2.58-.73,5,5,0,0,0-1.94.37c-.8.34-1.26.86-1.23,1.4v0a1.35,1.35,0,0,0,.6.93,4.4,4.4,0,0,0,2.58.73,5,5,0,0,0,1.94-.37C82.52,61,83,60.54,83,60A.13.13,0,0,0,83,60,1.28,1.28,0,0,0,82.41,59Z"/><path class="cls-15" d="M76.68,60.14A1.9,1.9,0,0,1,77.89,59a5,5,0,0,1,1.94-.37,4.38,4.38,0,0,1,2.58.73,1.47,1.47,0,0,1,.58.79s0-.06,0-.09A.13.13,0,0,0,83,60a1.28,1.28,0,0,0-.61-1,4.38,4.38,0,0,0-2.58-.73,5,5,0,0,0-1.94.37c-.8.34-1.26.86-1.23,1.4v0S76.68,60.1,76.68,60.14Z"/><path class="cls-14" d="M58.4,64.3a4.45,4.45,0,0,0-2.58-.72,5,5,0,0,0-1.94.36c-.8.34-1.26.87-1.24,1.41a.08.08,0,0,0,0,0,1.35,1.35,0,0,0,.6.93,4.48,4.48,0,0,0,2.58.72,5,5,0,0,0,1.94-.37c.74-.31,1.19-.78,1.23-1.28a.09.09,0,0,0,0,0A1.31,1.31,0,0,0,58.4,64.3Z"/><path class="cls-15" d="M52.67,65.49a1.85,1.85,0,0,1,1.21-1.15A5,5,0,0,1,55.82,64a4.45,4.45,0,0,1,2.58.72,1.51,1.51,0,0,1,.58.79s0-.06,0-.09a.09.09,0,0,0,0,0,1.31,1.31,0,0,0-.61-1,4.45,4.45,0,0,0-2.58-.72,5,5,0,0,0-1.94.36c-.8.34-1.26.87-1.24,1.41a.08.08,0,0,0,0,0A.36.36,0,0,0,52.67,65.49Z"/><path class="cls-14" d="M26.68,43.94a4.45,4.45,0,0,0-2.58-.72,5,5,0,0,0-1.94.37c-.8.34-1.26.86-1.23,1.4v0a1.31,1.31,0,0,0,.6.93,4.38,4.38,0,0,0,2.58.73,5,5,0,0,0,1.94-.37c.74-.31,1.19-.78,1.23-1.28a.13.13,0,0,0,0-.06A1.34,1.34,0,0,0,26.68,43.94Z"/><path class="cls-15" d="M21,45.14A1.88,1.88,0,0,1,22.16,44a5,5,0,0,1,1.94-.37,4.38,4.38,0,0,1,2.58.73,1.47,1.47,0,0,1,.58.79s0-.06,0-.09a.13.13,0,0,0,0-.06,1.34,1.34,0,0,0-.61-1,4.45,4.45,0,0,0-2.58-.72,5,5,0,0,0-1.94.37c-.8.34-1.26.86-1.23,1.4v0A.43.43,0,0,0,21,45.14Z"/><path class="cls-14" d="M20.87,34a4.45,4.45,0,0,0-2.58-.72,5,5,0,0,0-1.94.36c-.8.34-1.26.87-1.23,1.41v0a1.35,1.35,0,0,0,.6.93,4.48,4.48,0,0,0,2.58.72,5,5,0,0,0,1.94-.37c.74-.31,1.19-.78,1.23-1.28a.07.07,0,0,0,0-.05A1.31,1.31,0,0,0,20.87,34Z"/><path class="cls-15" d="M15.14,35.2a1.85,1.85,0,0,1,1.21-1.15,5,5,0,0,1,1.94-.37,4.45,4.45,0,0,1,2.58.72,1.51,1.51,0,0,1,.58.79s0-.06,0-.09a.07.07,0,0,0,0-.05,1.31,1.31,0,0,0-.61-1,4.45,4.45,0,0,0-2.58-.72,5,5,0,0,0-1.94.36c-.8.34-1.26.87-1.23,1.41v0A.36.36,0,0,0,15.14,35.2Z"/><path class="cls-14" d="M42.63,17.4a4.5,4.5,0,0,0-2.58-.72,5.06,5.06,0,0,0-1.95.37c-.8.34-1.25.86-1.23,1.4v0a1.37,1.37,0,0,0,.6.93,4.43,4.43,0,0,0,2.58.73A5,5,0,0,0,42,19.78c.74-.31,1.19-.78,1.24-1.28v-.06A1.32,1.32,0,0,0,42.63,17.4Z"/><path class="cls-15" d="M36.89,18.6a1.9,1.9,0,0,1,1.21-1.16,5.06,5.06,0,0,1,1.95-.37,4.43,4.43,0,0,1,2.58.73,1.45,1.45,0,0,1,.57.79l0-.09v-.06a1.32,1.32,0,0,0-.6-1,4.5,4.5,0,0,0-2.58-.72,5.06,5.06,0,0,0-1.95.37c-.8.34-1.25.86-1.23,1.4v0S36.89,18.56,36.89,18.6Z"/><path class="cls-14" d="M119.7,19.31a4.5,4.5,0,0,0-2.58-.72,5,5,0,0,0-1.94.37c-.81.34-1.26.86-1.24,1.4v0a1.33,1.33,0,0,0,.61.93,4.37,4.37,0,0,0,2.57.73,5,5,0,0,0,1.94-.37c.74-.31,1.19-.78,1.24-1.28v-.06A1.32,1.32,0,0,0,119.7,19.31Z"/><path class="cls-15" d="M114,20.51a1.88,1.88,0,0,1,1.21-1.16,5,5,0,0,1,1.94-.37,4.43,4.43,0,0,1,2.58.73,1.45,1.45,0,0,1,.57.79l0-.09v-.06a1.32,1.32,0,0,0-.6-1,4.5,4.5,0,0,0-2.58-.72,5,5,0,0,0-1.94.37c-.81.34-1.26.86-1.24,1.4v0Z"/><path class="cls-14" d="M119.48,41.65a4.43,4.43,0,0,0-2.58-.73,5,5,0,0,0-1.94.37c-.81.34-1.26.86-1.24,1.4v.05a1.37,1.37,0,0,0,.61.93,4.44,4.44,0,0,0,2.57.72,5,5,0,0,0,1.94-.37c.74-.31,1.19-.78,1.24-1.28v-.05A1.3,1.3,0,0,0,119.48,41.65Z"/><path class="cls-15" d="M113.75,42.84A1.85,1.85,0,0,1,115,41.68a5,5,0,0,1,1.94-.36,4.5,4.5,0,0,1,2.58.72,1.48,1.48,0,0,1,.57.79l0-.09v-.05a1.3,1.3,0,0,0-.6-1,4.43,4.43,0,0,0-2.58-.73,5,5,0,0,0-1.94.37c-.81.34-1.26.86-1.24,1.4v.05A.38.38,0,0,0,113.75,42.84Z"/><path class="cls-14" d="M81.56,23A4.45,4.45,0,0,0,79,22.24a5,5,0,0,0-1.94.37c-.8.34-1.26.86-1.24,1.4a.06.06,0,0,0,0,0,1.35,1.35,0,0,0,.6.93,4.45,4.45,0,0,0,2.58.73,5,5,0,0,0,1.94-.37c.74-.31,1.19-.78,1.23-1.28a.13.13,0,0,0,0-.06A1.34,1.34,0,0,0,81.56,23Z"/><path class="cls-15" d="M75.83,24.16A1.88,1.88,0,0,1,77,23,5,5,0,0,1,79,22.63a4.45,4.45,0,0,1,2.58.72,1.51,1.51,0,0,1,.58.79s0-.05,0-.08a.13.13,0,0,0,0-.06,1.34,1.34,0,0,0-.61-1A4.45,4.45,0,0,0,79,22.24a5,5,0,0,0-1.94.37c-.8.34-1.26.86-1.24,1.4a.06.06,0,0,0,0,0A.43.43,0,0,0,75.83,24.16Z"/><path class="cls-16" d="M64.33,24.2c.07.93.16,1.85.31,2.77A13.23,13.23,0,0,0,66,30.91c.14.28.29.55.46.82a17.71,17.71,0,0,0,3.46,4.07,40.42,40.42,0,0,0,11.42,6.81,29,29,0,0,0,7.6,2.45c4.83.53,6.57-4.93,5.26-8.27a3.87,3.87,0,0,0-1.85-2.15c-3.91-1.89-10.87.52-17.89-2.44-4.21-1.77-7-5.37-9.47-9.12-.09-.13-.25-.52-.41-.56C64.16,22.43,64.3,23.89,64.33,24.2Z"/><path class="cls-17" d="M66.45,31.73a17.71,17.71,0,0,0,3.46,4.07,40.42,40.42,0,0,0,11.42,6.81,29,29,0,0,0,7.6,2.45c4.83.53,6.57-4.93,5.26-8.27h0a2.29,2.29,0,0,0-3,.93,4.71,4.71,0,0,0-.37,3.35c.17.85.38,1.89-.27,2.45a1.91,1.91,0,0,1-1,.37c-2.78.4-5.52-.78-8-2C76.06,39.21,70.64,36.05,66.45,31.73Z"/><path class="cls-18" d="M91.42,40.21l.1.08a4.67,4.67,0,0,1,.49.27,1.23,1.23,0,0,1,.45,1,.06.06,0,0,1,0,0,3.68,3.68,0,0,1-.24,1.12.75.75,0,0,0,0,.44.08.08,0,0,0,0,0,.15.15,0,0,0,.05.06.33.33,0,0,0,.41,0,.77.77,0,0,0,.27-.35c.33-.68.33-1.74,1.32-1.67,1.22.09,2.4.43,3.59.62,1,.16,2.42.13,2.76-1a2,2,0,0,0-.11-1.24,4.15,4.15,0,0,0-1.3-1.79c-.43-.34-1,0-1.14.48a.32.32,0,0,0,.07.34c.09.11.21.19.31.29a1.78,1.78,0,0,1,.48.65.65.65,0,0,1-.16.74,1,1,0,0,1-.47.14,8.12,8.12,0,0,1-3.47-.65,1.61,1.61,0,0,1-.88-1.18c-.06-.2-.1-.4-.15-.58a1.34,1.34,0,0,0-.15-.41.33.33,0,0,0-.37-.15c-.2.07-.23.33-.24.53a1.48,1.48,0,0,1-.5,1.22,2.06,2.06,0,0,1-.85.22.54.54,0,0,0-.42.17A.44.44,0,0,0,91.42,40.21Z"/><path class="cls-19" d="M69.66,30.29a14.2,14.2,0,0,0,1.69,1.39A20.45,20.45,0,0,0,76.8,34.1a21.13,21.13,0,0,0,4.06.93A49.69,49.69,0,0,0,87,35c.69,0,5.5-.06,4.27,1.54-.31.4-.7.57-.9,1.08s-.18,1-.36,1.45a2.87,2.87,0,0,1-2.32,1.64,7.15,7.15,0,0,1-2.93-.36,54.64,54.64,0,0,1-8.94-3.57A16.07,16.07,0,0,1,71.49,34c-2.09-2-3-4.94-4.9-7.18C67.59,28,68.56,29.23,69.66,30.29Z"/><path class="cls-20" d="M80.31,35.81c1.21.1,2.42.07,3.63,0,.62,0,1.23,0,1.85,0a8.33,8.33,0,0,1,1.66.11,1.48,1.48,0,0,1,.89.5,1,1,0,0,1,.25.48c.12.9-1,1.06-1.61,1.17a11,11,0,0,1-4-.27c-3.7-.77-7.45-2-10.17-4.64A15.8,15.8,0,0,0,80.31,35.81Z"/><path class="cls-21" d="M92.46,41.53a.06.06,0,0,1,0,0,3.68,3.68,0,0,1-.24,1.12.75.75,0,0,0,0,.44.08.08,0,0,0,0,0,.15.15,0,0,0,.05.06.33.33,0,0,0,.41,0,.77.77,0,0,0,.27-.35c.33-.68.33-1.74,1.32-1.67,1.22.09,2.4.43,3.59.62,1,.16,2.42.13,2.76-1a2,2,0,0,0-.11-1.24,4.15,4.15,0,0,0-1.3-1.79c-.43-.34-1,0-1.14.48a.32.32,0,0,0,.07.34h.06c.11-.26.25-.55.52-.61a.83.83,0,0,1,.71.32,3.47,3.47,0,0,1,.86,1.22,1.88,1.88,0,0,1,0,1.3,1.24,1.24,0,0,1-1,.67,4.06,4.06,0,0,1-1.1,0c-1.2-.14-2.39-.39-3.59-.57a1.43,1.43,0,0,0-1.17.18c-.19.17-.24.37-.47.48a.27.27,0,0,1-.15,0,.25.25,0,0,1-.21-.18,1.59,1.59,0,0,1-.06-.3A1,1,0,0,0,92,40.4a3.54,3.54,0,0,0-.44-.11,4.67,4.67,0,0,1,.49.27A1.23,1.23,0,0,1,92.46,41.53Z"/><path class="cls-22" d="M93.63,39.9c-.13-.1-.33-.32-.23-.51s.28-.11.4,0a4.89,4.89,0,0,0,1.52.83,4.48,4.48,0,0,0,.82.21c.3,0,.61.15.92.2a8.66,8.66,0,0,0,1.35.07h.3a.85.85,0,0,1,.22,0c.15.08-.05.26-.12.31a.93.93,0,0,1-.49.08,13.83,13.83,0,0,1-2.41-.2,5.52,5.52,0,0,1-2-.76Z"/></g></g></svg>