<svg xmlns="http://www.w3.org/2000/svg" viewBox="0 0 83.46 80"><defs><style>.cls-1{isolation:isolate;}.cls-2{fill:#cc2d14;}.cls-3{fill:#e63317;}.cls-4{fill:#adadad;mix-blend-mode:multiply;}.cls-5{fill:#bf250d;}.cls-6{fill:#4d7326;}.cls-7{fill:#5a9223;}.cls-8{fill:#ff6f59;}.cls-9{fill:#68a828;}.cls-10{fill:#73ba2c;}.cls-11{fill:#a6cb6c;}.cls-12{fill:#b01902;}.cls-13{fill:#cc1d02;}.cls-14{fill:#ff5a3f;}.cls-15{fill:#e32a0e;}.cls-16{fill:#ff816e;}</style></defs><g class="cls-1"><g id="Layer_2" data-name="Layer 2"><g id="Layer"><path class="cls-2" d="M47.84,30.28A22.45,22.45,0,0,1,29.31,46.14c-8,1.26-17.25-.54-23-6.7a24.59,24.59,0,0,1-6-13.33c-.86-5.78-.22-9.9,2.91-14.9,2.37-3.78,5-7.31,9.55-8.46a16.56,16.56,0,0,1,3.37-.45h.65a26.58,26.58,0,0,1,7.34,1.19c1.21.35,2.3,1,3.5,1.36l.39.09a14.92,14.92,0,0,0,2.11.32c2.62.21,5.29,0,7.86.57a10.77,10.77,0,0,1,2.68,1l.06,0c3.13,1.77,5,5,6.55,8.28a13.42,13.42,0,0,1,1,3.41A27.73,27.73,0,0,1,47.84,30.28Z"/><path class="cls-3" d="M42.86,30.85a21.88,21.88,0,0,0,3.64-11,14,14,0,0,0-1-6.43A11,11,0,0,0,41.58,8.9,11.65,11.65,0,0,0,36.21,7c-2-.2-4-.13-5.93-.39a17.76,17.76,0,0,1-4.65-1.24,10.72,10.72,0,0,0-4.21-.83,8.11,8.11,0,0,0-1.82.34c-5.59,1.5-7.91,6.33-7.88,11.88A23.21,23.21,0,0,0,17.64,32.2a16.39,16.39,0,0,0,10.54,5c4,.38,8.52-.31,11.64-2.91l.21-.18A17.07,17.07,0,0,0,42.86,30.85Z"/><path class="cls-2" d="M36.55,12.49c-.15-1.1-1.21-1.83-1.71-2.83C34.52,9,34.55,8.56,34,8.1a3.28,3.28,0,0,0-2-.85,4.15,4.15,0,0,0-.78.09A12.36,12.36,0,0,1,29,7.6a12.47,12.47,0,0,1-3-.71,2.94,2.94,0,0,0-2.92.53l-.7.88a14.91,14.91,0,0,1-1.54.92,3,3,0,0,0-1.29,2.2c-.1,1.34.64,3.47,2,3.89a9.82,9.82,0,0,0,2.24.12c1.39.1,2.61.83,3.95,1.11,1.63.35,2-.61,3.39-1.21a7.18,7.18,0,0,1,2.5-.58,2.87,2.87,0,0,0,2-.52A2.45,2.45,0,0,0,36.55,12.49Z"/><path class="cls-4" d="M33.06,10.69a12.05,12.05,0,0,0-2.62.23,4.54,4.54,0,0,0,.86.26,5.48,5.48,0,0,1,1.08.48,6.67,6.67,0,0,1,1.85,1.49,8.83,8.83,0,0,1,2.05,4.93,9.13,9.13,0,0,0-5.43-4.78c-1.08-.35-1.92.86-2.34,1.69a9.5,9.5,0,0,0-.94,6.14,4.69,4.69,0,0,1-1.32-3c-.09-1,0-1.95-.17-2.92a2.16,2.16,0,0,0-.44-1.12c-1.51-1.77-4.28,1-5.22,2.12-.52.62-1.65,2-1.66,2.89A8.3,8.3,0,0,1,22.08,12c.21-.16.83-.55.74-.87a.44.44,0,0,0-.16-.22c-.71-.67-1.64-.89-2.39-1.52A10.69,10.69,0,0,1,17.9,6.54,19.34,19.34,0,0,1,16.18,2.3h.65a19.42,19.42,0,0,0,8,6.32,1.08,1.08,0,0,0,.61.12A1,1,0,0,0,26,8.31a16.53,16.53,0,0,0,2.06-3.37,14.92,14.92,0,0,0,2.11.32,15.31,15.31,0,0,1-.53,3.43,27.9,27.9,0,0,0,5.92.09,8.24,8.24,0,0,0,5.15-1.9l.06,0a9.37,9.37,0,0,1-4.89,3.23A15.12,15.12,0,0,1,33.06,10.69Z"/><path class="cls-5" d="M32.26,44.58c-8,1.26-17.25-.54-23-6.7a24.57,24.57,0,0,1-6-13.34c-.87-5.77-.23-9.89,2.9-14.89a22.72,22.72,0,0,1,5.53-6.57C7.8,4.48,5.43,7.73,3.26,11.21c-3.13,5-3.77,9.12-2.91,14.9a24.59,24.59,0,0,0,6,13.33c5.72,6.16,14.92,8,23,6.7a24,24,0,0,0,9.08-3.35A24.64,24.64,0,0,1,32.26,44.58Z"/><path class="cls-6" d="M41.64,6.56v0s0,0,0,0l0,0a1.06,1.06,0,0,1-.15.15c-.09.11-.17.24-.27.34l-.11.12a2.41,2.41,0,0,0-.21.24,1,1,0,0,0-.15.14c-.08.09-.11.19-.21.25l-.3.18c-.21.11-.42.22-.64.31a8.62,8.62,0,0,1-1.66.51,16.76,16.76,0,0,1-1.73.25A28.47,28.47,0,0,1,30.24,9,15.57,15.57,0,0,0,30.07.3a17,17,0,0,1-3.48,8.32,1,1,0,0,1-.53.42,1.12,1.12,0,0,1-.61-.12l-.34-.15c-.37-.16-.74-.34-1.1-.53s-.72-.39-1.06-.6-.69-.43-1-.67-.66-.47-1-.73-.63-.52-.93-.79-.6-.56-.88-.85-.56-.59-.83-.9-.52-.62-.76-1-.48-.66-.71-1l-.16-.25-.09-.13c0-.05,0-.11,0-.16S16.46,1,16.42.88a1.3,1.3,0,0,0-.14-.32l0,.08a.31.31,0,0,0,0,.1c.05.3.14.59.21.89.13.45.26.9.4,1.35s.28.89.44,1.33.34.87.54,1.29.4.84.63,1.25a11,11,0,0,0,2.37,2.88c.76.63,1.68.86,2.39,1.52a.54.54,0,0,1,.16.22c.09.32-.52.71-.74.87a8.3,8.3,0,0,0-3.31,7.18c-.07-.89,1.12-2.34,1.65-3,.94-1.13,3.71-3.89,5.23-2.12a2.23,2.23,0,0,1,.43,1.13c.16,1,.08,1.94.17,2.91A5,5,0,0,0,27.23,20a3.81,3.81,0,0,0,.38.72l.24.33.14.16a.73.73,0,0,0,.14.16h0a.33.33,0,0,0,0-.14.29.29,0,0,0,0-.16s0-.07,0-.11a1.29,1.29,0,0,1-.08-.39c0-.15,0-.3,0-.45a6.91,6.91,0,0,1,0-.91,9.12,9.12,0,0,1,.28-1.8,10.73,10.73,0,0,1,.6-1.73l.21-.43c.42-.84,1.26-2.05,2.34-1.7a9.16,9.16,0,0,1,5.43,4.78.41.41,0,0,1,0-.19.82.82,0,0,0,0-.22.5.5,0,0,1-.08-.2c0-.06,0-.13,0-.19l-.09-.42c-.07-.28-.14-.56-.23-.83a9.13,9.13,0,0,0-.69-1.57,7.42,7.42,0,0,0-.93-1.31A6.86,6.86,0,0,0,33,12a6.67,6.67,0,0,0-1.09-.48,4,4,0,0,1-.85-.26A12,12,0,0,1,33.65,11a15.82,15.82,0,0,0,2.82-.56,1.61,1.61,0,0,0,.29-.09,11.18,11.18,0,0,0,1.48-.6,10.74,10.74,0,0,0,1.38-.83,7.92,7.92,0,0,0,1.19-1,5,5,0,0,0,.51-.61,1.41,1.41,0,0,0,.14-.18A1.25,1.25,0,0,0,41.54,7l.05-.12s0,0,0,0a.63.63,0,0,0,0-.19S41.64,6.57,41.64,6.56Z"/><path class="cls-7" d="M41.64,6.5c-1.27,1.59-3.46,2.1-5.49,2.28a27.8,27.8,0,0,1-5.91-.09A15.57,15.57,0,0,0,30.07,0a16.93,16.93,0,0,1-3.48,8.31,1,1,0,0,1-.53.42,1,1,0,0,1-.61-.11A19.4,19.4,0,0,1,16.28.56a24.27,24.27,0,0,0,2.21,6,11.2,11.2,0,0,0,2.37,2.89c.76.63,1.68.85,2.39,1.52a.44.44,0,0,1,.16.22c.09.32-.52.71-.74.87a8.28,8.28,0,0,0-3.31,7.18c-.07-.89,1.12-2.35,1.65-3,.94-1.13,3.71-3.9,5.23-2.12a2.23,2.23,0,0,1,.43,1.12c.16,1,.08,2,.17,2.92a4.79,4.79,0,0,0,1.31,3,9.63,9.63,0,0,1,1-6.14c.42-.83,1.26-2,2.34-1.69a9.13,9.13,0,0,1,5.43,4.78,8.76,8.76,0,0,0-2-4.93A6.67,6.67,0,0,0,33,11.66a5.31,5.31,0,0,0-1.09-.48,4.66,4.66,0,0,1-.85-.26,11.46,11.46,0,0,1,2.62-.22,15.82,15.82,0,0,0,2.82-.56A9.1,9.1,0,0,0,41.64,6.5Z"/><path class="cls-8" d="M40.05,28.69c3.52-3.41,5.1-8.89,3.2-13.52a4.25,4.25,0,0,0-2.44-2.57,2.44,2.44,0,0,0-2.14.38,1.88,1.88,0,0,0-.6,1.85,2.92,2.92,0,0,0,.36,1.23,8.46,8.46,0,0,1,1.17,2.75,9.4,9.4,0,0,1-.07,3A54.67,54.67,0,0,1,38,27.27a4.08,4.08,0,0,0-.19,1.38.89.89,0,0,0,.35.69.84.84,0,0,0,.3.11A2.09,2.09,0,0,0,40.05,28.69Z"/><path class="cls-9" d="M32.46,12.11a16.72,16.72,0,0,0-1.86-.58c-.3-.1-.65-.29-.64-.6a.63.63,0,0,1,.19-.4c.65-.69,1.75-.57,2.69-.58a7.1,7.1,0,0,0,3-.75,15.08,15.08,0,0,1-5.48.26c-.39-.06-.85-.19-1-.57a1,1,0,0,1,0-.39c.07-.88.33-1.74.43-2.61a14.55,14.55,0,0,0,0-2.64A9.11,9.11,0,0,1,27,8.89a2.22,2.22,0,0,1-.71.38,2,2,0,0,1-1,0,6.45,6.45,0,0,1-1.53-.53,12.72,12.72,0,0,1-2.84-2.13,25.58,25.58,0,0,1-2.92-3,6.24,6.24,0,0,1,.75,2.08,6.58,6.58,0,0,0,1.81,2.62c.92.85,2,1.49,3,2.28.29.25.61.56.56.94-.09.62-.84,1-1.29,1.38a6.06,6.06,0,0,0-2.37,3.5c.07-.35.85-1,1.12-1.23a10.79,10.79,0,0,1,1.4-1.2c.78-.54,2.08-1.37,3.07-1a2.21,2.21,0,0,1,1.1,1.49,8.38,8.38,0,0,1,.37,3.3,12.68,12.68,0,0,1,1-3.52,3.56,3.56,0,0,1,1-1.42,2.72,2.72,0,0,1,2.24-.38,7.87,7.87,0,0,1,2.14,1A2.27,2.27,0,0,0,32.46,12.11Z"/><path class="cls-4" d="M28.32,9.83a3.49,3.49,0,0,0-.48-.68l-1-.3-.69-.22a.88.88,0,0,0-.35-.1,2,2,0,0,0-.24.05,1.65,1.65,0,0,0-.52.2,1.4,1.4,0,0,0-.29,2.14,1.87,1.87,0,0,0,.68.33,3.59,3.59,0,0,0,.79.17,3.49,3.49,0,0,0,1.16-.09,1.48,1.48,0,0,0,.93-.48A1.06,1.06,0,0,0,28.32,9.83Z"/><path class="cls-7" d="M29.61,7.42a7,7,0,0,0-.31,1.86,2.25,2.25,0,0,1-.45,1.52c-.92.81-2.83.66-3.31-.58a2,2,0,0,1-.11-.72,12,12,0,0,1,.39-3.26c.11-.41.2-.83.35-1.24a2.12,2.12,0,0,1,.29-.63c.05-.07.21-.41.27-.48a.7.7,0,0,1,.41-.28l.15-.07a1.46,1.46,0,0,1,.44-.16A3.13,3.13,0,0,1,30,3.76a1.36,1.36,0,0,1,.54.55.36.36,0,0,1,0,.11,0,0,0,0,1,0,0s0,.07,0,.11C30.72,5.49,29.87,6.56,29.61,7.42Z"/><path class="cls-10" d="M30.58,4.56s0-.08,0-.11a0,0,0,0,0,0,0,.36.36,0,0,0,0-.11A1.36,1.36,0,0,0,30,3.76a3.09,3.09,0,0,0-1.81-.42,3,3,0,0,1,1.45.42,1.39,1.39,0,0,1,.55.55l0,.11a0,0,0,0,1,0,0s0,.07,0,.11c.14.93-.71,2-1,2.86a7,7,0,0,0-.31,1.86,2.15,2.15,0,0,1-.45,1.52,2.18,2.18,0,0,1-1.28.5,2.29,2.29,0,0,0,1.64-.5,2.25,2.25,0,0,0,.45-1.52,7,7,0,0,1,.31-1.86C29.87,6.56,30.72,5.49,30.58,4.56Z"/><path class="cls-6" d="M26,10.22a2,2,0,0,1-.11-.72,12.37,12.37,0,0,1,.38-3.26c.07-.23.13-.47.19-.71a.87.87,0,0,1,.19-.37.51.51,0,0,1,.45,0c.34.1.63.28,1,.35a5.13,5.13,0,0,0,1.1.11c.32,0,1-.13,1.08-.52a3.68,3.68,0,0,1-.47,0c-.32,0-.63-.11-.95-.13a.6.6,0,0,0-.23,0,1.86,1.86,0,0,0-.25.1.37.37,0,0,1-.25,0c-.07,0-.12-.13-.17-.19a3,3,0,0,0-.42-.38l-.28-.15a.34.34,0,0,1-.15-.14c-.05-.12,0-.23.1-.32a.7.7,0,0,1,.41-.28l.15-.07a1.37,1.37,0,0,1,.44-.16l.37,0a3.57,3.57,0,0,0-.86,0,1.46,1.46,0,0,0-.44.16l-.15.07c-.59.16-.8.88-1,1.39s-.24.83-.35,1.24a12,12,0,0,0-.39,3.26,2,2,0,0,0,.11.72,2,2,0,0,0,2.09,1.07A1.82,1.82,0,0,1,26,10.22Z"/><path class="cls-11" d="M30.58,4.56a.88.88,0,0,1-.51.78,1.91,1.91,0,0,1-1,.15,6.2,6.2,0,0,1-1.28-.2A2.38,2.38,0,0,1,27.07,5a1,1,0,0,1-.44-.64.54.54,0,0,1,0-.31,1,1,0,0,1,.32-.4,1.33,1.33,0,0,1,.49-.21l.26-.06A3.13,3.13,0,0,1,30,3.76a1.36,1.36,0,0,1,.54.55.36.36,0,0,1,0,.11,0,0,0,0,1,0,0S30.57,4.52,30.58,4.56Z"/><path class="cls-8" d="M37.89,30.68a.58.58,0,0,0-.45-.28.92.92,0,0,0-.71.45c-.38.5-.67,1.07-1.08,1.55s-.78.66-.83,1.27a.31.31,0,0,0,0,.19.4.4,0,0,0,.32.18,2.87,2.87,0,0,0,2.9-2.92A1,1,0,0,0,37.89,30.68Z"/><path class="cls-12" d="M65.39,55.91c0-.12-.09-1.23-.23-1.22l0,0a1.2,1.2,0,0,0-.15.52c0,.09,0,.21-.12.21s-.09-.08-.16-.09l-.11-.15c-1.54-1.84-4.91-2.56-7.41-3.82A9.56,9.56,0,0,1,56,50.74c-.16-.11-.3-.22-.45-.34-.44-.38-.84-.78-1.31-1.14a13.44,13.44,0,0,0-4.82-2.77c-4.34-1.21-9.66.25-12.88,2.57a22.15,22.15,0,0,0-4.69,4.55,6.63,6.63,0,0,0-.55.83c-.08.13-.19.57-.41.47-.05,0-.08-.06-.13-.07-.34-.09-.37.62-.39.81s-.07.42-.08.64,0,.5,0,.75a7.48,7.48,0,0,0,.14,1.24c.1.55.2,1.11.34,1.65a6.74,6.74,0,0,0,1.5,2.89,11.47,11.47,0,0,0,5.43,2.94,28.1,28.1,0,0,0,10.59.53,31.93,31.93,0,0,0,4.41-.92c.6-.17,1.13-.39,1.71-.56A44.82,44.82,0,0,0,60,62.67a11.65,11.65,0,0,0,4.07-2.79,5.38,5.38,0,0,0,1-1.66,5.32,5.32,0,0,0,.25-1.31A5.57,5.57,0,0,0,65.39,55.91Z"/><path class="cls-13" d="M60,60.87a46.46,46.46,0,0,1-5,2l-.54.17c-.57.17-1.1.39-1.7.56a32,32,0,0,1-4.41.93h0A28.2,28.2,0,0,1,37.74,64a13.24,13.24,0,0,1-4.47-2.09,6,6,0,0,1-2-2.42c-1-2.46-1.35-5.05.61-7.65a22.39,22.39,0,0,1,4.69-4.55c3.22-2.32,8.54-3.78,12.88-2.57a13.63,13.63,0,0,1,4.83,2.77c.46.36.85.77,1.31,1.14a5.12,5.12,0,0,0,.44.34,12.24,12.24,0,0,0,1.14.67c.74.37,1.55.7,2.38,1,2,.76,3.93,1.5,5,2.79C66.66,55.9,64.08,59.07,60,60.87Z"/><path class="cls-14" d="M36.11,61.48a5.76,5.76,0,0,1-2.54-2.59c-1.08-2.61-.93-4.7.48-6.57a19.51,19.51,0,0,1,4.09-4c2.43-1.75,6.73-3.17,10.44-2.13a8.19,8.19,0,0,1,1.87.79A19.31,19.31,0,0,1,52.4,48.4l.26.2a8.39,8.39,0,0,1,.65.56,10.35,10.35,0,0,0,1,.8,6,6,0,0,0,.56.35,21.73,21.73,0,0,0,3,1.33,21.52,21.52,0,0,1,2.75,1.23,4.88,4.88,0,0,1,1.32,1.05c1.8,2.14-.65,4.62-3.69,6a20,20,0,0,1-1.91.76l-1.69.59C49.77,63,43.74,64,39,62.65A12.11,12.11,0,0,1,36.11,61.48Z"/><path class="cls-13" d="M60.22,54.52a4.5,4.5,0,0,0-1.65-1.33,9.34,9.34,0,0,0-2.33-.67,10,10,0,0,0-1.46-.05,8.3,8.3,0,0,0-3.15.69,3.15,3.15,0,0,0-1.5.91,4.54,4.54,0,0,1-.89,1.24,17.61,17.61,0,0,1-4.05,2.79c-1.19.61-3.65,1.25-3.58,2.3,0,.36.37.55.79.75a5.81,5.81,0,0,0,1.28.57,15.2,15.2,0,0,0,3.28.22,22,22,0,0,0,5.49-1.06A36.57,36.57,0,0,0,57.83,59a5.82,5.82,0,0,0,2.9-2.21A2.19,2.19,0,0,0,60.22,54.52Z"/><path class="cls-15" d="M46.54,61.16A12.38,12.38,0,0,1,43.87,61a2.7,2.7,0,0,1-.74-.31,3.55,3.55,0,0,0-.39-.2l-.28-.14a8.08,8.08,0,0,1,1.95-1c.42-.17.81-.33,1.14-.5a17.72,17.72,0,0,0,4.23-2.92,5.12,5.12,0,0,0,1-1.33l0-.09a3.43,3.43,0,0,1,1-.54l.07,0a7.32,7.32,0,0,1,2.87-.63h.46a7.45,7.45,0,0,1,.88,0,8,8,0,0,1,2.09.61A3.63,3.63,0,0,1,59.6,55c.62.8.54,1.23.42,1.49s-.68,1-2.52,1.83a36.69,36.69,0,0,1-5.26,1.79l-.4.11a19.81,19.81,0,0,1-4.89.92Z"/><path class="cls-13" d="M47.46,47.16a7,7,0,0,1,2.31,1,3.56,3.56,0,0,1,1.16,1.35,2,2,0,0,1,.08.84,2.6,2.6,0,0,1-1.18,1.82,3.53,3.53,0,0,1-1.59.86,13.92,13.92,0,0,0-2.14.52,22.79,22.79,0,0,0-4.83,2.33c-1.06.69-2.17,2.11-4,2.07A2,2,0,0,1,36,57.45a3.85,3.85,0,0,1-1-.75,3.19,3.19,0,0,1-.39-1.89c0-1.08,1-2.16,1.85-3.16a17.35,17.35,0,0,1,3.17-3.11,8.83,8.83,0,0,1,3.84-1.68A9.94,9.94,0,0,1,47.46,47.16Z"/><path class="cls-15" d="M37.3,57.12a1.3,1.3,0,0,1-.86-.32l-.36-.23a2,2,0,0,1-.44-.32,2.49,2.49,0,0,1-.24-1.41,5.37,5.37,0,0,1,1.48-2.46l.18-.23a17.26,17.26,0,0,1,3-3,8,8,0,0,1,3.49-1.53,7.66,7.66,0,0,1,1.09-.08,10.31,10.31,0,0,1,2.58.36,6.57,6.57,0,0,1,2.05.83,2.86,2.86,0,0,1,.88,1,1,1,0,0,1,0,.5c0,.38-.19.7-.9,1.27l0,0a2.72,2.72,0,0,1-1.18.66l-.16,0a14.23,14.23,0,0,0-2.1.51,23.68,23.68,0,0,0-5,2.42,10.53,10.53,0,0,0-.89.68,4.23,4.23,0,0,1-2.6,1.27Z"/><path class="cls-8" d="M52.7,58.72a10.3,10.3,0,0,1-2.47.76,5,5,0,0,1-2.52-.16c-.77-.3-1.1-.79-2.06-1a3.16,3.16,0,0,0-2.17.31c-.69.37-1.33.63-2.07,1s-1.27.62-2,.89a6.72,6.72,0,0,1-2,.55c-.32,0-.64-.07-.73-.24a.39.39,0,0,1,0-.26c.22-.74,1.11-1.41,1.94-2s1.68-1.33,1.77-2.08a.67.67,0,0,0-.12-.56,2.08,2.08,0,0,0-.6-.26,2.46,2.46,0,0,1-.89-.64,1.48,1.48,0,0,1,.08-1.77,7.63,7.63,0,0,1,1.25-1.39A12.5,12.5,0,0,1,44,49.38,4.66,4.66,0,0,1,45.23,49a1.81,1.81,0,0,1,2.05,1A2,2,0,0,1,47,51.3c-.25.48-.63.93-.59,1.43a.45.45,0,0,0,.18.36,1.24,1.24,0,0,0,.73.15,7.15,7.15,0,0,0,3.18-1.19,23.1,23.1,0,0,0,3-1.92c.63-.47,1.68-1.27,1.33-1.84a3.86,3.86,0,0,0,1.83,1.29l1.38.56a7.14,7.14,0,0,1-.79.11,9.9,9.9,0,0,0-1.22.31,16.75,16.75,0,0,0-2.29.88,13.28,13.28,0,0,0-3.56,2.4c-.47.44-1,1.19-.07,1.43a2.73,2.73,0,0,0,1,0,33.2,33.2,0,0,1,3.44-.68c1.17-.1,2.48.2,2.58.86.06.41-.37.83-.82,1.2l-.33.25A15.88,15.88,0,0,1,52.7,58.72Z"/><path class="cls-16" d="M41.34,57.85c-.25-.29.21-.88.26-1.25A1.77,1.77,0,0,0,41.12,55a2.05,2.05,0,0,0-.82-.45.58.58,0,0,1-.43-.55c0-.5.76-1,1.08-1.34a11.3,11.3,0,0,1,3.48-2.23,3.66,3.66,0,0,1,.93-.29h.18a1,1,0,0,1,.58.15,2.85,2.85,0,0,1-.19.44c0,.1-.11.19-.17.29a3,3,0,0,0-.55,1.78,1.6,1.6,0,0,0,.67,1.22,2.4,2.4,0,0,0,1,.36,4.73,4.73,0,0,1,1,.15c.47.23.44.67.67,1a1.94,1.94,0,0,0,1.2.81,3.12,3.12,0,0,0,.63.07,4.47,4.47,0,0,0,.89-.1c.45-.08.88-.19,1.3-.29s.8-.19,1.2-.26.72-.2,1,0-.62.75-.86.89a15.12,15.12,0,0,1-1.71.85,8.67,8.67,0,0,1-2.19.68,5,5,0,0,1-.85.07,2.88,2.88,0,0,1-1-.15,3.42,3.42,0,0,1-.59-.32,4.39,4.39,0,0,0-1.7-.72,4.73,4.73,0,0,0-.9-.09,4.23,4.23,0,0,0-2.06.52,1.9,1.9,0,0,1-1.34.36A.42.42,0,0,1,41.34,57.85Z"/><path class="cls-14" d="M52.38,54.13c.26-.16.47-.4.33-.57a.7.7,0,0,0-.63-.14.79.79,0,0,0-.55.32.52.52,0,0,0,0,.3c0,.11,0,.22,0,.34s-.07.25.05.31.09-.06.13-.1a.67.67,0,0,1,.2-.17C52.06,54.32,52.23,54.23,52.38,54.13Z"/><path class="cls-16" d="M52.51,53.84l.07-.05c.11-.09,0-.21-.12-.23a.45.45,0,0,0-.33.09c-.06.06,0,.15-.05.22a.51.51,0,0,0,0,.27s.19-.14.21-.16Z"/><path class="cls-14" d="M54.88,53.77c.25-.17.47-.4.33-.58a.74.74,0,0,0-.64-.14.77.77,0,0,0-.54.33.52.52,0,0,0,0,.3c0,.11,0,.22,0,.33s-.07.26.05.32.09-.07.12-.11a1.12,1.12,0,0,1,.2-.17C54.56,54,54.73,53.86,54.88,53.77Z"/><path class="cls-16" d="M55,53.52l.06-.05c.11-.09,0-.21-.12-.23a.45.45,0,0,0-.33.09c-.06.07,0,.15,0,.22a.63.63,0,0,0,0,.27s.19-.14.21-.16Z"/><path class="cls-14" d="M57.21,54c.3-.13.6-.34.53-.54s-.28-.23-.54-.22a1,1,0,0,0-.64.26.75.75,0,0,0-.14.3,3.37,3.37,0,0,0-.1.34c0,.09-.16.25-.08.32s.11-.05.16-.09l.26-.14C56.83,54.1,57,54,57.21,54Z"/><path class="cls-16" d="M57.52,53.67l.08-.05c.13-.07.1-.21-.05-.24a.45.45,0,0,0-.34.06c-.08.05-.09.14-.12.21a.66.66,0,0,0,0,.27,1.17,1.17,0,0,1,.25-.13Z"/><path class="cls-14" d="M58.75,55.09a1.37,1.37,0,0,0,.94-.3c.11-.14,0-.31-.17-.38a1.14,1.14,0,0,0-.73,0,2,2,0,0,0-.41.22l-.42.27c-.11.08-.37.17-.38.27a.4.4,0,0,0,.21,0l.33,0Z"/><path class="cls-16" d="M59.24,54.94h.11c.17,0,.29-.15.24-.23a.34.34,0,0,0-.3-.08,1.15,1.15,0,0,0-.32.14,2,2,0,0,0-.34.22A1.77,1.77,0,0,1,59,55Z"/><path class="cls-14" d="M58.31,56.57a1.42,1.42,0,0,0,1,.08c.23-.09.35-.26.29-.4s-.27-.24-.53-.25a2.92,2.92,0,0,0-.51,0l-.59.09a1.92,1.92,0,0,0-.56.1s.11,0,.18.05l.28.08Z"/><path class="cls-16" d="M58.94,56.4l.08,0a.44.44,0,0,0,.43-.08c0-.07,0-.15-.08-.19a1.38,1.38,0,0,0-.36,0l-.48,0a.8.8,0,0,1,.22.13Z"/><path class="cls-14" d="M56.85,57.86a1,1,0,0,0,.84.26c.26,0,.47-.2.49-.35s-.12-.28-.34-.34a2.54,2.54,0,0,0-.49,0l-.58,0a2.11,2.11,0,0,0-.56,0s.08.06.13.09a.62.62,0,0,1,.21.13C56.66,57.66,56.75,57.77,56.85,57.86Z"/><path class="cls-16" d="M57.49,57.75l0,0c.07.09.31.08.43,0a.13.13,0,0,0,0-.21,1.14,1.14,0,0,0-.31-.09c-.14,0-.3,0-.45-.06,0,0,.12.15.13.16Z"/><path class="cls-14" d="M54.85,58.84a.73.73,0,0,0,.69.37.8.8,0,0,0,.6-.28c.08-.15,0-.31-.19-.4a2.69,2.69,0,0,0-.45-.11l-.53-.1a1.55,1.55,0,0,0-.53-.08s.05.07.1.11a.54.54,0,0,1,.14.16A3.41,3.41,0,0,1,54.85,58.84Z"/><path class="cls-16" d="M55.45,58.82l0,.06c.05.09.29.1.42,0s.13-.15.07-.2a.72.72,0,0,0-.28-.12,2.74,2.74,0,0,0-.43-.08s.09.15.1.17Z"/><path class="cls-14" d="M49.9,60.46c-.13.2-.17.45.09.57a1,1,0,0,0,.71,0c.22-.1.33-.27.3-.41a.56.56,0,0,0-.18-.26c-.1-.09-.19-.19-.28-.28s-.12-.23-.27-.26,0,.08-.05.12a.53.53,0,0,1-.07.2C50.08,60.23,50,60.34,49.9,60.46Z"/><path class="cls-16" d="M50.34,60.67l0,.06c-.05.1.11.19.28.17a.33.33,0,0,0,.26-.16c0-.07-.06-.14-.1-.2a1.14,1.14,0,0,0-.22-.22s-.09.16-.1.19Z"/><path class="cls-14" d="M52.67,59.65a.48.48,0,0,0,.45.49,1,1,0,0,0,.69-.18.27.27,0,0,0,0-.42,1.17,1.17,0,0,0-.35-.19l-.44-.19c-.12,0-.27-.18-.44-.17s0,.08,0,.12a.37.37,0,0,1,0,.18C52.7,59.41,52.67,59.53,52.67,59.65Z"/><path class="cls-16" d="M53.27,59.74v.06c0,.1.19.16.35.12s.2-.11.19-.18-.11-.12-.18-.17a1.81,1.81,0,0,0-.31-.18s0,.17,0,.19A.88.88,0,0,1,53.27,59.74Z"/><path class="cls-14" d="M47,60.31c-.3.14-.58.35-.5.54s.3.23.56.21a.88.88,0,0,0,.62-.27.58.58,0,0,0,.13-.3c0-.11,0-.22.07-.34s.15-.25.06-.32-.11.05-.16.09a.82.82,0,0,1-.24.15C47.33,60.16,47.14,60.23,47,60.31Z"/><path class="cls-16" d="M47.19,60.58l-.08.05c-.12.08-.07.21.08.24a.49.49,0,0,0,.34-.07c.08-.06.07-.15.09-.22a.62.62,0,0,0,0-.27s-.21.13-.24.15Z"/><path class="cls-14" d="M45,59.53c-.35.08-.72.24-.77.44s.15.29.39.32a1.13,1.13,0,0,0,.71-.15,1.27,1.27,0,0,0,.29-.27l.26-.33c.07-.08.27-.22.23-.31a.4.4,0,0,0-.19.07,2.26,2.26,0,0,1-.31.1Z"/><path class="cls-16" d="M44.9,59.93l-.1,0c-.17,0-.24.17-.15.25a.45.45,0,0,0,.33,0,1.06,1.06,0,0,0,.27-.18,1.48,1.48,0,0,0,.25-.25,2.55,2.55,0,0,1-.32.07Z"/><path class="cls-14" d="M48.11,51.67a1.55,1.55,0,0,1,1-.19c.22.05.32.22.24.36a.83.83,0,0,1-.57.32,2.9,2.9,0,0,1-.51,0l-.58,0c-.16,0-.45,0-.55,0a.42.42,0,0,1,.19-.07,1.48,1.48,0,0,0,.29-.12C47.79,51.85,47.94,51.75,48.11,51.67Z"/><path class="cls-16" d="M48.62,51.59l.09,0c.15-.06.36,0,.4.07s-.06.15-.17.19a1.16,1.16,0,0,1-.37,0,3.39,3.39,0,0,1-.46,0,1.66,1.66,0,0,0,.27-.13Z"/><path class="cls-14" d="M48.74,50.23a1.55,1.55,0,0,1,1-.2c.22.06.32.22.24.37a.79.79,0,0,1-.57.31,2.18,2.18,0,0,1-.51,0l-.58,0c-.15,0-.45,0-.55,0s.11,0,.19-.07a1.48,1.48,0,0,0,.29-.12C48.42,50.41,48.57,50.31,48.74,50.23Z"/><path class="cls-16" d="M49.17,50.15l.09,0c.15-.06.36,0,.39.07s0,.15-.16.19a1.16,1.16,0,0,1-.37,0,3.39,3.39,0,0,1-.46,0s.24-.11.27-.12Z"/><path class="cls-14" d="M48.41,48.88a1.34,1.34,0,0,1,.93-.31c.24,0,.4.16.39.31s-.21.3-.45.37a3,3,0,0,1-.52.09l-.59,0a1.56,1.56,0,0,1-.56,0s.09-.07.16-.1A2,2,0,0,0,48,49.2C48.16,49.09,48.27,49,48.41,48.88Z"/><path class="cls-16" d="M48.92,48.7l.08-.05a.41.41,0,0,1,.42,0c0,.06,0,.15-.11.2A1.35,1.35,0,0,1,49,49a3.85,3.85,0,0,1-.48,0,1.88,1.88,0,0,0,.24-.14Z"/><path class="cls-14" d="M46.45,48a.65.65,0,0,1,.52-.54.76.76,0,0,1,.66.1c.14.11.12.28,0,.42a1.74,1.74,0,0,1-.38.23l-.47.24a1.29,1.29,0,0,1-.47.23c0-.05,0-.08.05-.13a.46.46,0,0,0,.08-.19C46.44,48.23,46.43,48.11,46.45,48Z"/><path class="cls-16" d="M46.7,47.71l0-.07c0-.1.24-.17.39-.14s.17.11.13.18-.15.13-.23.18a3.39,3.39,0,0,1-.38.2s0-.17,0-.19Z"/><path class="cls-14" d="M43.88,48.24c-.2-.15-.33-.38-.12-.56a1,1,0,0,1,.69-.17c.24,0,.41.16.43.3a.67.67,0,0,1-.08.3c0,.12-.11.23-.16.34s0,.26-.16.32-.07-.06-.09-.1a.7.7,0,0,0-.14-.16Z"/><path class="cls-16" d="M44.19,47.88l-.07-.05c-.1-.06,0-.2.14-.24a.38.38,0,0,1,.32,0c.06,0,0,.14.05.21a.88.88,0,0,1-.06.27s-.18-.11-.21-.12Z"/><path class="cls-14" d="M41.65,49.09c-.29-.11-.54-.29-.44-.49a.71.71,0,0,1,.59-.28.75.75,0,0,1,.6.19.44.44,0,0,1,.08.29c0,.11,0,.22,0,.33s.11.24,0,.33-.1-.05-.15-.08a.71.71,0,0,0-.23-.12C42,49.19,41.81,49.15,41.65,49.09Z"/><path class="cls-16" d="M41.84,48.72l-.09,0c-.14,0-.14-.18,0-.25a.52.52,0,0,1,.35,0c.09,0,.11.13.16.18a1.17,1.17,0,0,1,.1.26,1.15,1.15,0,0,0-.28-.07Z"/><path class="cls-14" d="M40,50.24c-.33-.06-.66-.19-.64-.4s.23-.29.49-.34a1,1,0,0,1,.68.11.56.56,0,0,1,.19.25l.17.31c0,.09.21.21.14.31a.32.32,0,0,1-.18-.06,1.15,1.15,0,0,0-.28-.08Z"/><path class="cls-16" d="M40,49.9l-.1,0a.13.13,0,0,1,0-.25.53.53,0,0,1,.35,0c.1,0,.14.11.19.17a.72.72,0,0,1,.16.24,1.25,1.25,0,0,0-.3,0Z"/><path class="cls-14" d="M37.15,53.1a1.47,1.47,0,0,1-1-.05c-.14-.11-.11-.29.06-.42a1.16,1.16,0,0,1,.7-.17,2.07,2.07,0,0,1,.46.11l.48.16c.13,0,.4.07.45.16a.53.53,0,0,1-.22,0l-.33.05Z"/><path class="cls-16" d="M36.79,52.84l-.1,0c-.17,0-.33-.06-.3-.16s.15-.13.27-.15a1.21,1.21,0,0,1,.34.06,2.22,2.22,0,0,1,.39.12s-.28.06-.32.06Z"/><path class="cls-14" d="M38.55,51.5c-.36,0-.76-.07-.84-.26s.08-.31.31-.4a1.14,1.14,0,0,1,.73,0,.91.91,0,0,1,.33.2l.32.25c.09.07.32.16.3.25a.3.3,0,0,1-.21,0,1.67,1.67,0,0,0-.32,0C39,51.48,38.76,51.5,38.55,51.5Z"/><path class="cls-16" d="M38.39,51.15h-.1c-.18,0-.28-.1-.21-.2a.42.42,0,0,1,.31-.11.88.88,0,0,1,.3.1,1.35,1.35,0,0,1,.31.19,1.87,1.87,0,0,0-.33,0Z"/><path class="cls-14" d="M37.41,54.79a1.4,1.4,0,0,1-.94.3c-.24,0-.4-.18-.37-.33s.23-.29.47-.36a3.09,3.09,0,0,1,.52-.07l.59,0a1.62,1.62,0,0,1,.57,0,.28.28,0,0,1-.17.09,1.1,1.1,0,0,0-.26.15C37.68,54.58,37.55,54.69,37.41,54.79Z"/><path class="cls-16" d="M36.94,54.66l-.09.05c-.13.07-.36,0-.41-.05s0-.15.13-.19a1.43,1.43,0,0,1,.37-.06h.47a1.57,1.57,0,0,0-.25.14Z"/><path class="cls-14" d="M38.76,55.94a1.06,1.06,0,0,1-.77.44c-.26,0-.49-.09-.54-.23s0-.3.26-.41a2,2,0,0,1,.47-.16l.56-.15a1.72,1.72,0,0,1,.54-.14c0,.05-.06.08-.11.11l-.18.18C38.9,55.7,38.84,55.82,38.76,55.94Z"/><path class="cls-16" d="M38.08,56,38,56a.43.43,0,0,1-.43.09.12.12,0,0,1-.06-.19.94.94,0,0,1,.3-.15,2.84,2.84,0,0,1,.44-.15s-.1.16-.12.18Z"/><path class="cls-12" d="M63.59,69.36c0-.12-.1-1.24-.24-1.22s0,0,0,0a1.06,1.06,0,0,0-.16.52c0,.09,0,.21-.12.21s-.09-.08-.15-.09l-.12-.15c-1.54-1.84-4.91-2.56-7.4-3.82a9.33,9.33,0,0,1-1.13-.66,5.37,5.37,0,0,1-.45-.35c-.45-.37-.85-.77-1.31-1.13a13.4,13.4,0,0,0-4.83-2.77c-4.34-1.22-9.66.24-12.88,2.57a22.39,22.39,0,0,0-4.69,4.55,7.33,7.33,0,0,0-.55.82c-.08.13-.19.58-.41.48a.54.54,0,0,0-.13-.07c-.34-.1-.37.61-.39.8s-.07.42-.08.65,0,.5,0,.74a7.36,7.36,0,0,0,.14,1.24c.11.56.2,1.11.35,1.66a6.72,6.72,0,0,0,1.49,2.89,11.61,11.61,0,0,0,5.43,2.94,28.35,28.35,0,0,0,10.6.53,30.54,30.54,0,0,0,4.41-.93c.59-.16,1.12-.38,1.7-.55a45,45,0,0,0,5.57-2.14,11.84,11.84,0,0,0,4.06-2.79,5.31,5.31,0,0,0,1-1.66,4.9,4.9,0,0,0,.25-1.31A5.62,5.62,0,0,0,63.59,69.36Z"/><path class="cls-13" d="M59.85,73.47a16.8,16.8,0,0,1-1.64.85,46.59,46.59,0,0,1-5.57,2.13c-.58.17-1.11.39-1.7.55a32,32,0,0,1-4.41.94,28.55,28.55,0,0,1-10.6-.54c-3.17-.88-5.62-2.47-6.46-4.5-1-2.46-1.36-5.05.6-7.65a21,21,0,0,1,3.2-3.38c.47-.4,1-.79,1.49-1.17,3.22-2.33,8.54-3.78,12.89-2.57.26.08.51.16.75.25a15,15,0,0,1,4.06,2.52c.47.36.87.76,1.31,1.14l.46.34a7.09,7.09,0,0,0,.75.45l.37.21c2.5,1.26,5.87,2,7.41,3.82C64.55,69,62.92,71.63,59.85,73.47Z"/><path class="cls-14" d="M34.3,74.93a5.73,5.73,0,0,1-2.54-2.6c-1.08-2.6-.93-4.69.49-6.56a19.27,19.27,0,0,1,4.09-4c2.42-1.76,6.72-3.17,10.43-2.13a8,8,0,0,1,1.87.79,17.58,17.58,0,0,1,2,1.38l.25.2a8.39,8.39,0,0,1,.65.56,10,10,0,0,0,1,.79q.26.18.57.36a22.29,22.29,0,0,0,3,1.33,19.67,19.67,0,0,1,2.75,1.23,4.75,4.75,0,0,1,1.32,1c1.8,2.15-.65,4.63-3.69,6a17.67,17.67,0,0,1-1.91.75l-1.69.59C48,76.45,41.93,77.41,37.19,76.1A12.72,12.72,0,0,1,34.3,74.93Z"/><path class="cls-13" d="M58.42,68a4.52,4.52,0,0,0-1.66-1.33A8.94,8.94,0,0,0,54.43,66a10,10,0,0,0-1.46,0,8.38,8.38,0,0,0-3.15.69,3.2,3.2,0,0,0-1.5.91,4.7,4.7,0,0,1-.89,1.24,17.54,17.54,0,0,1-4,2.79c-1.2.61-3.66,1.25-3.59,2.3,0,.36.37.55.79.75a6.42,6.42,0,0,0,1.29.57,15.77,15.77,0,0,0,3.27.22,22,22,0,0,0,5.49-1.07A36.16,36.16,0,0,0,56,72.49a5.88,5.88,0,0,0,2.9-2.21A2.21,2.21,0,0,0,58.42,68Z"/><path class="cls-15" d="M44.73,74.6a13.29,13.29,0,0,1-2.67-.2,3,3,0,0,1-.74-.31l-.39-.21a2.38,2.38,0,0,1-.28-.14,8.45,8.45,0,0,1,2-1c.42-.17.81-.33,1.15-.5A18.16,18.16,0,0,0,48,69.33,5.12,5.12,0,0,0,49,68l0-.09a3.8,3.8,0,0,1,1-.55l.07,0A7.32,7.32,0,0,1,53,66.71h.47a7.17,7.17,0,0,1,.87,0,8.58,8.58,0,0,1,2.1.6,3.6,3.6,0,0,1,1.36,1.1c.62.81.54,1.24.42,1.5s-.68,1-2.52,1.82a35.5,35.5,0,0,1-5.26,1.79l-.39.11a19.53,19.53,0,0,1-4.9.93Z"/><path class="cls-13" d="M45.65,60.6a7.08,7.08,0,0,1,2.31,1,3.57,3.57,0,0,1,1.17,1.34,1.87,1.87,0,0,1,.07.85A2.59,2.59,0,0,1,48,65.57a3.54,3.54,0,0,1-1.58.86,14,14,0,0,0-2.15.52,22.32,22.32,0,0,0-4.83,2.33c-1.06.69-2.17,2.11-4,2.07a2,2,0,0,1-1.29-.46,3.82,3.82,0,0,1-1-.74,3.2,3.2,0,0,1-.38-1.89c0-1.08,1-2.16,1.84-3.17A17.07,17.07,0,0,1,37.83,62a8.73,8.73,0,0,1,3.83-1.68A9.92,9.92,0,0,1,45.65,60.6Z"/><path class="cls-15" d="M35.49,70.56a1.36,1.36,0,0,1-.86-.31L34.27,70a1.49,1.49,0,0,1-.43-.33,2.51,2.51,0,0,1-.25-1.4,5.44,5.44,0,0,1,1.48-2.47l.19-.22a17.17,17.17,0,0,1,3-3,8.07,8.07,0,0,1,3.49-1.53A6.51,6.51,0,0,1,42.87,61a10,10,0,0,1,2.59.36,6.14,6.14,0,0,1,2,.83,2.93,2.93,0,0,1,.89,1,1.21,1.21,0,0,1,0,.5c0,.37-.19.7-.9,1.27l-.05,0a2.59,2.59,0,0,1-1.18.67l-.15,0A14,14,0,0,0,44,66.2a23.2,23.2,0,0,0-5,2.42,10.53,10.53,0,0,0-.89.68,4.19,4.19,0,0,1-2.59,1.26Z"/><path class="cls-8" d="M50.89,72.17a10.62,10.62,0,0,1-2.47.76,5,5,0,0,1-2.51-.16c-.77-.3-1.1-.79-2.07-1a3.16,3.16,0,0,0-2.17.32c-.69.37-1.32.63-2.06,1s-1.28.61-2,.88a6.5,6.5,0,0,1-2,.55c-.32,0-.64-.06-.73-.23a.39.39,0,0,1,0-.26c.23-.75,1.11-1.41,2-2s1.67-1.32,1.77-2.07a.65.65,0,0,0-.13-.56,2.14,2.14,0,0,0-.59-.26,2.54,2.54,0,0,1-.9-.64,1.48,1.48,0,0,1,.08-1.77,7.63,7.63,0,0,1,1.25-1.39,12.74,12.74,0,0,1,3.84-2.45,4.33,4.33,0,0,1,1.25-.38,1.82,1.82,0,0,1,2.06,1,2,2,0,0,1-.31,1.29c-.25.48-.63.93-.59,1.43a.47.47,0,0,0,.18.36,1.26,1.26,0,0,0,.73.15,7.28,7.28,0,0,0,3.18-1.19,24.21,24.21,0,0,0,3-1.92c.63-.47,1.69-1.27,1.33-1.84A3.9,3.9,0,0,0,54.82,63l1.37.55a5.39,5.39,0,0,1-.79.12,7.94,7.94,0,0,0-1.21.31,16.12,16.12,0,0,0-2.3.88,13.44,13.44,0,0,0-3.56,2.4c-.47.44-1,1.18-.06,1.43a2.73,2.73,0,0,0,1,0A31,31,0,0,1,52.72,68c1.17-.1,2.49.2,2.58.86.06.41-.36.83-.82,1.2-.11.08-.21.17-.33.25A15.88,15.88,0,0,1,50.89,72.17Z"/><path class="cls-16" d="M39.53,71.3c-.25-.29.21-.88.26-1.25a1.74,1.74,0,0,0-.48-1.56,2,2,0,0,0-.82-.45.56.56,0,0,1-.42-.55c0-.5.75-1,1.07-1.34a11.23,11.23,0,0,1,3.49-2.23,3.15,3.15,0,0,1,.92-.29h.18a1,1,0,0,1,.58.15,1.87,1.87,0,0,1-.19.43c0,.1-.11.2-.17.3a2.86,2.86,0,0,0-.54,1.78,1.63,1.63,0,0,0,.66,1.22,2.4,2.4,0,0,0,1,.36,4.73,4.73,0,0,1,1,.15c.46.22.43.67.66,1a1.92,1.92,0,0,0,1.2.8,2.53,2.53,0,0,0,.63.07,5.44,5.44,0,0,0,.89-.09c.45-.08.88-.19,1.3-.29s.8-.19,1.21-.26.71-.2,1,0-.61.75-.85.89a16,16,0,0,1-1.71.85,8.8,8.8,0,0,1-2.19.68,5.15,5.15,0,0,1-.86.07,2.91,2.91,0,0,1-1-.15,4.28,4.28,0,0,1-.59-.32,4.46,4.46,0,0,0-1.7-.73,4.63,4.63,0,0,0-.9-.08,4.19,4.19,0,0,0-2,.52,1.93,1.93,0,0,1-1.35.36A.56.56,0,0,1,39.53,71.3Z"/><path class="cls-14" d="M50.57,67.58c.26-.17.47-.4.33-.58a.76.76,0,0,0-.63-.14.75.75,0,0,0-.54.33.52.52,0,0,0,0,.3l0,.33c0,.09-.06.26.05.32s.09-.07.13-.11a1.18,1.18,0,0,1,.2-.17C50.25,67.76,50.42,67.68,50.57,67.58Z"/><path class="cls-16" d="M50.71,67.29l.07-.06c.11-.08,0-.2-.13-.22a.46.46,0,0,0-.33.09c-.06.06,0,.15,0,.21a.8.8,0,0,0,0,.27s.19-.14.21-.16Z"/><path class="cls-14" d="M53.07,67.21c.26-.16.47-.39.33-.57a.73.73,0,0,0-.63-.14.76.76,0,0,0-.55.33.52.52,0,0,0,0,.3c0,.11,0,.22,0,.33s-.07.26.05.32.09-.07.13-.11a.85.85,0,0,1,.2-.17C52.75,67.4,52.92,67.31,53.07,67.21Z"/><path class="cls-16" d="M53.2,67l.07,0c.11-.09,0-.21-.13-.23a.46.46,0,0,0-.33.09c-.06.06,0,.15-.05.22a.84.84,0,0,0,0,.27,1.4,1.4,0,0,1,.22-.16Z"/><path class="cls-14" d="M55.4,67.41c.31-.14.6-.34.54-.54s-.29-.23-.55-.22a1,1,0,0,0-.64.26.71.71,0,0,0-.14.29,3.37,3.37,0,0,1-.1.34c0,.1-.16.25-.07.33a.28.28,0,0,0,.16-.09,1.5,1.5,0,0,1,.25-.15Z"/><path class="cls-16" d="M55.71,67.12l.08-.05c.14-.08.1-.21,0-.25a.53.53,0,0,0-.35.07c-.08,0-.09.14-.12.21a.63.63,0,0,0,0,.27,1.86,1.86,0,0,1,.25-.14Z"/><path class="cls-14" d="M56.94,68.54a1.41,1.41,0,0,0,.94-.3c.11-.14,0-.31-.17-.39a1.22,1.22,0,0,0-.73,0,2.27,2.27,0,0,0-.41.22l-.41.27c-.11.08-.38.17-.39.27a.39.39,0,0,0,.21,0l.33,0C56.52,68.54,56.73,68.55,56.94,68.54Z"/><path class="cls-16" d="M57.43,68.39h.11c.17,0,.3-.14.24-.22a.31.31,0,0,0-.3-.08,1,1,0,0,0-.31.14,1.66,1.66,0,0,0-.34.22,2.91,2.91,0,0,1,.32,0Z"/><path class="cls-14" d="M56.5,70a1.37,1.37,0,0,0,1,.07c.23-.08.35-.26.3-.4a.6.6,0,0,0-.53-.24,3,3,0,0,0-.52,0l-.59.09a2,2,0,0,0-.56.1.32.32,0,0,0,.18,0l.28.08C56.2,69.87,56.35,70,56.5,70Z"/><path class="cls-16" d="M57.14,69.84l.07,0a.42.42,0,0,0,.43-.08c.06-.06,0-.15-.08-.18a1.38,1.38,0,0,0-.36,0l-.47,0a2.39,2.39,0,0,1,.22.12Z"/><path class="cls-14" d="M55,71.31a1,1,0,0,0,.85.25.58.58,0,0,0,.49-.34c0-.15-.12-.28-.35-.34a1.94,1.94,0,0,0-.49,0l-.58,0a1.75,1.75,0,0,0-.56,0s.08.06.14.09a.58.58,0,0,1,.2.13C54.86,71.11,54.94,71.22,55,71.31Z"/><path class="cls-16" d="M55.68,71.2l0,0a.41.41,0,0,0,.44,0,.12.12,0,0,0,0-.2.87.87,0,0,0-.31-.09c-.14,0-.3,0-.45-.06,0,0,.12.14.13.16Z"/><path class="cls-14" d="M53,72.29a.81.81,0,0,0,1.29.08c.08-.14,0-.3-.19-.39a1.42,1.42,0,0,0-.44-.11l-.54-.1a1.49,1.49,0,0,0-.52-.08s0,.07.09.1a.67.67,0,0,1,.14.16C52.94,72.06,53,72.18,53,72.29Z"/><path class="cls-16" d="M53.64,72.27l0,0c.06.09.29.1.42,0s.13-.14.08-.2a1,1,0,0,0-.29-.11c-.13,0-.28-.06-.43-.09,0,0,.09.15.1.17Z"/><path class="cls-14" d="M48.09,73.91c-.13.2-.17.45.09.57a1,1,0,0,0,.72,0c.21-.1.33-.27.29-.41a.56.56,0,0,0-.18-.26l-.27-.28c-.08-.07-.12-.24-.28-.26s0,.08,0,.12a.46.46,0,0,1-.08.19C48.27,73.67,48.17,73.79,48.09,73.91Z"/><path class="cls-16" d="M48.54,74.11l0,.07c0,.09.11.18.28.17s.24-.09.26-.16S49,74.05,49,74a1,1,0,0,0-.23-.22s-.09.16-.1.18Z"/><path class="cls-14" d="M50.87,73.1a.46.46,0,0,0,.44.49,1,1,0,0,0,.69-.18A.28.28,0,0,0,52,73a1.28,1.28,0,0,0-.35-.19l-.44-.18c-.12,0-.27-.18-.44-.17s0,.07,0,.11a.67.67,0,0,1,0,.19C50.89,72.86,50.87,73,50.87,73.1Z"/><path class="cls-16" d="M51.47,73.19a.13.13,0,0,0,0,.06c0,.1.19.16.35.12s.2-.11.19-.18-.11-.12-.17-.17a1.65,1.65,0,0,0-.32-.18s0,.17,0,.19A.88.88,0,0,0,51.47,73.19Z"/><path class="cls-14" d="M45.16,73.76c-.3.14-.59.35-.51.54s.3.23.56.21a.92.92,0,0,0,.63-.27.6.6,0,0,0,.12-.3c0-.11,0-.22.08-.34s.14-.25.05-.33-.1.06-.15.1a1,1,0,0,1-.25.15Z"/><path class="cls-16" d="M45.38,74l-.07,0c-.13.08-.07.21.07.24a.48.48,0,0,0,.34-.08c.08,0,.08-.14.1-.21a.82.82,0,0,0,0-.27,1.08,1.08,0,0,1-.24.14Z"/><path class="cls-14" d="M43.18,73c-.35.08-.72.23-.76.44s.14.29.38.32a1.25,1.25,0,0,0,.72-.15,1.24,1.24,0,0,0,.28-.28c.09-.1.17-.21.26-.32s.28-.22.24-.31-.13,0-.2.06a1.51,1.51,0,0,1-.3.1C43.59,72.9,43.38,72.93,43.18,73Z"/><path class="cls-16" d="M43.1,73.37l-.11,0c-.17,0-.24.17-.15.24a.37.37,0,0,0,.33,0,.83.83,0,0,0,.27-.17,1.18,1.18,0,0,0,.25-.25,2.55,2.55,0,0,1-.32.07Z"/><path class="cls-14" d="M46.3,65.12a1.55,1.55,0,0,1,1-.2c.22.06.32.22.24.37a.77.77,0,0,1-.56.31,2.29,2.29,0,0,1-.52,0l-.58,0c-.15,0-.44,0-.55,0s.12,0,.19-.07a1.48,1.48,0,0,0,.29-.12C46,65.3,46.14,65.2,46.3,65.12Z"/><path class="cls-16" d="M46.81,65l.09,0c.15-.07.36,0,.4.07s0,.15-.17.19a1.46,1.46,0,0,1-.37,0,3.54,3.54,0,0,1-.46,0,1.66,1.66,0,0,0,.27-.13Z"/><path class="cls-14" d="M46.93,63.67a1.61,1.61,0,0,1,1-.19c.22.06.32.22.24.37a.77.77,0,0,1-.56.31,2.27,2.27,0,0,1-.52,0l-.58,0c-.15,0-.44,0-.55,0s.12,0,.19-.07a2.52,2.52,0,0,0,.29-.12C46.61,63.86,46.77,63.76,46.93,63.67Z"/><path class="cls-16" d="M47.36,63.6l.09,0c.15-.06.36,0,.4.07s-.05.15-.16.19a1.2,1.2,0,0,1-.38,0,3.54,3.54,0,0,1-.46,0,1.66,1.66,0,0,0,.27-.13Z"/><path class="cls-14" d="M46.6,62.33a1.36,1.36,0,0,1,.93-.31c.24,0,.41.16.39.31s-.21.3-.45.37a2.17,2.17,0,0,1-.51.08l-.59.06a1.89,1.89,0,0,1-.57,0c0-.05.1-.06.16-.09a1.28,1.28,0,0,0,.25-.15C46.35,62.54,46.47,62.43,46.6,62.33Z"/><path class="cls-16" d="M47.11,62.15l.08,0a.39.39,0,0,1,.42,0c0,.06,0,.15-.1.2a2.2,2.2,0,0,1-.37.07,3.85,3.85,0,0,1-.48,0,1.2,1.2,0,0,0,.24-.15Z"/><path class="cls-14" d="M44.64,61.44a.66.66,0,0,1,.52-.54.82.82,0,0,1,.67.09.28.28,0,0,1,0,.43,1.74,1.74,0,0,1-.38.23l-.47.24a1.29,1.29,0,0,1-.47.23s0-.08.06-.13a.49.49,0,0,0,.07-.19C44.63,61.68,44.63,61.56,44.64,61.44Z"/><path class="cls-16" d="M44.9,61.15a.13.13,0,0,1,0-.06c0-.1.25-.17.4-.14s.16.11.13.17-.16.13-.24.19a3.36,3.36,0,0,1-.38.19s0-.16,0-.18A1,1,0,0,1,44.9,61.15Z"/><path class="cls-14" d="M42.08,61.69c-.2-.15-.34-.38-.13-.56a.89.89,0,0,1,.69-.17c.24,0,.41.16.43.3a.56.56,0,0,1-.08.3c-.05.11-.1.23-.16.34s0,.25-.16.32-.07-.06-.09-.1a.52.52,0,0,0-.14-.16C42.33,61.86,42.19,61.78,42.08,61.69Z"/><path class="cls-16" d="M42.38,61.33l-.07,0c-.1-.07,0-.2.14-.25a.44.44,0,0,1,.33,0c.06.05,0,.14,0,.21a.66.66,0,0,1-.06.27s-.18-.11-.2-.12Z"/><path class="cls-14" d="M39.84,62.53c-.28-.1-.54-.28-.44-.48a.78.78,0,0,1,.6-.29.74.74,0,0,1,.59.2.52.52,0,0,1,.09.29l0,.33c0,.09.11.24,0,.32s-.1,0-.14-.07a.84.84,0,0,0-.23-.12C40.19,62.64,40,62.59,39.84,62.53Z"/><path class="cls-16" d="M40,62.17l-.09,0c-.14,0-.13-.18,0-.25a.47.47,0,0,1,.35,0c.09,0,.12.12.16.18a.64.64,0,0,1,.1.26,1.87,1.87,0,0,0-.28-.08Z"/><path class="cls-14" d="M38.15,63.69c-.33-.06-.66-.19-.64-.4s.24-.3.49-.34a1,1,0,0,1,.68.1.79.79,0,0,1,.2.26l.16.31c0,.08.21.21.14.3s-.12,0-.17-.05a1.29,1.29,0,0,0-.28-.08Z"/><path class="cls-16" d="M38.18,63.35l-.09,0c-.16,0-.18-.17-.06-.25a.53.53,0,0,1,.35,0c.1,0,.14.11.2.17a.87.87,0,0,1,.15.24,2,2,0,0,0-.3-.06Z"/><path class="cls-14" d="M35.34,66.55a1.44,1.44,0,0,1-1,0c-.15-.11-.12-.29,0-.42a1.17,1.17,0,0,1,.71-.17,2.12,2.12,0,0,1,.45.11l.48.16c.13,0,.41.06.45.15a.39.39,0,0,1-.21,0,1.75,1.75,0,0,0-.33,0C35.75,66.44,35.55,66.5,35.34,66.55Z"/><path class="cls-16" d="M35,66.29l-.11,0c-.17,0-.33-.06-.3-.16s.15-.14.27-.15a1.34,1.34,0,0,1,.35,0,3.37,3.37,0,0,1,.38.13,2.21,2.21,0,0,0-.32.06Z"/><path class="cls-14" d="M36.74,65c-.36,0-.75-.07-.84-.26s.08-.31.31-.4a1.15,1.15,0,0,1,.73,0,1.16,1.16,0,0,1,.33.2l.32.26c.09.07.32.15.3.25a.34.34,0,0,1-.2,0,3.16,3.16,0,0,0-.32,0Z"/><path class="cls-16" d="M36.59,64.6h-.11c-.17,0-.28-.11-.21-.2a.4.4,0,0,1,.32-.11.67.67,0,0,1,.29.1,1.81,1.81,0,0,1,.31.18s-.29,0-.32,0Z"/><path class="cls-14" d="M35.6,68.24a1.34,1.34,0,0,1-.94.29c-.24,0-.39-.17-.36-.32s.22-.29.47-.36a2.16,2.16,0,0,1,.51-.07l.59,0a1.87,1.87,0,0,1,.57,0s-.1.06-.17.09a1.48,1.48,0,0,0-.25.14C35.87,68,35.75,68.14,35.6,68.24Z"/><path class="cls-16" d="M35.13,68.11l-.08,0c-.14.07-.37,0-.42,0s0-.15.13-.2a1.5,1.5,0,0,1,.37,0,3.73,3.73,0,0,1,.47,0s-.22.13-.25.14Z"/><path class="cls-14" d="M37,69.38a1,1,0,0,1-.76.44c-.26,0-.5-.08-.55-.22s.06-.3.26-.41a2.36,2.36,0,0,1,.47-.16l.56-.15a1.78,1.78,0,0,1,.55-.14c0,.05-.07.07-.12.11a.72.72,0,0,0-.17.18C37.1,69.14,37,69.27,37,69.38Z"/><path class="cls-16" d="M36.27,69.43l0,.06a.43.43,0,0,1-.43.09.11.11,0,0,1,0-.19c0-.07.2-.11.29-.16a2.83,2.83,0,0,1,.44-.14s-.1.16-.11.18Z"/><path class="cls-12" d="M83.07,70.94c0-.11.41-1.17.27-1.21l0,0a1.07,1.07,0,0,0-.35.41c0,.08-.11.19-.19.15s-.06-.11-.11-.15,0-.12,0-.18c-.68-2.3-3.47-4.31-5.25-6.47a8.38,8.38,0,0,1-.77-1.06,3.43,3.43,0,0,1-.28-.49c-.26-.52-.46-1-.74-1.57a13.59,13.59,0,0,0-3.32-4.46c-3.49-2.86-9-3.65-12.83-2.8a22.32,22.32,0,0,0-6.12,2.28,9.23,9.23,0,0,0-.84.54c-.11.09-.4.45-.56.28a.54.54,0,0,0-.09-.12c-.28-.23-.58.41-.68.58s-.23.35-.33.56l-.29.69a6.85,6.85,0,0,0-.37,1.19c-.12.55-.26,1.09-.35,1.65A6.75,6.75,0,0,0,50,64a11.55,11.55,0,0,0,3.8,4.87,28.45,28.45,0,0,0,9.49,4.73,32.9,32.9,0,0,0,4.41.91c.62.09,1.19.1,1.79.17a46.42,46.42,0,0,0,6,.28,11.69,11.69,0,0,0,4.85-.94,5.22,5.22,0,0,0,1.6-1.11,4.69,4.69,0,0,0,.76-1.1A4.63,4.63,0,0,0,83.07,70.94Z"/><path class="cls-13" d="M64,72a28.31,28.31,0,0,1-9.5-4.73c-2.56-2.08-4.16-4.51-4.12-6.72,0-2.66.78-5.17,3.61-6.76a22.12,22.12,0,0,1,6.12-2.29c3.88-.84,9.34,0,12.84,2.8a13.48,13.48,0,0,1,3.31,4.47c.28.52.48,1,.74,1.57l.28.49a9.16,9.16,0,0,0,.77,1.06C79.84,64,82.64,66,83.32,68.32c.91,3.11-2.72,5-7.16,5a44.78,44.78,0,0,1-6-.27C69.6,73,69,73,68.42,72.89A31.16,31.16,0,0,1,64,72Z"/><path class="cls-14" d="M54,64.32a5.73,5.73,0,0,1-1.29-3.39c.05-2.82,1-4.67,3.07-5.82a19.65,19.65,0,0,1,5.33-2c2.93-.63,7.43-.21,10.42,2.23a7.86,7.86,0,0,1,1.39,1.48,16.84,16.84,0,0,1,1.24,2l.16.29c.14.25.25.5.37.77A9.77,9.77,0,0,0,75.27,61c.11.18.24.37.38.56A21.39,21.39,0,0,0,77.84,64a20.26,20.26,0,0,1,2,2.22,4.93,4.93,0,0,1,.79,1.49c.79,2.68-2.45,4-5.79,4.05-.65,0-1.35,0-2.05-.08L71,71.55c-5.11-.37-11-1.89-14.85-5A12.25,12.25,0,0,1,54,64.32Z"/><path class="cls-13" d="M78.89,67.6a4.35,4.35,0,0,0-1-1.88A8.51,8.51,0,0,0,76,64.17a10.06,10.06,0,0,0-1.32-.63,8.1,8.1,0,0,0-3.16-.63,3.2,3.2,0,0,0-1.74.24,4.62,4.62,0,0,1-1.31.77,17.11,17.11,0,0,1-4.82.94c-1.34.08-3.86-.32-4.21.68-.12.33.12.64.42,1a6,6,0,0,0,1,1,15.16,15.16,0,0,0,2.92,1.52,22.59,22.59,0,0,0,5.45,1.22,35.93,35.93,0,0,0,5.67.47,5.88,5.88,0,0,0,3.54-.86A2.21,2.21,0,0,0,78.89,67.6Z"/><path class="cls-15" d="M63.69,68.2a12.49,12.49,0,0,1-2.36-1.26,2.52,2.52,0,0,1-.55-.58L60.5,66l-.2-.24a8,8,0,0,1,2.18-.13c.46,0,.88,0,1.25,0a18.55,18.55,0,0,0,5.05-1,5.39,5.39,0,0,0,1.43-.83l.08-.06a3.5,3.5,0,0,1,1.18-.08h.07a7.52,7.52,0,0,1,2.89.57l.42.18a7.17,7.17,0,0,1,.79.4,8,8,0,0,1,1.67,1.39,3.5,3.5,0,0,1,.81,1.55c.25,1,0,1.35-.21,1.54s-1,.64-3,.67a38.32,38.32,0,0,1-5.54-.47l-.4-.06a19.65,19.65,0,0,1-4.86-1.11l-.38-.16Z"/><path class="cls-13" d="M70.15,55.74a7.29,7.29,0,0,1,1.73,1.8,3.59,3.59,0,0,1,.52,1.7,1.76,1.76,0,0,1-.26.8,2.56,2.56,0,0,1-1.82,1.19,3.37,3.37,0,0,1-1.79.16A13.71,13.71,0,0,0,66.36,61a23,23,0,0,0-5.36.2c-1.25.21-2.84,1.07-4.49.3a2.08,2.08,0,0,1-1-.93,4.06,4.06,0,0,1-.61-1.08,3.19,3.19,0,0,1,.41-1.89c.47-1,1.79-1.57,2.95-2.16a18.08,18.08,0,0,1,4.16-1.58,8.93,8.93,0,0,1,4.18,0A10,10,0,0,1,70.15,55.74Z"/><path class="cls-15" d="M56.84,60.8a1.35,1.35,0,0,1-.66-.63c-.07-.13-.15-.24-.23-.36a1.7,1.7,0,0,1-.27-.47A2.48,2.48,0,0,1,56,58a5.37,5.37,0,0,1,2.35-1.67l.26-.14a17,17,0,0,1,4-1.51,8,8,0,0,1,3.81,0,7.64,7.64,0,0,1,1,.37,10.14,10.14,0,0,1,2.22,1.36,6.53,6.53,0,0,1,1.54,1.58,2.87,2.87,0,0,1,.42,1.26,1.42,1.42,0,0,1-.17.47c-.18.33-.46.56-1.33.8l-.07,0a2.69,2.69,0,0,1-1.34.14l-.16,0a14.11,14.11,0,0,0-2.13-.37,23.5,23.5,0,0,0-5.55.22,7.8,7.8,0,0,0-1.09.26,4.2,4.2,0,0,1-2.88.12Z"/><path class="cls-8" d="M70.32,68.43a9.94,9.94,0,0,1-2.57-.29A5,5,0,0,1,65.5,67c-.58-.59-.69-1.17-1.5-1.72a3.2,3.2,0,0,0-2.11-.59c-.78.07-1.47.06-2.28.07s-1.42,0-2.15,0a6.75,6.75,0,0,1-2.07-.31c-.3-.11-.56-.32-.57-.5a.31.31,0,0,1,.1-.24,5.29,5.29,0,0,1,2.6-1.1c1-.24,2.07-.54,2.45-1.19a.62.62,0,0,0,.11-.56c-.06-.17-.28-.32-.44-.48a2.43,2.43,0,0,1-.56-.95,1.48,1.48,0,0,1,.78-1.59,8.17,8.17,0,0,1,1.71-.77,12.64,12.64,0,0,1,4.49-.71,4.87,4.87,0,0,1,1.3.16c1,.31,1.6,1.15,1.48,1.75a2,2,0,0,1-.79,1.05c-.43.35-1,.6-1.12,1.08a.47.47,0,0,0,0,.4,1.31,1.31,0,0,0,.61.43,7.32,7.32,0,0,0,3.39.19,23.46,23.46,0,0,0,3.5-.57c.77-.18,2-.49,2-1.16a3.89,3.89,0,0,0,1.16,1.92c.35.35.69.71,1,1.06a6.57,6.57,0,0,1-.76-.21,8.89,8.89,0,0,0-1.24-.2,15.86,15.86,0,0,0-2.46-.11,13.22,13.22,0,0,0-4.22.77c-.6.22-1.43.67-.63,1.28a2.59,2.59,0,0,0,.95.37c1.14.27,2.31.37,3.42.75s2.2,1.18,2,1.83c-.11.4-.67.61-1.23.77l-.4.1A15.76,15.76,0,0,1,70.32,68.43Z"/><path class="cls-16" d="M60.26,63.09c-.12-.37.54-.72.73-1a1.74,1.74,0,0,0,.18-1.63,2.2,2.2,0,0,0-.56-.74.54.54,0,0,1-.17-.67c.21-.45,1.1-.65,1.52-.8a11.36,11.36,0,0,1,4.09-.65,3.62,3.62,0,0,1,1,.11l.17.06a1.08,1.08,0,0,1,.47.37,2.37,2.37,0,0,1-.35.33l-.27.2A2.88,2.88,0,0,0,65.81,60a1.6,1.6,0,0,0,.13,1.38,2.39,2.39,0,0,0,.8.75,5,5,0,0,1,.86.54c.34.39.13.79.19,1.23a2,2,0,0,0,.78,1.22,2.63,2.63,0,0,0,.55.31,3.91,3.91,0,0,0,.85.27c.45.11.89.19,1.31.26s.81.15,1.21.24.74.11.88.44c.22.49-.86.44-1.14.47a13.51,13.51,0,0,1-1.91.1A9.13,9.13,0,0,1,68.05,67a6.06,6.06,0,0,1-.82-.28,2.84,2.84,0,0,1-.88-.56,3.62,3.62,0,0,1-.41-.52,4.3,4.3,0,0,0-1.27-1.35,5.62,5.62,0,0,0-.79-.44,4.28,4.28,0,0,0-2.09-.34,1.9,1.9,0,0,1-1.38-.21A.46.46,0,0,1,60.26,63.09Z"/><path class="cls-14" d="M71.86,64.1c.3,0,.59-.17.53-.39a.74.74,0,0,0-.52-.39.75.75,0,0,0-.63.09.46.46,0,0,0-.15.26c0,.11-.06.21-.1.32s-.16.21-.08.31a.19.19,0,0,0,.16,0,1.49,1.49,0,0,1,.25-.07C71.49,64.14,71.68,64.13,71.86,64.1Z"/><path class="cls-16" d="M72.1,63.89l.08,0c.14,0,.12-.18,0-.26a.46.46,0,0,0-.34,0c-.08,0-.1.12-.13.18a.59.59,0,0,0-.07.26,1.43,1.43,0,0,1,.26-.06Z"/><path class="cls-14" d="M74.29,64.77c.3,0,.59-.18.54-.4A.75.75,0,0,0,74.3,64a.8.8,0,0,0-.63.08.55.55,0,0,0-.14.26c0,.11-.07.22-.1.32s-.17.21-.09.32.11,0,.16,0a1,1,0,0,1,.25-.08Z"/><path class="cls-16" d="M74.51,64.59l.08,0c.14,0,.12-.17,0-.26a.46.46,0,0,0-.34,0c-.08,0-.1.12-.13.17a.64.64,0,0,0-.07.27.91.91,0,0,1,.26-.06Z"/><path class="cls-14" d="M76.35,65.88c.34,0,.69-.07.71-.28s-.17-.33-.41-.42a1,1,0,0,0-.69,0,.65.65,0,0,0-.25.21l-.23.28c-.06.07-.24.16-.2.27a.29.29,0,0,0,.19,0,1.32,1.32,0,0,1,.29,0C76,65.86,76.15,65.88,76.35,65.88Z"/><path class="cls-16" d="M76.75,65.73h.1c.15,0,.17-.15.05-.24a.46.46,0,0,0-.34-.08c-.09,0-.14.1-.19.15a.7.7,0,0,0-.15.23,1.28,1.28,0,0,1,.29,0Z"/><path class="cls-14" d="M77.31,67.53a1.4,1.4,0,0,0,1,.1c.16-.08.15-.27,0-.42a1.17,1.17,0,0,0-.68-.28,2.15,2.15,0,0,0-.45,0l-.5.08c-.13,0-.41,0-.46.09a.37.37,0,0,0,.21.06,2.33,2.33,0,0,1,.32.1Z"/><path class="cls-16" d="M77.82,67.59l.1,0c.17.05.33,0,.32-.11a.34.34,0,0,0-.25-.19,1,1,0,0,0-.34,0,1.6,1.6,0,0,0-.4.06,2.33,2.33,0,0,1,.31.11Z"/><path class="cls-14" d="M76.32,68.71a1.4,1.4,0,0,0,.86.46c.25,0,.43-.1.43-.25s-.16-.32-.38-.44a2.81,2.81,0,0,0-.49-.16l-.58-.15a1.65,1.65,0,0,0-.55-.14s.09.08.15.12l.22.19C76.1,68.46,76.2,68.59,76.32,68.71Z"/><path class="cls-16" d="M77,68.8l0,.07a.45.45,0,0,0,.43.1c.07,0,.07-.13,0-.2a1.38,1.38,0,0,0-.32-.17,2.41,2.41,0,0,0-.45-.16,1,1,0,0,1,.15.2Z"/><path class="cls-14" d="M74.46,69.31a1,1,0,0,0,.67.57.57.57,0,0,0,.59-.12c.08-.12,0-.31-.18-.45a2.19,2.19,0,0,0-.43-.24l-.52-.25a1.46,1.46,0,0,0-.51-.23s0,.08.09.13a.63.63,0,0,1,.13.2A3.2,3.2,0,0,1,74.46,69.31Z"/><path class="cls-16" d="M75.09,69.46a.64.64,0,0,0,0,.07.41.41,0,0,0,.4.17.12.12,0,0,0,.11-.17c0-.07-.17-.14-.25-.21a3.64,3.64,0,0,0-.39-.23s0,.18.06.2S75.07,69.41,75.09,69.46Z"/><path class="cls-14" d="M72.23,69.4a.74.74,0,0,0,.49.62.78.78,0,0,0,.66,0c.14-.1.12-.28,0-.43a1.76,1.76,0,0,0-.36-.29l-.46-.3a1.37,1.37,0,0,0-.45-.28s0,.08.05.13a.8.8,0,0,1,.07.2C72.24,69.16,72.22,69.28,72.23,69.4Z"/><path class="cls-16" d="M72.79,69.63s0,0,0,.06.23.21.37.2.18-.08.15-.16-.14-.15-.22-.22a2.41,2.41,0,0,0-.35-.25s0,.18,0,.2S72.78,69.57,72.79,69.63Z"/><path class="cls-14" d="M67.05,68.91c-.2.13-.34.34-.14.55a.9.9,0,0,0,.67.26.41.41,0,0,0,.43-.25.55.55,0,0,0-.07-.32l-.13-.36c0-.1,0-.26-.15-.35s-.07.06-.09.1a.51.51,0,0,1-.15.14C67.31,68.76,67.17,68.83,67.05,68.91Z"/><path class="cls-16" d="M67.38,69.27l-.06,0c-.08.07,0,.21.19.27a.35.35,0,0,0,.3,0c0-.06,0-.15,0-.22a1.21,1.21,0,0,0-.11-.3s-.15.12-.17.13Z"/><path class="cls-14" d="M69.92,69.28a.47.47,0,0,0,.21.62.94.94,0,0,0,.7.11.26.26,0,0,0,.2-.37,1.12,1.12,0,0,0-.24-.32L70.46,69c-.09-.1-.17-.28-.33-.33s0,.07,0,.12a.36.36,0,0,1,0,.18A3.36,3.36,0,0,1,69.92,69.28Z"/><path class="cls-16" d="M70.43,69.6l0,.06c-.05.08.11.22.28.25a.21.21,0,0,0,.24-.09c0-.07,0-.16-.09-.23a1.48,1.48,0,0,0-.22-.29s-.08.14-.1.16A1,1,0,0,1,70.43,69.6Z"/><path class="cls-14" d="M64.42,67.59c-.33,0-.67.09-.68.3s.19.33.43.42a.93.93,0,0,0,.68,0,.74.74,0,0,0,.24-.22c.06-.1.13-.19.2-.29s.24-.17.18-.27a.35.35,0,0,0-.18,0,.82.82,0,0,1-.28,0Z"/><path class="cls-16" d="M64.52,67.94h-.09c-.14,0-.15.16,0,.25a.46.46,0,0,0,.34.07c.09,0,.12-.11.17-.16a.72.72,0,0,0,.12-.25,1.18,1.18,0,0,1-.28,0Z"/><path class="cls-14" d="M62.92,66.09c-.35-.07-.75-.07-.87.1s0,.32.22.44a1.17,1.17,0,0,0,.72.15,1,1,0,0,0,.37-.14l.36-.19c.1,0,.35-.09.35-.19a.39.39,0,0,0-.21,0l-.32,0Z"/><path class="cls-16" d="M62.69,66.42l-.11,0c-.16,0-.29.06-.23.16a.38.38,0,0,0,.29.16.78.78,0,0,0,.31,0,1.08,1.08,0,0,0,.33-.13s-.28-.06-.32-.06Z"/><path class="cls-14" d="M68.93,60.13a1.52,1.52,0,0,1,1,.23c.18.14.21.33.08.43a.77.77,0,0,1-.65.06,3.19,3.19,0,0,1-.48-.19l-.52-.25c-.14-.07-.42-.14-.49-.25s.13,0,.2,0a1.1,1.1,0,0,0,.31,0Z"/><path class="cls-16" d="M69.43,60.27h.1c.16,0,.34.12.33.22s-.1.12-.22.11a1.52,1.52,0,0,1-.36-.12c-.14-.06-.28-.14-.41-.21a1.5,1.5,0,0,0,.3,0Z"/><path class="cls-14" d="M70.09,59.07a1.53,1.53,0,0,1,1,.22c.18.14.2.33.08.43a.77.77,0,0,1-.65.06,2,2,0,0,1-.48-.19l-.52-.25c-.14-.07-.42-.14-.5-.25a.51.51,0,0,1,.21,0,1.08,1.08,0,0,0,.31,0C69.72,59.11,69.9,59.08,70.09,59.07Z"/><path class="cls-16" d="M70.51,59.17h.1c.16,0,.34.13.33.22s-.1.12-.22.11a1.52,1.52,0,0,1-.36-.12,3.17,3.17,0,0,1-.41-.21,1.5,1.5,0,0,0,.3,0Z"/><path class="cls-14" d="M70.32,57.7a1.4,1.4,0,0,1,1,.09c.21.12.31.31.23.44a.59.59,0,0,1-.56.16,3.18,3.18,0,0,1-.51-.13l-.56-.19a1.81,1.81,0,0,1-.54-.18s.12,0,.19,0a1.35,1.35,0,0,0,.29,0C70,57.8,70.16,57.74,70.32,57.7Z"/><path class="cls-16" d="M70.86,57.74H71a.4.4,0,0,1,.38.19c0,.08-.07.14-.18.14a1.55,1.55,0,0,1-.36-.08,4.13,4.13,0,0,1-.45-.17,2.7,2.7,0,0,0,.28,0Z"/><path class="cls-14" d="M68.88,56.1a.65.65,0,0,1,.69-.29.82.82,0,0,1,.58.36.26.26,0,0,1-.2.37,1.45,1.45,0,0,1-.44.07l-.53,0a1.24,1.24,0,0,1-.51,0c0-.06,0-.07.09-.1a.41.41,0,0,0,.15-.14C68.78,56.32,68.82,56.2,68.88,56.1Z"/><path class="cls-16" d="M69.23,55.94l0,0c.06-.08.29-.06.42,0a.14.14,0,0,1,0,.21.65.65,0,0,1-.29.07,2,2,0,0,1-.43,0s.1-.14.11-.16A1.47,1.47,0,0,0,69.23,55.94Z"/><path class="cls-14" d="M66.43,55.3c-.12-.22-.15-.48.11-.56a.9.9,0,0,1,.7.12.44.44,0,0,1,.27.45.54.54,0,0,1-.19.24L67,55.8c-.07.06-.12.22-.28.23s0-.09,0-.13a.56.56,0,0,0-.06-.21C66.6,55.56,66.5,55.43,66.43,55.3Z"/><path class="cls-16" d="M66.86,55.09l0-.07c-.07-.1.06-.19.23-.17a.44.44,0,0,1,.28.17c0,.08,0,.15,0,.21a.51.51,0,0,1-.16.23s-.12-.17-.14-.2Z"/><path class="cls-14" d="M64.05,55.18c-.22-.21-.39-.47-.21-.62A.86.86,0,0,1,65,55a.48.48,0,0,1,0,.29c0,.11-.07.22-.11.32s0,.26-.12.3-.07-.08-.1-.13a1.27,1.27,0,0,0-.16-.2Z"/><path class="cls-16" d="M64.37,54.92l-.07-.06c-.12-.09-.06-.22.09-.23a.48.48,0,0,1,.33.12c.07.07.06.16.08.23a.65.65,0,0,1,0,.28s-.19-.16-.22-.18Z"/><path class="cls-14" d="M62,55.56c-.27-.18-.52-.44-.42-.62a.56.56,0,0,1,.58-.12.92.92,0,0,1,.58.37.63.63,0,0,1,.08.32l0,.35c0,.09.11.27,0,.33s-.09-.07-.13-.12a1.45,1.45,0,0,0-.23-.19C62.37,55.77,62.19,55.67,62,55.56Z"/><path class="cls-16" d="M62.2,55.26l-.08-.06C62,55.11,62,55,62.17,55a.49.49,0,0,1,.34.1.61.61,0,0,1,.11.23.73.73,0,0,1,0,.29,1.8,1.8,0,0,0-.25-.17Z"/><path class="cls-14" d="M58.32,57.06a1.45,1.45,0,0,1-.89-.44c-.09-.16,0-.32.22-.36a1.09,1.09,0,0,1,.71.13,1.84,1.84,0,0,1,.38.27l.37.34c.1.09.35.23.35.33a.53.53,0,0,1-.2-.07c-.1,0-.22-.06-.32-.09Z"/><path class="cls-16" d="M58.09,56.68l-.1,0c-.17,0-.28-.18-.21-.26a.32.32,0,0,1,.31,0,1.45,1.45,0,0,1,.29.19,2,2,0,0,1,.3.27,1.5,1.5,0,0,0-.32-.07Z"/><path class="cls-14" d="M60.24,56.15c-.33-.14-.67-.36-.67-.57s.2-.25.44-.24a1.19,1.19,0,0,1,.68.27.92.92,0,0,1,.22.32l.2.36c0,.1.23.27.17.35s-.12-.06-.18-.1l-.28-.15C60.63,56.3,60.43,56.23,60.24,56.15Z"/><path class="cls-16" d="M60.24,55.77l-.1,0c-.16-.06-.21-.21-.11-.27a.4.4,0,0,1,.33,0,.78.78,0,0,1,.23.21,1.42,1.42,0,0,1,.21.29s-.27-.1-.3-.12Z"/><path class="cls-14" d="M57.88,58.72a1.46,1.46,0,0,1-1-.11c-.21-.13-.29-.32-.21-.45a.64.64,0,0,1,.58-.14,2.34,2.34,0,0,1,.5.14l.56.2a1.66,1.66,0,0,1,.53.19s-.12,0-.19,0a1.36,1.36,0,0,0-.29,0C58.2,58.63,58.05,58.68,57.88,58.72Z"/><path class="cls-16" d="M57.5,58.41h-.1c-.15,0-.35-.1-.36-.2s.08-.13.2-.13a1.21,1.21,0,0,1,.36.1,3.25,3.25,0,0,1,.43.18,1.5,1.5,0,0,0-.29,0Z"/><path class="cls-14" d="M58.66,60.3a1,1,0,0,1-.88.1c-.25-.09-.42-.27-.42-.42s.18-.26.41-.28a3,3,0,0,1,.5,0l.57.09a1.67,1.67,0,0,1,.55.09s-.08,0-.15.06a.92.92,0,0,0-.23.09C58.88,60.14,58.78,60.23,58.66,60.3Z"/><path class="cls-16" d="M58,60.07l-.06,0a.44.44,0,0,1-.43-.09.12.12,0,0,1,0-.2,1.17,1.17,0,0,1,.33,0,3.57,3.57,0,0,1,.46,0s-.15.11-.18.13Z"/></g></g></g></svg>